<?xml version="1.0" encoding="utf-8" standalone="no"?>
<!DOCTYPE svg PUBLIC "-//W3C//DTD SVG 1.1//EN"
  "http://www.w3.org/Graphics/SVG/1.1/DTD/svg11.dtd">
<!-- Created with matplotlib (http://matplotlib.org/) -->
<svg height="345pt" version="1.1" viewBox="0 0 460 345" width="460pt" xmlns="http://www.w3.org/2000/svg" xmlns:xlink="http://www.w3.org/1999/xlink">
 <defs>
  <style type="text/css">
*{stroke-linecap:butt;stroke-linejoin:round;}
  </style>
 </defs>
 <g id="figure_1">
  <g id="patch_1">
   <path d="M 0 345.6 
L 460.8 345.6 
L 460.8 0 
L 0 0 
z
" style="fill:#ffffff;"/>
  </g>
  <g id="axes_1">
   <g id="patch_2">
    <path d="M 57.6 307.584 
L 414.72 307.584 
L 414.72 41.472 
L 57.6 41.472 
z
" style="fill:#ffffff;"/>
   </g>
   <g id="matplotlib.axis_1">
    <g id="xtick_1">
     <g id="line2d_1">
      <defs>
       <path d="M 0 0 
L 0 3.5 
" id="m4ebba01c70" style="stroke:#000000;stroke-width:0.8;"/>
      </defs>
      <g>
       <use style="stroke:#000000;stroke-width:0.8;" x="57.6" xlink:href="#m4ebba01c70" y="307.584"/>
      </g>
     </g>
     <g id="text_1">
      <!-- 0.0 -->
      <defs>
       <path d="M 31.78125 66.40625 
Q 24.171875 66.40625 20.328125 58.90625 
Q 16.5 51.421875 16.5 36.375 
Q 16.5 21.390625 20.328125 13.890625 
Q 24.171875 6.390625 31.78125 6.390625 
Q 39.453125 6.390625 43.28125 13.890625 
Q 47.125 21.390625 47.125 36.375 
Q 47.125 51.421875 43.28125 58.90625 
Q 39.453125 66.40625 31.78125 66.40625 
M 31.78125 74.21875 
Q 44.046875 74.21875 50.515625 64.515625 
Q 56.984375 54.828125 56.984375 36.375 
Q 56.984375 17.96875 50.515625 8.265625 
Q 44.046875 -1.421875 31.78125 -1.421875 
Q 19.53125 -1.421875 13.0625 8.265625 
Q 6.59375 17.96875 6.59375 36.375 
Q 6.59375 54.828125 13.0625 64.515625 
Q 19.53125 74.21875 31.78125 74.21875 
" id="DejaVuSans-30"/>
       <path d="M 10.6875 12.40625 
L 21 12.40625 
L 21 0 
L 10.6875 0 
z
" id="DejaVuSans-2e"/>
      </defs>
      <g transform="translate(49.648438 322.182437)scale(0.1 -0.1)">
       <use xlink:href="#DejaVuSans-30"/>
       <use x="63.623047" xlink:href="#DejaVuSans-2e"/>
       <use x="95.410156" xlink:href="#DejaVuSans-30"/>
      </g>
     </g>
    </g>
    <g id="xtick_2">
     <g id="line2d_2">
      <g>
       <use style="stroke:#000000;stroke-width:0.8;" x="129.024" xlink:href="#m4ebba01c70" y="307.584"/>
      </g>
     </g>
     <g id="text_2">
      <!-- 0.2 -->
      <defs>
       <path d="M 19.1875 8.296875 
L 53.609375 8.296875 
L 53.609375 0 
L 7.328125 0 
L 7.328125 8.296875 
Q 12.9375 14.109375 22.625 23.890625 
Q 32.328125 33.6875 34.8125 36.53125 
Q 39.546875 41.84375 41.421875 45.53125 
Q 43.3125 49.21875 43.3125 52.78125 
Q 43.3125 58.59375 39.234375 62.25 
Q 35.15625 65.921875 28.609375 65.921875 
Q 23.96875 65.921875 18.8125 64.3125 
Q 13.671875 62.703125 7.8125 59.421875 
L 7.8125 69.390625 
Q 13.765625 71.78125 18.9375 73 
Q 24.125 74.21875 28.421875 74.21875 
Q 39.75 74.21875 46.484375 68.546875 
Q 53.21875 62.890625 53.21875 53.421875 
Q 53.21875 48.921875 51.53125 44.890625 
Q 49.859375 40.875 45.40625 35.40625 
Q 44.1875 33.984375 37.640625 27.21875 
Q 31.109375 20.453125 19.1875 8.296875 
" id="DejaVuSans-32"/>
      </defs>
      <g transform="translate(121.072438 322.182437)scale(0.1 -0.1)">
       <use xlink:href="#DejaVuSans-30"/>
       <use x="63.623047" xlink:href="#DejaVuSans-2e"/>
       <use x="95.410156" xlink:href="#DejaVuSans-32"/>
      </g>
     </g>
    </g>
    <g id="xtick_3">
     <g id="line2d_3">
      <g>
       <use style="stroke:#000000;stroke-width:0.8;" x="200.448" xlink:href="#m4ebba01c70" y="307.584"/>
      </g>
     </g>
     <g id="text_3">
      <!-- 0.4 -->
      <defs>
       <path d="M 37.796875 64.3125 
L 12.890625 25.390625 
L 37.796875 25.390625 
z
M 35.203125 72.90625 
L 47.609375 72.90625 
L 47.609375 25.390625 
L 58.015625 25.390625 
L 58.015625 17.1875 
L 47.609375 17.1875 
L 47.609375 0 
L 37.796875 0 
L 37.796875 17.1875 
L 4.890625 17.1875 
L 4.890625 26.703125 
z
" id="DejaVuSans-34"/>
      </defs>
      <g transform="translate(192.496438 322.182437)scale(0.1 -0.1)">
       <use xlink:href="#DejaVuSans-30"/>
       <use x="63.623047" xlink:href="#DejaVuSans-2e"/>
       <use x="95.410156" xlink:href="#DejaVuSans-34"/>
      </g>
     </g>
    </g>
    <g id="xtick_4">
     <g id="line2d_4">
      <g>
       <use style="stroke:#000000;stroke-width:0.8;" x="271.872" xlink:href="#m4ebba01c70" y="307.584"/>
      </g>
     </g>
     <g id="text_4">
      <!-- 0.6 -->
      <defs>
       <path d="M 33.015625 40.375 
Q 26.375 40.375 22.484375 35.828125 
Q 18.609375 31.296875 18.609375 23.390625 
Q 18.609375 15.53125 22.484375 10.953125 
Q 26.375 6.390625 33.015625 6.390625 
Q 39.65625 6.390625 43.53125 10.953125 
Q 47.40625 15.53125 47.40625 23.390625 
Q 47.40625 31.296875 43.53125 35.828125 
Q 39.65625 40.375 33.015625 40.375 
M 52.59375 71.296875 
L 52.59375 62.3125 
Q 48.875 64.0625 45.09375 64.984375 
Q 41.3125 65.921875 37.59375 65.921875 
Q 27.828125 65.921875 22.671875 59.328125 
Q 17.53125 52.734375 16.796875 39.40625 
Q 19.671875 43.65625 24.015625 45.921875 
Q 28.375 48.1875 33.59375 48.1875 
Q 44.578125 48.1875 50.953125 41.515625 
Q 57.328125 34.859375 57.328125 23.390625 
Q 57.328125 12.15625 50.6875 5.359375 
Q 44.046875 -1.421875 33.015625 -1.421875 
Q 20.359375 -1.421875 13.671875 8.265625 
Q 6.984375 17.96875 6.984375 36.375 
Q 6.984375 53.65625 15.1875 63.9375 
Q 23.390625 74.21875 37.203125 74.21875 
Q 40.921875 74.21875 44.703125 73.484375 
Q 48.484375 72.75 52.59375 71.296875 
" id="DejaVuSans-36"/>
      </defs>
      <g transform="translate(263.920438 322.182437)scale(0.1 -0.1)">
       <use xlink:href="#DejaVuSans-30"/>
       <use x="63.623047" xlink:href="#DejaVuSans-2e"/>
       <use x="95.410156" xlink:href="#DejaVuSans-36"/>
      </g>
     </g>
    </g>
    <g id="xtick_5">
     <g id="line2d_5">
      <g>
       <use style="stroke:#000000;stroke-width:0.8;" x="343.296" xlink:href="#m4ebba01c70" y="307.584"/>
      </g>
     </g>
     <g id="text_5">
      <!-- 0.8 -->
      <defs>
       <path d="M 31.78125 34.625 
Q 24.75 34.625 20.71875 30.859375 
Q 16.703125 27.09375 16.703125 20.515625 
Q 16.703125 13.921875 20.71875 10.15625 
Q 24.75 6.390625 31.78125 6.390625 
Q 38.8125 6.390625 42.859375 10.171875 
Q 46.921875 13.96875 46.921875 20.515625 
Q 46.921875 27.09375 42.890625 30.859375 
Q 38.875 34.625 31.78125 34.625 
M 21.921875 38.8125 
Q 15.578125 40.375 12.03125 44.71875 
Q 8.5 49.078125 8.5 55.328125 
Q 8.5 64.0625 14.71875 69.140625 
Q 20.953125 74.21875 31.78125 74.21875 
Q 42.671875 74.21875 48.875 69.140625 
Q 55.078125 64.0625 55.078125 55.328125 
Q 55.078125 49.078125 51.53125 44.71875 
Q 48 40.375 41.703125 38.8125 
Q 48.828125 37.15625 52.796875 32.3125 
Q 56.78125 27.484375 56.78125 20.515625 
Q 56.78125 9.90625 50.3125 4.234375 
Q 43.84375 -1.421875 31.78125 -1.421875 
Q 19.734375 -1.421875 13.25 4.234375 
Q 6.78125 9.90625 6.78125 20.515625 
Q 6.78125 27.484375 10.78125 32.3125 
Q 14.796875 37.15625 21.921875 38.8125 
M 18.3125 54.390625 
Q 18.3125 48.734375 21.84375 45.5625 
Q 25.390625 42.390625 31.78125 42.390625 
Q 38.140625 42.390625 41.71875 45.5625 
Q 45.3125 48.734375 45.3125 54.390625 
Q 45.3125 60.0625 41.71875 63.234375 
Q 38.140625 66.40625 31.78125 66.40625 
Q 25.390625 66.40625 21.84375 63.234375 
Q 18.3125 60.0625 18.3125 54.390625 
" id="DejaVuSans-38"/>
      </defs>
      <g transform="translate(335.344438 322.182437)scale(0.1 -0.1)">
       <use xlink:href="#DejaVuSans-30"/>
       <use x="63.623047" xlink:href="#DejaVuSans-2e"/>
       <use x="95.410156" xlink:href="#DejaVuSans-38"/>
      </g>
     </g>
    </g>
    <g id="xtick_6">
     <g id="line2d_6">
      <g>
       <use style="stroke:#000000;stroke-width:0.8;" x="414.72" xlink:href="#m4ebba01c70" y="307.584"/>
      </g>
     </g>
     <g id="text_6">
      <!-- 1.0 -->
      <defs>
       <path d="M 12.40625 8.296875 
L 28.515625 8.296875 
L 28.515625 63.921875 
L 10.984375 60.40625 
L 10.984375 69.390625 
L 28.421875 72.90625 
L 38.28125 72.90625 
L 38.28125 8.296875 
L 54.390625 8.296875 
L 54.390625 0 
L 12.40625 0 
z
" id="DejaVuSans-31"/>
      </defs>
      <g transform="translate(406.768438 322.182437)scale(0.1 -0.1)">
       <use xlink:href="#DejaVuSans-31"/>
       <use x="63.623047" xlink:href="#DejaVuSans-2e"/>
       <use x="95.410156" xlink:href="#DejaVuSans-30"/>
      </g>
     </g>
    </g>
    <g id="text_7">
     <!-- Recall -->
     <defs>
      <path d="M 44.390625 34.1875 
Q 47.5625 33.109375 50.5625 29.59375 
Q 53.5625 26.078125 56.59375 19.921875 
L 66.609375 0 
L 56 0 
L 46.6875 18.703125 
Q 43.0625 26.03125 39.671875 28.421875 
Q 36.28125 30.8125 30.421875 30.8125 
L 19.671875 30.8125 
L 19.671875 0 
L 9.8125 0 
L 9.8125 72.90625 
L 32.078125 72.90625 
Q 44.578125 72.90625 50.734375 67.671875 
Q 56.890625 62.453125 56.890625 51.90625 
Q 56.890625 45.015625 53.6875 40.46875 
Q 50.484375 35.9375 44.390625 34.1875 
M 19.671875 64.796875 
L 19.671875 38.921875 
L 32.078125 38.921875 
Q 39.203125 38.921875 42.84375 42.21875 
Q 46.484375 45.515625 46.484375 51.90625 
Q 46.484375 58.296875 42.84375 61.546875 
Q 39.203125 64.796875 32.078125 64.796875 
z
" id="DejaVuSans-52"/>
      <path d="M 56.203125 29.59375 
L 56.203125 25.203125 
L 14.890625 25.203125 
Q 15.484375 15.921875 20.484375 11.0625 
Q 25.484375 6.203125 34.421875 6.203125 
Q 39.59375 6.203125 44.453125 7.46875 
Q 49.3125 8.734375 54.109375 11.28125 
L 54.109375 2.78125 
Q 49.265625 0.734375 44.1875 -0.34375 
Q 39.109375 -1.421875 33.890625 -1.421875 
Q 20.796875 -1.421875 13.15625 6.1875 
Q 5.515625 13.8125 5.515625 26.8125 
Q 5.515625 40.234375 12.765625 48.109375 
Q 20.015625 56 32.328125 56 
Q 43.359375 56 49.78125 48.890625 
Q 56.203125 41.796875 56.203125 29.59375 
M 47.21875 32.234375 
Q 47.125 39.59375 43.09375 43.984375 
Q 39.0625 48.390625 32.421875 48.390625 
Q 24.90625 48.390625 20.390625 44.140625 
Q 15.875 39.890625 15.1875 32.171875 
z
" id="DejaVuSans-65"/>
      <path d="M 48.78125 52.59375 
L 48.78125 44.1875 
Q 44.96875 46.296875 41.140625 47.34375 
Q 37.3125 48.390625 33.40625 48.390625 
Q 24.65625 48.390625 19.8125 42.84375 
Q 14.984375 37.3125 14.984375 27.296875 
Q 14.984375 17.28125 19.8125 11.734375 
Q 24.65625 6.203125 33.40625 6.203125 
Q 37.3125 6.203125 41.140625 7.25 
Q 44.96875 8.296875 48.78125 10.40625 
L 48.78125 2.09375 
Q 45.015625 0.34375 40.984375 -0.53125 
Q 36.96875 -1.421875 32.421875 -1.421875 
Q 20.0625 -1.421875 12.78125 6.34375 
Q 5.515625 14.109375 5.515625 27.296875 
Q 5.515625 40.671875 12.859375 48.328125 
Q 20.21875 56 33.015625 56 
Q 37.15625 56 41.109375 55.140625 
Q 45.0625 54.296875 48.78125 52.59375 
" id="DejaVuSans-63"/>
      <path d="M 34.28125 27.484375 
Q 23.390625 27.484375 19.1875 25 
Q 14.984375 22.515625 14.984375 16.5 
Q 14.984375 11.71875 18.140625 8.90625 
Q 21.296875 6.109375 26.703125 6.109375 
Q 34.1875 6.109375 38.703125 11.40625 
Q 43.21875 16.703125 43.21875 25.484375 
L 43.21875 27.484375 
z
M 52.203125 31.203125 
L 52.203125 0 
L 43.21875 0 
L 43.21875 8.296875 
Q 40.140625 3.328125 35.546875 0.953125 
Q 30.953125 -1.421875 24.3125 -1.421875 
Q 15.921875 -1.421875 10.953125 3.296875 
Q 6 8.015625 6 15.921875 
Q 6 25.140625 12.171875 29.828125 
Q 18.359375 34.515625 30.609375 34.515625 
L 43.21875 34.515625 
L 43.21875 35.40625 
Q 43.21875 41.609375 39.140625 45 
Q 35.0625 48.390625 27.6875 48.390625 
Q 23 48.390625 18.546875 47.265625 
Q 14.109375 46.140625 10.015625 43.890625 
L 10.015625 52.203125 
Q 14.9375 54.109375 19.578125 55.046875 
Q 24.21875 56 28.609375 56 
Q 40.484375 56 46.34375 49.84375 
Q 52.203125 43.703125 52.203125 31.203125 
" id="DejaVuSans-61"/>
      <path d="M 9.421875 75.984375 
L 18.40625 75.984375 
L 18.40625 0 
L 9.421875 0 
z
" id="DejaVuSans-6c"/>
     </defs>
     <g transform="translate(221.020938 335.860562)scale(0.1 -0.1)">
      <use xlink:href="#DejaVuSans-52"/>
      <use x="69.419922" xlink:href="#DejaVuSans-65"/>
      <use x="130.943359" xlink:href="#DejaVuSans-63"/>
      <use x="185.923828" xlink:href="#DejaVuSans-61"/>
      <use x="247.203125" xlink:href="#DejaVuSans-6c"/>
      <use x="274.986328" xlink:href="#DejaVuSans-6c"/>
     </g>
    </g>
   </g>
   <g id="matplotlib.axis_2">
    <g id="ytick_1">
     <g id="line2d_7">
      <defs>
       <path d="M 0 0 
L -3.5 0 
" id="m6cf9cb73bc" style="stroke:#000000;stroke-width:0.8;"/>
      </defs>
      <g>
       <use style="stroke:#000000;stroke-width:0.8;" x="57.6" xlink:href="#m6cf9cb73bc" y="307.584"/>
      </g>
     </g>
     <g id="text_8">
      <!-- 0.0 -->
      <g transform="translate(34.696875 311.383219)scale(0.1 -0.1)">
       <use xlink:href="#DejaVuSans-30"/>
       <use x="63.623047" xlink:href="#DejaVuSans-2e"/>
       <use x="95.410156" xlink:href="#DejaVuSans-30"/>
      </g>
     </g>
    </g>
    <g id="ytick_2">
     <g id="line2d_8">
      <g>
       <use style="stroke:#000000;stroke-width:0.8;" x="57.6" xlink:href="#m6cf9cb73bc" y="256.896"/>
      </g>
     </g>
     <g id="text_9">
      <!-- 0.2 -->
      <g transform="translate(34.696875 260.695219)scale(0.1 -0.1)">
       <use xlink:href="#DejaVuSans-30"/>
       <use x="63.623047" xlink:href="#DejaVuSans-2e"/>
       <use x="95.410156" xlink:href="#DejaVuSans-32"/>
      </g>
     </g>
    </g>
    <g id="ytick_3">
     <g id="line2d_9">
      <g>
       <use style="stroke:#000000;stroke-width:0.8;" x="57.6" xlink:href="#m6cf9cb73bc" y="206.208"/>
      </g>
     </g>
     <g id="text_10">
      <!-- 0.4 -->
      <g transform="translate(34.696875 210.007219)scale(0.1 -0.1)">
       <use xlink:href="#DejaVuSans-30"/>
       <use x="63.623047" xlink:href="#DejaVuSans-2e"/>
       <use x="95.410156" xlink:href="#DejaVuSans-34"/>
      </g>
     </g>
    </g>
    <g id="ytick_4">
     <g id="line2d_10">
      <g>
       <use style="stroke:#000000;stroke-width:0.8;" x="57.6" xlink:href="#m6cf9cb73bc" y="155.52"/>
      </g>
     </g>
     <g id="text_11">
      <!-- 0.6 -->
      <g transform="translate(34.696875 159.319219)scale(0.1 -0.1)">
       <use xlink:href="#DejaVuSans-30"/>
       <use x="63.623047" xlink:href="#DejaVuSans-2e"/>
       <use x="95.410156" xlink:href="#DejaVuSans-36"/>
      </g>
     </g>
    </g>
    <g id="ytick_5">
     <g id="line2d_11">
      <g>
       <use style="stroke:#000000;stroke-width:0.8;" x="57.6" xlink:href="#m6cf9cb73bc" y="104.832"/>
      </g>
     </g>
     <g id="text_12">
      <!-- 0.8 -->
      <g transform="translate(34.696875 108.631219)scale(0.1 -0.1)">
       <use xlink:href="#DejaVuSans-30"/>
       <use x="63.623047" xlink:href="#DejaVuSans-2e"/>
       <use x="95.410156" xlink:href="#DejaVuSans-38"/>
      </g>
     </g>
    </g>
    <g id="ytick_6">
     <g id="line2d_12">
      <g>
       <use style="stroke:#000000;stroke-width:0.8;" x="57.6" xlink:href="#m6cf9cb73bc" y="54.144"/>
      </g>
     </g>
     <g id="text_13">
      <!-- 1.0 -->
      <g transform="translate(34.696875 57.943219)scale(0.1 -0.1)">
       <use xlink:href="#DejaVuSans-31"/>
       <use x="63.623047" xlink:href="#DejaVuSans-2e"/>
       <use x="95.410156" xlink:href="#DejaVuSans-30"/>
      </g>
     </g>
    </g>
    <g id="text_14">
     <!-- Precision -->
     <defs>
      <path d="M 19.671875 64.796875 
L 19.671875 37.40625 
L 32.078125 37.40625 
Q 38.96875 37.40625 42.71875 40.96875 
Q 46.484375 44.53125 46.484375 51.125 
Q 46.484375 57.671875 42.71875 61.234375 
Q 38.96875 64.796875 32.078125 64.796875 
z
M 9.8125 72.90625 
L 32.078125 72.90625 
Q 44.34375 72.90625 50.609375 67.359375 
Q 56.890625 61.8125 56.890625 51.125 
Q 56.890625 40.328125 50.609375 34.8125 
Q 44.34375 29.296875 32.078125 29.296875 
L 19.671875 29.296875 
L 19.671875 0 
L 9.8125 0 
z
" id="DejaVuSans-50"/>
      <path d="M 41.109375 46.296875 
Q 39.59375 47.171875 37.8125 47.578125 
Q 36.03125 48 33.890625 48 
Q 26.265625 48 22.1875 43.046875 
Q 18.109375 38.09375 18.109375 28.8125 
L 18.109375 0 
L 9.078125 0 
L 9.078125 54.6875 
L 18.109375 54.6875 
L 18.109375 46.1875 
Q 20.953125 51.171875 25.484375 53.578125 
Q 30.03125 56 36.53125 56 
Q 37.453125 56 38.578125 55.875 
Q 39.703125 55.765625 41.0625 55.515625 
z
" id="DejaVuSans-72"/>
      <path d="M 9.421875 54.6875 
L 18.40625 54.6875 
L 18.40625 0 
L 9.421875 0 
z
M 9.421875 75.984375 
L 18.40625 75.984375 
L 18.40625 64.59375 
L 9.421875 64.59375 
z
" id="DejaVuSans-69"/>
      <path d="M 44.28125 53.078125 
L 44.28125 44.578125 
Q 40.484375 46.53125 36.375 47.5 
Q 32.28125 48.484375 27.875 48.484375 
Q 21.1875 48.484375 17.84375 46.4375 
Q 14.5 44.390625 14.5 40.28125 
Q 14.5 37.15625 16.890625 35.375 
Q 19.28125 33.59375 26.515625 31.984375 
L 29.59375 31.296875 
Q 39.15625 29.25 43.1875 25.515625 
Q 47.21875 21.78125 47.21875 15.09375 
Q 47.21875 7.46875 41.1875 3.015625 
Q 35.15625 -1.421875 24.609375 -1.421875 
Q 20.21875 -1.421875 15.453125 -0.5625 
Q 10.6875 0.296875 5.421875 2 
L 5.421875 11.28125 
Q 10.40625 8.6875 15.234375 7.390625 
Q 20.0625 6.109375 24.8125 6.109375 
Q 31.15625 6.109375 34.5625 8.28125 
Q 37.984375 10.453125 37.984375 14.40625 
Q 37.984375 18.0625 35.515625 20.015625 
Q 33.0625 21.96875 24.703125 23.78125 
L 21.578125 24.515625 
Q 13.234375 26.265625 9.515625 29.90625 
Q 5.8125 33.546875 5.8125 39.890625 
Q 5.8125 47.609375 11.28125 51.796875 
Q 16.75 56 26.8125 56 
Q 31.78125 56 36.171875 55.265625 
Q 40.578125 54.546875 44.28125 53.078125 
" id="DejaVuSans-73"/>
      <path d="M 30.609375 48.390625 
Q 23.390625 48.390625 19.1875 42.75 
Q 14.984375 37.109375 14.984375 27.296875 
Q 14.984375 17.484375 19.15625 11.84375 
Q 23.34375 6.203125 30.609375 6.203125 
Q 37.796875 6.203125 41.984375 11.859375 
Q 46.1875 17.53125 46.1875 27.296875 
Q 46.1875 37.015625 41.984375 42.703125 
Q 37.796875 48.390625 30.609375 48.390625 
M 30.609375 56 
Q 42.328125 56 49.015625 48.375 
Q 55.71875 40.765625 55.71875 27.296875 
Q 55.71875 13.875 49.015625 6.21875 
Q 42.328125 -1.421875 30.609375 -1.421875 
Q 18.84375 -1.421875 12.171875 6.21875 
Q 5.515625 13.875 5.515625 27.296875 
Q 5.515625 40.765625 12.171875 48.375 
Q 18.84375 56 30.609375 56 
" id="DejaVuSans-6f"/>
      <path d="M 54.890625 33.015625 
L 54.890625 0 
L 45.90625 0 
L 45.90625 32.71875 
Q 45.90625 40.484375 42.875 44.328125 
Q 39.84375 48.1875 33.796875 48.1875 
Q 26.515625 48.1875 22.3125 43.546875 
Q 18.109375 38.921875 18.109375 30.90625 
L 18.109375 0 
L 9.078125 0 
L 9.078125 54.6875 
L 18.109375 54.6875 
L 18.109375 46.1875 
Q 21.34375 51.125 25.703125 53.5625 
Q 30.078125 56 35.796875 56 
Q 45.21875 56 50.046875 50.171875 
Q 54.890625 44.34375 54.890625 33.015625 
" id="DejaVuSans-6e"/>
     </defs>
     <g transform="translate(28.617187 197.032688)rotate(-90)scale(0.1 -0.1)">
      <use xlink:href="#DejaVuSans-50"/>
      <use x="60.287109" xlink:href="#DejaVuSans-72"/>
      <use x="101.369141" xlink:href="#DejaVuSans-65"/>
      <use x="162.892578" xlink:href="#DejaVuSans-63"/>
      <use x="217.873047" xlink:href="#DejaVuSans-69"/>
      <use x="245.65625" xlink:href="#DejaVuSans-73"/>
      <use x="297.755859" xlink:href="#DejaVuSans-69"/>
      <use x="325.539062" xlink:href="#DejaVuSans-6f"/>
      <use x="386.720703" xlink:href="#DejaVuSans-6e"/>
     </g>
    </g>
   </g>
   <g id="line2d_13">
    <path clip-path="url(#p1c5f6241bf)" d="M 414.72 166.105446 
L 412.150791 166.105446 
L 412.150791 166.556903 
L 412.150791 166.556903 
L 412.150791 166.556903 
L 412.150791 163.655111 
L 409.581583 163.655111 
L 409.581583 164.107636 
L 409.581583 164.107636 
L 409.581583 164.107636 
L 409.581583 162.306678 
L 407.012374 162.306678 
L 407.012374 162.761143 
L 407.012374 162.761143 
L 407.012374 162.761143 
L 407.012374 162.150076 
L 404.443165 162.150076 
L 404.443165 162.607729 
L 404.443165 162.607729 
L 404.443165 162.607729 
L 404.443165 159.469714 
L 401.873957 159.469714 
L 401.873957 159.927652 
L 401.873957 159.927652 
L 401.873957 159.927652 
L 401.873957 155.972571 
L 399.304748 155.972571 
L 399.304748 156.429202 
L 399.304748 156.429202 
L 399.304748 156.429202 
L 399.304748 155.748324 
L 396.73554 155.748324 
L 396.73554 156.208072 
L 396.73554 156.208072 
L 396.73554 156.208072 
L 396.73554 145.970087 
L 394.166331 145.970087 
L 394.166331 146.415845 
L 394.166331 146.415845 
L 394.166331 146.415845 
L 394.166331 145.629659 
L 391.597122 145.629659 
L 391.597122 146.078118 
L 391.597122 146.078118 
L 391.597122 146.078118 
L 391.597122 144.47905 
L 389.027914 144.47905 
L 389.027914 144.928478 
L 389.027914 144.928478 
L 389.027914 144.928478 
L 389.027914 142.464 
L 386.458705 142.464 
L 386.458705 142.912325 
L 386.458705 142.912325 
L 386.458705 142.912325 
L 386.458705 139.49944 
L 381.320288 139.49944 
L 381.320288 140.393215 
L 378.751079 140.393215 
L 378.751079 140.847158 
L 378.751079 140.847158 
L 378.751079 140.847158 
L 378.751079 133.518066 
L 376.181871 133.518066 
L 376.181871 133.956597 
L 373.612662 133.956597 
L 373.612662 134.4 
L 373.612662 134.4 
L 373.612662 134.4 
L 373.612662 131.464678 
L 371.043453 131.464678 
L 371.043453 131.904 
L 371.043453 131.904 
L 371.043453 131.904 
L 371.043453 130.900114 
L 368.474245 130.900114 
L 368.474245 131.341241 
L 368.474245 131.341241 
L 368.474245 131.341241 
L 368.474245 129.291907 
L 365.905036 129.291907 
L 365.905036 129.731368 
L 365.905036 129.731368 
L 365.905036 129.731368 
L 365.905036 124.374361 
L 363.335827 124.374361 
L 363.335827 124.8 
L 363.335827 124.8 
L 363.335827 124.8 
L 363.335827 121.415111 
L 360.766619 121.415111 
L 360.766619 121.832944 
L 360.766619 121.832944 
L 360.766619 121.832944 
L 360.766619 119.496453 
L 358.19741 119.496453 
L 358.19741 119.910076 
L 355.628201 119.910076 
L 355.628201 120.328968 
L 355.628201 120.328968 
L 355.628201 120.328968 
L 355.628201 119.128615 
L 353.058993 119.128615 
L 353.058993 119.547871 
L 350.489784 119.547871 
L 350.489784 119.972571 
L 347.920576 119.972571 
L 347.920576 120.402824 
L 347.920576 120.402824 
L 347.920576 120.402824 
L 347.920576 119.171368 
L 345.351367 119.171368 
L 345.351367 119.602013 
L 345.351367 119.602013 
L 345.351367 119.602013 
L 345.351367 118.3488 
L 342.782158 118.3488 
L 342.782158 118.779705 
L 340.21295 118.779705 
L 340.21295 119.216432 
L 337.643741 119.216432 
L 337.643741 119.659102 
L 337.643741 119.659102 
L 337.643741 119.659102 
L 337.643741 117.067034 
L 335.074532 117.067034 
L 335.074532 117.504 
L 332.505324 117.504 
L 332.505324 117.947077 
L 332.505324 117.947077 
L 332.505324 117.947077 
L 332.505324 116.611606 
L 329.936115 116.611606 
L 329.936115 117.054638 
L 327.366906 117.054638 
L 327.366906 117.504 
L 324.797698 117.504 
L 324.797698 117.959827 
L 322.228489 117.959827 
L 322.228489 118.422261 
L 319.659281 118.422261 
L 319.659281 118.891445 
L 317.090072 118.891445 
L 317.090072 119.367529 
L 317.090072 119.367529 
L 317.090072 119.367529 
L 317.090072 116.558328 
L 314.520863 116.558328 
L 314.520863 117.027609 
L 314.520863 117.027609 
L 314.520863 117.027609 
L 314.520863 112.630154 
L 311.951655 112.630154 
L 311.951655 113.083535 
L 309.382446 113.083535 
L 309.382446 113.544 
L 309.382446 113.544 
L 309.382446 113.544 
L 309.382446 112.016126 
L 306.813237 112.016126 
L 306.813237 112.475429 
L 304.244029 112.475429 
L 304.244029 112.94208 
L 301.67482 112.94208 
L 301.67482 113.416258 
L 299.105612 113.416258 
L 299.105612 113.898146 
L 296.536403 113.898146 
L 296.536403 114.387934 
L 296.536403 114.387934 
L 296.536403 114.387934 
L 296.536403 111.168 
L 293.967194 111.168 
L 293.967194 111.647193 
L 293.967194 111.647193 
L 293.967194 111.647193 
L 293.967194 108.297846 
L 291.397986 108.297846 
L 291.397986 108.76469 
L 291.397986 108.76469 
L 291.397986 108.76469 
L 291.397986 107.035826 
L 288.828777 107.035826 
L 288.828777 107.499789 
L 286.259568 107.499789 
L 286.259568 107.971965 
L 283.69036 107.971965 
L 283.69036 108.452571 
L 283.69036 108.452571 
L 283.69036 108.452571 
L 283.69036 106.658595 
L 281.121151 106.658595 
L 281.121151 107.136 
L 278.551942 107.136 
L 278.551942 107.622165 
L 278.551942 107.622165 
L 278.551942 107.622165 
L 278.551942 105.770667 
L 275.982734 105.770667 
L 275.982734 106.253159 
L 273.413525 106.253159 
L 273.413525 106.744755 
L 270.844317 106.744755 
L 270.844317 107.245714 
L 268.275108 107.245714 
L 268.275108 107.756308 
L 268.275108 107.756308 
L 268.275108 107.756308 
L 268.275108 103.838118 
L 265.705899 103.838118 
L 265.705899 104.330139 
L 263.136691 104.330139 
L 263.136691 104.832 
L 260.567482 104.832 
L 260.567482 105.344 
L 257.998273 105.344 
L 257.998273 105.866449 
L 255.429065 105.866449 
L 255.429065 106.39967 
L 252.859856 106.39967 
L 252.859856 106.944 
L 250.290647 106.944 
L 250.290647 107.499789 
L 247.721439 107.499789 
L 247.721439 108.067404 
L 245.15223 108.067404 
L 245.15223 108.647226 
L 242.583022 108.647226 
L 242.583022 109.239652 
L 240.013813 109.239652 
L 240.013813 109.845099 
L 237.444604 109.845099 
L 237.444604 110.464 
L 234.875396 110.464 
L 234.875396 111.096809 
L 232.306187 111.096809 
L 232.306187 111.744 
L 229.736978 111.744 
L 229.736978 112.406069 
L 227.16777 112.406069 
L 227.16777 113.083535 
L 224.598561 113.083535 
L 224.598561 113.776941 
L 222.029353 113.776941 
L 222.029353 114.486857 
L 222.029353 114.486857 
L 222.029353 114.486857 
L 222.029353 107.335111 
L 219.460144 107.335111 
L 219.460144 108 
L 216.890935 108 
L 216.890935 108.681722 
L 214.321727 108.681722 
L 214.321727 109.380923 
L 211.752518 109.380923 
L 211.752518 110.098286 
L 209.183309 110.098286 
L 209.183309 110.834526 
L 209.183309 110.834526 
L 209.183309 110.834526 
L 209.183309 108.2112 
L 206.614101 108.2112 
L 206.614101 108.941838 
L 204.044892 108.941838 
L 204.044892 109.692493 
L 201.475683 109.692493 
L 201.475683 110.464 
L 198.906475 110.464 
L 198.906475 111.257239 
L 196.337266 111.257239 
L 196.337266 112.073143 
L 193.768058 112.073143 
L 193.768058 112.912696 
L 188.62964 112.912696 
L 188.62964 114.666985 
L 186.060432 114.666985 
L 186.060432 115.584 
L 183.491223 115.584 
L 183.491223 116.529231 
L 180.922014 116.529231 
L 180.922014 117.504 
L 180.922014 117.504 
L 180.922014 117.504 
L 180.922014 114.486857 
L 178.352806 114.486857 
L 178.352806 115.460129 
L 178.352806 115.460129 
L 178.352806 115.460129 
L 178.352806 112.310557 
L 175.783597 112.310557 
L 175.783597 113.28 
L 173.214388 113.28 
L 173.214388 114.282305 
L 170.64518 114.282305 
L 170.64518 115.319172 
L 170.64518 115.319172 
L 170.64518 115.319172 
L 170.64518 108.452571 
L 168.075971 108.452571 
L 168.075971 109.44 
L 165.506763 109.44 
L 165.506763 110.464 
L 162.937554 110.464 
L 162.937554 111.526642 
L 162.937554 111.526642 
L 162.937554 111.526642 
L 162.937554 107.756308 
L 160.368345 107.756308 
L 160.368345 108.807529 
L 157.799137 108.807529 
L 157.799137 109.9008 
L 155.229928 109.9008 
L 155.229928 111.038694 
L 152.660719 111.038694 
L 152.660719 112.224 
L 150.091511 112.224 
L 150.091511 113.459745 
L 147.522302 113.459745 
L 147.522302 114.749217 
L 147.522302 114.749217 
L 147.522302 114.749217 
L 147.522302 110.464 
L 144.953094 110.464 
L 144.953094 111.744 
L 142.383885 111.744 
L 142.383885 113.083535 
L 139.814676 113.083535 
L 139.814676 114.486857 
L 137.245468 114.486857 
L 137.245468 115.958634 
L 137.245468 115.958634 
L 137.245468 115.958634 
L 137.245468 111.168 
L 134.676259 111.168 
L 134.676259 112.630154 
L 132.10705 112.630154 
L 132.10705 114.169263 
L 129.537842 114.169263 
L 129.537842 115.791568 
L 126.968633 115.791568 
L 126.968633 117.504 
L 126.968633 117.504 
L 126.968633 117.504 
L 126.968633 112.073143 
L 124.399424 112.073143 
L 124.399424 113.776941 
L 121.830216 113.776941 
L 121.830216 115.584 
L 119.261007 115.584 
L 119.261007 117.504 
L 116.691799 117.504 
L 116.691799 119.547871 
L 114.12259 119.547871 
L 114.12259 121.728 
L 111.553381 121.728 
L 111.553381 124.058483 
L 108.984173 124.058483 
L 108.984173 126.555429 
L 103.845755 126.555429 
L 103.845755 132.125538 
L 101.276547 132.125538 
L 101.276547 135.2448 
L 98.707338 135.2448 
L 98.707338 138.624 
L 96.138129 138.624 
L 96.138129 142.297043 
L 96.138129 142.297043 
L 96.138129 142.297043 
L 96.138129 134.784 
L 93.568921 134.784 
L 93.568921 138.624 
L 93.568921 138.624 
L 93.568921 138.624 
L 93.568921 130.176 
L 90.999712 130.176 
L 90.999712 134.177684 
L 88.430504 134.177684 
L 88.430504 138.624 
L 88.430504 138.624 
L 88.430504 138.624 
L 88.430504 117.504 
L 85.861295 117.504 
L 85.861295 121.728 
L 85.861295 121.728 
L 85.861295 121.728 
L 85.861295 108.452571 
L 83.292086 108.452571 
L 83.292086 112.630154 
L 80.722878 112.630154 
L 80.722878 117.504 
L 80.722878 117.504 
L 80.722878 117.504 
L 80.722878 100.224 
L 78.153669 100.224 
L 78.153669 104.832 
L 75.58446 104.832 
L 75.58446 110.464 
L 73.015252 110.464 
L 73.015252 117.504 
L 70.446043 117.504 
L 70.446043 126.555429 
L 67.876835 126.555429 
L 67.876835 138.624 
L 65.307626 138.624 
L 65.307626 155.52 
L 65.307626 155.52 
L 65.307626 155.52 
L 65.307626 117.504 
L 62.738417 117.504 
L 62.738417 138.624 
L 60.169209 138.624 
L 60.169209 180.864 
L 57.6 180.864 
L 57.6 307.584 
L 57.6 307.584 
L 57.6 307.584 
L 57.6 54.144 
L 57.6 54.144 
" style="fill:none;stroke:#ff0000;stroke-linecap:square;stroke-width:1.5;"/>
   </g>
   <g id="line2d_14">
    <path clip-path="url(#p1c5f6241bf)" d="M 414.72 168.342261 
L 407.012374 168.342261 
L 407.012374 158.372571 
L 386.458705 158.372571 
L 386.458705 144.567317 
L 319.659281 144.567317 
L 319.659281 129.302069 
L 198.906475 129.302069 
L 198.906475 119.216432 
L 121.830216 119.216432 
L 121.830216 96.384 
L 57.6 96.384 
L 57.6 54.144 
" style="fill:none;stroke:#008000;stroke-linecap:square;stroke-width:1.5;"/>
   </g>
   <g id="line2d_15">
    <path clip-path="url(#p1c5f6241bf)" d="M 414.72 165.534968 
L 412.150791 165.534968 
L 412.150791 165.985943 
L 412.150791 165.985943 
L 412.150791 165.985943 
L 412.150791 164.830041 
L 409.581583 164.830041 
L 409.581583 165.283672 
L 407.012374 165.283672 
L 407.012374 165.741037 
L 404.443165 165.741037 
L 404.443165 166.202182 
L 401.873957 166.202182 
L 401.873957 166.667154 
L 399.304748 166.667154 
L 399.304748 167.136 
L 399.304748 167.136 
L 399.304748 167.136 
L 399.304748 165.955765 
L 396.73554 165.955765 
L 396.73554 166.427544 
L 394.166331 166.427544 
L 394.166331 166.903322 
L 394.166331 166.903322 
L 394.166331 166.903322 
L 394.166331 165.700923 
L 391.597122 165.700923 
L 391.597122 166.179708 
L 391.597122 166.179708 
L 391.597122 166.179708 
L 391.597122 165.570207 
L 389.027914 165.570207 
L 389.027914 166.052571 
L 389.027914 166.052571 
L 389.027914 166.052571 
L 389.027914 164.190316 
L 386.458705 164.190316 
L 386.458705 164.675101 
L 383.889496 164.675101 
L 383.889496 165.164177 
L 381.320288 165.164177 
L 381.320288 165.6576 
L 381.320288 165.6576 
L 381.320288 165.6576 
L 381.320288 164.384717 
L 378.751079 164.384717 
L 378.751079 164.881297 
L 376.181871 164.881297 
L 376.181871 165.382371 
L 376.181871 165.382371 
L 376.181871 165.382371 
L 376.181871 164.736 
L 373.612662 164.736 
L 373.612662 165.240986 
L 373.612662 165.240986 
L 373.612662 165.240986 
L 373.612662 164.588037 
L 371.043453 164.588037 
L 371.043453 165.096995 
L 371.043453 165.096995 
L 371.043453 165.096995 
L 371.043453 164.437333 
L 368.474245 164.437333 
L 368.474245 164.950326 
L 365.905036 164.950326 
L 365.905036 165.468112 
L 365.905036 165.468112 
L 365.905036 165.468112 
L 365.905036 164.127396 
L 363.335827 164.127396 
L 363.335827 164.648645 
L 363.335827 164.648645 
L 363.335827 164.648645 
L 363.335827 163.280842 
L 360.766619 163.280842 
L 360.766619 163.805538 
L 358.19741 163.805538 
L 358.19741 164.335304 
L 358.19741 164.335304 
L 358.19741 164.335304 
L 358.19741 162.937756 
L 355.628201 162.937756 
L 355.628201 163.471059 
L 350.489784 163.471059 
L 350.489784 164.553505 
L 347.920576 164.553505 
L 347.920576 165.102806 
L 345.351367 165.102806 
L 345.351367 165.6576 
L 342.782158 165.6576 
L 342.782158 166.21797 
L 340.21295 166.21797 
L 340.21295 166.784 
L 337.643741 166.784 
L 337.643741 167.355777 
L 337.643741 167.355777 
L 337.643741 167.355777 
L 337.643741 166.640327 
L 335.074532 166.640327 
L 335.074532 167.217231 
L 332.505324 167.217231 
L 332.505324 167.800082 
L 332.505324 167.800082 
L 332.505324 167.800082 
L 332.505324 161.787871 
L 329.936115 161.787871 
L 329.936115 162.36973 
L 324.797698 162.36973 
L 324.797698 163.552525 
L 322.228489 163.552525 
L 322.228489 164.15367 
L 319.659281 164.15367 
L 319.659281 164.761459 
L 317.090072 164.761459 
L 317.090072 165.376 
L 317.090072 165.376 
L 317.090072 165.376 
L 317.090072 162.965695 
L 314.520863 162.965695 
L 314.520863 163.584 
L 314.520863 163.584 
L 314.520863 163.584 
L 314.520863 161.08689 
L 311.951655 161.08689 
L 311.951655 161.708651 
L 311.951655 161.708651 
L 311.951655 161.708651 
L 311.951655 160.855579 
L 309.382446 160.855579 
L 309.382446 161.483294 
L 309.382446 161.483294 
L 309.382446 161.483294 
L 309.382446 160.618793 
L 306.813237 160.618793 
L 306.813237 161.252571 
L 304.244029 161.252571 
L 304.244029 161.89394 
L 301.67482 161.89394 
L 301.67482 162.543036 
L 299.105612 162.543036 
L 299.105612 163.2 
L 299.105612 163.2 
L 299.105612 163.2 
L 299.105612 162.31961 
L 296.536403 162.31961 
L 296.536403 162.983264 
L 296.536403 162.983264 
L 296.536403 162.983264 
L 296.536403 162.090667 
L 293.967194 162.090667 
L 293.967194 162.761143 
L 291.397986 162.761143 
L 291.397986 163.44 
L 291.397986 163.44 
L 291.397986 163.44 
L 291.397986 158.790194 
L 288.828777 158.790194 
L 288.828777 159.469714 
L 286.259568 159.469714 
L 286.259568 160.158118 
L 283.69036 160.158118 
L 283.69036 160.855579 
L 281.121151 160.855579 
L 281.121151 161.562278 
L 281.121151 161.562278 
L 281.121151 161.562278 
L 281.121151 160.5888 
L 278.551942 160.5888 
L 278.551942 161.303195 
L 278.551942 161.303195 
L 278.551942 161.303195 
L 278.551942 158.297425 
L 275.982734 158.297425 
L 275.982734 159.015724 
L 273.413525 159.015724 
L 273.413525 159.744 
L 270.844317 159.744 
L 270.844317 160.482462 
L 270.844317 160.482462 
L 270.844317 160.482462 
L 270.844317 156.249324 
L 268.275108 156.249324 
L 268.275108 156.989217 
L 268.275108 156.989217 
L 268.275108 156.989217 
L 268.275108 155.889985 
L 265.705899 155.889985 
L 265.705899 156.638118 
L 265.705899 156.638118 
L 265.705899 156.638118 
L 265.705899 154.385194 
L 263.136691 154.385194 
L 263.136691 155.138887 
L 263.136691 155.138887 
L 263.136691 155.138887 
L 263.136691 153.984 
L 260.567482 153.984 
L 260.567482 154.746137 
L 260.567482 154.746137 
L 260.567482 154.746137 
L 260.567482 153.570462 
L 257.998273 153.570462 
L 257.998273 154.341209 
L 255.429065 154.341209 
L 255.429065 155.124 
L 252.859856 155.124 
L 252.859856 155.919118 
L 250.290647 155.919118 
L 250.290647 156.726857 
L 250.290647 156.726857 
L 250.290647 156.726857 
L 250.290647 151.780721 
L 247.721439 151.780721 
L 247.721439 152.587636 
L 247.721439 152.587636 
L 247.721439 152.587636 
L 247.721439 149.982655 
L 245.15223 149.982655 
L 245.15223 150.794847 
L 245.15223 150.794847 
L 245.15223 150.794847 
L 245.15223 149.454769 
L 240.013813 149.454769 
L 240.013813 151.112348 
L 237.444604 151.112348 
L 237.444604 151.962947 
L 234.875396 151.962947 
L 234.875396 152.828602 
L 234.875396 152.828602 
L 234.875396 152.828602 
L 234.875396 148.608 
L 232.306187 148.608 
L 232.306187 149.474642 
L 229.736978 149.474642 
L 229.736978 150.357333 
L 229.736978 150.357333 
L 229.736978 150.357333 
L 229.736978 148.887925 
L 227.16777 148.887925 
L 227.16777 149.781736 
L 227.16777 149.781736 
L 227.16777 149.781736 
L 227.16777 148.278857 
L 224.598561 148.278857 
L 224.598561 149.184 
L 224.598561 149.184 
L 224.598561 149.184 
L 224.598561 146.078118 
L 222.029353 146.078118 
L 222.029353 146.988356 
L 219.460144 146.988356 
L 219.460144 147.9168 
L 219.460144 147.9168 
L 219.460144 147.9168 
L 219.460144 144.658286 
L 216.890935 144.658286 
L 216.890935 145.591423 
L 214.321727 145.591423 
L 214.321727 146.544 
L 211.752518 146.544 
L 211.752518 147.516632 
L 209.183309 147.516632 
L 209.183309 148.509957 
L 209.183309 148.509957 
L 209.183309 148.509957 
L 209.183309 145.051826 
L 206.614101 145.051826 
L 206.614101 146.050813 
L 206.614101 146.050813 
L 206.614101 146.050813 
L 206.614101 144.256 
L 204.044892 144.256 
L 204.044892 145.268494 
L 201.475683 145.268494 
L 201.475683 146.304 
L 198.906475 146.304 
L 198.906475 147.36331 
L 196.337266 147.36331 
L 196.337266 148.447256 
L 196.337266 148.447256 
L 196.337266 148.447256 
L 196.337266 142.695325 
L 193.768058 142.695325 
L 193.768058 143.77522 
L 191.198849 143.77522 
L 191.198849 144.881778 
L 191.198849 144.881778 
L 191.198849 144.881778 
L 191.198849 142.848 
L 188.62964 142.848 
L 188.62964 143.970835 
L 186.060432 143.970835 
L 186.060432 145.122462 
L 186.060432 145.122462 
L 186.060432 145.122462 
L 186.060432 143.012571 
L 183.491223 143.012571 
L 183.491223 144.181895 
L 183.491223 144.181895 
L 183.491223 144.181895 
L 183.491223 137.46674 
L 180.922014 137.46674 
L 180.922014 138.624 
L 178.352806 138.624 
L 178.352806 139.813859 
L 175.783597 139.813859 
L 175.783597 141.037714 
L 175.783597 141.037714 
L 175.783597 141.037714 
L 175.783597 138.624 
L 173.214388 138.624 
L 173.214388 139.866353 
L 173.214388 139.866353 
L 173.214388 139.866353 
L 173.214388 137.363104 
L 170.64518 137.363104 
L 170.64518 138.624 
L 168.075971 138.624 
L 168.075971 139.923692 
L 165.506763 139.923692 
L 165.506763 141.264 
L 162.937554 141.264 
L 162.937554 142.646857 
L 162.937554 142.646857 
L 162.937554 142.646857 
L 162.937554 139.986581 
L 160.368345 139.986581 
L 160.368345 141.393836 
L 157.799137 141.393836 
L 157.799137 142.848 
L 157.799137 142.848 
L 157.799137 142.848 
L 157.799137 137.167448 
L 155.229928 137.167448 
L 155.229928 138.624 
L 155.229928 138.624 
L 155.229928 138.624 
L 155.229928 132.48 
L 152.660719 132.48 
L 152.660719 133.930667 
L 152.660719 133.930667 
L 152.660719 133.930667 
L 152.660719 127.251692 
L 150.091511 127.251692 
L 150.091511 128.685176 
L 150.091511 128.685176 
L 150.091511 128.685176 
L 150.091511 121.383184 
L 147.522302 121.383184 
L 147.522302 122.784 
L 144.953094 122.784 
L 144.953094 124.244426 
L 144.953094 124.244426 
L 144.953094 124.244426 
L 144.953094 116.096 
L 142.383885 116.096 
L 142.383885 117.504 
L 139.814676 117.504 
L 139.814676 118.977488 
L 137.245468 118.977488 
L 137.245468 120.521143 
L 134.676259 120.521143 
L 134.676259 122.140098 
L 132.10705 122.140098 
L 132.10705 123.84 
L 129.537842 123.84 
L 129.537842 125.627077 
L 126.968633 125.627077 
L 126.968633 127.508211 
L 124.399424 127.508211 
L 124.399424 129.491027 
L 121.830216 129.491027 
L 121.830216 131.584 
L 119.261007 131.584 
L 119.261007 133.796571 
L 116.691799 133.796571 
L 116.691799 136.139294 
L 116.691799 136.139294 
L 116.691799 136.139294 
L 116.691799 125.424 
L 114.12259 125.424 
L 114.12259 127.723355 
L 111.553381 127.723355 
L 111.553381 130.176 
L 108.984173 130.176 
L 108.984173 132.797793 
L 106.414964 132.797793 
L 106.414964 135.606857 
L 103.845755 135.606857 
L 103.845755 138.624 
L 101.276547 138.624 
L 101.276547 141.873231 
L 101.276547 141.873231 
L 101.276547 141.873231 
L 101.276547 135.2448 
L 98.707338 135.2448 
L 98.707338 138.624 
L 98.707338 138.624 
L 98.707338 138.624 
L 98.707338 131.277913 
L 96.138129 131.277913 
L 96.138129 134.784 
L 93.568921 134.784 
L 93.568921 138.624 
L 93.568921 138.624 
L 93.568921 138.624 
L 93.568921 120.838737 
L 90.999712 120.838737 
L 90.999712 124.544 
L 90.999712 124.544 
L 90.999712 124.544 
L 90.999712 113.776941 
L 88.430504 113.776941 
L 88.430504 117.504 
L 85.861295 117.504 
L 85.861295 121.728 
L 83.292086 121.728 
L 83.292086 126.555429 
L 80.722878 126.555429 
L 80.722878 132.125538 
L 78.153669 132.125538 
L 78.153669 138.624 
L 75.58446 138.624 
L 75.58446 146.304 
L 75.58446 146.304 
L 75.58446 146.304 
L 75.58446 85.824 
L 73.015252 85.824 
L 73.015252 90.349714 
L 70.446043 90.349714 
L 70.446043 96.384 
L 67.876835 96.384 
L 67.876835 104.832 
L 65.307626 104.832 
L 65.307626 117.504 
L 62.738417 117.504 
L 62.738417 138.624 
L 62.738417 138.624 
L 62.738417 138.624 
L 62.738417 54.144 
L 57.6 54.144 
L 57.6 54.144 
" style="fill:none;stroke:#0000ff;stroke-linecap:square;stroke-width:1.5;"/>
   </g>
   <g id="line2d_16">
    <path clip-path="url(#p1c5f6241bf)" d="M 414.72 165.534968 
L 412.150791 165.534968 
L 412.150791 165.985943 
L 412.150791 165.985943 
L 412.150791 165.985943 
L 412.150791 161.246259 
L 409.581583 161.246259 
L 409.581583 161.696269 
L 409.581583 161.696269 
L 409.581583 161.696269 
L 409.581583 149.039342 
L 407.012374 149.039342 
L 407.012374 149.474642 
L 407.012374 149.474642 
L 407.012374 149.474642 
L 407.012374 141.072696 
L 404.443165 141.072696 
L 404.443165 141.49468 
L 401.873957 141.49468 
L 401.873957 141.92078 
L 401.873957 141.92078 
L 401.873957 141.92078 
L 401.873957 139.460436 
L 399.304748 139.460436 
L 399.304748 139.884896 
L 399.304748 139.884896 
L 399.304748 139.884896 
L 399.304748 134.724923 
L 396.73554 134.724923 
L 396.73554 135.140289 
L 396.73554 135.140289 
L 396.73554 135.140289 
L 396.73554 133.344 
L 394.166331 133.344 
L 394.166331 133.75866 
L 391.597122 133.75866 
L 391.597122 134.177684 
L 391.597122 134.177684 
L 391.597122 134.177684 
L 391.597122 133.26019 
L 389.027914 133.26019 
L 389.027914 133.681021 
L 389.027914 133.681021 
L 389.027914 133.681021 
L 389.027914 131.811097 
L 386.458705 131.811097 
L 386.458705 132.230919 
L 386.458705 132.230919 
L 386.458705 132.230919 
L 386.458705 131.277913 
L 383.889496 131.277913 
L 383.889496 131.69941 
L 383.889496 131.69941 
L 383.889496 131.69941 
L 383.889496 130.733011 
L 381.320288 130.733011 
L 381.320288 131.156155 
L 381.320288 131.156155 
L 381.320288 131.156155 
L 381.320288 130.176 
L 378.751079 130.176 
L 378.751079 130.60076 
L 376.181871 130.60076 
L 376.181871 131.030292 
L 376.181871 131.030292 
L 376.181871 131.030292 
L 376.181871 128.003657 
L 373.612662 128.003657 
L 373.612662 128.428138 
L 371.043453 128.428138 
L 371.043453 128.857526 
L 371.043453 128.857526 
L 371.043453 128.857526 
L 371.043453 125.703529 
L 368.474245 125.703529 
L 368.474245 126.126959 
L 368.474245 126.126959 
L 368.474245 126.126959 
L 368.474245 122.847614 
L 365.905036 122.847614 
L 365.905036 123.264 
L 363.335827 123.264 
L 363.335827 123.685463 
L 360.766619 123.685463 
L 360.766619 124.112098 
L 360.766619 124.112098 
L 360.766619 124.112098 
L 360.766619 121.832944 
L 358.19741 121.832944 
L 358.19741 122.256 
L 358.19741 122.256 
L 358.19741 122.256 
L 358.19741 119.910076 
L 355.628201 119.910076 
L 355.628201 120.328968 
L 353.058993 120.328968 
L 353.058993 120.753231 
L 353.058993 120.753231 
L 353.058993 120.753231 
L 353.058993 118.326857 
L 350.489784 118.326857 
L 350.489784 118.746353 
L 350.489784 118.746353 
L 350.489784 118.746353 
L 350.489784 117.504 
L 345.351367 117.504 
L 345.351367 118.3488 
L 345.351367 118.3488 
L 345.351367 118.3488 
L 345.351367 117.078765 
L 342.782158 117.078765 
L 342.782158 117.504 
L 340.21295 117.504 
L 340.21295 117.93502 
L 340.21295 117.93502 
L 340.21295 117.93502 
L 340.21295 115.319172 
L 337.643741 115.319172 
L 337.643741 115.744 
L 337.643741 115.744 
L 337.643741 115.744 
L 337.643741 114.402462 
L 335.074532 114.402462 
L 335.074532 112.073143 
L 332.505324 112.073143 
L 332.505324 111.076174 
L 329.936115 111.076174 
L 329.936115 111.491737 
L 327.366906 111.491737 
L 327.366906 111.913412 
L 324.797698 111.913412 
L 324.797698 112.341333 
L 324.797698 112.341333 
L 324.797698 112.341333 
L 324.797698 110.884299 
L 322.228489 110.884299 
L 322.228489 111.310917 
L 322.228489 111.310917 
L 322.228489 111.310917 
L 322.228489 109.824 
L 319.659281 109.824 
L 319.659281 110.249038 
L 317.090072 110.249038 
L 317.090072 110.680615 
L 314.520863 110.680615 
L 314.520863 111.118884 
L 311.951655 111.118884 
L 311.951655 111.564 
L 309.382446 111.564 
L 309.382446 112.016126 
L 306.813237 112.016126 
L 306.813237 112.475429 
L 306.813237 112.475429 
L 306.813237 112.475429 
L 306.813237 110.91456 
L 304.244029 110.91456 
L 304.244029 111.372387 
L 304.244029 111.372387 
L 304.244029 111.372387 
L 304.244029 109.777171 
L 301.67482 109.777171 
L 301.67482 110.23318 
L 299.105612 110.23318 
L 299.105612 110.696727 
L 299.105612 110.696727 
L 299.105612 110.696727 
L 299.105612 107.387697 
L 296.536403 107.387697 
L 296.536403 107.838915 
L 296.536403 107.838915 
L 296.536403 107.838915 
L 296.536403 106.131692 
L 293.967194 106.131692 
L 293.967194 106.579862 
L 291.397986 106.579862 
L 291.397986 107.035826 
L 291.397986 107.035826 
L 291.397986 107.035826 
L 291.397986 105.276632 
L 288.828777 105.276632 
L 288.828777 105.729133 
L 288.828777 105.729133 
L 288.828777 105.729133 
L 288.828777 103.926857 
L 286.259568 103.926857 
L 286.259568 104.375351 
L 283.69036 104.375351 
L 283.69036 104.832 
L 281.121151 104.832 
L 281.121151 105.297028 
L 278.551942 105.297028 
L 278.551942 105.770667 
L 275.982734 105.770667 
L 275.982734 106.253159 
L 273.413525 106.253159 
L 273.413525 106.744755 
L 270.844317 106.744755 
L 270.844317 107.245714 
L 268.275108 107.245714 
L 268.275108 107.756308 
L 265.705899 107.756308 
L 265.705899 108.276816 
L 263.136691 108.276816 
L 263.136691 108.807529 
L 263.136691 108.807529 
L 263.136691 108.807529 
L 263.136691 106.839446 
L 260.567482 106.839446 
L 260.567482 107.3664 
L 257.998273 107.3664 
L 257.998273 107.904 
L 257.998273 107.904 
L 257.998273 107.904 
L 257.998273 105.866449 
L 255.429065 105.866449 
L 255.429065 106.39967 
L 252.859856 106.39967 
L 252.859856 106.944 
L 250.290647 106.944 
L 250.290647 107.499789 
L 247.721439 107.499789 
L 247.721439 108.067404 
L 245.15223 108.067404 
L 245.15223 108.647226 
L 242.583022 108.647226 
L 242.583022 109.239652 
L 242.583022 109.239652 
L 242.583022 109.239652 
L 242.583022 107.060044 
L 240.013813 107.060044 
L 240.013813 107.648 
L 237.444604 107.648 
L 237.444604 108.249169 
L 237.444604 108.249169 
L 237.444604 108.249169 
L 237.444604 103.666759 
L 234.875396 103.666759 
L 234.875396 104.242605 
L 234.875396 104.242605 
L 234.875396 104.242605 
L 234.875396 99.401143 
L 232.306187 99.401143 
L 232.306187 99.94641 
L 229.736978 99.94641 
L 229.736978 100.504976 
L 227.16777 100.504976 
L 227.16777 101.077333 
L 227.16777 101.077333 
L 227.16777 101.077333 
L 227.16777 95.849316 
L 224.598561 95.849316 
L 224.598561 96.384 
L 222.029353 96.384 
L 222.029353 96.932571 
L 219.460144 96.932571 
L 219.460144 97.495579 
L 219.460144 97.495579 
L 219.460144 97.495579 
L 219.460144 88.861808 
L 216.890935 88.861808 
L 216.890935 89.344 
L 214.321727 89.344 
L 214.321727 89.839775 
L 211.752518 89.839775 
L 211.752518 90.349714 
L 209.183309 90.349714 
L 209.183309 90.874435 
L 206.614101 90.874435 
L 206.614101 91.414588 
L 204.044892 91.414588 
L 204.044892 91.970866 
L 201.475683 91.970866 
L 201.475683 92.544 
L 198.906475 92.544 
L 198.906475 93.134769 
L 196.337266 93.134769 
L 196.337266 93.744 
L 196.337266 93.744 
L 196.337266 93.744 
L 196.337266 90.349714 
L 193.768058 90.349714 
L 193.768058 90.933677 
L 191.198849 90.933677 
L 191.198849 91.536787 
L 188.62964 91.536787 
L 188.62964 92.16 
L 188.62964 92.16 
L 188.62964 92.16 
L 188.62964 84.731586 
L 186.060432 84.731586 
L 186.060432 81.298286 
L 183.491223 81.298286 
L 183.491223 81.792 
L 180.922014 81.792 
L 180.922014 82.304 
L 178.352806 82.304 
L 178.352806 82.835321 
L 178.352806 82.835321 
L 178.352806 82.835321 
L 178.352806 78.513231 
L 175.783597 78.513231 
L 175.783597 78.991059 
L 173.214388 78.991059 
L 173.214388 79.488 
L 170.64518 79.488 
L 170.64518 80.005224 
L 168.075971 80.005224 
L 168.075971 80.544 
L 165.506763 80.544 
L 165.506763 81.105702 
L 160.368345 81.105702 
L 160.368345 82.304 
L 157.799137 82.304 
L 157.799137 82.944 
L 152.660719 82.944 
L 152.660719 84.315429 
L 150.091511 84.315429 
L 150.091511 85.051317 
L 150.091511 85.051317 
L 150.091511 85.051317 
L 150.091511 79.488 
L 147.522302 79.488 
L 147.522302 80.137846 
L 142.383885 80.137846 
L 142.383885 81.542919 
L 139.814676 81.542919 
L 139.814676 82.304 
L 139.814676 82.304 
L 139.814676 82.304 
L 139.814676 69.052235 
L 137.245468 69.052235 
L 137.245468 69.504 
L 134.676259 69.504 
L 134.676259 69.984 
L 132.10705 69.984 
L 132.10705 70.494968 
L 132.10705 70.494968 
L 132.10705 70.494968 
L 132.10705 62.592 
L 129.537842 62.592 
L 129.537842 62.88331 
L 126.968633 62.88331 
L 126.968633 63.195429 
L 124.399424 63.195429 
L 124.399424 63.530667 
L 121.830216 63.530667 
L 121.830216 63.891692 
L 119.261007 63.891692 
L 119.261007 64.2816 
L 116.691799 64.2816 
L 116.691799 64.704 
L 114.12259 64.704 
L 114.12259 65.16313 
L 111.553381 65.16313 
L 111.553381 65.664 
L 108.984173 65.664 
L 108.984173 66.212571 
L 106.414964 66.212571 
L 106.414964 66.816 
L 103.845755 66.816 
L 103.845755 67.482947 
L 103.845755 67.482947 
L 103.845755 67.482947 
L 103.845755 54.144 
L 57.6 54.144 
L 57.6 54.144 
" style="fill:none;stroke:#000000;stroke-linecap:square;stroke-width:1.5;"/>
   </g>
   <g id="patch_3">
    <path d="M 57.6 307.584 
L 57.6 41.472 
" style="fill:none;stroke:#000000;stroke-linecap:square;stroke-linejoin:miter;stroke-width:0.8;"/>
   </g>
   <g id="patch_4">
    <path d="M 414.72 307.584 
L 414.72 41.472 
" style="fill:none;stroke:#000000;stroke-linecap:square;stroke-linejoin:miter;stroke-width:0.8;"/>
   </g>
   <g id="patch_5">
    <path d="M 57.6 307.584 
L 414.72 307.584 
" style="fill:none;stroke:#000000;stroke-linecap:square;stroke-linejoin:miter;stroke-width:0.8;"/>
   </g>
   <g id="patch_6">
    <path d="M 57.6 41.472 
L 414.72 41.472 
" style="fill:none;stroke:#000000;stroke-linecap:square;stroke-linejoin:miter;stroke-width:0.8;"/>
   </g>
   <g id="legend_1">
    <g id="patch_7">
     <path d="M 64.6 302.584 
L 199.692188 302.584 
Q 201.692188 302.584 201.692188 300.584 
L 201.692188 242.8715 
Q 201.692188 240.8715 199.692188 240.8715 
L 64.6 240.8715 
Q 62.6 240.8715 62.6 242.8715 
L 62.6 300.584 
Q 62.6 302.584 64.6 302.584 
z
" style="fill:#ffffff;opacity:0.8;stroke:#cccccc;stroke-linejoin:miter;"/>
    </g>
    <g id="line2d_17">
     <path d="M 66.6 248.969937 
L 86.6 248.969937 
" style="fill:none;stroke:#ff0000;stroke-linecap:square;stroke-width:1.5;"/>
    </g>
    <g id="line2d_18"/>
    <g id="text_15">
     <!-- MLPClassifier -->
     <defs>
      <path d="M 9.8125 72.90625 
L 24.515625 72.90625 
L 43.109375 23.296875 
L 61.8125 72.90625 
L 76.515625 72.90625 
L 76.515625 0 
L 66.890625 0 
L 66.890625 64.015625 
L 48.09375 14.015625 
L 38.1875 14.015625 
L 19.390625 64.015625 
L 19.390625 0 
L 9.8125 0 
z
" id="DejaVuSans-4d"/>
      <path d="M 9.8125 72.90625 
L 19.671875 72.90625 
L 19.671875 8.296875 
L 55.171875 8.296875 
L 55.171875 0 
L 9.8125 0 
z
" id="DejaVuSans-4c"/>
      <path d="M 64.40625 67.28125 
L 64.40625 56.890625 
Q 59.421875 61.53125 53.78125 63.8125 
Q 48.140625 66.109375 41.796875 66.109375 
Q 29.296875 66.109375 22.65625 58.46875 
Q 16.015625 50.828125 16.015625 36.375 
Q 16.015625 21.96875 22.65625 14.328125 
Q 29.296875 6.6875 41.796875 6.6875 
Q 48.140625 6.6875 53.78125 8.984375 
Q 59.421875 11.28125 64.40625 15.921875 
L 64.40625 5.609375 
Q 59.234375 2.09375 53.4375 0.328125 
Q 47.65625 -1.421875 41.21875 -1.421875 
Q 24.65625 -1.421875 15.125 8.703125 
Q 5.609375 18.84375 5.609375 36.375 
Q 5.609375 53.953125 15.125 64.078125 
Q 24.65625 74.21875 41.21875 74.21875 
Q 47.75 74.21875 53.53125 72.484375 
Q 59.328125 70.75 64.40625 67.28125 
" id="DejaVuSans-43"/>
      <path d="M 37.109375 75.984375 
L 37.109375 68.5 
L 28.515625 68.5 
Q 23.6875 68.5 21.796875 66.546875 
Q 19.921875 64.59375 19.921875 59.515625 
L 19.921875 54.6875 
L 34.71875 54.6875 
L 34.71875 47.703125 
L 19.921875 47.703125 
L 19.921875 0 
L 10.890625 0 
L 10.890625 47.703125 
L 2.296875 47.703125 
L 2.296875 54.6875 
L 10.890625 54.6875 
L 10.890625 58.5 
Q 10.890625 67.625 15.140625 71.796875 
Q 19.390625 75.984375 28.609375 75.984375 
z
" id="DejaVuSans-66"/>
     </defs>
     <g transform="translate(94.6 252.469937)scale(0.1 -0.1)">
      <use xlink:href="#DejaVuSans-4d"/>
      <use x="86.279297" xlink:href="#DejaVuSans-4c"/>
      <use x="141.992188" xlink:href="#DejaVuSans-50"/>
      <use x="202.294922" xlink:href="#DejaVuSans-43"/>
      <use x="272.119141" xlink:href="#DejaVuSans-6c"/>
      <use x="299.902344" xlink:href="#DejaVuSans-61"/>
      <use x="361.181641" xlink:href="#DejaVuSans-73"/>
      <use x="413.28125" xlink:href="#DejaVuSans-73"/>
      <use x="465.380859" xlink:href="#DejaVuSans-69"/>
      <use x="493.164062" xlink:href="#DejaVuSans-66"/>
      <use x="528.369141" xlink:href="#DejaVuSans-69"/>
      <use x="556.152344" xlink:href="#DejaVuSans-65"/>
      <use x="617.675781" xlink:href="#DejaVuSans-72"/>
     </g>
    </g>
    <g id="line2d_19">
     <path d="M 66.6 263.648062 
L 86.6 263.648062 
" style="fill:none;stroke:#008000;stroke-linecap:square;stroke-width:1.5;"/>
    </g>
    <g id="line2d_20"/>
    <g id="text_16">
     <!-- KNeighborsClassifier -->
     <defs>
      <path d="M 9.8125 72.90625 
L 19.671875 72.90625 
L 19.671875 42.09375 
L 52.390625 72.90625 
L 65.09375 72.90625 
L 28.90625 38.921875 
L 67.671875 0 
L 54.6875 0 
L 19.671875 35.109375 
L 19.671875 0 
L 9.8125 0 
z
" id="DejaVuSans-4b"/>
      <path d="M 9.8125 72.90625 
L 23.09375 72.90625 
L 55.421875 11.921875 
L 55.421875 72.90625 
L 64.984375 72.90625 
L 64.984375 0 
L 51.703125 0 
L 19.390625 60.984375 
L 19.390625 0 
L 9.8125 0 
z
" id="DejaVuSans-4e"/>
      <path d="M 45.40625 27.984375 
Q 45.40625 37.75 41.375 43.109375 
Q 37.359375 48.484375 30.078125 48.484375 
Q 22.859375 48.484375 18.828125 43.109375 
Q 14.796875 37.75 14.796875 27.984375 
Q 14.796875 18.265625 18.828125 12.890625 
Q 22.859375 7.515625 30.078125 7.515625 
Q 37.359375 7.515625 41.375 12.890625 
Q 45.40625 18.265625 45.40625 27.984375 
M 54.390625 6.78125 
Q 54.390625 -7.171875 48.1875 -13.984375 
Q 42 -20.796875 29.203125 -20.796875 
Q 24.46875 -20.796875 20.265625 -20.09375 
Q 16.0625 -19.390625 12.109375 -17.921875 
L 12.109375 -9.1875 
Q 16.0625 -11.328125 19.921875 -12.34375 
Q 23.78125 -13.375 27.78125 -13.375 
Q 36.625 -13.375 41.015625 -8.765625 
Q 45.40625 -4.15625 45.40625 5.171875 
L 45.40625 9.625 
Q 42.625 4.78125 38.28125 2.390625 
Q 33.9375 0 27.875 0 
Q 17.828125 0 11.671875 7.65625 
Q 5.515625 15.328125 5.515625 27.984375 
Q 5.515625 40.671875 11.671875 48.328125 
Q 17.828125 56 27.875 56 
Q 33.9375 56 38.28125 53.609375 
Q 42.625 51.21875 45.40625 46.390625 
L 45.40625 54.6875 
L 54.390625 54.6875 
z
" id="DejaVuSans-67"/>
      <path d="M 54.890625 33.015625 
L 54.890625 0 
L 45.90625 0 
L 45.90625 32.71875 
Q 45.90625 40.484375 42.875 44.328125 
Q 39.84375 48.1875 33.796875 48.1875 
Q 26.515625 48.1875 22.3125 43.546875 
Q 18.109375 38.921875 18.109375 30.90625 
L 18.109375 0 
L 9.078125 0 
L 9.078125 75.984375 
L 18.109375 75.984375 
L 18.109375 46.1875 
Q 21.34375 51.125 25.703125 53.5625 
Q 30.078125 56 35.796875 56 
Q 45.21875 56 50.046875 50.171875 
Q 54.890625 44.34375 54.890625 33.015625 
" id="DejaVuSans-68"/>
      <path d="M 48.6875 27.296875 
Q 48.6875 37.203125 44.609375 42.84375 
Q 40.53125 48.484375 33.40625 48.484375 
Q 26.265625 48.484375 22.1875 42.84375 
Q 18.109375 37.203125 18.109375 27.296875 
Q 18.109375 17.390625 22.1875 11.75 
Q 26.265625 6.109375 33.40625 6.109375 
Q 40.53125 6.109375 44.609375 11.75 
Q 48.6875 17.390625 48.6875 27.296875 
M 18.109375 46.390625 
Q 20.953125 51.265625 25.265625 53.625 
Q 29.59375 56 35.59375 56 
Q 45.5625 56 51.78125 48.09375 
Q 58.015625 40.1875 58.015625 27.296875 
Q 58.015625 14.40625 51.78125 6.484375 
Q 45.5625 -1.421875 35.59375 -1.421875 
Q 29.59375 -1.421875 25.265625 0.953125 
Q 20.953125 3.328125 18.109375 8.203125 
L 18.109375 0 
L 9.078125 0 
L 9.078125 75.984375 
L 18.109375 75.984375 
z
" id="DejaVuSans-62"/>
     </defs>
     <g transform="translate(94.6 267.148062)scale(0.1 -0.1)">
      <use xlink:href="#DejaVuSans-4b"/>
      <use x="65.576172" xlink:href="#DejaVuSans-4e"/>
      <use x="140.380859" xlink:href="#DejaVuSans-65"/>
      <use x="201.904297" xlink:href="#DejaVuSans-69"/>
      <use x="229.6875" xlink:href="#DejaVuSans-67"/>
      <use x="293.164062" xlink:href="#DejaVuSans-68"/>
      <use x="356.542969" xlink:href="#DejaVuSans-62"/>
      <use x="420.019531" xlink:href="#DejaVuSans-6f"/>
      <use x="481.201172" xlink:href="#DejaVuSans-72"/>
      <use x="522.314453" xlink:href="#DejaVuSans-73"/>
      <use x="574.414062" xlink:href="#DejaVuSans-43"/>
      <use x="644.238281" xlink:href="#DejaVuSans-6c"/>
      <use x="672.021484" xlink:href="#DejaVuSans-61"/>
      <use x="733.300781" xlink:href="#DejaVuSans-73"/>
      <use x="785.400391" xlink:href="#DejaVuSans-73"/>
      <use x="837.5" xlink:href="#DejaVuSans-69"/>
      <use x="865.283203" xlink:href="#DejaVuSans-66"/>
      <use x="900.488281" xlink:href="#DejaVuSans-69"/>
      <use x="928.271484" xlink:href="#DejaVuSans-65"/>
      <use x="989.794922" xlink:href="#DejaVuSans-72"/>
     </g>
    </g>
    <g id="line2d_21">
     <path d="M 66.6 278.326187 
L 86.6 278.326187 
" style="fill:none;stroke:#0000ff;stroke-linecap:square;stroke-width:1.5;"/>
    </g>
    <g id="line2d_22"/>
    <g id="text_17">
     <!-- LogisticRegression -->
     <defs>
      <path d="M 18.3125 70.21875 
L 18.3125 54.6875 
L 36.8125 54.6875 
L 36.8125 47.703125 
L 18.3125 47.703125 
L 18.3125 18.015625 
Q 18.3125 11.328125 20.140625 9.421875 
Q 21.96875 7.515625 27.59375 7.515625 
L 36.8125 7.515625 
L 36.8125 0 
L 27.59375 0 
Q 17.1875 0 13.234375 3.875 
Q 9.28125 7.765625 9.28125 18.015625 
L 9.28125 47.703125 
L 2.6875 47.703125 
L 2.6875 54.6875 
L 9.28125 54.6875 
L 9.28125 70.21875 
z
" id="DejaVuSans-74"/>
     </defs>
     <g transform="translate(94.6 281.826187)scale(0.1 -0.1)">
      <use xlink:href="#DejaVuSans-4c"/>
      <use x="55.697266" xlink:href="#DejaVuSans-6f"/>
      <use x="116.878906" xlink:href="#DejaVuSans-67"/>
      <use x="180.355469" xlink:href="#DejaVuSans-69"/>
      <use x="208.138672" xlink:href="#DejaVuSans-73"/>
      <use x="260.238281" xlink:href="#DejaVuSans-74"/>
      <use x="299.447266" xlink:href="#DejaVuSans-69"/>
      <use x="327.230469" xlink:href="#DejaVuSans-63"/>
      <use x="382.210938" xlink:href="#DejaVuSans-52"/>
      <use x="451.630859" xlink:href="#DejaVuSans-65"/>
      <use x="513.154297" xlink:href="#DejaVuSans-67"/>
      <use x="576.630859" xlink:href="#DejaVuSans-72"/>
      <use x="617.712891" xlink:href="#DejaVuSans-65"/>
      <use x="679.236328" xlink:href="#DejaVuSans-73"/>
      <use x="731.335938" xlink:href="#DejaVuSans-73"/>
      <use x="783.435547" xlink:href="#DejaVuSans-69"/>
      <use x="811.21875" xlink:href="#DejaVuSans-6f"/>
      <use x="872.400391" xlink:href="#DejaVuSans-6e"/>
     </g>
    </g>
    <g id="line2d_23">
     <path d="M 66.6 293.004312 
L 86.6 293.004312 
" style="fill:none;stroke:#000000;stroke-linecap:square;stroke-width:1.5;"/>
    </g>
    <g id="line2d_24"/>
    <g id="text_18">
     <!-- XGBClassifier -->
     <defs>
      <path d="M 6.296875 72.90625 
L 16.890625 72.90625 
L 35.015625 45.796875 
L 53.21875 72.90625 
L 63.8125 72.90625 
L 40.375 37.890625 
L 65.375 0 
L 54.78125 0 
L 34.28125 31 
L 13.625 0 
L 2.984375 0 
L 29 38.921875 
z
" id="DejaVuSans-58"/>
      <path d="M 59.515625 10.40625 
L 59.515625 29.984375 
L 43.40625 29.984375 
L 43.40625 38.09375 
L 69.28125 38.09375 
L 69.28125 6.78125 
Q 63.578125 2.734375 56.6875 0.65625 
Q 49.8125 -1.421875 42 -1.421875 
Q 24.90625 -1.421875 15.25 8.5625 
Q 5.609375 18.5625 5.609375 36.375 
Q 5.609375 54.25 15.25 64.234375 
Q 24.90625 74.21875 42 74.21875 
Q 49.125 74.21875 55.546875 72.453125 
Q 61.96875 70.703125 67.390625 67.28125 
L 67.390625 56.78125 
Q 61.921875 61.421875 55.765625 63.765625 
Q 49.609375 66.109375 42.828125 66.109375 
Q 29.4375 66.109375 22.71875 58.640625 
Q 16.015625 51.171875 16.015625 36.375 
Q 16.015625 21.625 22.71875 14.15625 
Q 29.4375 6.6875 42.828125 6.6875 
Q 48.046875 6.6875 52.140625 7.59375 
Q 56.25 8.5 59.515625 10.40625 
" id="DejaVuSans-47"/>
      <path d="M 19.671875 34.8125 
L 19.671875 8.109375 
L 35.5 8.109375 
Q 43.453125 8.109375 47.28125 11.40625 
Q 51.125 14.703125 51.125 21.484375 
Q 51.125 28.328125 47.28125 31.5625 
Q 43.453125 34.8125 35.5 34.8125 
z
M 19.671875 64.796875 
L 19.671875 42.828125 
L 34.28125 42.828125 
Q 41.5 42.828125 45.03125 45.53125 
Q 48.578125 48.25 48.578125 53.8125 
Q 48.578125 59.328125 45.03125 62.0625 
Q 41.5 64.796875 34.28125 64.796875 
z
M 9.8125 72.90625 
L 35.015625 72.90625 
Q 46.296875 72.90625 52.390625 68.21875 
Q 58.5 63.53125 58.5 54.890625 
Q 58.5 48.1875 55.375 44.234375 
Q 52.25 40.28125 46.1875 39.3125 
Q 53.46875 37.75 57.5 32.78125 
Q 61.53125 27.828125 61.53125 20.40625 
Q 61.53125 10.640625 54.890625 5.3125 
Q 48.25 0 35.984375 0 
L 9.8125 0 
z
" id="DejaVuSans-42"/>
     </defs>
     <g transform="translate(94.6 296.504312)scale(0.1 -0.1)">
      <use xlink:href="#DejaVuSans-58"/>
      <use x="68.505859" xlink:href="#DejaVuSans-47"/>
      <use x="145.996094" xlink:href="#DejaVuSans-42"/>
      <use x="214.583984" xlink:href="#DejaVuSans-43"/>
      <use x="284.408203" xlink:href="#DejaVuSans-6c"/>
      <use x="312.191406" xlink:href="#DejaVuSans-61"/>
      <use x="373.470703" xlink:href="#DejaVuSans-73"/>
      <use x="425.570312" xlink:href="#DejaVuSans-73"/>
      <use x="477.669922" xlink:href="#DejaVuSans-69"/>
      <use x="505.453125" xlink:href="#DejaVuSans-66"/>
      <use x="540.658203" xlink:href="#DejaVuSans-69"/>
      <use x="568.441406" xlink:href="#DejaVuSans-65"/>
      <use x="629.964844" xlink:href="#DejaVuSans-72"/>
     </g>
    </g>
   </g>
  </g>
 </g>
 <defs>
  <clipPath id="p1c5f6241bf">
   <rect height="266.112" width="357.12" x="57.6" y="41.472"/>
  </clipPath>
 </defs>
</svg>
