<?xml version="1.0" encoding="utf-8" standalone="no"?>
<!DOCTYPE svg PUBLIC "-//W3C//DTD SVG 1.1//EN"
  "http://www.w3.org/Graphics/SVG/1.1/DTD/svg11.dtd">
<!-- Created with matplotlib (http://matplotlib.org/) -->
<svg height="345pt" version="1.1" viewBox="0 0 460 345" width="460pt" xmlns="http://www.w3.org/2000/svg" xmlns:xlink="http://www.w3.org/1999/xlink">
 <defs>
  <style type="text/css">
*{stroke-linecap:butt;stroke-linejoin:round;}
  </style>
 </defs>
 <g id="figure_1">
  <g id="patch_1">
   <path d="M 0 345.6 
L 460.8 345.6 
L 460.8 0 
L 0 0 
z
" style="fill:#ffffff;"/>
  </g>
  <g id="axes_1">
   <g id="patch_2">
    <path d="M 57.6 307.584 
L 414.72 307.584 
L 414.72 41.472 
L 57.6 41.472 
z
" style="fill:#ffffff;"/>
   </g>
   <g id="matplotlib.axis_1">
    <g id="xtick_1">
     <g id="line2d_1">
      <defs>
       <path d="M 0 0 
L 0 3.5 
" id="m0e2fb980de" style="stroke:#000000;stroke-width:0.8;"/>
      </defs>
      <g>
       <use style="stroke:#000000;stroke-width:0.8;" x="57.6" xlink:href="#m0e2fb980de" y="307.584"/>
      </g>
     </g>
     <g id="text_1">
      <!-- 0.0 -->
      <defs>
       <path d="M 31.78125 66.40625 
Q 24.171875 66.40625 20.328125 58.90625 
Q 16.5 51.421875 16.5 36.375 
Q 16.5 21.390625 20.328125 13.890625 
Q 24.171875 6.390625 31.78125 6.390625 
Q 39.453125 6.390625 43.28125 13.890625 
Q 47.125 21.390625 47.125 36.375 
Q 47.125 51.421875 43.28125 58.90625 
Q 39.453125 66.40625 31.78125 66.40625 
M 31.78125 74.21875 
Q 44.046875 74.21875 50.515625 64.515625 
Q 56.984375 54.828125 56.984375 36.375 
Q 56.984375 17.96875 50.515625 8.265625 
Q 44.046875 -1.421875 31.78125 -1.421875 
Q 19.53125 -1.421875 13.0625 8.265625 
Q 6.59375 17.96875 6.59375 36.375 
Q 6.59375 54.828125 13.0625 64.515625 
Q 19.53125 74.21875 31.78125 74.21875 
" id="DejaVuSans-30"/>
       <path d="M 10.6875 12.40625 
L 21 12.40625 
L 21 0 
L 10.6875 0 
z
" id="DejaVuSans-2e"/>
      </defs>
      <g transform="translate(49.648438 322.182437)scale(0.1 -0.1)">
       <use xlink:href="#DejaVuSans-30"/>
       <use x="63.623047" xlink:href="#DejaVuSans-2e"/>
       <use x="95.410156" xlink:href="#DejaVuSans-30"/>
      </g>
     </g>
    </g>
    <g id="xtick_2">
     <g id="line2d_2">
      <g>
       <use style="stroke:#000000;stroke-width:0.8;" x="129.024" xlink:href="#m0e2fb980de" y="307.584"/>
      </g>
     </g>
     <g id="text_2">
      <!-- 0.2 -->
      <defs>
       <path d="M 19.1875 8.296875 
L 53.609375 8.296875 
L 53.609375 0 
L 7.328125 0 
L 7.328125 8.296875 
Q 12.9375 14.109375 22.625 23.890625 
Q 32.328125 33.6875 34.8125 36.53125 
Q 39.546875 41.84375 41.421875 45.53125 
Q 43.3125 49.21875 43.3125 52.78125 
Q 43.3125 58.59375 39.234375 62.25 
Q 35.15625 65.921875 28.609375 65.921875 
Q 23.96875 65.921875 18.8125 64.3125 
Q 13.671875 62.703125 7.8125 59.421875 
L 7.8125 69.390625 
Q 13.765625 71.78125 18.9375 73 
Q 24.125 74.21875 28.421875 74.21875 
Q 39.75 74.21875 46.484375 68.546875 
Q 53.21875 62.890625 53.21875 53.421875 
Q 53.21875 48.921875 51.53125 44.890625 
Q 49.859375 40.875 45.40625 35.40625 
Q 44.1875 33.984375 37.640625 27.21875 
Q 31.109375 20.453125 19.1875 8.296875 
" id="DejaVuSans-32"/>
      </defs>
      <g transform="translate(121.072438 322.182437)scale(0.1 -0.1)">
       <use xlink:href="#DejaVuSans-30"/>
       <use x="63.623047" xlink:href="#DejaVuSans-2e"/>
       <use x="95.410156" xlink:href="#DejaVuSans-32"/>
      </g>
     </g>
    </g>
    <g id="xtick_3">
     <g id="line2d_3">
      <g>
       <use style="stroke:#000000;stroke-width:0.8;" x="200.448" xlink:href="#m0e2fb980de" y="307.584"/>
      </g>
     </g>
     <g id="text_3">
      <!-- 0.4 -->
      <defs>
       <path d="M 37.796875 64.3125 
L 12.890625 25.390625 
L 37.796875 25.390625 
z
M 35.203125 72.90625 
L 47.609375 72.90625 
L 47.609375 25.390625 
L 58.015625 25.390625 
L 58.015625 17.1875 
L 47.609375 17.1875 
L 47.609375 0 
L 37.796875 0 
L 37.796875 17.1875 
L 4.890625 17.1875 
L 4.890625 26.703125 
z
" id="DejaVuSans-34"/>
      </defs>
      <g transform="translate(192.496438 322.182437)scale(0.1 -0.1)">
       <use xlink:href="#DejaVuSans-30"/>
       <use x="63.623047" xlink:href="#DejaVuSans-2e"/>
       <use x="95.410156" xlink:href="#DejaVuSans-34"/>
      </g>
     </g>
    </g>
    <g id="xtick_4">
     <g id="line2d_4">
      <g>
       <use style="stroke:#000000;stroke-width:0.8;" x="271.872" xlink:href="#m0e2fb980de" y="307.584"/>
      </g>
     </g>
     <g id="text_4">
      <!-- 0.6 -->
      <defs>
       <path d="M 33.015625 40.375 
Q 26.375 40.375 22.484375 35.828125 
Q 18.609375 31.296875 18.609375 23.390625 
Q 18.609375 15.53125 22.484375 10.953125 
Q 26.375 6.390625 33.015625 6.390625 
Q 39.65625 6.390625 43.53125 10.953125 
Q 47.40625 15.53125 47.40625 23.390625 
Q 47.40625 31.296875 43.53125 35.828125 
Q 39.65625 40.375 33.015625 40.375 
M 52.59375 71.296875 
L 52.59375 62.3125 
Q 48.875 64.0625 45.09375 64.984375 
Q 41.3125 65.921875 37.59375 65.921875 
Q 27.828125 65.921875 22.671875 59.328125 
Q 17.53125 52.734375 16.796875 39.40625 
Q 19.671875 43.65625 24.015625 45.921875 
Q 28.375 48.1875 33.59375 48.1875 
Q 44.578125 48.1875 50.953125 41.515625 
Q 57.328125 34.859375 57.328125 23.390625 
Q 57.328125 12.15625 50.6875 5.359375 
Q 44.046875 -1.421875 33.015625 -1.421875 
Q 20.359375 -1.421875 13.671875 8.265625 
Q 6.984375 17.96875 6.984375 36.375 
Q 6.984375 53.65625 15.1875 63.9375 
Q 23.390625 74.21875 37.203125 74.21875 
Q 40.921875 74.21875 44.703125 73.484375 
Q 48.484375 72.75 52.59375 71.296875 
" id="DejaVuSans-36"/>
      </defs>
      <g transform="translate(263.920438 322.182437)scale(0.1 -0.1)">
       <use xlink:href="#DejaVuSans-30"/>
       <use x="63.623047" xlink:href="#DejaVuSans-2e"/>
       <use x="95.410156" xlink:href="#DejaVuSans-36"/>
      </g>
     </g>
    </g>
    <g id="xtick_5">
     <g id="line2d_5">
      <g>
       <use style="stroke:#000000;stroke-width:0.8;" x="343.296" xlink:href="#m0e2fb980de" y="307.584"/>
      </g>
     </g>
     <g id="text_5">
      <!-- 0.8 -->
      <defs>
       <path d="M 31.78125 34.625 
Q 24.75 34.625 20.71875 30.859375 
Q 16.703125 27.09375 16.703125 20.515625 
Q 16.703125 13.921875 20.71875 10.15625 
Q 24.75 6.390625 31.78125 6.390625 
Q 38.8125 6.390625 42.859375 10.171875 
Q 46.921875 13.96875 46.921875 20.515625 
Q 46.921875 27.09375 42.890625 30.859375 
Q 38.875 34.625 31.78125 34.625 
M 21.921875 38.8125 
Q 15.578125 40.375 12.03125 44.71875 
Q 8.5 49.078125 8.5 55.328125 
Q 8.5 64.0625 14.71875 69.140625 
Q 20.953125 74.21875 31.78125 74.21875 
Q 42.671875 74.21875 48.875 69.140625 
Q 55.078125 64.0625 55.078125 55.328125 
Q 55.078125 49.078125 51.53125 44.71875 
Q 48 40.375 41.703125 38.8125 
Q 48.828125 37.15625 52.796875 32.3125 
Q 56.78125 27.484375 56.78125 20.515625 
Q 56.78125 9.90625 50.3125 4.234375 
Q 43.84375 -1.421875 31.78125 -1.421875 
Q 19.734375 -1.421875 13.25 4.234375 
Q 6.78125 9.90625 6.78125 20.515625 
Q 6.78125 27.484375 10.78125 32.3125 
Q 14.796875 37.15625 21.921875 38.8125 
M 18.3125 54.390625 
Q 18.3125 48.734375 21.84375 45.5625 
Q 25.390625 42.390625 31.78125 42.390625 
Q 38.140625 42.390625 41.71875 45.5625 
Q 45.3125 48.734375 45.3125 54.390625 
Q 45.3125 60.0625 41.71875 63.234375 
Q 38.140625 66.40625 31.78125 66.40625 
Q 25.390625 66.40625 21.84375 63.234375 
Q 18.3125 60.0625 18.3125 54.390625 
" id="DejaVuSans-38"/>
      </defs>
      <g transform="translate(335.344438 322.182437)scale(0.1 -0.1)">
       <use xlink:href="#DejaVuSans-30"/>
       <use x="63.623047" xlink:href="#DejaVuSans-2e"/>
       <use x="95.410156" xlink:href="#DejaVuSans-38"/>
      </g>
     </g>
    </g>
    <g id="xtick_6">
     <g id="line2d_6">
      <g>
       <use style="stroke:#000000;stroke-width:0.8;" x="414.72" xlink:href="#m0e2fb980de" y="307.584"/>
      </g>
     </g>
     <g id="text_6">
      <!-- 1.0 -->
      <defs>
       <path d="M 12.40625 8.296875 
L 28.515625 8.296875 
L 28.515625 63.921875 
L 10.984375 60.40625 
L 10.984375 69.390625 
L 28.421875 72.90625 
L 38.28125 72.90625 
L 38.28125 8.296875 
L 54.390625 8.296875 
L 54.390625 0 
L 12.40625 0 
z
" id="DejaVuSans-31"/>
      </defs>
      <g transform="translate(406.768438 322.182437)scale(0.1 -0.1)">
       <use xlink:href="#DejaVuSans-31"/>
       <use x="63.623047" xlink:href="#DejaVuSans-2e"/>
       <use x="95.410156" xlink:href="#DejaVuSans-30"/>
      </g>
     </g>
    </g>
    <g id="text_7">
     <!-- Recall -->
     <defs>
      <path d="M 44.390625 34.1875 
Q 47.5625 33.109375 50.5625 29.59375 
Q 53.5625 26.078125 56.59375 19.921875 
L 66.609375 0 
L 56 0 
L 46.6875 18.703125 
Q 43.0625 26.03125 39.671875 28.421875 
Q 36.28125 30.8125 30.421875 30.8125 
L 19.671875 30.8125 
L 19.671875 0 
L 9.8125 0 
L 9.8125 72.90625 
L 32.078125 72.90625 
Q 44.578125 72.90625 50.734375 67.671875 
Q 56.890625 62.453125 56.890625 51.90625 
Q 56.890625 45.015625 53.6875 40.46875 
Q 50.484375 35.9375 44.390625 34.1875 
M 19.671875 64.796875 
L 19.671875 38.921875 
L 32.078125 38.921875 
Q 39.203125 38.921875 42.84375 42.21875 
Q 46.484375 45.515625 46.484375 51.90625 
Q 46.484375 58.296875 42.84375 61.546875 
Q 39.203125 64.796875 32.078125 64.796875 
z
" id="DejaVuSans-52"/>
      <path d="M 56.203125 29.59375 
L 56.203125 25.203125 
L 14.890625 25.203125 
Q 15.484375 15.921875 20.484375 11.0625 
Q 25.484375 6.203125 34.421875 6.203125 
Q 39.59375 6.203125 44.453125 7.46875 
Q 49.3125 8.734375 54.109375 11.28125 
L 54.109375 2.78125 
Q 49.265625 0.734375 44.1875 -0.34375 
Q 39.109375 -1.421875 33.890625 -1.421875 
Q 20.796875 -1.421875 13.15625 6.1875 
Q 5.515625 13.8125 5.515625 26.8125 
Q 5.515625 40.234375 12.765625 48.109375 
Q 20.015625 56 32.328125 56 
Q 43.359375 56 49.78125 48.890625 
Q 56.203125 41.796875 56.203125 29.59375 
M 47.21875 32.234375 
Q 47.125 39.59375 43.09375 43.984375 
Q 39.0625 48.390625 32.421875 48.390625 
Q 24.90625 48.390625 20.390625 44.140625 
Q 15.875 39.890625 15.1875 32.171875 
z
" id="DejaVuSans-65"/>
      <path d="M 48.78125 52.59375 
L 48.78125 44.1875 
Q 44.96875 46.296875 41.140625 47.34375 
Q 37.3125 48.390625 33.40625 48.390625 
Q 24.65625 48.390625 19.8125 42.84375 
Q 14.984375 37.3125 14.984375 27.296875 
Q 14.984375 17.28125 19.8125 11.734375 
Q 24.65625 6.203125 33.40625 6.203125 
Q 37.3125 6.203125 41.140625 7.25 
Q 44.96875 8.296875 48.78125 10.40625 
L 48.78125 2.09375 
Q 45.015625 0.34375 40.984375 -0.53125 
Q 36.96875 -1.421875 32.421875 -1.421875 
Q 20.0625 -1.421875 12.78125 6.34375 
Q 5.515625 14.109375 5.515625 27.296875 
Q 5.515625 40.671875 12.859375 48.328125 
Q 20.21875 56 33.015625 56 
Q 37.15625 56 41.109375 55.140625 
Q 45.0625 54.296875 48.78125 52.59375 
" id="DejaVuSans-63"/>
      <path d="M 34.28125 27.484375 
Q 23.390625 27.484375 19.1875 25 
Q 14.984375 22.515625 14.984375 16.5 
Q 14.984375 11.71875 18.140625 8.90625 
Q 21.296875 6.109375 26.703125 6.109375 
Q 34.1875 6.109375 38.703125 11.40625 
Q 43.21875 16.703125 43.21875 25.484375 
L 43.21875 27.484375 
z
M 52.203125 31.203125 
L 52.203125 0 
L 43.21875 0 
L 43.21875 8.296875 
Q 40.140625 3.328125 35.546875 0.953125 
Q 30.953125 -1.421875 24.3125 -1.421875 
Q 15.921875 -1.421875 10.953125 3.296875 
Q 6 8.015625 6 15.921875 
Q 6 25.140625 12.171875 29.828125 
Q 18.359375 34.515625 30.609375 34.515625 
L 43.21875 34.515625 
L 43.21875 35.40625 
Q 43.21875 41.609375 39.140625 45 
Q 35.0625 48.390625 27.6875 48.390625 
Q 23 48.390625 18.546875 47.265625 
Q 14.109375 46.140625 10.015625 43.890625 
L 10.015625 52.203125 
Q 14.9375 54.109375 19.578125 55.046875 
Q 24.21875 56 28.609375 56 
Q 40.484375 56 46.34375 49.84375 
Q 52.203125 43.703125 52.203125 31.203125 
" id="DejaVuSans-61"/>
      <path d="M 9.421875 75.984375 
L 18.40625 75.984375 
L 18.40625 0 
L 9.421875 0 
z
" id="DejaVuSans-6c"/>
     </defs>
     <g transform="translate(221.020938 335.860562)scale(0.1 -0.1)">
      <use xlink:href="#DejaVuSans-52"/>
      <use x="69.419922" xlink:href="#DejaVuSans-65"/>
      <use x="130.943359" xlink:href="#DejaVuSans-63"/>
      <use x="185.923828" xlink:href="#DejaVuSans-61"/>
      <use x="247.203125" xlink:href="#DejaVuSans-6c"/>
      <use x="274.986328" xlink:href="#DejaVuSans-6c"/>
     </g>
    </g>
   </g>
   <g id="matplotlib.axis_2">
    <g id="ytick_1">
     <g id="line2d_7">
      <defs>
       <path d="M 0 0 
L -3.5 0 
" id="me0663ccfab" style="stroke:#000000;stroke-width:0.8;"/>
      </defs>
      <g>
       <use style="stroke:#000000;stroke-width:0.8;" x="57.6" xlink:href="#me0663ccfab" y="307.584"/>
      </g>
     </g>
     <g id="text_8">
      <!-- 0.0 -->
      <g transform="translate(34.696875 311.383219)scale(0.1 -0.1)">
       <use xlink:href="#DejaVuSans-30"/>
       <use x="63.623047" xlink:href="#DejaVuSans-2e"/>
       <use x="95.410156" xlink:href="#DejaVuSans-30"/>
      </g>
     </g>
    </g>
    <g id="ytick_2">
     <g id="line2d_8">
      <g>
       <use style="stroke:#000000;stroke-width:0.8;" x="57.6" xlink:href="#me0663ccfab" y="256.896"/>
      </g>
     </g>
     <g id="text_9">
      <!-- 0.2 -->
      <g transform="translate(34.696875 260.695219)scale(0.1 -0.1)">
       <use xlink:href="#DejaVuSans-30"/>
       <use x="63.623047" xlink:href="#DejaVuSans-2e"/>
       <use x="95.410156" xlink:href="#DejaVuSans-32"/>
      </g>
     </g>
    </g>
    <g id="ytick_3">
     <g id="line2d_9">
      <g>
       <use style="stroke:#000000;stroke-width:0.8;" x="57.6" xlink:href="#me0663ccfab" y="206.208"/>
      </g>
     </g>
     <g id="text_10">
      <!-- 0.4 -->
      <g transform="translate(34.696875 210.007219)scale(0.1 -0.1)">
       <use xlink:href="#DejaVuSans-30"/>
       <use x="63.623047" xlink:href="#DejaVuSans-2e"/>
       <use x="95.410156" xlink:href="#DejaVuSans-34"/>
      </g>
     </g>
    </g>
    <g id="ytick_4">
     <g id="line2d_10">
      <g>
       <use style="stroke:#000000;stroke-width:0.8;" x="57.6" xlink:href="#me0663ccfab" y="155.52"/>
      </g>
     </g>
     <g id="text_11">
      <!-- 0.6 -->
      <g transform="translate(34.696875 159.319219)scale(0.1 -0.1)">
       <use xlink:href="#DejaVuSans-30"/>
       <use x="63.623047" xlink:href="#DejaVuSans-2e"/>
       <use x="95.410156" xlink:href="#DejaVuSans-36"/>
      </g>
     </g>
    </g>
    <g id="ytick_5">
     <g id="line2d_11">
      <g>
       <use style="stroke:#000000;stroke-width:0.8;" x="57.6" xlink:href="#me0663ccfab" y="104.832"/>
      </g>
     </g>
     <g id="text_12">
      <!-- 0.8 -->
      <g transform="translate(34.696875 108.631219)scale(0.1 -0.1)">
       <use xlink:href="#DejaVuSans-30"/>
       <use x="63.623047" xlink:href="#DejaVuSans-2e"/>
       <use x="95.410156" xlink:href="#DejaVuSans-38"/>
      </g>
     </g>
    </g>
    <g id="ytick_6">
     <g id="line2d_12">
      <g>
       <use style="stroke:#000000;stroke-width:0.8;" x="57.6" xlink:href="#me0663ccfab" y="54.144"/>
      </g>
     </g>
     <g id="text_13">
      <!-- 1.0 -->
      <g transform="translate(34.696875 57.943219)scale(0.1 -0.1)">
       <use xlink:href="#DejaVuSans-31"/>
       <use x="63.623047" xlink:href="#DejaVuSans-2e"/>
       <use x="95.410156" xlink:href="#DejaVuSans-30"/>
      </g>
     </g>
    </g>
    <g id="text_14">
     <!-- Precision -->
     <defs>
      <path d="M 19.671875 64.796875 
L 19.671875 37.40625 
L 32.078125 37.40625 
Q 38.96875 37.40625 42.71875 40.96875 
Q 46.484375 44.53125 46.484375 51.125 
Q 46.484375 57.671875 42.71875 61.234375 
Q 38.96875 64.796875 32.078125 64.796875 
z
M 9.8125 72.90625 
L 32.078125 72.90625 
Q 44.34375 72.90625 50.609375 67.359375 
Q 56.890625 61.8125 56.890625 51.125 
Q 56.890625 40.328125 50.609375 34.8125 
Q 44.34375 29.296875 32.078125 29.296875 
L 19.671875 29.296875 
L 19.671875 0 
L 9.8125 0 
z
" id="DejaVuSans-50"/>
      <path d="M 41.109375 46.296875 
Q 39.59375 47.171875 37.8125 47.578125 
Q 36.03125 48 33.890625 48 
Q 26.265625 48 22.1875 43.046875 
Q 18.109375 38.09375 18.109375 28.8125 
L 18.109375 0 
L 9.078125 0 
L 9.078125 54.6875 
L 18.109375 54.6875 
L 18.109375 46.1875 
Q 20.953125 51.171875 25.484375 53.578125 
Q 30.03125 56 36.53125 56 
Q 37.453125 56 38.578125 55.875 
Q 39.703125 55.765625 41.0625 55.515625 
z
" id="DejaVuSans-72"/>
      <path d="M 9.421875 54.6875 
L 18.40625 54.6875 
L 18.40625 0 
L 9.421875 0 
z
M 9.421875 75.984375 
L 18.40625 75.984375 
L 18.40625 64.59375 
L 9.421875 64.59375 
z
" id="DejaVuSans-69"/>
      <path d="M 44.28125 53.078125 
L 44.28125 44.578125 
Q 40.484375 46.53125 36.375 47.5 
Q 32.28125 48.484375 27.875 48.484375 
Q 21.1875 48.484375 17.84375 46.4375 
Q 14.5 44.390625 14.5 40.28125 
Q 14.5 37.15625 16.890625 35.375 
Q 19.28125 33.59375 26.515625 31.984375 
L 29.59375 31.296875 
Q 39.15625 29.25 43.1875 25.515625 
Q 47.21875 21.78125 47.21875 15.09375 
Q 47.21875 7.46875 41.1875 3.015625 
Q 35.15625 -1.421875 24.609375 -1.421875 
Q 20.21875 -1.421875 15.453125 -0.5625 
Q 10.6875 0.296875 5.421875 2 
L 5.421875 11.28125 
Q 10.40625 8.6875 15.234375 7.390625 
Q 20.0625 6.109375 24.8125 6.109375 
Q 31.15625 6.109375 34.5625 8.28125 
Q 37.984375 10.453125 37.984375 14.40625 
Q 37.984375 18.0625 35.515625 20.015625 
Q 33.0625 21.96875 24.703125 23.78125 
L 21.578125 24.515625 
Q 13.234375 26.265625 9.515625 29.90625 
Q 5.8125 33.546875 5.8125 39.890625 
Q 5.8125 47.609375 11.28125 51.796875 
Q 16.75 56 26.8125 56 
Q 31.78125 56 36.171875 55.265625 
Q 40.578125 54.546875 44.28125 53.078125 
" id="DejaVuSans-73"/>
      <path d="M 30.609375 48.390625 
Q 23.390625 48.390625 19.1875 42.75 
Q 14.984375 37.109375 14.984375 27.296875 
Q 14.984375 17.484375 19.15625 11.84375 
Q 23.34375 6.203125 30.609375 6.203125 
Q 37.796875 6.203125 41.984375 11.859375 
Q 46.1875 17.53125 46.1875 27.296875 
Q 46.1875 37.015625 41.984375 42.703125 
Q 37.796875 48.390625 30.609375 48.390625 
M 30.609375 56 
Q 42.328125 56 49.015625 48.375 
Q 55.71875 40.765625 55.71875 27.296875 
Q 55.71875 13.875 49.015625 6.21875 
Q 42.328125 -1.421875 30.609375 -1.421875 
Q 18.84375 -1.421875 12.171875 6.21875 
Q 5.515625 13.875 5.515625 27.296875 
Q 5.515625 40.765625 12.171875 48.375 
Q 18.84375 56 30.609375 56 
" id="DejaVuSans-6f"/>
      <path d="M 54.890625 33.015625 
L 54.890625 0 
L 45.90625 0 
L 45.90625 32.71875 
Q 45.90625 40.484375 42.875 44.328125 
Q 39.84375 48.1875 33.796875 48.1875 
Q 26.515625 48.1875 22.3125 43.546875 
Q 18.109375 38.921875 18.109375 30.90625 
L 18.109375 0 
L 9.078125 0 
L 9.078125 54.6875 
L 18.109375 54.6875 
L 18.109375 46.1875 
Q 21.34375 51.125 25.703125 53.5625 
Q 30.078125 56 35.796875 56 
Q 45.21875 56 50.046875 50.171875 
Q 54.890625 44.34375 54.890625 33.015625 
" id="DejaVuSans-6e"/>
     </defs>
     <g transform="translate(28.617187 197.032688)rotate(-90)scale(0.1 -0.1)">
      <use xlink:href="#DejaVuSans-50"/>
      <use x="60.287109" xlink:href="#DejaVuSans-72"/>
      <use x="101.369141" xlink:href="#DejaVuSans-65"/>
      <use x="162.892578" xlink:href="#DejaVuSans-63"/>
      <use x="217.873047" xlink:href="#DejaVuSans-69"/>
      <use x="245.65625" xlink:href="#DejaVuSans-73"/>
      <use x="297.755859" xlink:href="#DejaVuSans-69"/>
      <use x="325.539062" xlink:href="#DejaVuSans-6f"/>
      <use x="386.720703" xlink:href="#DejaVuSans-6e"/>
     </g>
    </g>
   </g>
   <g id="line2d_13">
    <path clip-path="url(#p9edc3df71e)" d="M 414.72 195.818534 
L 412.20507 195.818534 
L 412.20507 196.259888 
L 409.690141 196.259888 
L 409.690141 196.704 
L 409.690141 196.704 
L 409.690141 196.704 
L 409.690141 195.654662 
L 407.175211 195.654662 
L 407.175211 196.102481 
L 407.175211 195.748571 
L 404.660282 195.748571 
L 404.660282 196.199541 
L 404.660282 195.843681 
L 404.660282 195.843681 
L 404.660282 191.388917 
L 402.145352 191.388917 
L 402.145352 191.8464 
L 402.145352 191.459318 
L 402.145352 191.459318 
L 402.145352 189.081338 
L 399.630423 189.081338 
L 399.630423 189.543452 
L 399.630423 189.137814 
L 399.630423 189.137814 
L 399.630423 187.904 
L 397.115493 187.904 
L 397.115493 188.370063 
L 394.600563 188.370063 
L 394.600563 188.839385 
L 394.600563 188.422737 
L 394.600563 188.422737 
L 394.600563 186.726491 
L 392.085634 186.726491 
L 392.085634 187.2 
L 392.085634 186.768516 
L 392.085634 186.768516 
L 392.085634 184.563854 
L 389.570704 184.563854 
L 389.570704 185.041582 
L 389.570704 184.591059 
L 387.055775 184.591059 
L 387.055775 185.072413 
L 387.055775 184.618667 
L 387.055775 184.618667 
L 387.055775 184.161546 
L 384.540845 184.161546 
L 384.540845 184.646687 
L 382.025915 184.646687 
L 382.025915 185.135461 
L 382.025915 184.675128 
L 382.025915 184.675128 
L 382.025915 181.353266 
L 379.510986 181.353266 
L 379.510986 181.846326 
L 379.510986 181.357074 
L 379.510986 181.357074 
L 379.510986 180.367059 
L 376.996056 180.367059 
L 376.996056 180.864 
L 376.996056 180.864 
L 376.996056 180.864 
L 376.996056 178.83648 
L 374.481127 178.83648 
L 374.481127 179.337253 
L 374.481127 179.337253 
L 374.481127 179.337253 
L 374.481127 173.409882 
L 371.966197 173.409882 
L 371.966197 173.913114 
L 369.451268 173.913114 
L 369.451268 174.42061 
L 369.451268 174.42061 
L 369.451268 174.42061 
L 369.451268 173.853957 
L 366.936338 173.853957 
L 366.936338 174.365538 
L 366.936338 174.365538 
L 366.936338 174.365538 
L 366.936338 173.793785 
L 364.421408 173.793785 
L 364.421408 174.309517 
L 364.421408 174.309517 
L 364.421408 174.309517 
L 364.421408 166.398247 
L 361.906479 166.398247 
L 361.906479 162.931925 
L 359.391549 162.931925 
L 359.391549 163.447507 
L 356.87662 163.447507 
L 356.87662 163.968 
L 356.87662 163.968 
L 356.87662 163.968 
L 356.87662 163.280842 
L 354.36169 163.280842 
L 354.36169 163.805538 
L 354.36169 163.805538 
L 354.36169 163.805538 
L 354.36169 161.701463 
L 351.846761 161.701463 
L 351.846761 162.228706 
L 351.846761 162.228706 
L 351.846761 162.228706 
L 351.846761 154.736165 
L 349.331831 154.736165 
L 349.331831 155.257368 
L 349.331831 155.257368 
L 349.331831 155.257368 
L 349.331831 154.464 
L 346.816901 154.464 
L 346.816901 151.725176 
L 344.301972 151.725176 
L 344.301972 152.249806 
L 344.301972 152.249806 
L 344.301972 152.249806 
L 344.301972 144.351458 
L 341.787042 144.351458 
L 341.787042 144.864 
L 341.787042 144.864 
L 341.787042 144.864 
L 341.787042 142.993655 
L 339.272113 142.993655 
L 339.272113 143.507237 
L 339.272113 143.507237 
L 339.272113 143.507237 
L 339.272113 142.553302 
L 336.757183 142.553302 
L 336.757183 143.070316 
L 336.757183 143.070316 
L 336.757183 143.070316 
L 336.757183 141.123408 
L 334.242254 141.123408 
L 334.242254 141.641143 
L 334.242254 141.641143 
L 334.242254 141.641143 
L 334.242254 139.641831 
L 331.727324 139.641831 
L 331.727324 140.16 
L 331.727324 140.16 
L 331.727324 140.16 
L 331.727324 138.105718 
L 329.212394 138.105718 
L 329.212394 138.624 
L 329.212394 138.624 
L 329.212394 138.624 
L 329.212394 137.574559 
L 326.697465 137.574559 
L 326.697465 138.096 
L 324.182535 138.096 
L 324.182535 138.624 
L 321.667606 138.624 
L 321.667606 139.158684 
L 319.152676 139.158684 
L 319.152676 139.700178 
L 319.152676 139.700178 
L 319.152676 139.700178 
L 319.152676 138.624 
L 316.637746 138.624 
L 316.637746 139.169032 
L 314.122817 139.169032 
L 314.122817 139.721143 
L 314.122817 139.721143 
L 314.122817 139.721143 
L 314.122817 138.624 
L 311.607887 138.624 
L 311.607887 135.789101 
L 309.092958 135.789101 
L 309.092958 136.340757 
L 306.578028 136.340757 
L 306.578028 136.899918 
L 306.578028 136.899918 
L 306.578028 136.899918 
L 306.578028 135.730849 
L 304.063099 135.730849 
L 304.063099 136.293517 
L 301.548169 136.293517 
L 301.548169 136.864 
L 299.033239 136.864 
L 299.033239 135.029106 
L 296.51831 135.029106 
L 296.51831 135.606857 
L 294.00338 135.606857 
L 294.00338 136.192921 
L 294.00338 136.192921 
L 294.00338 136.192921 
L 294.00338 133.690861 
L 291.488451 133.690861 
L 291.488451 134.275765 
L 291.488451 134.275765 
L 291.488451 134.275765 
L 291.488451 132.992 
L 288.973521 132.992 
L 288.973521 133.580418 
L 286.458592 133.580418 
L 286.458592 134.177684 
L 283.943662 134.177684 
L 283.943662 134.784 
L 283.943662 134.784 
L 283.943662 134.784 
L 283.943662 132.125538 
L 281.428732 132.125538 
L 281.428732 132.730047 
L 278.913803 132.730047 
L 278.913803 133.344 
L 276.398873 133.344 
L 276.398873 133.967622 
L 273.883944 133.967622 
L 273.883944 134.601143 
L 271.369014 134.601143 
L 271.369014 135.2448 
L 271.369014 135.2448 
L 271.369014 135.2448 
L 271.369014 131.006951 
L 268.854085 131.006951 
L 268.854085 131.642182 
L 268.854085 131.642182 
L 268.854085 131.642182 
L 268.854085 130.176 
L 266.339155 130.176 
L 266.339155 130.814924 
L 263.824225 130.814924 
L 263.824225 131.464678 
L 263.824225 131.464678 
L 263.824225 131.464678 
L 263.824225 129.959385 
L 261.309296 129.959385 
L 261.309296 130.612966 
L 261.309296 130.612966 
L 261.309296 130.612966 
L 261.309296 117.504 
L 258.794366 117.504 
L 258.794366 118.09615 
L 256.279437 118.09615 
L 256.279437 118.699472 
L 253.764507 118.699472 
L 253.764507 119.314286 
L 251.249577 119.314286 
L 251.249577 119.940923 
L 248.734648 119.940923 
L 248.734648 120.579728 
L 246.219718 120.579728 
L 246.219718 121.231059 
L 246.219718 121.231059 
L 246.219718 121.231059 
L 246.219718 119.38598 
L 243.704789 119.38598 
L 243.704789 120.0384 
L 241.189859 120.0384 
L 241.189859 120.704 
L 241.189859 120.704 
L 241.189859 120.704 
L 241.189859 110.763574 
L 238.67493 110.763574 
L 238.67493 111.372387 
L 236.16 111.372387 
L 236.16 111.994435 
L 233.64507 111.994435 
L 233.64507 112.630154 
L 231.130141 112.630154 
L 231.130141 113.28 
L 231.130141 113.28 
L 231.130141 113.28 
L 231.130141 111.096809 
L 228.615211 111.096809 
L 228.615211 111.744 
L 228.615211 111.744 
L 228.615211 111.744 
L 228.615211 107.189581 
L 226.100282 107.189581 
L 226.100282 107.813647 
L 226.100282 107.813647 
L 226.100282 107.813647 
L 226.100282 105.435429 
L 221.070423 105.435429 
L 221.070423 106.686439 
L 216.040563 106.686439 
L 216.040563 108 
L 213.525634 108 
L 213.525634 108.681722 
L 211.010704 108.681722 
L 211.010704 109.380923 
L 208.495775 109.380923 
L 208.495775 110.098286 
L 205.980845 110.098286 
L 205.980845 110.834526 
L 203.465915 110.834526 
L 203.465915 111.5904 
L 203.465915 111.5904 
L 203.465915 111.5904 
L 203.465915 103.424 
L 200.950986 103.424 
L 200.950986 104.118085 
L 198.436056 104.118085 
L 198.436056 104.832 
L 193.406197 104.832 
L 193.406197 106.322824 
L 190.891268 106.322824 
L 190.891268 107.101612 
L 188.376338 107.101612 
L 188.376338 107.904 
L 185.861408 107.904 
L 185.861408 108.731077 
L 183.346479 108.731077 
L 183.346479 109.584 
L 180.831549 109.584 
L 180.831549 104.001049 
L 178.31662 104.001049 
L 178.31662 104.832 
L 175.80169 104.832 
L 175.80169 105.691119 
L 173.286761 105.691119 
L 173.286761 106.579862 
L 170.771831 106.579862 
L 170.771831 107.499789 
L 168.256901 107.499789 
L 168.256901 108.452571 
L 165.741972 108.452571 
L 165.741972 109.44 
L 163.227042 109.44 
L 163.227042 110.464 
L 160.712113 110.464 
L 160.712113 111.526642 
L 158.197183 111.526642 
L 158.197183 112.630154 
L 155.682254 112.630154 
L 155.682254 113.776941 
L 153.167324 113.776941 
L 153.167324 114.9696 
L 153.167324 114.9696 
L 153.167324 114.9696 
L 153.167324 111.038694 
L 150.652394 111.038694 
L 150.652394 112.224 
L 148.137465 112.224 
L 148.137465 113.459745 
L 145.622535 113.459745 
L 145.622535 114.749217 
L 143.107606 114.749217 
L 143.107606 116.096 
L 143.107606 116.096 
L 143.107606 116.096 
L 143.107606 107.189581 
L 140.592676 107.189581 
L 140.592676 108.452571 
L 138.077746 108.452571 
L 138.077746 109.777171 
L 135.562817 109.777171 
L 135.562817 111.168 
L 135.562817 111.168 
L 135.562817 111.168 
L 135.562817 106.131692 
L 133.047887 106.131692 
L 133.047887 107.499789 
L 130.532958 107.499789 
L 130.532958 108.941838 
L 128.018028 108.941838 
L 128.018028 110.464 
L 125.503099 110.464 
L 125.503099 112.073143 
L 122.988169 112.073143 
L 122.988169 113.776941 
L 120.473239 113.776941 
L 120.473239 115.584 
L 117.95831 115.584 
L 117.95831 117.504 
L 115.44338 117.504 
L 115.44338 119.547871 
L 115.44338 119.547871 
L 115.44338 119.547871 
L 115.44338 113.28 
L 112.928451 113.28 
L 112.928451 115.319172 
L 110.413521 115.319172 
L 110.413521 117.504 
L 107.898592 117.504 
L 107.898592 119.850667 
L 102.868732 119.850667 
L 102.868732 125.1072 
L 102.868732 125.1072 
L 102.868732 125.1072 
L 102.868732 117.504 
L 100.353803 117.504 
L 100.353803 120.258783 
L 100.353803 120.258783 
L 100.353803 120.258783 
L 100.353803 111.744 
L 97.838873 111.744 
L 97.838873 114.486857 
L 95.323944 114.486857 
L 95.323944 117.504 
L 92.809014 117.504 
L 92.809014 120.838737 
L 90.294085 120.838737 
L 90.294085 124.544 
L 87.779155 124.544 
L 87.779155 128.685176 
L 87.779155 128.685176 
L 87.779155 128.685176 
L 87.779155 90.349714 
L 85.264225 90.349714 
L 85.264225 93.134769 
L 82.749296 93.134769 
L 82.749296 96.384 
L 80.234366 96.384 
L 80.234366 100.224 
L 77.719437 100.224 
L 77.719437 104.832 
L 77.719437 104.832 
L 77.719437 104.832 
L 77.719437 82.304 
L 75.204507 82.304 
L 75.204507 85.824 
L 72.689577 85.824 
L 72.689577 90.349714 
L 70.174648 90.349714 
L 70.174648 96.384 
L 70.174648 96.384 
L 70.174648 96.384 
L 70.174648 54.144 
L 57.6 54.144 
L 57.6 54.144 
" style="fill:none;stroke:#ff0000;stroke-linecap:square;stroke-width:1.5;"/>
   </g>
   <g id="line2d_14">
    <path clip-path="url(#p9edc3df71e)" d="M 414.72 207.337538 
L 394.600563 207.337538 
L 394.600563 159.927652 
L 356.87662 159.927652 
L 356.87662 147.161872 
L 311.607887 147.161872 
L 311.607887 112.183695 
L 243.704789 112.183695 
L 243.704789 96.858607 
L 150.652394 96.858607 
L 150.652394 89.507721 
L 57.6 89.507721 
L 57.6 54.144 
" style="fill:none;stroke:#008000;stroke-linecap:square;stroke-width:1.5;"/>
   </g>
   <g id="line2d_15">
    <path clip-path="url(#p9edc3df71e)" d="M 414.72 206.208 
L 412.20507 206.208 
L 412.20507 206.637559 
L 412.20507 206.351592 
L 412.20507 206.351592 
L 412.20507 204.601176 
L 409.690141 204.601176 
L 409.690141 205.036023 
L 409.690141 204.738783 
L 407.175211 204.738783 
L 407.175211 205.176558 
L 404.660282 205.176558 
L 404.660282 205.616886 
L 404.660282 205.318737 
L 402.145352 205.318737 
L 402.145352 205.762065 
L 402.145352 205.462588 
L 402.145352 205.462588 
L 402.145352 205.161345 
L 399.630423 205.161345 
L 399.630423 205.608142 
L 397.115493 205.608142 
L 397.115493 206.057591 
L 394.600563 206.057591 
L 394.600563 206.509714 
L 392.085634 206.509714 
L 392.085634 206.964537 
L 389.570704 206.964537 
L 389.570704 207.422084 
L 387.055775 207.422084 
L 387.055775 207.882378 
L 387.055775 207.882378 
L 387.055775 207.882378 
L 387.055775 206.670201 
L 384.540845 206.670201 
L 384.540845 207.13522 
L 384.540845 206.828037 
L 382.025915 206.828037 
L 382.025915 207.296393 
L 382.025915 206.987815 
L 382.025915 206.987815 
L 382.025915 206.677333 
L 379.510986 206.677333 
L 379.510986 207.149573 
L 379.510986 206.837665 
L 379.510986 206.837665 
L 379.510986 205.890207 
L 376.996056 205.890207 
L 376.996056 206.367396 
L 376.996056 206.048101 
L 374.481127 206.048101 
L 374.481127 206.52881 
L 374.481127 206.208 
L 374.481127 206.208 
L 374.481127 204.239534 
L 371.966197 204.239534 
L 371.966197 204.726857 
L 369.451268 204.726857 
L 369.451268 205.217355 
L 366.936338 205.217355 
L 366.936338 205.711059 
L 366.936338 205.377049 
L 364.421408 205.377049 
L 364.421408 205.874526 
L 364.421408 205.538851 
L 364.421408 205.538851 
L 364.421408 205.200954 
L 361.906479 205.200954 
L 361.906479 205.702804 
L 359.391549 205.702804 
L 359.391549 206.208 
L 356.87662 206.208 
L 356.87662 206.716575 
L 356.87662 206.378094 
L 356.87662 206.378094 
L 356.87662 205.69427 
L 354.36169 205.69427 
L 354.36169 206.208 
L 351.846761 206.208 
L 351.846761 206.725224 
L 351.846761 206.380997 
L 349.331831 206.380997 
L 349.331831 206.902356 
L 349.331831 206.556371 
L 349.331831 206.556371 
L 349.331831 205.148321 
L 346.816901 205.148321 
L 346.816901 205.676308 
L 346.816901 205.318737 
L 346.816901 205.318737 
L 346.816901 204.230809 
L 344.301972 204.230809 
L 344.301972 204.764925 
L 341.787042 204.764925 
L 341.787042 205.302857 
L 341.787042 204.936258 
L 339.272113 204.936258 
L 339.272113 205.478676 
L 339.272113 205.110065 
L 336.757183 205.110065 
L 336.757183 205.657043 
L 334.242254 205.657043 
L 334.242254 206.208 
L 331.727324 206.208 
L 331.727324 206.762978 
L 329.212394 206.762978 
L 329.212394 207.322022 
L 326.697465 207.322022 
L 326.697465 207.885176 
L 324.182535 207.885176 
L 324.182535 208.452487 
L 321.667606 208.452487 
L 321.667606 209.024 
L 321.667606 208.657606 
L 321.667606 208.657606 
L 321.667606 208.288478 
L 319.152676 208.288478 
L 319.152676 208.865798 
L 319.152676 208.494677 
L 319.152676 208.494677 
L 319.152676 203.813291 
L 316.637746 203.813291 
L 316.637746 204.40487 
L 314.122817 204.40487 
L 314.122817 205.001143 
L 314.122817 204.592446 
L 311.607887 204.592446 
L 311.607887 205.19424 
L 309.092958 205.19424 
L 309.092958 205.800867 
L 309.092958 205.390452 
L 306.578028 205.390452 
L 306.578028 206.002785 
L 306.578028 206.002785 
L 306.578028 206.002785 
L 306.578028 205.173551 
L 304.063099 205.173551 
L 304.063099 205.792525 
L 304.063099 205.37363 
L 304.063099 205.37363 
L 304.063099 201.894128 
L 301.548169 201.894128 
L 301.548169 202.525538 
L 299.033239 202.525538 
L 299.033239 203.162369 
L 299.033239 202.712276 
L 299.033239 202.712276 
L 299.033239 202.258286 
L 296.51831 202.258286 
L 296.51831 202.902261 
L 296.51831 202.445135 
L 296.51831 202.445135 
L 296.51831 201.984 
L 294.00338 201.984 
L 294.00338 202.635278 
L 294.00338 202.170903 
L 294.00338 202.170903 
L 294.00338 201.229714 
L 288.973521 201.229714 
L 288.973521 202.554811 
L 288.973521 202.079566 
L 286.458592 202.079566 
L 286.458592 202.752 
L 286.458592 202.273315 
L 283.943662 202.273315 
L 283.943662 202.952807 
L 283.943662 202.470636 
L 281.428732 202.470636 
L 281.428732 203.157333 
L 278.913803 203.157333 
L 278.913803 203.850419 
L 278.913803 203.365682 
L 278.913803 203.365682 
L 278.913803 201.883905 
L 276.398873 201.883905 
L 276.398873 202.587429 
L 273.883944 202.587429 
L 273.883944 203.297684 
L 273.883944 202.796308 
L 271.369014 202.796308 
L 271.369014 203.514435 
L 271.369014 203.009243 
L 271.369014 203.009243 
L 271.369014 201.984 
L 268.854085 201.984 
L 268.854085 202.712276 
L 266.339155 202.712276 
L 266.339155 203.447762 
L 266.339155 202.929672 
L 263.824225 202.929672 
L 263.824225 203.6736 
L 263.824225 203.151437 
L 263.824225 203.151437 
L 263.824225 199.344 
L 261.309296 199.344 
L 261.309296 200.104209 
L 261.309296 199.538526 
L 261.309296 199.538526 
L 261.309296 198.389106 
L 256.279437 198.389106 
L 256.279437 199.940129 
L 256.279437 198.770087 
L 256.279437 198.770087 
L 256.279437 193.824 
L 253.764507 193.824 
L 253.764507 194.622171 
L 253.764507 193.972966 
L 251.249577 193.972966 
L 251.249577 194.781225 
L 251.249577 194.125395 
L 251.249577 194.125395 
L 251.249577 190.024482 
L 248.734648 190.024482 
L 248.734648 190.848 
L 246.219718 190.848 
L 246.219718 191.681561 
L 243.704789 191.681561 
L 243.704789 192.52535 
L 241.189859 192.52535 
L 241.189859 193.379556 
L 238.67493 193.379556 
L 238.67493 194.244373 
L 236.16 194.244373 
L 236.16 195.12 
L 233.64507 195.12 
L 233.64507 196.006642 
L 231.130141 196.006642 
L 231.130141 196.904506 
L 231.130141 196.199541 
L 231.130141 196.199541 
L 231.130141 192.535579 
L 228.615211 192.535579 
L 228.615211 193.452079 
L 228.615211 192.6912 
L 226.100282 192.6912 
L 226.100282 193.621047 
L 226.100282 192.851027 
L 226.100282 192.851027 
L 226.100282 190.477241 
L 223.585352 190.477241 
L 223.585352 191.424 
L 223.585352 191.424 
L 223.585352 191.424 
L 223.585352 188.952511 
L 221.070423 188.952511 
L 221.070423 189.915429 
L 221.070423 189.068892 
L 218.555493 189.068892 
L 218.555493 190.046609 
L 218.555493 189.188672 
L 216.040563 189.188672 
L 216.040563 190.181647 
L 216.040563 189.312 
L 213.525634 189.312 
L 213.525634 186.712615 
L 208.495775 186.804 
L 208.495775 187.848567 
L 208.495775 186.898286 
L 205.980845 186.898286 
L 205.980845 187.96032 
L 203.465915 187.96032 
L 203.465915 189.039484 
L 200.950986 189.039484 
L 200.950986 190.136195 
L 198.436056 190.136195 
L 198.436056 191.250885 
L 195.921127 191.250885 
L 195.921127 192.384 
L 195.921127 191.424 
L 195.921127 191.424 
L 195.921127 189.455186 
L 193.406197 189.455186 
L 193.406197 190.611692 
L 193.406197 189.60331 
L 193.406197 189.60331 
L 193.406197 188.577391 
L 190.891268 188.577391 
L 190.891268 189.756632 
L 190.891268 188.713912 
L 190.891268 188.713912 
L 190.891268 184.351706 
L 185.861408 184.416897 
L 185.861408 185.645887 
L 185.861408 184.484571 
L 185.861408 184.484571 
L 185.861408 179.609347 
L 183.346479 179.609347 
L 183.346479 180.864 
L 180.831549 180.864 
L 180.831549 182.144 
L 180.831549 182.144 
L 180.831549 182.144 
L 180.831549 178.224 
L 178.31662 178.224 
L 178.31662 179.530105 
L 175.80169 179.530105 
L 175.80169 180.864 
L 173.286761 180.864 
L 173.286761 182.226581 
L 173.286761 182.226581 
L 173.286761 182.226581 
L 173.286761 178.048 
L 170.771831 178.048 
L 170.771831 179.44018 
L 168.256901 179.44018 
L 168.256901 180.864 
L 163.227042 180.864 
L 163.227042 182.354824 
L 160.712113 182.354824 
L 160.712113 183.881143 
L 160.712113 182.390747 
L 158.197183 182.390747 
L 158.197183 183.954732 
L 158.197183 182.428444 
L 155.682254 182.428444 
L 155.682254 184.032 
L 153.167324 184.032 
L 153.167324 185.676152 
L 150.652394 185.676152 
L 150.652394 187.362462 
L 150.652394 187.362462 
L 150.652394 187.362462 
L 150.652394 184.198737 
L 148.137465 184.198737 
L 148.137465 185.9328 
L 148.137465 185.9328 
L 148.137465 185.9328 
L 148.137465 175.354435 
L 145.622535 175.354435 
L 145.622535 177.136941 
L 143.107606 177.136941 
L 143.107606 178.972657 
L 143.107606 178.972657 
L 143.107606 178.972657 
L 143.107606 177.024 
L 138.077746 177.024 
L 138.077746 180.864 
L 138.077746 178.852571 
L 135.562817 178.852571 
L 135.562817 180.864 
L 135.562817 180.864 
L 135.562817 180.864 
L 135.562817 178.786623 
L 133.047887 178.786623 
L 133.047887 180.864 
L 133.047887 180.864 
L 133.047887 180.864 
L 133.047887 176.494345 
L 130.532958 176.494345 
L 130.532958 178.640842 
L 130.532958 178.640842 
L 130.532958 178.640842 
L 130.532958 173.952 
L 128.018028 173.952 
L 128.018028 176.170667 
L 128.018028 176.170667 
L 128.018028 176.170667 
L 128.018028 173.69117 
L 125.503099 173.69117 
L 125.503099 175.990154 
L 122.988169 175.990154 
L 122.988169 178.379294 
L 120.473239 178.379294 
L 120.473239 180.864 
L 117.95831 180.864 
L 117.95831 183.450122 
L 115.44338 183.450122 
L 115.44338 186.144 
L 112.928451 186.144 
L 112.928451 188.952511 
L 110.413521 188.952511 
L 110.413521 191.88313 
L 105.383662 191.88313 
L 105.383662 198.144 
L 102.868732 198.144 
L 102.868732 201.492837 
L 102.868732 198.966857 
L 100.353803 198.966857 
L 100.353803 202.499122 
L 97.838873 202.499122 
L 97.838873 206.208 
L 97.838873 203.608615 
L 97.838873 203.608615 
L 97.838873 197.988324 
L 95.323944 197.988324 
L 95.323944 201.984 
L 95.323944 198.966857 
L 95.323944 198.966857 
L 95.323944 192.384 
L 92.809014 192.384 
L 92.809014 196.704 
L 92.809014 193.127226 
L 92.809014 193.127226 
L 92.809014 189.312 
L 90.294085 189.312 
L 90.294085 189.915429 
L 87.779155 189.915429 
L 87.779155 194.944 
L 85.264225 194.944 
L 85.264225 200.359385 
L 82.749296 200.359385 
L 82.749296 206.208 
L 80.234366 206.208 
L 80.234366 212.544 
L 77.719437 212.544 
L 77.719437 219.430957 
L 77.719437 215.424 
L 77.719437 215.424 
L 77.719437 206.208 
L 75.204507 206.208 
L 75.204507 214.211368 
L 72.689577 214.211368 
L 72.689577 223.104 
L 72.689577 218.134588 
L 72.689577 218.134588 
L 72.689577 206.208 
L 70.174648 206.208 
L 70.174648 217.069714 
L 67.659718 217.069714 
L 67.659718 229.602462 
L 67.659718 223.104 
L 65.144789 223.104 
L 65.144789 238.464 
L 65.144789 238.464 
L 65.144789 238.464 
L 65.144789 212.544 
L 62.629859 212.544 
L 62.629859 235.172571 
L 62.629859 223.104 
L 62.629859 223.104 
L 62.629859 180.864 
L 60.11493 180.864 
L 60.11493 223.104 
L 60.11493 223.104 
L 60.11493 223.104 
L 60.11493 180.864 
L 57.6 180.864 
L 57.6 307.584 
L 57.6 307.584 
L 57.6 307.584 
L 57.6 54.144 
L 57.6 54.144 
" style="fill:none;stroke:#0000ff;stroke-linecap:square;stroke-width:1.5;"/>
   </g>
   <g id="line2d_16">
    <path clip-path="url(#p9edc3df71e)" d="M 414.72 201.423292 
L 412.20507 201.423292 
L 412.20507 201.85903 
L 412.20507 201.545306 
L 412.20507 201.545306 
L 412.20507 199.623154 
L 409.690141 199.623154 
L 409.690141 200.064 
L 409.690141 199.737191 
L 409.690141 199.737191 
L 409.690141 190.48301 
L 407.175211 190.48301 
L 407.175211 190.934464 
L 407.175211 190.934464 
L 407.175211 190.934464 
L 407.175211 188.569946 
L 404.660282 188.569946 
L 404.660282 189.025627 
L 404.660282 189.025627 
L 404.660282 189.025627 
L 404.660282 170.428235 
L 402.145352 170.428235 
L 402.145352 170.886047 
L 402.145352 170.886047 
L 402.145352 170.886047 
L 402.145352 157.275429 
L 399.630423 157.275429 
L 399.630423 157.723826 
L 399.630423 157.723826 
L 399.630423 157.723826 
L 399.630423 153.709714 
L 397.115493 153.709714 
L 397.115493 152.064 
L 394.600563 152.064 
L 394.600563 152.511123 
L 394.600563 152.511123 
L 394.600563 152.511123 
L 394.600563 146.631583 
L 392.085634 146.631583 
L 392.085634 147.072 
L 392.085634 147.072 
L 392.085634 147.072 
L 392.085634 144.745739 
L 389.570704 144.745739 
L 389.570704 145.185553 
L 389.570704 145.185553 
L 389.570704 145.185553 
L 389.570704 141.969743 
L 387.055775 141.969743 
L 387.055775 142.406687 
L 384.540845 142.406687 
L 384.540845 142.848 
L 382.025915 142.848 
L 382.025915 143.293749 
L 382.025915 143.293749 
L 382.025915 143.293749 
L 382.025915 139.059464 
L 379.510986 139.059464 
L 379.510986 139.49944 
L 376.996056 139.49944 
L 376.996056 139.944 
L 374.481127 139.944 
L 374.481127 140.393215 
L 374.481127 140.393215 
L 374.481127 140.393215 
L 374.481127 137.725277 
L 371.966197 137.725277 
L 371.966197 137.261419 
L 369.451268 137.261419 
L 369.451268 137.710703 
L 369.451268 137.710703 
L 369.451268 137.710703 
L 369.451268 134.910593 
L 366.936338 134.910593 
L 366.936338 135.356818 
L 366.936338 135.356818 
L 366.936338 135.356818 
L 366.936338 131.464678 
L 364.421408 131.464678 
L 364.421408 131.904 
L 364.421408 131.904 
L 364.421408 131.904 
L 364.421408 127.818419 
L 361.906479 127.818419 
L 361.906479 128.249263 
L 359.391549 128.249263 
L 359.391549 128.685176 
L 359.391549 128.685176 
L 359.391549 128.685176 
L 359.391549 127.626604 
L 356.87662 127.626604 
L 356.87662 128.064 
L 354.36169 128.064 
L 354.36169 127.427855 
L 351.846761 127.427855 
L 351.846761 127.872 
L 351.846761 127.872 
L 351.846761 127.872 
L 351.846761 124.544 
L 349.331831 124.544 
L 349.331831 124.981267 
L 349.331831 124.981267 
L 349.331831 124.981267 
L 349.331831 123.84 
L 346.816901 123.84 
L 346.816901 124.27834 
L 344.301972 124.27834 
L 344.301972 124.722228 
L 341.787042 124.722228 
L 341.787042 125.171771 
L 341.787042 125.171771 
L 341.787042 125.171771 
L 341.787042 122.818065 
L 339.272113 122.818065 
L 339.272113 119.602013 
L 336.757183 119.602013 
L 336.757183 120.0384 
L 334.242254 120.0384 
L 334.242254 120.480644 
L 334.242254 120.480644 
L 334.242254 120.480644 
L 334.242254 116.636055 
L 331.727324 116.636055 
L 331.727324 117.067034 
L 329.212394 117.067034 
L 329.212394 116.174769 
L 326.697465 116.174769 
L 326.697465 116.611606 
L 324.182535 116.611606 
L 324.182535 117.054638 
L 324.182535 117.054638 
L 324.182535 117.054638 
L 324.182535 115.693714 
L 321.667606 115.693714 
L 321.667606 116.136518 
L 321.667606 116.136518 
L 321.667606 116.136518 
L 321.667606 114.749217 
L 319.152676 114.749217 
L 319.152676 115.191591 
L 319.152676 115.191591 
L 319.152676 115.191591 
L 319.152676 112.341333 
L 316.637746 112.341333 
L 316.637746 112.775642 
L 316.637746 112.775642 
L 316.637746 112.775642 
L 316.637746 106.781538 
L 314.122817 106.781538 
L 314.122817 107.189581 
L 314.122817 107.189581 
L 314.122817 107.189581 
L 314.122817 102.418286 
L 311.607887 102.418286 
L 311.607887 102.80448 
L 309.092958 102.80448 
L 309.092958 103.196903 
L 309.092958 103.196903 
L 309.092958 103.196903 
L 309.092958 96.384 
L 306.578028 96.384 
L 306.578028 96.738958 
L 306.578028 96.738958 
L 306.578028 96.738958 
L 306.578028 94.952136 
L 304.063099 94.952136 
L 304.063099 95.300923 
L 301.548169 95.300923 
L 301.548169 95.655724 
L 299.033239 95.655724 
L 299.033239 96.016696 
L 296.51831 96.016696 
L 296.51831 96.384 
L 294.00338 96.384 
L 294.00338 96.757805 
L 294.00338 96.757805 
L 294.00338 96.757805 
L 294.00338 94.875429 
L 291.488451 94.875429 
L 291.488451 95.242378 
L 288.973521 95.242378 
L 288.973521 95.616 
L 286.458592 95.616 
L 286.458592 95.996477 
L 283.943662 95.996477 
L 283.943662 96.384 
L 281.428732 96.384 
L 281.428732 96.778766 
L 281.428732 96.778766 
L 281.428732 96.778766 
L 281.428732 90.697846 
L 278.913803 90.697846 
L 278.913803 91.052738 
L 276.398873 91.052738 
L 276.398873 89.274297 
L 271.369014 89.274297 
L 271.369014 89.984 
L 266.339155 89.984 
L 266.339155 90.722969 
L 263.824225 90.722969 
L 263.824225 91.104 
L 261.309296 91.104 
L 261.309296 91.493053 
L 258.794366 91.493053 
L 258.794366 91.890383 
L 256.279437 91.890383 
L 256.279437 92.296258 
L 253.764507 92.296258 
L 253.764507 92.710957 
L 253.764507 92.710957 
L 253.764507 92.710957 
L 253.764507 90.349714 
L 251.249577 90.349714 
L 251.249577 90.752 
L 248.734648 90.752 
L 248.734648 91.163326 
L 246.219718 91.163326 
L 246.219718 91.584 
L 246.219718 91.584 
L 246.219718 91.584 
L 246.219718 89.101241 
L 243.704789 89.101241 
L 243.704789 89.507721 
L 241.189859 89.507721 
L 241.189859 89.923765 
L 238.67493 89.923765 
L 238.67493 90.349714 
L 236.16 90.349714 
L 236.16 90.785928 
L 233.64507 90.785928 
L 233.64507 91.23278 
L 231.130141 91.23278 
L 231.130141 91.690667 
L 228.615211 91.690667 
L 228.615211 89.433114 
L 223.585352 89.433114 
L 223.585352 90.349714 
L 221.070423 90.349714 
L 221.070423 90.826105 
L 218.555493 90.826105 
L 218.555493 91.3152 
L 218.555493 91.3152 
L 218.555493 91.3152 
L 218.555493 88.392649 
L 216.040563 88.392649 
L 216.040563 88.861808 
L 213.525634 88.861808 
L 213.525634 89.344 
L 213.525634 89.344 
L 213.525634 89.344 
L 213.525634 86.270197 
L 211.010704 86.270197 
L 211.010704 86.729143 
L 208.495775 86.729143 
L 208.495775 87.201391 
L 205.980845 87.201391 
L 205.980845 87.687529 
L 203.465915 87.687529 
L 203.465915 88.188179 
L 200.950986 88.188179 
L 200.950986 88.704 
L 198.436056 88.704 
L 198.436056 89.235692 
L 195.921127 89.235692 
L 195.921127 89.784 
L 193.406197 89.784 
L 193.406197 90.349714 
L 193.406197 90.349714 
L 193.406197 90.349714 
L 193.406197 83.227279 
L 190.891268 83.227279 
L 190.891268 83.712 
L 188.376338 83.712 
L 188.376338 84.213153 
L 183.346479 84.213153 
L 183.346479 85.268211 
L 180.831549 85.268211 
L 180.831549 85.824 
L 178.31662 85.824 
L 178.31662 86.4 
L 175.80169 86.4 
L 175.80169 78.513231 
L 170.771831 78.513231 
L 170.771831 79.488 
L 168.256901 79.488 
L 168.256901 75.264 
L 165.741972 75.264 
L 165.741972 75.713362 
L 165.741972 75.713362 
L 165.741972 75.713362 
L 165.741972 70.672696 
L 163.227042 70.672696 
L 163.227042 71.04 
L 160.712113 71.04 
L 160.712113 71.424 
L 158.197183 71.424 
L 158.197183 71.82586 
L 155.682254 71.82586 
L 155.682254 72.246857 
L 153.167324 72.246857 
L 153.167324 72.68839 
L 148.137465 72.68839 
L 148.137465 67.482947 
L 145.622535 67.482947 
L 145.622535 67.843459 
L 143.107606 67.843459 
L 143.107606 68.224 
L 140.592676 68.224 
L 140.592676 68.626286 
L 138.077746 68.626286 
L 138.077746 69.052235 
L 135.562817 69.052235 
L 135.562817 69.504 
L 133.047887 69.504 
L 133.047887 69.984 
L 130.532958 69.984 
L 130.532958 70.494968 
L 128.018028 70.494968 
L 128.018028 71.04 
L 125.503099 71.04 
L 125.503099 71.622621 
L 125.503099 71.622621 
L 125.503099 71.622621 
L 125.503099 63.195429 
L 122.988169 63.195429 
L 122.988169 63.530667 
L 120.473239 63.530667 
L 120.473239 63.891692 
L 117.95831 63.891692 
L 117.95831 64.2816 
L 115.44338 64.2816 
L 115.44338 64.704 
L 112.928451 64.704 
L 112.928451 65.16313 
L 110.413521 65.16313 
L 110.413521 65.664 
L 107.898592 65.664 
L 107.898592 66.212571 
L 105.383662 66.212571 
L 105.383662 66.816 
L 102.868732 66.816 
L 102.868732 67.482947 
L 100.353803 67.482947 
L 100.353803 68.224 
L 95.323944 68.224 
L 95.323944 69.984 
L 92.809014 69.984 
L 92.809014 71.04 
L 90.294085 71.04 
L 90.294085 72.246857 
L 87.779155 72.246857 
L 87.779155 73.639385 
L 85.264225 73.639385 
L 85.264225 75.264 
L 82.749296 75.264 
L 82.749296 77.184 
L 77.719437 77.184 
L 77.719437 82.304 
L 75.204507 82.304 
L 75.204507 85.824 
L 72.689577 85.824 
L 72.689577 90.349714 
L 70.174648 90.349714 
L 70.174648 96.384 
L 70.174648 96.384 
L 70.174648 96.384 
L 70.174648 54.144 
L 57.6 54.144 
L 57.6 54.144 
" style="fill:none;stroke:#000000;stroke-linecap:square;stroke-width:1.5;"/>
   </g>
   <g id="patch_3">
    <path d="M 57.6 307.584 
L 57.6 41.472 
" style="fill:none;stroke:#000000;stroke-linecap:square;stroke-linejoin:miter;stroke-width:0.8;"/>
   </g>
   <g id="patch_4">
    <path d="M 414.72 307.584 
L 414.72 41.472 
" style="fill:none;stroke:#000000;stroke-linecap:square;stroke-linejoin:miter;stroke-width:0.8;"/>
   </g>
   <g id="patch_5">
    <path d="M 57.6 307.584 
L 414.72 307.584 
" style="fill:none;stroke:#000000;stroke-linecap:square;stroke-linejoin:miter;stroke-width:0.8;"/>
   </g>
   <g id="patch_6">
    <path d="M 57.6 41.472 
L 414.72 41.472 
" style="fill:none;stroke:#000000;stroke-linecap:square;stroke-linejoin:miter;stroke-width:0.8;"/>
   </g>
   <g id="legend_1">
    <g id="patch_7">
     <path d="M 64.6 302.584 
L 199.692188 302.584 
Q 201.692188 302.584 201.692188 300.584 
L 201.692188 242.8715 
Q 201.692188 240.8715 199.692188 240.8715 
L 64.6 240.8715 
Q 62.6 240.8715 62.6 242.8715 
L 62.6 300.584 
Q 62.6 302.584 64.6 302.584 
z
" style="fill:#ffffff;opacity:0.8;stroke:#cccccc;stroke-linejoin:miter;"/>
    </g>
    <g id="line2d_17">
     <path d="M 66.6 248.969937 
L 86.6 248.969937 
" style="fill:none;stroke:#ff0000;stroke-linecap:square;stroke-width:1.5;"/>
    </g>
    <g id="line2d_18"/>
    <g id="text_15">
     <!-- MLPClassifier -->
     <defs>
      <path d="M 9.8125 72.90625 
L 24.515625 72.90625 
L 43.109375 23.296875 
L 61.8125 72.90625 
L 76.515625 72.90625 
L 76.515625 0 
L 66.890625 0 
L 66.890625 64.015625 
L 48.09375 14.015625 
L 38.1875 14.015625 
L 19.390625 64.015625 
L 19.390625 0 
L 9.8125 0 
z
" id="DejaVuSans-4d"/>
      <path d="M 9.8125 72.90625 
L 19.671875 72.90625 
L 19.671875 8.296875 
L 55.171875 8.296875 
L 55.171875 0 
L 9.8125 0 
z
" id="DejaVuSans-4c"/>
      <path d="M 64.40625 67.28125 
L 64.40625 56.890625 
Q 59.421875 61.53125 53.78125 63.8125 
Q 48.140625 66.109375 41.796875 66.109375 
Q 29.296875 66.109375 22.65625 58.46875 
Q 16.015625 50.828125 16.015625 36.375 
Q 16.015625 21.96875 22.65625 14.328125 
Q 29.296875 6.6875 41.796875 6.6875 
Q 48.140625 6.6875 53.78125 8.984375 
Q 59.421875 11.28125 64.40625 15.921875 
L 64.40625 5.609375 
Q 59.234375 2.09375 53.4375 0.328125 
Q 47.65625 -1.421875 41.21875 -1.421875 
Q 24.65625 -1.421875 15.125 8.703125 
Q 5.609375 18.84375 5.609375 36.375 
Q 5.609375 53.953125 15.125 64.078125 
Q 24.65625 74.21875 41.21875 74.21875 
Q 47.75 74.21875 53.53125 72.484375 
Q 59.328125 70.75 64.40625 67.28125 
" id="DejaVuSans-43"/>
      <path d="M 37.109375 75.984375 
L 37.109375 68.5 
L 28.515625 68.5 
Q 23.6875 68.5 21.796875 66.546875 
Q 19.921875 64.59375 19.921875 59.515625 
L 19.921875 54.6875 
L 34.71875 54.6875 
L 34.71875 47.703125 
L 19.921875 47.703125 
L 19.921875 0 
L 10.890625 0 
L 10.890625 47.703125 
L 2.296875 47.703125 
L 2.296875 54.6875 
L 10.890625 54.6875 
L 10.890625 58.5 
Q 10.890625 67.625 15.140625 71.796875 
Q 19.390625 75.984375 28.609375 75.984375 
z
" id="DejaVuSans-66"/>
     </defs>
     <g transform="translate(94.6 252.469937)scale(0.1 -0.1)">
      <use xlink:href="#DejaVuSans-4d"/>
      <use x="86.279297" xlink:href="#DejaVuSans-4c"/>
      <use x="141.992188" xlink:href="#DejaVuSans-50"/>
      <use x="202.294922" xlink:href="#DejaVuSans-43"/>
      <use x="272.119141" xlink:href="#DejaVuSans-6c"/>
      <use x="299.902344" xlink:href="#DejaVuSans-61"/>
      <use x="361.181641" xlink:href="#DejaVuSans-73"/>
      <use x="413.28125" xlink:href="#DejaVuSans-73"/>
      <use x="465.380859" xlink:href="#DejaVuSans-69"/>
      <use x="493.164062" xlink:href="#DejaVuSans-66"/>
      <use x="528.369141" xlink:href="#DejaVuSans-69"/>
      <use x="556.152344" xlink:href="#DejaVuSans-65"/>
      <use x="617.675781" xlink:href="#DejaVuSans-72"/>
     </g>
    </g>
    <g id="line2d_19">
     <path d="M 66.6 263.648062 
L 86.6 263.648062 
" style="fill:none;stroke:#008000;stroke-linecap:square;stroke-width:1.5;"/>
    </g>
    <g id="line2d_20"/>
    <g id="text_16">
     <!-- KNeighborsClassifier -->
     <defs>
      <path d="M 9.8125 72.90625 
L 19.671875 72.90625 
L 19.671875 42.09375 
L 52.390625 72.90625 
L 65.09375 72.90625 
L 28.90625 38.921875 
L 67.671875 0 
L 54.6875 0 
L 19.671875 35.109375 
L 19.671875 0 
L 9.8125 0 
z
" id="DejaVuSans-4b"/>
      <path d="M 9.8125 72.90625 
L 23.09375 72.90625 
L 55.421875 11.921875 
L 55.421875 72.90625 
L 64.984375 72.90625 
L 64.984375 0 
L 51.703125 0 
L 19.390625 60.984375 
L 19.390625 0 
L 9.8125 0 
z
" id="DejaVuSans-4e"/>
      <path d="M 45.40625 27.984375 
Q 45.40625 37.75 41.375 43.109375 
Q 37.359375 48.484375 30.078125 48.484375 
Q 22.859375 48.484375 18.828125 43.109375 
Q 14.796875 37.75 14.796875 27.984375 
Q 14.796875 18.265625 18.828125 12.890625 
Q 22.859375 7.515625 30.078125 7.515625 
Q 37.359375 7.515625 41.375 12.890625 
Q 45.40625 18.265625 45.40625 27.984375 
M 54.390625 6.78125 
Q 54.390625 -7.171875 48.1875 -13.984375 
Q 42 -20.796875 29.203125 -20.796875 
Q 24.46875 -20.796875 20.265625 -20.09375 
Q 16.0625 -19.390625 12.109375 -17.921875 
L 12.109375 -9.1875 
Q 16.0625 -11.328125 19.921875 -12.34375 
Q 23.78125 -13.375 27.78125 -13.375 
Q 36.625 -13.375 41.015625 -8.765625 
Q 45.40625 -4.15625 45.40625 5.171875 
L 45.40625 9.625 
Q 42.625 4.78125 38.28125 2.390625 
Q 33.9375 0 27.875 0 
Q 17.828125 0 11.671875 7.65625 
Q 5.515625 15.328125 5.515625 27.984375 
Q 5.515625 40.671875 11.671875 48.328125 
Q 17.828125 56 27.875 56 
Q 33.9375 56 38.28125 53.609375 
Q 42.625 51.21875 45.40625 46.390625 
L 45.40625 54.6875 
L 54.390625 54.6875 
z
" id="DejaVuSans-67"/>
      <path d="M 54.890625 33.015625 
L 54.890625 0 
L 45.90625 0 
L 45.90625 32.71875 
Q 45.90625 40.484375 42.875 44.328125 
Q 39.84375 48.1875 33.796875 48.1875 
Q 26.515625 48.1875 22.3125 43.546875 
Q 18.109375 38.921875 18.109375 30.90625 
L 18.109375 0 
L 9.078125 0 
L 9.078125 75.984375 
L 18.109375 75.984375 
L 18.109375 46.1875 
Q 21.34375 51.125 25.703125 53.5625 
Q 30.078125 56 35.796875 56 
Q 45.21875 56 50.046875 50.171875 
Q 54.890625 44.34375 54.890625 33.015625 
" id="DejaVuSans-68"/>
      <path d="M 48.6875 27.296875 
Q 48.6875 37.203125 44.609375 42.84375 
Q 40.53125 48.484375 33.40625 48.484375 
Q 26.265625 48.484375 22.1875 42.84375 
Q 18.109375 37.203125 18.109375 27.296875 
Q 18.109375 17.390625 22.1875 11.75 
Q 26.265625 6.109375 33.40625 6.109375 
Q 40.53125 6.109375 44.609375 11.75 
Q 48.6875 17.390625 48.6875 27.296875 
M 18.109375 46.390625 
Q 20.953125 51.265625 25.265625 53.625 
Q 29.59375 56 35.59375 56 
Q 45.5625 56 51.78125 48.09375 
Q 58.015625 40.1875 58.015625 27.296875 
Q 58.015625 14.40625 51.78125 6.484375 
Q 45.5625 -1.421875 35.59375 -1.421875 
Q 29.59375 -1.421875 25.265625 0.953125 
Q 20.953125 3.328125 18.109375 8.203125 
L 18.109375 0 
L 9.078125 0 
L 9.078125 75.984375 
L 18.109375 75.984375 
z
" id="DejaVuSans-62"/>
     </defs>
     <g transform="translate(94.6 267.148062)scale(0.1 -0.1)">
      <use xlink:href="#DejaVuSans-4b"/>
      <use x="65.576172" xlink:href="#DejaVuSans-4e"/>
      <use x="140.380859" xlink:href="#DejaVuSans-65"/>
      <use x="201.904297" xlink:href="#DejaVuSans-69"/>
      <use x="229.6875" xlink:href="#DejaVuSans-67"/>
      <use x="293.164062" xlink:href="#DejaVuSans-68"/>
      <use x="356.542969" xlink:href="#DejaVuSans-62"/>
      <use x="420.019531" xlink:href="#DejaVuSans-6f"/>
      <use x="481.201172" xlink:href="#DejaVuSans-72"/>
      <use x="522.314453" xlink:href="#DejaVuSans-73"/>
      <use x="574.414062" xlink:href="#DejaVuSans-43"/>
      <use x="644.238281" xlink:href="#DejaVuSans-6c"/>
      <use x="672.021484" xlink:href="#DejaVuSans-61"/>
      <use x="733.300781" xlink:href="#DejaVuSans-73"/>
      <use x="785.400391" xlink:href="#DejaVuSans-73"/>
      <use x="837.5" xlink:href="#DejaVuSans-69"/>
      <use x="865.283203" xlink:href="#DejaVuSans-66"/>
      <use x="900.488281" xlink:href="#DejaVuSans-69"/>
      <use x="928.271484" xlink:href="#DejaVuSans-65"/>
      <use x="989.794922" xlink:href="#DejaVuSans-72"/>
     </g>
    </g>
    <g id="line2d_21">
     <path d="M 66.6 278.326187 
L 86.6 278.326187 
" style="fill:none;stroke:#0000ff;stroke-linecap:square;stroke-width:1.5;"/>
    </g>
    <g id="line2d_22"/>
    <g id="text_17">
     <!-- LogisticRegression -->
     <defs>
      <path d="M 18.3125 70.21875 
L 18.3125 54.6875 
L 36.8125 54.6875 
L 36.8125 47.703125 
L 18.3125 47.703125 
L 18.3125 18.015625 
Q 18.3125 11.328125 20.140625 9.421875 
Q 21.96875 7.515625 27.59375 7.515625 
L 36.8125 7.515625 
L 36.8125 0 
L 27.59375 0 
Q 17.1875 0 13.234375 3.875 
Q 9.28125 7.765625 9.28125 18.015625 
L 9.28125 47.703125 
L 2.6875 47.703125 
L 2.6875 54.6875 
L 9.28125 54.6875 
L 9.28125 70.21875 
z
" id="DejaVuSans-74"/>
     </defs>
     <g transform="translate(94.6 281.826187)scale(0.1 -0.1)">
      <use xlink:href="#DejaVuSans-4c"/>
      <use x="55.697266" xlink:href="#DejaVuSans-6f"/>
      <use x="116.878906" xlink:href="#DejaVuSans-67"/>
      <use x="180.355469" xlink:href="#DejaVuSans-69"/>
      <use x="208.138672" xlink:href="#DejaVuSans-73"/>
      <use x="260.238281" xlink:href="#DejaVuSans-74"/>
      <use x="299.447266" xlink:href="#DejaVuSans-69"/>
      <use x="327.230469" xlink:href="#DejaVuSans-63"/>
      <use x="382.210938" xlink:href="#DejaVuSans-52"/>
      <use x="451.630859" xlink:href="#DejaVuSans-65"/>
      <use x="513.154297" xlink:href="#DejaVuSans-67"/>
      <use x="576.630859" xlink:href="#DejaVuSans-72"/>
      <use x="617.712891" xlink:href="#DejaVuSans-65"/>
      <use x="679.236328" xlink:href="#DejaVuSans-73"/>
      <use x="731.335938" xlink:href="#DejaVuSans-73"/>
      <use x="783.435547" xlink:href="#DejaVuSans-69"/>
      <use x="811.21875" xlink:href="#DejaVuSans-6f"/>
      <use x="872.400391" xlink:href="#DejaVuSans-6e"/>
     </g>
    </g>
    <g id="line2d_23">
     <path d="M 66.6 293.004312 
L 86.6 293.004312 
" style="fill:none;stroke:#000000;stroke-linecap:square;stroke-width:1.5;"/>
    </g>
    <g id="line2d_24"/>
    <g id="text_18">
     <!-- XGBClassifier -->
     <defs>
      <path d="M 6.296875 72.90625 
L 16.890625 72.90625 
L 35.015625 45.796875 
L 53.21875 72.90625 
L 63.8125 72.90625 
L 40.375 37.890625 
L 65.375 0 
L 54.78125 0 
L 34.28125 31 
L 13.625 0 
L 2.984375 0 
L 29 38.921875 
z
" id="DejaVuSans-58"/>
      <path d="M 59.515625 10.40625 
L 59.515625 29.984375 
L 43.40625 29.984375 
L 43.40625 38.09375 
L 69.28125 38.09375 
L 69.28125 6.78125 
Q 63.578125 2.734375 56.6875 0.65625 
Q 49.8125 -1.421875 42 -1.421875 
Q 24.90625 -1.421875 15.25 8.5625 
Q 5.609375 18.5625 5.609375 36.375 
Q 5.609375 54.25 15.25 64.234375 
Q 24.90625 74.21875 42 74.21875 
Q 49.125 74.21875 55.546875 72.453125 
Q 61.96875 70.703125 67.390625 67.28125 
L 67.390625 56.78125 
Q 61.921875 61.421875 55.765625 63.765625 
Q 49.609375 66.109375 42.828125 66.109375 
Q 29.4375 66.109375 22.71875 58.640625 
Q 16.015625 51.171875 16.015625 36.375 
Q 16.015625 21.625 22.71875 14.15625 
Q 29.4375 6.6875 42.828125 6.6875 
Q 48.046875 6.6875 52.140625 7.59375 
Q 56.25 8.5 59.515625 10.40625 
" id="DejaVuSans-47"/>
      <path d="M 19.671875 34.8125 
L 19.671875 8.109375 
L 35.5 8.109375 
Q 43.453125 8.109375 47.28125 11.40625 
Q 51.125 14.703125 51.125 21.484375 
Q 51.125 28.328125 47.28125 31.5625 
Q 43.453125 34.8125 35.5 34.8125 
z
M 19.671875 64.796875 
L 19.671875 42.828125 
L 34.28125 42.828125 
Q 41.5 42.828125 45.03125 45.53125 
Q 48.578125 48.25 48.578125 53.8125 
Q 48.578125 59.328125 45.03125 62.0625 
Q 41.5 64.796875 34.28125 64.796875 
z
M 9.8125 72.90625 
L 35.015625 72.90625 
Q 46.296875 72.90625 52.390625 68.21875 
Q 58.5 63.53125 58.5 54.890625 
Q 58.5 48.1875 55.375 44.234375 
Q 52.25 40.28125 46.1875 39.3125 
Q 53.46875 37.75 57.5 32.78125 
Q 61.53125 27.828125 61.53125 20.40625 
Q 61.53125 10.640625 54.890625 5.3125 
Q 48.25 0 35.984375 0 
L 9.8125 0 
z
" id="DejaVuSans-42"/>
     </defs>
     <g transform="translate(94.6 296.504312)scale(0.1 -0.1)">
      <use xlink:href="#DejaVuSans-58"/>
      <use x="68.505859" xlink:href="#DejaVuSans-47"/>
      <use x="145.996094" xlink:href="#DejaVuSans-42"/>
      <use x="214.583984" xlink:href="#DejaVuSans-43"/>
      <use x="284.408203" xlink:href="#DejaVuSans-6c"/>
      <use x="312.191406" xlink:href="#DejaVuSans-61"/>
      <use x="373.470703" xlink:href="#DejaVuSans-73"/>
      <use x="425.570312" xlink:href="#DejaVuSans-73"/>
      <use x="477.669922" xlink:href="#DejaVuSans-69"/>
      <use x="505.453125" xlink:href="#DejaVuSans-66"/>
      <use x="540.658203" xlink:href="#DejaVuSans-69"/>
      <use x="568.441406" xlink:href="#DejaVuSans-65"/>
      <use x="629.964844" xlink:href="#DejaVuSans-72"/>
     </g>
    </g>
   </g>
  </g>
 </g>
 <defs>
  <clipPath id="p9edc3df71e">
   <rect height="266.112" width="357.12" x="57.6" y="41.472"/>
  </clipPath>
 </defs>
</svg>
