<?xml version="1.0" encoding="utf-8" standalone="no"?>
<!DOCTYPE svg PUBLIC "-//W3C//DTD SVG 1.1//EN"
  "http://www.w3.org/Graphics/SVG/1.1/DTD/svg11.dtd">
<!-- Created with matplotlib (http://matplotlib.org/) -->
<svg height="345pt" version="1.1" viewBox="0 0 460 345" width="460pt" xmlns="http://www.w3.org/2000/svg" xmlns:xlink="http://www.w3.org/1999/xlink">
 <defs>
  <style type="text/css">
*{stroke-linecap:butt;stroke-linejoin:round;}
  </style>
 </defs>
 <g id="figure_1">
  <g id="patch_1">
   <path d="M 0 345.6 
L 460.8 345.6 
L 460.8 0 
L 0 0 
z
" style="fill:#ffffff;"/>
  </g>
  <g id="axes_1">
   <g id="patch_2">
    <path d="M 57.6 307.584 
L 414.72 307.584 
L 414.72 41.472 
L 57.6 41.472 
z
" style="fill:#ffffff;"/>
   </g>
   <g id="matplotlib.axis_1">
    <g id="xtick_1">
     <g id="line2d_1">
      <defs>
       <path d="M 0 0 
L 0 3.5 
" id="m5de5cf67d6" style="stroke:#000000;stroke-width:0.8;"/>
      </defs>
      <g>
       <use style="stroke:#000000;stroke-width:0.8;" x="57.6" xlink:href="#m5de5cf67d6" y="307.584"/>
      </g>
     </g>
     <g id="text_1">
      <!-- 0.0 -->
      <defs>
       <path d="M 31.78125 66.40625 
Q 24.171875 66.40625 20.328125 58.90625 
Q 16.5 51.421875 16.5 36.375 
Q 16.5 21.390625 20.328125 13.890625 
Q 24.171875 6.390625 31.78125 6.390625 
Q 39.453125 6.390625 43.28125 13.890625 
Q 47.125 21.390625 47.125 36.375 
Q 47.125 51.421875 43.28125 58.90625 
Q 39.453125 66.40625 31.78125 66.40625 
M 31.78125 74.21875 
Q 44.046875 74.21875 50.515625 64.515625 
Q 56.984375 54.828125 56.984375 36.375 
Q 56.984375 17.96875 50.515625 8.265625 
Q 44.046875 -1.421875 31.78125 -1.421875 
Q 19.53125 -1.421875 13.0625 8.265625 
Q 6.59375 17.96875 6.59375 36.375 
Q 6.59375 54.828125 13.0625 64.515625 
Q 19.53125 74.21875 31.78125 74.21875 
" id="DejaVuSans-30"/>
       <path d="M 10.6875 12.40625 
L 21 12.40625 
L 21 0 
L 10.6875 0 
z
" id="DejaVuSans-2e"/>
      </defs>
      <g transform="translate(49.648438 322.182437)scale(0.1 -0.1)">
       <use xlink:href="#DejaVuSans-30"/>
       <use x="63.623047" xlink:href="#DejaVuSans-2e"/>
       <use x="95.410156" xlink:href="#DejaVuSans-30"/>
      </g>
     </g>
    </g>
    <g id="xtick_2">
     <g id="line2d_2">
      <g>
       <use style="stroke:#000000;stroke-width:0.8;" x="129.024" xlink:href="#m5de5cf67d6" y="307.584"/>
      </g>
     </g>
     <g id="text_2">
      <!-- 0.2 -->
      <defs>
       <path d="M 19.1875 8.296875 
L 53.609375 8.296875 
L 53.609375 0 
L 7.328125 0 
L 7.328125 8.296875 
Q 12.9375 14.109375 22.625 23.890625 
Q 32.328125 33.6875 34.8125 36.53125 
Q 39.546875 41.84375 41.421875 45.53125 
Q 43.3125 49.21875 43.3125 52.78125 
Q 43.3125 58.59375 39.234375 62.25 
Q 35.15625 65.921875 28.609375 65.921875 
Q 23.96875 65.921875 18.8125 64.3125 
Q 13.671875 62.703125 7.8125 59.421875 
L 7.8125 69.390625 
Q 13.765625 71.78125 18.9375 73 
Q 24.125 74.21875 28.421875 74.21875 
Q 39.75 74.21875 46.484375 68.546875 
Q 53.21875 62.890625 53.21875 53.421875 
Q 53.21875 48.921875 51.53125 44.890625 
Q 49.859375 40.875 45.40625 35.40625 
Q 44.1875 33.984375 37.640625 27.21875 
Q 31.109375 20.453125 19.1875 8.296875 
" id="DejaVuSans-32"/>
      </defs>
      <g transform="translate(121.072438 322.182437)scale(0.1 -0.1)">
       <use xlink:href="#DejaVuSans-30"/>
       <use x="63.623047" xlink:href="#DejaVuSans-2e"/>
       <use x="95.410156" xlink:href="#DejaVuSans-32"/>
      </g>
     </g>
    </g>
    <g id="xtick_3">
     <g id="line2d_3">
      <g>
       <use style="stroke:#000000;stroke-width:0.8;" x="200.448" xlink:href="#m5de5cf67d6" y="307.584"/>
      </g>
     </g>
     <g id="text_3">
      <!-- 0.4 -->
      <defs>
       <path d="M 37.796875 64.3125 
L 12.890625 25.390625 
L 37.796875 25.390625 
z
M 35.203125 72.90625 
L 47.609375 72.90625 
L 47.609375 25.390625 
L 58.015625 25.390625 
L 58.015625 17.1875 
L 47.609375 17.1875 
L 47.609375 0 
L 37.796875 0 
L 37.796875 17.1875 
L 4.890625 17.1875 
L 4.890625 26.703125 
z
" id="DejaVuSans-34"/>
      </defs>
      <g transform="translate(192.496438 322.182437)scale(0.1 -0.1)">
       <use xlink:href="#DejaVuSans-30"/>
       <use x="63.623047" xlink:href="#DejaVuSans-2e"/>
       <use x="95.410156" xlink:href="#DejaVuSans-34"/>
      </g>
     </g>
    </g>
    <g id="xtick_4">
     <g id="line2d_4">
      <g>
       <use style="stroke:#000000;stroke-width:0.8;" x="271.872" xlink:href="#m5de5cf67d6" y="307.584"/>
      </g>
     </g>
     <g id="text_4">
      <!-- 0.6 -->
      <defs>
       <path d="M 33.015625 40.375 
Q 26.375 40.375 22.484375 35.828125 
Q 18.609375 31.296875 18.609375 23.390625 
Q 18.609375 15.53125 22.484375 10.953125 
Q 26.375 6.390625 33.015625 6.390625 
Q 39.65625 6.390625 43.53125 10.953125 
Q 47.40625 15.53125 47.40625 23.390625 
Q 47.40625 31.296875 43.53125 35.828125 
Q 39.65625 40.375 33.015625 40.375 
M 52.59375 71.296875 
L 52.59375 62.3125 
Q 48.875 64.0625 45.09375 64.984375 
Q 41.3125 65.921875 37.59375 65.921875 
Q 27.828125 65.921875 22.671875 59.328125 
Q 17.53125 52.734375 16.796875 39.40625 
Q 19.671875 43.65625 24.015625 45.921875 
Q 28.375 48.1875 33.59375 48.1875 
Q 44.578125 48.1875 50.953125 41.515625 
Q 57.328125 34.859375 57.328125 23.390625 
Q 57.328125 12.15625 50.6875 5.359375 
Q 44.046875 -1.421875 33.015625 -1.421875 
Q 20.359375 -1.421875 13.671875 8.265625 
Q 6.984375 17.96875 6.984375 36.375 
Q 6.984375 53.65625 15.1875 63.9375 
Q 23.390625 74.21875 37.203125 74.21875 
Q 40.921875 74.21875 44.703125 73.484375 
Q 48.484375 72.75 52.59375 71.296875 
" id="DejaVuSans-36"/>
      </defs>
      <g transform="translate(263.920438 322.182437)scale(0.1 -0.1)">
       <use xlink:href="#DejaVuSans-30"/>
       <use x="63.623047" xlink:href="#DejaVuSans-2e"/>
       <use x="95.410156" xlink:href="#DejaVuSans-36"/>
      </g>
     </g>
    </g>
    <g id="xtick_5">
     <g id="line2d_5">
      <g>
       <use style="stroke:#000000;stroke-width:0.8;" x="343.296" xlink:href="#m5de5cf67d6" y="307.584"/>
      </g>
     </g>
     <g id="text_5">
      <!-- 0.8 -->
      <defs>
       <path d="M 31.78125 34.625 
Q 24.75 34.625 20.71875 30.859375 
Q 16.703125 27.09375 16.703125 20.515625 
Q 16.703125 13.921875 20.71875 10.15625 
Q 24.75 6.390625 31.78125 6.390625 
Q 38.8125 6.390625 42.859375 10.171875 
Q 46.921875 13.96875 46.921875 20.515625 
Q 46.921875 27.09375 42.890625 30.859375 
Q 38.875 34.625 31.78125 34.625 
M 21.921875 38.8125 
Q 15.578125 40.375 12.03125 44.71875 
Q 8.5 49.078125 8.5 55.328125 
Q 8.5 64.0625 14.71875 69.140625 
Q 20.953125 74.21875 31.78125 74.21875 
Q 42.671875 74.21875 48.875 69.140625 
Q 55.078125 64.0625 55.078125 55.328125 
Q 55.078125 49.078125 51.53125 44.71875 
Q 48 40.375 41.703125 38.8125 
Q 48.828125 37.15625 52.796875 32.3125 
Q 56.78125 27.484375 56.78125 20.515625 
Q 56.78125 9.90625 50.3125 4.234375 
Q 43.84375 -1.421875 31.78125 -1.421875 
Q 19.734375 -1.421875 13.25 4.234375 
Q 6.78125 9.90625 6.78125 20.515625 
Q 6.78125 27.484375 10.78125 32.3125 
Q 14.796875 37.15625 21.921875 38.8125 
M 18.3125 54.390625 
Q 18.3125 48.734375 21.84375 45.5625 
Q 25.390625 42.390625 31.78125 42.390625 
Q 38.140625 42.390625 41.71875 45.5625 
Q 45.3125 48.734375 45.3125 54.390625 
Q 45.3125 60.0625 41.71875 63.234375 
Q 38.140625 66.40625 31.78125 66.40625 
Q 25.390625 66.40625 21.84375 63.234375 
Q 18.3125 60.0625 18.3125 54.390625 
" id="DejaVuSans-38"/>
      </defs>
      <g transform="translate(335.344438 322.182437)scale(0.1 -0.1)">
       <use xlink:href="#DejaVuSans-30"/>
       <use x="63.623047" xlink:href="#DejaVuSans-2e"/>
       <use x="95.410156" xlink:href="#DejaVuSans-38"/>
      </g>
     </g>
    </g>
    <g id="xtick_6">
     <g id="line2d_6">
      <g>
       <use style="stroke:#000000;stroke-width:0.8;" x="414.72" xlink:href="#m5de5cf67d6" y="307.584"/>
      </g>
     </g>
     <g id="text_6">
      <!-- 1.0 -->
      <defs>
       <path d="M 12.40625 8.296875 
L 28.515625 8.296875 
L 28.515625 63.921875 
L 10.984375 60.40625 
L 10.984375 69.390625 
L 28.421875 72.90625 
L 38.28125 72.90625 
L 38.28125 8.296875 
L 54.390625 8.296875 
L 54.390625 0 
L 12.40625 0 
z
" id="DejaVuSans-31"/>
      </defs>
      <g transform="translate(406.768438 322.182437)scale(0.1 -0.1)">
       <use xlink:href="#DejaVuSans-31"/>
       <use x="63.623047" xlink:href="#DejaVuSans-2e"/>
       <use x="95.410156" xlink:href="#DejaVuSans-30"/>
      </g>
     </g>
    </g>
    <g id="text_7">
     <!-- Recall -->
     <defs>
      <path d="M 44.390625 34.1875 
Q 47.5625 33.109375 50.5625 29.59375 
Q 53.5625 26.078125 56.59375 19.921875 
L 66.609375 0 
L 56 0 
L 46.6875 18.703125 
Q 43.0625 26.03125 39.671875 28.421875 
Q 36.28125 30.8125 30.421875 30.8125 
L 19.671875 30.8125 
L 19.671875 0 
L 9.8125 0 
L 9.8125 72.90625 
L 32.078125 72.90625 
Q 44.578125 72.90625 50.734375 67.671875 
Q 56.890625 62.453125 56.890625 51.90625 
Q 56.890625 45.015625 53.6875 40.46875 
Q 50.484375 35.9375 44.390625 34.1875 
M 19.671875 64.796875 
L 19.671875 38.921875 
L 32.078125 38.921875 
Q 39.203125 38.921875 42.84375 42.21875 
Q 46.484375 45.515625 46.484375 51.90625 
Q 46.484375 58.296875 42.84375 61.546875 
Q 39.203125 64.796875 32.078125 64.796875 
z
" id="DejaVuSans-52"/>
      <path d="M 56.203125 29.59375 
L 56.203125 25.203125 
L 14.890625 25.203125 
Q 15.484375 15.921875 20.484375 11.0625 
Q 25.484375 6.203125 34.421875 6.203125 
Q 39.59375 6.203125 44.453125 7.46875 
Q 49.3125 8.734375 54.109375 11.28125 
L 54.109375 2.78125 
Q 49.265625 0.734375 44.1875 -0.34375 
Q 39.109375 -1.421875 33.890625 -1.421875 
Q 20.796875 -1.421875 13.15625 6.1875 
Q 5.515625 13.8125 5.515625 26.8125 
Q 5.515625 40.234375 12.765625 48.109375 
Q 20.015625 56 32.328125 56 
Q 43.359375 56 49.78125 48.890625 
Q 56.203125 41.796875 56.203125 29.59375 
M 47.21875 32.234375 
Q 47.125 39.59375 43.09375 43.984375 
Q 39.0625 48.390625 32.421875 48.390625 
Q 24.90625 48.390625 20.390625 44.140625 
Q 15.875 39.890625 15.1875 32.171875 
z
" id="DejaVuSans-65"/>
      <path d="M 48.78125 52.59375 
L 48.78125 44.1875 
Q 44.96875 46.296875 41.140625 47.34375 
Q 37.3125 48.390625 33.40625 48.390625 
Q 24.65625 48.390625 19.8125 42.84375 
Q 14.984375 37.3125 14.984375 27.296875 
Q 14.984375 17.28125 19.8125 11.734375 
Q 24.65625 6.203125 33.40625 6.203125 
Q 37.3125 6.203125 41.140625 7.25 
Q 44.96875 8.296875 48.78125 10.40625 
L 48.78125 2.09375 
Q 45.015625 0.34375 40.984375 -0.53125 
Q 36.96875 -1.421875 32.421875 -1.421875 
Q 20.0625 -1.421875 12.78125 6.34375 
Q 5.515625 14.109375 5.515625 27.296875 
Q 5.515625 40.671875 12.859375 48.328125 
Q 20.21875 56 33.015625 56 
Q 37.15625 56 41.109375 55.140625 
Q 45.0625 54.296875 48.78125 52.59375 
" id="DejaVuSans-63"/>
      <path d="M 34.28125 27.484375 
Q 23.390625 27.484375 19.1875 25 
Q 14.984375 22.515625 14.984375 16.5 
Q 14.984375 11.71875 18.140625 8.90625 
Q 21.296875 6.109375 26.703125 6.109375 
Q 34.1875 6.109375 38.703125 11.40625 
Q 43.21875 16.703125 43.21875 25.484375 
L 43.21875 27.484375 
z
M 52.203125 31.203125 
L 52.203125 0 
L 43.21875 0 
L 43.21875 8.296875 
Q 40.140625 3.328125 35.546875 0.953125 
Q 30.953125 -1.421875 24.3125 -1.421875 
Q 15.921875 -1.421875 10.953125 3.296875 
Q 6 8.015625 6 15.921875 
Q 6 25.140625 12.171875 29.828125 
Q 18.359375 34.515625 30.609375 34.515625 
L 43.21875 34.515625 
L 43.21875 35.40625 
Q 43.21875 41.609375 39.140625 45 
Q 35.0625 48.390625 27.6875 48.390625 
Q 23 48.390625 18.546875 47.265625 
Q 14.109375 46.140625 10.015625 43.890625 
L 10.015625 52.203125 
Q 14.9375 54.109375 19.578125 55.046875 
Q 24.21875 56 28.609375 56 
Q 40.484375 56 46.34375 49.84375 
Q 52.203125 43.703125 52.203125 31.203125 
" id="DejaVuSans-61"/>
      <path d="M 9.421875 75.984375 
L 18.40625 75.984375 
L 18.40625 0 
L 9.421875 0 
z
" id="DejaVuSans-6c"/>
     </defs>
     <g transform="translate(221.020938 335.860562)scale(0.1 -0.1)">
      <use xlink:href="#DejaVuSans-52"/>
      <use x="69.419922" xlink:href="#DejaVuSans-65"/>
      <use x="130.943359" xlink:href="#DejaVuSans-63"/>
      <use x="185.923828" xlink:href="#DejaVuSans-61"/>
      <use x="247.203125" xlink:href="#DejaVuSans-6c"/>
      <use x="274.986328" xlink:href="#DejaVuSans-6c"/>
     </g>
    </g>
   </g>
   <g id="matplotlib.axis_2">
    <g id="ytick_1">
     <g id="line2d_7">
      <defs>
       <path d="M 0 0 
L -3.5 0 
" id="mc6d1e9661c" style="stroke:#000000;stroke-width:0.8;"/>
      </defs>
      <g>
       <use style="stroke:#000000;stroke-width:0.8;" x="57.6" xlink:href="#mc6d1e9661c" y="307.584"/>
      </g>
     </g>
     <g id="text_8">
      <!-- 0.0 -->
      <g transform="translate(34.696875 311.383219)scale(0.1 -0.1)">
       <use xlink:href="#DejaVuSans-30"/>
       <use x="63.623047" xlink:href="#DejaVuSans-2e"/>
       <use x="95.410156" xlink:href="#DejaVuSans-30"/>
      </g>
     </g>
    </g>
    <g id="ytick_2">
     <g id="line2d_8">
      <g>
       <use style="stroke:#000000;stroke-width:0.8;" x="57.6" xlink:href="#mc6d1e9661c" y="256.896"/>
      </g>
     </g>
     <g id="text_9">
      <!-- 0.2 -->
      <g transform="translate(34.696875 260.695219)scale(0.1 -0.1)">
       <use xlink:href="#DejaVuSans-30"/>
       <use x="63.623047" xlink:href="#DejaVuSans-2e"/>
       <use x="95.410156" xlink:href="#DejaVuSans-32"/>
      </g>
     </g>
    </g>
    <g id="ytick_3">
     <g id="line2d_9">
      <g>
       <use style="stroke:#000000;stroke-width:0.8;" x="57.6" xlink:href="#mc6d1e9661c" y="206.208"/>
      </g>
     </g>
     <g id="text_10">
      <!-- 0.4 -->
      <g transform="translate(34.696875 210.007219)scale(0.1 -0.1)">
       <use xlink:href="#DejaVuSans-30"/>
       <use x="63.623047" xlink:href="#DejaVuSans-2e"/>
       <use x="95.410156" xlink:href="#DejaVuSans-34"/>
      </g>
     </g>
    </g>
    <g id="ytick_4">
     <g id="line2d_10">
      <g>
       <use style="stroke:#000000;stroke-width:0.8;" x="57.6" xlink:href="#mc6d1e9661c" y="155.52"/>
      </g>
     </g>
     <g id="text_11">
      <!-- 0.6 -->
      <g transform="translate(34.696875 159.319219)scale(0.1 -0.1)">
       <use xlink:href="#DejaVuSans-30"/>
       <use x="63.623047" xlink:href="#DejaVuSans-2e"/>
       <use x="95.410156" xlink:href="#DejaVuSans-36"/>
      </g>
     </g>
    </g>
    <g id="ytick_5">
     <g id="line2d_11">
      <g>
       <use style="stroke:#000000;stroke-width:0.8;" x="57.6" xlink:href="#mc6d1e9661c" y="104.832"/>
      </g>
     </g>
     <g id="text_12">
      <!-- 0.8 -->
      <g transform="translate(34.696875 108.631219)scale(0.1 -0.1)">
       <use xlink:href="#DejaVuSans-30"/>
       <use x="63.623047" xlink:href="#DejaVuSans-2e"/>
       <use x="95.410156" xlink:href="#DejaVuSans-38"/>
      </g>
     </g>
    </g>
    <g id="ytick_6">
     <g id="line2d_12">
      <g>
       <use style="stroke:#000000;stroke-width:0.8;" x="57.6" xlink:href="#mc6d1e9661c" y="54.144"/>
      </g>
     </g>
     <g id="text_13">
      <!-- 1.0 -->
      <g transform="translate(34.696875 57.943219)scale(0.1 -0.1)">
       <use xlink:href="#DejaVuSans-31"/>
       <use x="63.623047" xlink:href="#DejaVuSans-2e"/>
       <use x="95.410156" xlink:href="#DejaVuSans-30"/>
      </g>
     </g>
    </g>
    <g id="text_14">
     <!-- Precision -->
     <defs>
      <path d="M 19.671875 64.796875 
L 19.671875 37.40625 
L 32.078125 37.40625 
Q 38.96875 37.40625 42.71875 40.96875 
Q 46.484375 44.53125 46.484375 51.125 
Q 46.484375 57.671875 42.71875 61.234375 
Q 38.96875 64.796875 32.078125 64.796875 
z
M 9.8125 72.90625 
L 32.078125 72.90625 
Q 44.34375 72.90625 50.609375 67.359375 
Q 56.890625 61.8125 56.890625 51.125 
Q 56.890625 40.328125 50.609375 34.8125 
Q 44.34375 29.296875 32.078125 29.296875 
L 19.671875 29.296875 
L 19.671875 0 
L 9.8125 0 
z
" id="DejaVuSans-50"/>
      <path d="M 41.109375 46.296875 
Q 39.59375 47.171875 37.8125 47.578125 
Q 36.03125 48 33.890625 48 
Q 26.265625 48 22.1875 43.046875 
Q 18.109375 38.09375 18.109375 28.8125 
L 18.109375 0 
L 9.078125 0 
L 9.078125 54.6875 
L 18.109375 54.6875 
L 18.109375 46.1875 
Q 20.953125 51.171875 25.484375 53.578125 
Q 30.03125 56 36.53125 56 
Q 37.453125 56 38.578125 55.875 
Q 39.703125 55.765625 41.0625 55.515625 
z
" id="DejaVuSans-72"/>
      <path d="M 9.421875 54.6875 
L 18.40625 54.6875 
L 18.40625 0 
L 9.421875 0 
z
M 9.421875 75.984375 
L 18.40625 75.984375 
L 18.40625 64.59375 
L 9.421875 64.59375 
z
" id="DejaVuSans-69"/>
      <path d="M 44.28125 53.078125 
L 44.28125 44.578125 
Q 40.484375 46.53125 36.375 47.5 
Q 32.28125 48.484375 27.875 48.484375 
Q 21.1875 48.484375 17.84375 46.4375 
Q 14.5 44.390625 14.5 40.28125 
Q 14.5 37.15625 16.890625 35.375 
Q 19.28125 33.59375 26.515625 31.984375 
L 29.59375 31.296875 
Q 39.15625 29.25 43.1875 25.515625 
Q 47.21875 21.78125 47.21875 15.09375 
Q 47.21875 7.46875 41.1875 3.015625 
Q 35.15625 -1.421875 24.609375 -1.421875 
Q 20.21875 -1.421875 15.453125 -0.5625 
Q 10.6875 0.296875 5.421875 2 
L 5.421875 11.28125 
Q 10.40625 8.6875 15.234375 7.390625 
Q 20.0625 6.109375 24.8125 6.109375 
Q 31.15625 6.109375 34.5625 8.28125 
Q 37.984375 10.453125 37.984375 14.40625 
Q 37.984375 18.0625 35.515625 20.015625 
Q 33.0625 21.96875 24.703125 23.78125 
L 21.578125 24.515625 
Q 13.234375 26.265625 9.515625 29.90625 
Q 5.8125 33.546875 5.8125 39.890625 
Q 5.8125 47.609375 11.28125 51.796875 
Q 16.75 56 26.8125 56 
Q 31.78125 56 36.171875 55.265625 
Q 40.578125 54.546875 44.28125 53.078125 
" id="DejaVuSans-73"/>
      <path d="M 30.609375 48.390625 
Q 23.390625 48.390625 19.1875 42.75 
Q 14.984375 37.109375 14.984375 27.296875 
Q 14.984375 17.484375 19.15625 11.84375 
Q 23.34375 6.203125 30.609375 6.203125 
Q 37.796875 6.203125 41.984375 11.859375 
Q 46.1875 17.53125 46.1875 27.296875 
Q 46.1875 37.015625 41.984375 42.703125 
Q 37.796875 48.390625 30.609375 48.390625 
M 30.609375 56 
Q 42.328125 56 49.015625 48.375 
Q 55.71875 40.765625 55.71875 27.296875 
Q 55.71875 13.875 49.015625 6.21875 
Q 42.328125 -1.421875 30.609375 -1.421875 
Q 18.84375 -1.421875 12.171875 6.21875 
Q 5.515625 13.875 5.515625 27.296875 
Q 5.515625 40.765625 12.171875 48.375 
Q 18.84375 56 30.609375 56 
" id="DejaVuSans-6f"/>
      <path d="M 54.890625 33.015625 
L 54.890625 0 
L 45.90625 0 
L 45.90625 32.71875 
Q 45.90625 40.484375 42.875 44.328125 
Q 39.84375 48.1875 33.796875 48.1875 
Q 26.515625 48.1875 22.3125 43.546875 
Q 18.109375 38.921875 18.109375 30.90625 
L 18.109375 0 
L 9.078125 0 
L 9.078125 54.6875 
L 18.109375 54.6875 
L 18.109375 46.1875 
Q 21.34375 51.125 25.703125 53.5625 
Q 30.078125 56 35.796875 56 
Q 45.21875 56 50.046875 50.171875 
Q 54.890625 44.34375 54.890625 33.015625 
" id="DejaVuSans-6e"/>
     </defs>
     <g transform="translate(28.617187 197.032688)rotate(-90)scale(0.1 -0.1)">
      <use xlink:href="#DejaVuSans-50"/>
      <use x="60.287109" xlink:href="#DejaVuSans-72"/>
      <use x="101.369141" xlink:href="#DejaVuSans-65"/>
      <use x="162.892578" xlink:href="#DejaVuSans-63"/>
      <use x="217.873047" xlink:href="#DejaVuSans-69"/>
      <use x="245.65625" xlink:href="#DejaVuSans-73"/>
      <use x="297.755859" xlink:href="#DejaVuSans-69"/>
      <use x="325.539062" xlink:href="#DejaVuSans-6f"/>
      <use x="386.720703" xlink:href="#DejaVuSans-6e"/>
     </g>
    </g>
   </g>
   <g id="line2d_13">
    <path clip-path="url(#p246582a129)" d="M 414.72 191.038599 
L 409.051429 191.038599 
L 409.051429 192.045176 
L 409.051429 191.189333 
L 403.382857 191.189333 
L 403.382857 192.21206 
L 403.382857 191.344602 
L 403.382857 191.344602 
L 403.382857 189.569954 
L 397.714286 189.569954 
L 397.714286 190.611692 
L 397.714286 189.70493 
L 397.714286 189.70493 
L 397.714286 181.911273 
L 392.045714 181.911273 
L 392.045714 182.976 
L 386.377143 182.976 
L 386.377143 184.058622 
L 386.377143 183.011797 
L 386.377143 183.011797 
L 386.377143 178.640842 
L 380.708571 178.640842 
L 380.708571 179.742584 
L 375.04 179.742584 
L 375.04 180.864 
L 375.04 180.864 
L 375.04 180.864 
L 375.04 179.722378 
L 369.371429 179.722378 
L 369.371429 180.864 
L 369.371429 180.864 
L 369.371429 180.864 
L 369.371429 179.701431 
L 363.702857 179.701431 
L 363.702857 180.864 
L 363.702857 180.864 
L 363.702857 180.864 
L 363.702857 179.679701 
L 358.034286 179.679701 
L 358.034286 180.864 
L 358.034286 180.864 
L 358.034286 180.864 
L 358.034286 179.657143 
L 352.365714 179.657143 
L 352.365714 180.864 
L 352.365714 180.864 
L 352.365714 180.864 
L 352.365714 177.10004 
L 346.697143 177.10004 
L 346.697143 178.3296 
L 346.697143 178.3296 
L 346.697143 178.3296 
L 346.697143 175.691755 
L 341.028571 175.691755 
L 341.028571 176.944825 
L 335.36 176.944825 
L 335.36 178.224 
L 335.36 178.224 
L 335.36 178.224 
L 335.36 172.599652 
L 329.691429 172.599652 
L 329.691429 173.901363 
L 329.691429 173.901363 
L 329.691429 173.901363 
L 329.691429 162.761143 
L 324.022857 162.761143 
L 324.022857 164.069783 
L 324.022857 164.069783 
L 324.022857 164.069783 
L 324.022857 162.31961 
L 318.354286 162.31961 
L 318.354286 163.655111 
L 318.354286 163.655111 
L 318.354286 163.655111 
L 318.354286 161.856 
L 312.685714 161.856 
L 312.685714 163.219443 
L 307.017143 163.219443 
L 307.017143 164.617846 
L 307.017143 164.617846 
L 307.017143 164.617846 
L 307.017143 158.8992 
L 301.348571 158.8992 
L 301.348571 160.314811 
L 295.68 160.314811 
L 295.68 161.769205 
L 290.011429 161.769205 
L 290.011429 163.264 
L 284.342857 163.264 
L 284.342857 164.800901 
L 284.342857 164.800901 
L 284.342857 164.800901 
L 284.342857 162.761143 
L 278.674286 162.761143 
L 278.674286 164.335304 
L 278.674286 164.335304 
L 278.674286 164.335304 
L 278.674286 162.228706 
L 273.005714 162.228706 
L 273.005714 163.84191 
L 273.005714 163.84191 
L 273.005714 163.84191 
L 273.005714 161.664 
L 267.337143 161.664 
L 267.337143 163.318154 
L 261.668571 163.318154 
L 261.668571 165.024 
L 256 165.024 
L 256 166.784 
L 256 166.784 
L 256 166.784 
L 256 164.513032 
L 250.331429 164.513032 
L 250.331429 166.322361 
L 244.662857 166.322361 
L 244.662857 168.192 
L 244.662857 168.192 
L 244.662857 168.192 
L 244.662857 165.829424 
L 238.994286 165.829424 
L 238.994286 167.755034 
L 238.994286 167.755034 
L 238.994286 167.755034 
L 238.994286 165.301895 
L 233.325714 165.301895 
L 233.325714 167.286857 
L 227.657143 167.286857 
L 227.657143 169.344 
L 227.657143 169.344 
L 227.657143 169.344 
L 227.657143 164.127396 
L 221.988571 164.127396 
L 221.988571 166.242462 
L 221.988571 166.242462 
L 221.988571 166.242462 
L 221.988571 160.5888 
L 216.32 160.5888 
L 216.32 162.761143 
L 216.32 162.761143 
L 216.32 162.761143 
L 216.32 156.598468 
L 210.651429 156.598468 
L 210.651429 158.825739 
L 204.982857 158.825739 
L 204.982857 161.152 
L 199.314286 161.152 
L 199.314286 163.584 
L 193.645714 163.584 
L 193.645714 166.129116 
L 187.977143 166.129116 
L 187.977143 168.795429 
L 187.977143 168.795429 
L 187.977143 168.795429 
L 187.977143 165.410341 
L 182.308571 165.410341 
L 182.308571 168.192 
L 182.308571 168.192 
L 182.308571 168.192 
L 182.308571 156.889946 
L 176.64 156.889946 
L 176.64 159.744 
L 176.64 159.744 
L 176.64 159.744 
L 176.64 155.52 
L 170.971429 155.52 
L 170.971429 158.501647 
L 165.302857 158.501647 
L 165.302857 161.664 
L 165.302857 161.664 
L 165.302857 161.664 
L 165.302857 147.072 
L 159.634286 147.072 
L 159.634286 150.276414 
L 159.634286 150.276414 
L 159.634286 150.276414 
L 159.634286 144.658286 
L 153.965714 144.658286 
L 153.965714 148.010667 
L 148.297143 148.010667 
L 148.297143 151.620923 
L 148.297143 151.620923 
L 148.297143 151.620923 
L 148.297143 145.3824 
L 142.628571 145.3824 
L 142.628571 149.184 
L 142.628571 149.184 
L 142.628571 149.184 
L 142.628571 142.297043 
L 136.96 142.297043 
L 136.96 146.304 
L 136.96 146.304 
L 136.96 146.304 
L 136.96 138.624 
L 131.291429 138.624 
L 131.291429 142.848 
L 125.622857 142.848 
L 125.622857 147.516632 
L 119.954286 147.516632 
L 119.954286 152.704 
L 114.285714 152.704 
L 114.285714 158.501647 
L 108.617143 158.501647 
L 108.617143 165.024 
L 108.617143 165.024 
L 108.617143 165.024 
L 108.617143 155.52 
L 102.948571 155.52 
L 102.948571 162.761143 
L 102.948571 162.761143 
L 102.948571 162.761143 
L 102.948571 151.620923 
L 97.28 151.620923 
L 97.28 159.744 
L 91.611429 159.744 
L 91.611429 169.344 
L 91.611429 169.344 
L 91.611429 169.344 
L 91.611429 138.624 
L 85.942857 138.624 
L 85.942857 149.184 
L 80.274286 149.184 
L 80.274286 162.761143 
L 80.274286 162.761143 
L 80.274286 162.761143 
L 80.274286 104.832 
L 74.605714 104.832 
L 74.605714 117.504 
L 74.605714 117.504 
L 74.605714 117.504 
L 74.605714 54.144 
L 57.6 54.144 
L 57.6 54.144 
" style="fill:none;stroke:#ff0000;stroke-linecap:square;stroke-width:1.5;"/>
   </g>
   <g id="line2d_14">
    <path clip-path="url(#p246582a129)" d="M 414.72 195.14231 
L 409.051429 195.14231 
L 409.051429 180.864 
L 363.702857 180.864 
L 363.702857 177.243429 
L 284.342857 177.243429 
L 284.342857 156.276537 
L 170.971429 156.276537 
L 170.971429 132.797793 
L 80.274286 132.797793 
L 80.274286 162.761143 
L 57.6 162.761143 
L 57.6 54.144 
" style="fill:none;stroke:#008000;stroke-linecap:square;stroke-width:1.5;"/>
   </g>
   <g id="line2d_15">
    <path clip-path="url(#p246582a129)" d="M 414.72 195.14231 
L 409.051429 195.14231 
L 409.051429 196.142298 
L 409.051429 195.346286 
L 403.382857 195.346286 
L 403.382857 196.362129 
L 403.382857 195.556174 
L 403.382857 195.556174 
L 403.382857 194.738453 
L 397.714286 194.738453 
L 397.714286 195.772235 
L 392.045714 195.772235 
L 392.045714 196.821333 
L 386.377143 196.821333 
L 386.377143 197.88609 
L 386.377143 197.061293 
L 386.377143 197.061293 
L 386.377143 195.373924 
L 380.708571 195.373924 
L 380.708571 196.460308 
L 380.708571 195.598884 
L 375.04 195.598884 
L 375.04 196.704 
L 369.371429 196.704 
L 369.371429 197.82652 
L 369.371429 196.955429 
L 369.371429 196.955429 
L 369.371429 191.424 
L 363.702857 191.424 
L 363.702857 192.577613 
L 363.702857 191.602983 
L 363.702857 191.602983 
L 363.702857 187.533474 
L 358.034286 187.533474 
L 358.034286 188.713912 
L 352.365714 188.713912 
L 352.365714 189.915429 
L 352.365714 188.855351 
L 352.365714 188.855351 
L 352.365714 187.776 
L 346.697143 187.776 
L 346.697143 189.001982 
L 346.697143 187.904 
L 341.028571 187.904 
L 341.028571 189.154093 
L 341.028571 188.03683 
L 341.028571 188.03683 
L 341.028571 182.118653 
L 335.36 182.118653 
L 335.36 183.3984 
L 329.691429 183.3984 
L 329.691429 184.704 
L 329.691429 183.450122 
L 324.022857 183.450122 
L 324.022857 184.783175 
L 324.022857 183.504 
L 318.354286 183.504 
L 318.354286 184.865684 
L 318.354286 183.56017 
L 318.354286 183.56017 
L 318.354286 179.471473 
L 312.685714 179.471473 
L 312.685714 180.864 
L 312.685714 180.864 
L 312.685714 180.864 
L 312.685714 177.984 
L 307.017143 177.984 
L 307.017143 179.407448 
L 307.017143 179.407448 
L 307.017143 179.407448 
L 307.017143 171.591805 
L 301.348571 171.591805 
L 301.348571 173.041778 
L 301.348571 173.041778 
L 301.348571 173.041778 
L 301.348571 171.36 
L 295.68 171.36 
L 295.68 172.843747 
L 295.68 172.843747 
L 295.68 172.843747 
L 295.68 171.116308 
L 290.011429 171.116308 
L 290.011429 172.635429 
L 290.011429 172.635429 
L 290.011429 172.635429 
L 290.011429 170.859789 
L 284.342857 170.859789 
L 284.342857 172.416 
L 284.342857 172.416 
L 284.342857 172.416 
L 284.342857 168.712767 
L 278.674286 168.712767 
L 278.674286 170.304 
L 273.005714 170.304 
L 273.005714 171.940056 
L 267.337143 171.940056 
L 267.337143 173.622857 
L 261.668571 173.622857 
L 261.668571 175.354435 
L 256 175.354435 
L 256 177.136941 
L 256 177.136941 
L 256 177.136941 
L 256 173.184 
L 250.331429 173.184 
L 250.331429 175.015385 
L 244.662857 175.015385 
L 244.662857 176.904 
L 238.994286 176.904 
L 238.994286 178.852571 
L 238.994286 178.852571 
L 238.994286 178.852571 
L 238.994286 176.776258 
L 233.325714 176.776258 
L 233.325714 178.786623 
L 233.325714 178.786623 
L 233.325714 178.786623 
L 233.325714 176.64 
L 227.657143 176.64 
L 227.657143 178.716203 
L 227.657143 178.716203 
L 227.657143 178.716203 
L 227.657143 176.494345 
L 221.988571 176.494345 
L 221.988571 178.640842 
L 216.32 178.640842 
L 216.32 180.864 
L 216.32 180.864 
L 216.32 180.864 
L 216.32 178.56 
L 210.651429 178.56 
L 210.651429 180.864 
L 210.651429 180.864 
L 210.651429 180.864 
L 210.651429 178.473057 
L 204.982857 178.473057 
L 204.982857 180.864 
L 199.314286 180.864 
L 199.314286 183.348706 
L 193.645714 183.348706 
L 193.645714 185.9328 
L 193.645714 183.450122 
L 193.645714 183.450122 
L 193.645714 180.864 
L 187.977143 180.864 
L 187.977143 183.56017 
L 182.308571 183.56017 
L 182.308571 186.373565 
L 176.64 186.373565 
L 176.64 189.312 
L 170.971429 189.312 
L 170.971429 192.384 
L 170.971429 189.70493 
L 170.971429 189.70493 
L 170.971429 183.954732 
L 165.302857 183.954732 
L 165.302857 187.2 
L 165.302857 184.113231 
L 159.634286 184.113231 
L 159.634286 187.533474 
L 159.634286 184.288865 
L 159.634286 184.288865 
L 159.634286 173.409882 
L 153.965714 173.409882 
L 153.965714 177.024 
L 148.297143 177.024 
L 148.297143 180.864 
L 142.628571 180.864 
L 142.628571 184.951742 
L 142.628571 184.951742 
L 142.628571 184.951742 
L 142.628571 176.494345 
L 136.96 176.494345 
L 136.96 180.864 
L 131.291429 180.864 
L 131.291429 185.557333 
L 125.622857 185.557333 
L 125.622857 190.611692 
L 125.622857 185.9328 
L 125.622857 185.9328 
L 125.622857 180.864 
L 119.954286 180.864 
L 119.954286 186.373565 
L 119.954286 186.373565 
L 119.954286 186.373565 
L 119.954286 174.829714 
L 114.285714 174.829714 
L 114.285714 180.864 
L 114.285714 180.864 
L 114.285714 180.864 
L 114.285714 174.194526 
L 108.617143 174.194526 
L 108.617143 180.864 
L 108.617143 180.864 
L 108.617143 180.864 
L 108.617143 165.024 
L 102.948571 165.024 
L 102.948571 172.416 
L 102.948571 172.416 
L 102.948571 172.416 
L 102.948571 151.620923 
L 97.28 151.620923 
L 97.28 159.744 
L 97.28 159.744 
L 97.28 159.744 
L 97.28 85.824 
L 91.611429 85.824 
L 91.611429 90.349714 
L 85.942857 90.349714 
L 85.942857 96.384 
L 80.274286 96.384 
L 80.274286 104.832 
L 74.605714 104.832 
L 74.605714 117.504 
L 68.937143 117.504 
L 68.937143 138.624 
L 63.268571 138.624 
L 63.268571 180.864 
L 63.268571 180.864 
L 63.268571 180.864 
L 63.268571 54.144 
L 57.6 54.144 
L 57.6 54.144 
" style="fill:none;stroke:#0000ff;stroke-linecap:square;stroke-width:1.5;"/>
   </g>
   <g id="line2d_16">
    <path clip-path="url(#p246582a129)" d="M 414.72 176.709246 
L 409.051429 176.709246 
L 409.051429 177.722182 
L 409.051429 177.722182 
L 409.051429 177.722182 
L 409.051429 167.286857 
L 403.382857 167.286857 
L 403.382857 168.306162 
L 397.714286 168.306162 
L 397.714286 169.344 
L 392.045714 169.344 
L 392.045714 170.400881 
L 392.045714 170.400881 
L 392.045714 170.400881 
L 392.045714 165.174857 
L 386.377143 165.174857 
L 386.377143 166.242462 
L 386.377143 166.242462 
L 386.377143 166.242462 
L 386.377143 163.471059 
L 380.708571 163.471059 
L 380.708571 164.553505 
L 380.708571 164.553505 
L 380.708571 164.553505 
L 380.708571 160.17502 
L 375.04 160.17502 
L 375.04 161.268124 
L 375.04 161.268124 
L 375.04 161.268124 
L 375.04 153.316174 
L 363.702857 153.316174 
L 363.702857 155.52 
L 358.034286 155.52 
L 358.034286 156.659056 
L 352.365714 156.659056 
L 352.365714 157.824 
L 352.365714 157.824 
L 352.365714 157.824 
L 352.365714 148.802313 
L 346.697143 148.802313 
L 346.697143 149.956683 
L 341.028571 149.956683 
L 341.028571 151.139556 
L 335.36 151.139556 
L 335.36 152.352 
L 329.691429 152.352 
L 329.691429 153.595139 
L 329.691429 153.595139 
L 329.691429 153.595139 
L 329.691429 149.595429 
L 324.022857 149.595429 
L 324.022857 150.851368 
L 318.354286 150.851368 
L 318.354286 152.1408 
L 318.354286 152.1408 
L 318.354286 152.1408 
L 318.354286 143.383437 
L 312.685714 143.383437 
L 312.685714 144.658286 
L 312.685714 144.658286 
L 312.685714 144.658286 
L 312.685714 142.297043 
L 307.017143 142.297043 
L 307.017143 143.593412 
L 307.017143 143.593412 
L 307.017143 143.593412 
L 307.017143 136.024615 
L 301.348571 136.024615 
L 301.348571 137.304 
L 295.68 137.304 
L 295.68 138.624 
L 290.011429 138.624 
L 290.011429 139.986581 
L 290.011429 139.986581 
L 290.011429 139.986581 
L 290.011429 137.239082 
L 284.342857 137.239082 
L 284.342857 138.624 
L 284.342857 138.624 
L 284.342857 138.624 
L 284.342857 132.797793 
L 278.674286 132.797793 
L 278.674286 134.177684 
L 273.005714 134.177684 
L 273.005714 135.606857 
L 267.337143 135.606857 
L 267.337143 137.088 
L 261.668571 137.088 
L 261.668571 138.624 
L 261.668571 138.624 
L 261.668571 138.624 
L 261.668571 135.436075 
L 250.331429 135.436075 
L 250.331429 138.624 
L 244.662857 138.624 
L 244.662857 140.3136 
L 238.994286 140.3136 
L 238.994286 142.072163 
L 233.325714 142.072163 
L 233.325714 143.904 
L 227.657143 143.904 
L 227.657143 145.813787 
L 227.657143 145.813787 
L 227.657143 145.813787 
L 227.657143 138.624 
L 221.988571 138.624 
L 221.988571 140.544 
L 221.988571 140.544 
L 221.988571 140.544 
L 221.988571 136.659349 
L 216.32 136.659349 
L 216.32 138.624 
L 210.651429 138.624 
L 210.651429 140.684488 
L 210.651429 140.684488 
L 210.651429 140.684488 
L 210.651429 132.125538 
L 204.982857 132.125538 
L 204.982857 134.177684 
L 204.982857 134.177684 
L 204.982857 134.177684 
L 204.982857 129.491027 
L 199.314286 129.491027 
L 199.314286 131.584 
L 193.645714 131.584 
L 193.645714 133.796571 
L 187.977143 133.796571 
L 187.977143 136.139294 
L 187.977143 136.139294 
L 187.977143 136.139294 
L 187.977143 130.944 
L 182.308571 130.944 
L 182.308571 133.344 
L 176.64 133.344 
L 176.64 135.898839 
L 176.64 135.898839 
L 176.64 135.898839 
L 176.64 130.176 
L 170.971429 130.176 
L 170.971429 132.797793 
L 165.302857 132.797793 
L 165.302857 135.606857 
L 165.302857 135.606857 
L 165.302857 135.606857 
L 165.302857 129.237333 
L 159.634286 129.237333 
L 159.634286 132.125538 
L 153.965714 132.125538 
L 153.965714 135.2448 
L 148.297143 135.2448 
L 148.297143 138.624 
L 142.628571 138.624 
L 142.628571 142.297043 
L 136.96 142.297043 
L 136.96 146.304 
L 131.291429 146.304 
L 131.291429 150.692571 
L 125.622857 150.692571 
L 125.622857 155.52 
L 125.622857 155.52 
L 125.622857 155.52 
L 125.622857 147.516632 
L 119.954286 147.516632 
L 119.954286 152.704 
L 114.285714 152.704 
L 114.285714 158.501647 
L 108.617143 158.501647 
L 108.617143 165.024 
L 102.948571 165.024 
L 102.948571 172.416 
L 97.28 172.416 
L 97.28 180.864 
L 97.28 180.864 
L 97.28 180.864 
L 97.28 159.744 
L 91.611429 159.744 
L 91.611429 169.344 
L 91.611429 169.344 
L 91.611429 169.344 
L 91.611429 138.624 
L 85.942857 138.624 
L 85.942857 149.184 
L 80.274286 149.184 
L 80.274286 162.761143 
L 80.274286 162.761143 
L 80.274286 162.761143 
L 80.274286 104.832 
L 74.605714 104.832 
L 74.605714 117.504 
L 68.937143 117.504 
L 68.937143 138.624 
L 63.268571 138.624 
L 63.268571 180.864 
L 57.6 180.864 
L 57.6 307.584 
L 57.6 307.584 
L 57.6 307.584 
L 57.6 54.144 
L 57.6 54.144 
" style="fill:none;stroke:#000000;stroke-linecap:square;stroke-width:1.5;"/>
   </g>
   <g id="patch_3">
    <path d="M 57.6 307.584 
L 57.6 41.472 
" style="fill:none;stroke:#000000;stroke-linecap:square;stroke-linejoin:miter;stroke-width:0.8;"/>
   </g>
   <g id="patch_4">
    <path d="M 414.72 307.584 
L 414.72 41.472 
" style="fill:none;stroke:#000000;stroke-linecap:square;stroke-linejoin:miter;stroke-width:0.8;"/>
   </g>
   <g id="patch_5">
    <path d="M 57.6 307.584 
L 414.72 307.584 
" style="fill:none;stroke:#000000;stroke-linecap:square;stroke-linejoin:miter;stroke-width:0.8;"/>
   </g>
   <g id="patch_6">
    <path d="M 57.6 41.472 
L 414.72 41.472 
" style="fill:none;stroke:#000000;stroke-linecap:square;stroke-linejoin:miter;stroke-width:0.8;"/>
   </g>
   <g id="legend_1">
    <g id="patch_7">
     <path d="M 272.627813 108.1845 
L 407.72 108.1845 
Q 409.72 108.1845 409.72 106.1845 
L 409.72 48.472 
Q 409.72 46.472 407.72 46.472 
L 272.627813 46.472 
Q 270.627813 46.472 270.627813 48.472 
L 270.627813 106.1845 
Q 270.627813 108.1845 272.627813 108.1845 
z
" style="fill:#ffffff;opacity:0.8;stroke:#cccccc;stroke-linejoin:miter;"/>
    </g>
    <g id="line2d_17">
     <path d="M 274.627813 54.570438 
L 294.627813 54.570438 
" style="fill:none;stroke:#ff0000;stroke-linecap:square;stroke-width:1.5;"/>
    </g>
    <g id="line2d_18"/>
    <g id="text_15">
     <!-- MLPClassifier -->
     <defs>
      <path d="M 9.8125 72.90625 
L 24.515625 72.90625 
L 43.109375 23.296875 
L 61.8125 72.90625 
L 76.515625 72.90625 
L 76.515625 0 
L 66.890625 0 
L 66.890625 64.015625 
L 48.09375 14.015625 
L 38.1875 14.015625 
L 19.390625 64.015625 
L 19.390625 0 
L 9.8125 0 
z
" id="DejaVuSans-4d"/>
      <path d="M 9.8125 72.90625 
L 19.671875 72.90625 
L 19.671875 8.296875 
L 55.171875 8.296875 
L 55.171875 0 
L 9.8125 0 
z
" id="DejaVuSans-4c"/>
      <path d="M 64.40625 67.28125 
L 64.40625 56.890625 
Q 59.421875 61.53125 53.78125 63.8125 
Q 48.140625 66.109375 41.796875 66.109375 
Q 29.296875 66.109375 22.65625 58.46875 
Q 16.015625 50.828125 16.015625 36.375 
Q 16.015625 21.96875 22.65625 14.328125 
Q 29.296875 6.6875 41.796875 6.6875 
Q 48.140625 6.6875 53.78125 8.984375 
Q 59.421875 11.28125 64.40625 15.921875 
L 64.40625 5.609375 
Q 59.234375 2.09375 53.4375 0.328125 
Q 47.65625 -1.421875 41.21875 -1.421875 
Q 24.65625 -1.421875 15.125 8.703125 
Q 5.609375 18.84375 5.609375 36.375 
Q 5.609375 53.953125 15.125 64.078125 
Q 24.65625 74.21875 41.21875 74.21875 
Q 47.75 74.21875 53.53125 72.484375 
Q 59.328125 70.75 64.40625 67.28125 
" id="DejaVuSans-43"/>
      <path d="M 37.109375 75.984375 
L 37.109375 68.5 
L 28.515625 68.5 
Q 23.6875 68.5 21.796875 66.546875 
Q 19.921875 64.59375 19.921875 59.515625 
L 19.921875 54.6875 
L 34.71875 54.6875 
L 34.71875 47.703125 
L 19.921875 47.703125 
L 19.921875 0 
L 10.890625 0 
L 10.890625 47.703125 
L 2.296875 47.703125 
L 2.296875 54.6875 
L 10.890625 54.6875 
L 10.890625 58.5 
Q 10.890625 67.625 15.140625 71.796875 
Q 19.390625 75.984375 28.609375 75.984375 
z
" id="DejaVuSans-66"/>
     </defs>
     <g transform="translate(302.627813 58.070438)scale(0.1 -0.1)">
      <use xlink:href="#DejaVuSans-4d"/>
      <use x="86.279297" xlink:href="#DejaVuSans-4c"/>
      <use x="141.992188" xlink:href="#DejaVuSans-50"/>
      <use x="202.294922" xlink:href="#DejaVuSans-43"/>
      <use x="272.119141" xlink:href="#DejaVuSans-6c"/>
      <use x="299.902344" xlink:href="#DejaVuSans-61"/>
      <use x="361.181641" xlink:href="#DejaVuSans-73"/>
      <use x="413.28125" xlink:href="#DejaVuSans-73"/>
      <use x="465.380859" xlink:href="#DejaVuSans-69"/>
      <use x="493.164062" xlink:href="#DejaVuSans-66"/>
      <use x="528.369141" xlink:href="#DejaVuSans-69"/>
      <use x="556.152344" xlink:href="#DejaVuSans-65"/>
      <use x="617.675781" xlink:href="#DejaVuSans-72"/>
     </g>
    </g>
    <g id="line2d_19">
     <path d="M 274.627813 69.248563 
L 294.627813 69.248563 
" style="fill:none;stroke:#008000;stroke-linecap:square;stroke-width:1.5;"/>
    </g>
    <g id="line2d_20"/>
    <g id="text_16">
     <!-- KNeighborsClassifier -->
     <defs>
      <path d="M 9.8125 72.90625 
L 19.671875 72.90625 
L 19.671875 42.09375 
L 52.390625 72.90625 
L 65.09375 72.90625 
L 28.90625 38.921875 
L 67.671875 0 
L 54.6875 0 
L 19.671875 35.109375 
L 19.671875 0 
L 9.8125 0 
z
" id="DejaVuSans-4b"/>
      <path d="M 9.8125 72.90625 
L 23.09375 72.90625 
L 55.421875 11.921875 
L 55.421875 72.90625 
L 64.984375 72.90625 
L 64.984375 0 
L 51.703125 0 
L 19.390625 60.984375 
L 19.390625 0 
L 9.8125 0 
z
" id="DejaVuSans-4e"/>
      <path d="M 45.40625 27.984375 
Q 45.40625 37.75 41.375 43.109375 
Q 37.359375 48.484375 30.078125 48.484375 
Q 22.859375 48.484375 18.828125 43.109375 
Q 14.796875 37.75 14.796875 27.984375 
Q 14.796875 18.265625 18.828125 12.890625 
Q 22.859375 7.515625 30.078125 7.515625 
Q 37.359375 7.515625 41.375 12.890625 
Q 45.40625 18.265625 45.40625 27.984375 
M 54.390625 6.78125 
Q 54.390625 -7.171875 48.1875 -13.984375 
Q 42 -20.796875 29.203125 -20.796875 
Q 24.46875 -20.796875 20.265625 -20.09375 
Q 16.0625 -19.390625 12.109375 -17.921875 
L 12.109375 -9.1875 
Q 16.0625 -11.328125 19.921875 -12.34375 
Q 23.78125 -13.375 27.78125 -13.375 
Q 36.625 -13.375 41.015625 -8.765625 
Q 45.40625 -4.15625 45.40625 5.171875 
L 45.40625 9.625 
Q 42.625 4.78125 38.28125 2.390625 
Q 33.9375 0 27.875 0 
Q 17.828125 0 11.671875 7.65625 
Q 5.515625 15.328125 5.515625 27.984375 
Q 5.515625 40.671875 11.671875 48.328125 
Q 17.828125 56 27.875 56 
Q 33.9375 56 38.28125 53.609375 
Q 42.625 51.21875 45.40625 46.390625 
L 45.40625 54.6875 
L 54.390625 54.6875 
z
" id="DejaVuSans-67"/>
      <path d="M 54.890625 33.015625 
L 54.890625 0 
L 45.90625 0 
L 45.90625 32.71875 
Q 45.90625 40.484375 42.875 44.328125 
Q 39.84375 48.1875 33.796875 48.1875 
Q 26.515625 48.1875 22.3125 43.546875 
Q 18.109375 38.921875 18.109375 30.90625 
L 18.109375 0 
L 9.078125 0 
L 9.078125 75.984375 
L 18.109375 75.984375 
L 18.109375 46.1875 
Q 21.34375 51.125 25.703125 53.5625 
Q 30.078125 56 35.796875 56 
Q 45.21875 56 50.046875 50.171875 
Q 54.890625 44.34375 54.890625 33.015625 
" id="DejaVuSans-68"/>
      <path d="M 48.6875 27.296875 
Q 48.6875 37.203125 44.609375 42.84375 
Q 40.53125 48.484375 33.40625 48.484375 
Q 26.265625 48.484375 22.1875 42.84375 
Q 18.109375 37.203125 18.109375 27.296875 
Q 18.109375 17.390625 22.1875 11.75 
Q 26.265625 6.109375 33.40625 6.109375 
Q 40.53125 6.109375 44.609375 11.75 
Q 48.6875 17.390625 48.6875 27.296875 
M 18.109375 46.390625 
Q 20.953125 51.265625 25.265625 53.625 
Q 29.59375 56 35.59375 56 
Q 45.5625 56 51.78125 48.09375 
Q 58.015625 40.1875 58.015625 27.296875 
Q 58.015625 14.40625 51.78125 6.484375 
Q 45.5625 -1.421875 35.59375 -1.421875 
Q 29.59375 -1.421875 25.265625 0.953125 
Q 20.953125 3.328125 18.109375 8.203125 
L 18.109375 0 
L 9.078125 0 
L 9.078125 75.984375 
L 18.109375 75.984375 
z
" id="DejaVuSans-62"/>
     </defs>
     <g transform="translate(302.627813 72.748563)scale(0.1 -0.1)">
      <use xlink:href="#DejaVuSans-4b"/>
      <use x="65.576172" xlink:href="#DejaVuSans-4e"/>
      <use x="140.380859" xlink:href="#DejaVuSans-65"/>
      <use x="201.904297" xlink:href="#DejaVuSans-69"/>
      <use x="229.6875" xlink:href="#DejaVuSans-67"/>
      <use x="293.164062" xlink:href="#DejaVuSans-68"/>
      <use x="356.542969" xlink:href="#DejaVuSans-62"/>
      <use x="420.019531" xlink:href="#DejaVuSans-6f"/>
      <use x="481.201172" xlink:href="#DejaVuSans-72"/>
      <use x="522.314453" xlink:href="#DejaVuSans-73"/>
      <use x="574.414062" xlink:href="#DejaVuSans-43"/>
      <use x="644.238281" xlink:href="#DejaVuSans-6c"/>
      <use x="672.021484" xlink:href="#DejaVuSans-61"/>
      <use x="733.300781" xlink:href="#DejaVuSans-73"/>
      <use x="785.400391" xlink:href="#DejaVuSans-73"/>
      <use x="837.5" xlink:href="#DejaVuSans-69"/>
      <use x="865.283203" xlink:href="#DejaVuSans-66"/>
      <use x="900.488281" xlink:href="#DejaVuSans-69"/>
      <use x="928.271484" xlink:href="#DejaVuSans-65"/>
      <use x="989.794922" xlink:href="#DejaVuSans-72"/>
     </g>
    </g>
    <g id="line2d_21">
     <path d="M 274.627813 83.926688 
L 294.627813 83.926688 
" style="fill:none;stroke:#0000ff;stroke-linecap:square;stroke-width:1.5;"/>
    </g>
    <g id="line2d_22"/>
    <g id="text_17">
     <!-- LogisticRegression -->
     <defs>
      <path d="M 18.3125 70.21875 
L 18.3125 54.6875 
L 36.8125 54.6875 
L 36.8125 47.703125 
L 18.3125 47.703125 
L 18.3125 18.015625 
Q 18.3125 11.328125 20.140625 9.421875 
Q 21.96875 7.515625 27.59375 7.515625 
L 36.8125 7.515625 
L 36.8125 0 
L 27.59375 0 
Q 17.1875 0 13.234375 3.875 
Q 9.28125 7.765625 9.28125 18.015625 
L 9.28125 47.703125 
L 2.6875 47.703125 
L 2.6875 54.6875 
L 9.28125 54.6875 
L 9.28125 70.21875 
z
" id="DejaVuSans-74"/>
     </defs>
     <g transform="translate(302.627813 87.426688)scale(0.1 -0.1)">
      <use xlink:href="#DejaVuSans-4c"/>
      <use x="55.697266" xlink:href="#DejaVuSans-6f"/>
      <use x="116.878906" xlink:href="#DejaVuSans-67"/>
      <use x="180.355469" xlink:href="#DejaVuSans-69"/>
      <use x="208.138672" xlink:href="#DejaVuSans-73"/>
      <use x="260.238281" xlink:href="#DejaVuSans-74"/>
      <use x="299.447266" xlink:href="#DejaVuSans-69"/>
      <use x="327.230469" xlink:href="#DejaVuSans-63"/>
      <use x="382.210938" xlink:href="#DejaVuSans-52"/>
      <use x="451.630859" xlink:href="#DejaVuSans-65"/>
      <use x="513.154297" xlink:href="#DejaVuSans-67"/>
      <use x="576.630859" xlink:href="#DejaVuSans-72"/>
      <use x="617.712891" xlink:href="#DejaVuSans-65"/>
      <use x="679.236328" xlink:href="#DejaVuSans-73"/>
      <use x="731.335938" xlink:href="#DejaVuSans-73"/>
      <use x="783.435547" xlink:href="#DejaVuSans-69"/>
      <use x="811.21875" xlink:href="#DejaVuSans-6f"/>
      <use x="872.400391" xlink:href="#DejaVuSans-6e"/>
     </g>
    </g>
    <g id="line2d_23">
     <path d="M 274.627813 98.604813 
L 294.627813 98.604813 
" style="fill:none;stroke:#000000;stroke-linecap:square;stroke-width:1.5;"/>
    </g>
    <g id="line2d_24"/>
    <g id="text_18">
     <!-- XGBClassifier -->
     <defs>
      <path d="M 6.296875 72.90625 
L 16.890625 72.90625 
L 35.015625 45.796875 
L 53.21875 72.90625 
L 63.8125 72.90625 
L 40.375 37.890625 
L 65.375 0 
L 54.78125 0 
L 34.28125 31 
L 13.625 0 
L 2.984375 0 
L 29 38.921875 
z
" id="DejaVuSans-58"/>
      <path d="M 59.515625 10.40625 
L 59.515625 29.984375 
L 43.40625 29.984375 
L 43.40625 38.09375 
L 69.28125 38.09375 
L 69.28125 6.78125 
Q 63.578125 2.734375 56.6875 0.65625 
Q 49.8125 -1.421875 42 -1.421875 
Q 24.90625 -1.421875 15.25 8.5625 
Q 5.609375 18.5625 5.609375 36.375 
Q 5.609375 54.25 15.25 64.234375 
Q 24.90625 74.21875 42 74.21875 
Q 49.125 74.21875 55.546875 72.453125 
Q 61.96875 70.703125 67.390625 67.28125 
L 67.390625 56.78125 
Q 61.921875 61.421875 55.765625 63.765625 
Q 49.609375 66.109375 42.828125 66.109375 
Q 29.4375 66.109375 22.71875 58.640625 
Q 16.015625 51.171875 16.015625 36.375 
Q 16.015625 21.625 22.71875 14.15625 
Q 29.4375 6.6875 42.828125 6.6875 
Q 48.046875 6.6875 52.140625 7.59375 
Q 56.25 8.5 59.515625 10.40625 
" id="DejaVuSans-47"/>
      <path d="M 19.671875 34.8125 
L 19.671875 8.109375 
L 35.5 8.109375 
Q 43.453125 8.109375 47.28125 11.40625 
Q 51.125 14.703125 51.125 21.484375 
Q 51.125 28.328125 47.28125 31.5625 
Q 43.453125 34.8125 35.5 34.8125 
z
M 19.671875 64.796875 
L 19.671875 42.828125 
L 34.28125 42.828125 
Q 41.5 42.828125 45.03125 45.53125 
Q 48.578125 48.25 48.578125 53.8125 
Q 48.578125 59.328125 45.03125 62.0625 
Q 41.5 64.796875 34.28125 64.796875 
z
M 9.8125 72.90625 
L 35.015625 72.90625 
Q 46.296875 72.90625 52.390625 68.21875 
Q 58.5 63.53125 58.5 54.890625 
Q 58.5 48.1875 55.375 44.234375 
Q 52.25 40.28125 46.1875 39.3125 
Q 53.46875 37.75 57.5 32.78125 
Q 61.53125 27.828125 61.53125 20.40625 
Q 61.53125 10.640625 54.890625 5.3125 
Q 48.25 0 35.984375 0 
L 9.8125 0 
z
" id="DejaVuSans-42"/>
     </defs>
     <g transform="translate(302.627813 102.104813)scale(0.1 -0.1)">
      <use xlink:href="#DejaVuSans-58"/>
      <use x="68.505859" xlink:href="#DejaVuSans-47"/>
      <use x="145.996094" xlink:href="#DejaVuSans-42"/>
      <use x="214.583984" xlink:href="#DejaVuSans-43"/>
      <use x="284.408203" xlink:href="#DejaVuSans-6c"/>
      <use x="312.191406" xlink:href="#DejaVuSans-61"/>
      <use x="373.470703" xlink:href="#DejaVuSans-73"/>
      <use x="425.570312" xlink:href="#DejaVuSans-73"/>
      <use x="477.669922" xlink:href="#DejaVuSans-69"/>
      <use x="505.453125" xlink:href="#DejaVuSans-66"/>
      <use x="540.658203" xlink:href="#DejaVuSans-69"/>
      <use x="568.441406" xlink:href="#DejaVuSans-65"/>
      <use x="629.964844" xlink:href="#DejaVuSans-72"/>
     </g>
    </g>
   </g>
  </g>
 </g>
 <defs>
  <clipPath id="p246582a129">
   <rect height="266.112" width="357.12" x="57.6" y="41.472"/>
  </clipPath>
 </defs>
</svg>
