<?xml version="1.0" encoding="utf-8" standalone="no"?>
<!DOCTYPE svg PUBLIC "-//W3C//DTD SVG 1.1//EN"
  "http://www.w3.org/Graphics/SVG/1.1/DTD/svg11.dtd">
<!-- Created with matplotlib (http://matplotlib.org/) -->
<svg height="345pt" version="1.1" viewBox="0 0 460 345" width="460pt" xmlns="http://www.w3.org/2000/svg" xmlns:xlink="http://www.w3.org/1999/xlink">
 <defs>
  <style type="text/css">
*{stroke-linecap:butt;stroke-linejoin:round;}
  </style>
 </defs>
 <g id="figure_1">
  <g id="patch_1">
   <path d="M 0 345.6 
L 460.8 345.6 
L 460.8 0 
L 0 0 
z
" style="fill:#ffffff;"/>
  </g>
  <g id="axes_1">
   <g id="patch_2">
    <path d="M 57.6 307.584 
L 414.72 307.584 
L 414.72 41.472 
L 57.6 41.472 
z
" style="fill:#ffffff;"/>
   </g>
   <g id="matplotlib.axis_1">
    <g id="xtick_1">
     <g id="line2d_1">
      <defs>
       <path d="M 0 0 
L 0 3.5 
" id="ma6f6c18c68" style="stroke:#000000;stroke-width:0.8;"/>
      </defs>
      <g>
       <use style="stroke:#000000;stroke-width:0.8;" x="57.6" xlink:href="#ma6f6c18c68" y="307.584"/>
      </g>
     </g>
     <g id="text_1">
      <!-- 0.0 -->
      <defs>
       <path d="M 31.78125 66.40625 
Q 24.171875 66.40625 20.328125 58.90625 
Q 16.5 51.421875 16.5 36.375 
Q 16.5 21.390625 20.328125 13.890625 
Q 24.171875 6.390625 31.78125 6.390625 
Q 39.453125 6.390625 43.28125 13.890625 
Q 47.125 21.390625 47.125 36.375 
Q 47.125 51.421875 43.28125 58.90625 
Q 39.453125 66.40625 31.78125 66.40625 
M 31.78125 74.21875 
Q 44.046875 74.21875 50.515625 64.515625 
Q 56.984375 54.828125 56.984375 36.375 
Q 56.984375 17.96875 50.515625 8.265625 
Q 44.046875 -1.421875 31.78125 -1.421875 
Q 19.53125 -1.421875 13.0625 8.265625 
Q 6.59375 17.96875 6.59375 36.375 
Q 6.59375 54.828125 13.0625 64.515625 
Q 19.53125 74.21875 31.78125 74.21875 
" id="DejaVuSans-30"/>
       <path d="M 10.6875 12.40625 
L 21 12.40625 
L 21 0 
L 10.6875 0 
z
" id="DejaVuSans-2e"/>
      </defs>
      <g transform="translate(49.648438 322.182437)scale(0.1 -0.1)">
       <use xlink:href="#DejaVuSans-30"/>
       <use x="63.623047" xlink:href="#DejaVuSans-2e"/>
       <use x="95.410156" xlink:href="#DejaVuSans-30"/>
      </g>
     </g>
    </g>
    <g id="xtick_2">
     <g id="line2d_2">
      <g>
       <use style="stroke:#000000;stroke-width:0.8;" x="129.024" xlink:href="#ma6f6c18c68" y="307.584"/>
      </g>
     </g>
     <g id="text_2">
      <!-- 0.2 -->
      <defs>
       <path d="M 19.1875 8.296875 
L 53.609375 8.296875 
L 53.609375 0 
L 7.328125 0 
L 7.328125 8.296875 
Q 12.9375 14.109375 22.625 23.890625 
Q 32.328125 33.6875 34.8125 36.53125 
Q 39.546875 41.84375 41.421875 45.53125 
Q 43.3125 49.21875 43.3125 52.78125 
Q 43.3125 58.59375 39.234375 62.25 
Q 35.15625 65.921875 28.609375 65.921875 
Q 23.96875 65.921875 18.8125 64.3125 
Q 13.671875 62.703125 7.8125 59.421875 
L 7.8125 69.390625 
Q 13.765625 71.78125 18.9375 73 
Q 24.125 74.21875 28.421875 74.21875 
Q 39.75 74.21875 46.484375 68.546875 
Q 53.21875 62.890625 53.21875 53.421875 
Q 53.21875 48.921875 51.53125 44.890625 
Q 49.859375 40.875 45.40625 35.40625 
Q 44.1875 33.984375 37.640625 27.21875 
Q 31.109375 20.453125 19.1875 8.296875 
" id="DejaVuSans-32"/>
      </defs>
      <g transform="translate(121.072438 322.182437)scale(0.1 -0.1)">
       <use xlink:href="#DejaVuSans-30"/>
       <use x="63.623047" xlink:href="#DejaVuSans-2e"/>
       <use x="95.410156" xlink:href="#DejaVuSans-32"/>
      </g>
     </g>
    </g>
    <g id="xtick_3">
     <g id="line2d_3">
      <g>
       <use style="stroke:#000000;stroke-width:0.8;" x="200.448" xlink:href="#ma6f6c18c68" y="307.584"/>
      </g>
     </g>
     <g id="text_3">
      <!-- 0.4 -->
      <defs>
       <path d="M 37.796875 64.3125 
L 12.890625 25.390625 
L 37.796875 25.390625 
z
M 35.203125 72.90625 
L 47.609375 72.90625 
L 47.609375 25.390625 
L 58.015625 25.390625 
L 58.015625 17.1875 
L 47.609375 17.1875 
L 47.609375 0 
L 37.796875 0 
L 37.796875 17.1875 
L 4.890625 17.1875 
L 4.890625 26.703125 
z
" id="DejaVuSans-34"/>
      </defs>
      <g transform="translate(192.496438 322.182437)scale(0.1 -0.1)">
       <use xlink:href="#DejaVuSans-30"/>
       <use x="63.623047" xlink:href="#DejaVuSans-2e"/>
       <use x="95.410156" xlink:href="#DejaVuSans-34"/>
      </g>
     </g>
    </g>
    <g id="xtick_4">
     <g id="line2d_4">
      <g>
       <use style="stroke:#000000;stroke-width:0.8;" x="271.872" xlink:href="#ma6f6c18c68" y="307.584"/>
      </g>
     </g>
     <g id="text_4">
      <!-- 0.6 -->
      <defs>
       <path d="M 33.015625 40.375 
Q 26.375 40.375 22.484375 35.828125 
Q 18.609375 31.296875 18.609375 23.390625 
Q 18.609375 15.53125 22.484375 10.953125 
Q 26.375 6.390625 33.015625 6.390625 
Q 39.65625 6.390625 43.53125 10.953125 
Q 47.40625 15.53125 47.40625 23.390625 
Q 47.40625 31.296875 43.53125 35.828125 
Q 39.65625 40.375 33.015625 40.375 
M 52.59375 71.296875 
L 52.59375 62.3125 
Q 48.875 64.0625 45.09375 64.984375 
Q 41.3125 65.921875 37.59375 65.921875 
Q 27.828125 65.921875 22.671875 59.328125 
Q 17.53125 52.734375 16.796875 39.40625 
Q 19.671875 43.65625 24.015625 45.921875 
Q 28.375 48.1875 33.59375 48.1875 
Q 44.578125 48.1875 50.953125 41.515625 
Q 57.328125 34.859375 57.328125 23.390625 
Q 57.328125 12.15625 50.6875 5.359375 
Q 44.046875 -1.421875 33.015625 -1.421875 
Q 20.359375 -1.421875 13.671875 8.265625 
Q 6.984375 17.96875 6.984375 36.375 
Q 6.984375 53.65625 15.1875 63.9375 
Q 23.390625 74.21875 37.203125 74.21875 
Q 40.921875 74.21875 44.703125 73.484375 
Q 48.484375 72.75 52.59375 71.296875 
" id="DejaVuSans-36"/>
      </defs>
      <g transform="translate(263.920438 322.182437)scale(0.1 -0.1)">
       <use xlink:href="#DejaVuSans-30"/>
       <use x="63.623047" xlink:href="#DejaVuSans-2e"/>
       <use x="95.410156" xlink:href="#DejaVuSans-36"/>
      </g>
     </g>
    </g>
    <g id="xtick_5">
     <g id="line2d_5">
      <g>
       <use style="stroke:#000000;stroke-width:0.8;" x="343.296" xlink:href="#ma6f6c18c68" y="307.584"/>
      </g>
     </g>
     <g id="text_5">
      <!-- 0.8 -->
      <defs>
       <path d="M 31.78125 34.625 
Q 24.75 34.625 20.71875 30.859375 
Q 16.703125 27.09375 16.703125 20.515625 
Q 16.703125 13.921875 20.71875 10.15625 
Q 24.75 6.390625 31.78125 6.390625 
Q 38.8125 6.390625 42.859375 10.171875 
Q 46.921875 13.96875 46.921875 20.515625 
Q 46.921875 27.09375 42.890625 30.859375 
Q 38.875 34.625 31.78125 34.625 
M 21.921875 38.8125 
Q 15.578125 40.375 12.03125 44.71875 
Q 8.5 49.078125 8.5 55.328125 
Q 8.5 64.0625 14.71875 69.140625 
Q 20.953125 74.21875 31.78125 74.21875 
Q 42.671875 74.21875 48.875 69.140625 
Q 55.078125 64.0625 55.078125 55.328125 
Q 55.078125 49.078125 51.53125 44.71875 
Q 48 40.375 41.703125 38.8125 
Q 48.828125 37.15625 52.796875 32.3125 
Q 56.78125 27.484375 56.78125 20.515625 
Q 56.78125 9.90625 50.3125 4.234375 
Q 43.84375 -1.421875 31.78125 -1.421875 
Q 19.734375 -1.421875 13.25 4.234375 
Q 6.78125 9.90625 6.78125 20.515625 
Q 6.78125 27.484375 10.78125 32.3125 
Q 14.796875 37.15625 21.921875 38.8125 
M 18.3125 54.390625 
Q 18.3125 48.734375 21.84375 45.5625 
Q 25.390625 42.390625 31.78125 42.390625 
Q 38.140625 42.390625 41.71875 45.5625 
Q 45.3125 48.734375 45.3125 54.390625 
Q 45.3125 60.0625 41.71875 63.234375 
Q 38.140625 66.40625 31.78125 66.40625 
Q 25.390625 66.40625 21.84375 63.234375 
Q 18.3125 60.0625 18.3125 54.390625 
" id="DejaVuSans-38"/>
      </defs>
      <g transform="translate(335.344438 322.182437)scale(0.1 -0.1)">
       <use xlink:href="#DejaVuSans-30"/>
       <use x="63.623047" xlink:href="#DejaVuSans-2e"/>
       <use x="95.410156" xlink:href="#DejaVuSans-38"/>
      </g>
     </g>
    </g>
    <g id="xtick_6">
     <g id="line2d_6">
      <g>
       <use style="stroke:#000000;stroke-width:0.8;" x="414.72" xlink:href="#ma6f6c18c68" y="307.584"/>
      </g>
     </g>
     <g id="text_6">
      <!-- 1.0 -->
      <defs>
       <path d="M 12.40625 8.296875 
L 28.515625 8.296875 
L 28.515625 63.921875 
L 10.984375 60.40625 
L 10.984375 69.390625 
L 28.421875 72.90625 
L 38.28125 72.90625 
L 38.28125 8.296875 
L 54.390625 8.296875 
L 54.390625 0 
L 12.40625 0 
z
" id="DejaVuSans-31"/>
      </defs>
      <g transform="translate(406.768438 322.182437)scale(0.1 -0.1)">
       <use xlink:href="#DejaVuSans-31"/>
       <use x="63.623047" xlink:href="#DejaVuSans-2e"/>
       <use x="95.410156" xlink:href="#DejaVuSans-30"/>
      </g>
     </g>
    </g>
   </g>
   <g id="matplotlib.axis_2">
    <g id="ytick_1">
     <g id="line2d_7">
      <defs>
       <path d="M 0 0 
L -3.5 0 
" id="me62ab1aa68" style="stroke:#000000;stroke-width:0.8;"/>
      </defs>
      <g>
       <use style="stroke:#000000;stroke-width:0.8;" x="57.6" xlink:href="#me62ab1aa68" y="307.584"/>
      </g>
     </g>
     <g id="text_7">
      <!-- 0.0 -->
      <g transform="translate(34.696875 311.383219)scale(0.1 -0.1)">
       <use xlink:href="#DejaVuSans-30"/>
       <use x="63.623047" xlink:href="#DejaVuSans-2e"/>
       <use x="95.410156" xlink:href="#DejaVuSans-30"/>
      </g>
     </g>
    </g>
    <g id="ytick_2">
     <g id="line2d_8">
      <g>
       <use style="stroke:#000000;stroke-width:0.8;" x="57.6" xlink:href="#me62ab1aa68" y="256.896"/>
      </g>
     </g>
     <g id="text_8">
      <!-- 0.2 -->
      <g transform="translate(34.696875 260.695219)scale(0.1 -0.1)">
       <use xlink:href="#DejaVuSans-30"/>
       <use x="63.623047" xlink:href="#DejaVuSans-2e"/>
       <use x="95.410156" xlink:href="#DejaVuSans-32"/>
      </g>
     </g>
    </g>
    <g id="ytick_3">
     <g id="line2d_9">
      <g>
       <use style="stroke:#000000;stroke-width:0.8;" x="57.6" xlink:href="#me62ab1aa68" y="206.208"/>
      </g>
     </g>
     <g id="text_9">
      <!-- 0.4 -->
      <g transform="translate(34.696875 210.007219)scale(0.1 -0.1)">
       <use xlink:href="#DejaVuSans-30"/>
       <use x="63.623047" xlink:href="#DejaVuSans-2e"/>
       <use x="95.410156" xlink:href="#DejaVuSans-34"/>
      </g>
     </g>
    </g>
    <g id="ytick_4">
     <g id="line2d_10">
      <g>
       <use style="stroke:#000000;stroke-width:0.8;" x="57.6" xlink:href="#me62ab1aa68" y="155.52"/>
      </g>
     </g>
     <g id="text_10">
      <!-- 0.6 -->
      <g transform="translate(34.696875 159.319219)scale(0.1 -0.1)">
       <use xlink:href="#DejaVuSans-30"/>
       <use x="63.623047" xlink:href="#DejaVuSans-2e"/>
       <use x="95.410156" xlink:href="#DejaVuSans-36"/>
      </g>
     </g>
    </g>
    <g id="ytick_5">
     <g id="line2d_11">
      <g>
       <use style="stroke:#000000;stroke-width:0.8;" x="57.6" xlink:href="#me62ab1aa68" y="104.832"/>
      </g>
     </g>
     <g id="text_11">
      <!-- 0.8 -->
      <g transform="translate(34.696875 108.631219)scale(0.1 -0.1)">
       <use xlink:href="#DejaVuSans-30"/>
       <use x="63.623047" xlink:href="#DejaVuSans-2e"/>
       <use x="95.410156" xlink:href="#DejaVuSans-38"/>
      </g>
     </g>
    </g>
    <g id="ytick_6">
     <g id="line2d_12">
      <g>
       <use style="stroke:#000000;stroke-width:0.8;" x="57.6" xlink:href="#me62ab1aa68" y="54.144"/>
      </g>
     </g>
     <g id="text_12">
      <!-- 1.0 -->
      <g transform="translate(34.696875 57.943219)scale(0.1 -0.1)">
       <use xlink:href="#DejaVuSans-31"/>
       <use x="63.623047" xlink:href="#DejaVuSans-2e"/>
       <use x="95.410156" xlink:href="#DejaVuSans-30"/>
      </g>
     </g>
    </g>
   </g>
   <g id="line2d_13">
    <path clip-path="url(#p622704d56e)" d="M 414.72 115.423522 
L 413.314016 115.423522 
L 413.314016 115.606994 
L 411.908031 115.606994 
L 411.908031 115.791568 
L 410.502047 115.791568 
L 410.502047 115.977253 
L 409.096063 115.977253 
L 409.096063 116.16406 
L 409.096063 116.16406 
L 409.096063 116.16406 
L 409.096063 115.584 
L 407.690079 115.584 
L 407.690079 115.770748 
L 407.690079 115.770748 
L 407.690079 115.770748 
L 407.690079 115.185951 
L 406.284094 115.185951 
L 406.284094 115.372624 
L 404.87811 115.372624 
L 404.87811 115.560442 
L 404.87811 115.560442 
L 404.87811 115.560442 
L 404.87811 114.9696 
L 403.472126 114.9696 
L 403.472126 115.157333 
L 403.472126 115.157333 
L 403.472126 115.157333 
L 403.472126 113.962137 
L 402.066142 113.962137 
L 402.066142 114.148486 
L 400.660157 114.148486 
L 400.660157 114.336 
L 400.660157 114.336 
L 400.660157 114.336 
L 400.660157 113.730207 
L 399.254173 113.730207 
L 399.254173 113.917585 
L 399.254173 113.917585 
L 399.254173 113.917585 
L 399.254173 112.691848 
L 397.848189 112.691848 
L 397.848189 112.877714 
L 396.442205 112.877714 
L 396.442205 113.064764 
L 395.03622 113.064764 
L 395.03622 113.25301 
L 395.03622 113.25301 
L 395.03622 113.25301 
L 395.03622 112.630154 
L 393.630236 112.630154 
L 393.630236 112.818212 
L 392.224252 112.818212 
L 392.224252 113.007484 
L 390.818268 113.007484 
L 390.818268 113.197981 
L 389.412283 113.197981 
L 389.412283 113.389714 
L 388.006299 113.389714 
L 388.006299 113.582697 
L 386.600315 113.582697 
L 386.600315 113.776941 
L 385.194331 113.776941 
L 385.194331 113.972459 
L 385.194331 113.972459 
L 385.194331 113.972459 
L 385.194331 111.399548 
L 383.788346 111.399548 
L 383.788346 111.5904 
L 383.788346 111.5904 
L 383.788346 111.5904 
L 383.788346 110.934903 
L 382.382362 110.934903 
L 382.382362 111.125477 
L 382.382362 111.125477 
L 382.382362 111.125477 
L 382.382362 110.464 
L 380.976378 110.464 
L 380.976378 110.65427 
L 380.976378 110.65427 
L 380.976378 110.65427 
L 380.976378 109.314612 
L 379.570394 109.314612 
L 379.570394 109.502908 
L 379.570394 109.502908 
L 379.570394 109.502908 
L 379.570394 108.141526 
L 378.164409 108.141526 
L 378.164409 108.327724 
L 376.758425 108.327724 
L 376.758425 108.515211 
L 375.352441 108.515211 
L 375.352441 108.704 
L 375.352441 108.704 
L 375.352441 108.704 
L 375.352441 105.190219 
L 373.946457 105.190219 
L 373.946457 105.371234 
L 372.540472 105.371234 
L 372.540472 105.553537 
L 371.134488 105.553537 
L 371.134488 105.737143 
L 371.134488 105.737143 
L 371.134488 105.737143 
L 371.134488 104.285007 
L 369.728504 104.285007 
L 369.728504 104.466022 
L 369.728504 104.466022 
L 369.728504 104.466022 
L 369.728504 103.730087 
L 368.32252 103.730087 
L 368.32252 103.9104 
L 366.916535 103.9104 
L 366.916535 104.092029 
L 366.916535 104.092029 
L 366.916535 104.092029 
L 366.916535 102.595765 
L 365.510551 102.595765 
L 365.510551 102.774554 
L 365.510551 102.774554 
L 365.510551 102.774554 
L 365.510551 101.251807 
L 364.104567 101.251807 
L 364.104567 101.427582 
L 362.698583 101.427582 
L 362.698583 101.604674 
L 361.292598 101.604674 
L 361.292598 101.783098 
L 361.292598 101.783098 
L 361.292598 101.783098 
L 361.292598 100.224 
L 359.886614 100.224 
L 359.886614 100.399209 
L 358.48063 100.399209 
L 358.48063 100.575756 
L 357.074646 100.575756 
L 357.074646 100.753655 
L 357.074646 100.753655 
L 357.074646 100.753655 
L 357.074646 99.958154 
L 355.668661 99.958154 
L 355.668661 100.135042 
L 355.668661 100.135042 
L 355.668661 100.135042 
L 355.668661 99.330977 
L 354.262677 99.330977 
L 354.262677 99.506802 
L 352.856693 99.506802 
L 352.856693 99.684 
L 352.856693 99.684 
L 352.856693 99.684 
L 352.856693 98.046992 
L 351.450709 98.046992 
L 351.450709 98.220522 
L 351.450709 98.220522 
L 351.450709 98.220522 
L 351.450709 96.552287 
L 350.044724 96.552287 
L 350.044724 96.72192 
L 350.044724 96.72192 
L 350.044724 96.72192 
L 350.044724 95.875084 
L 348.63874 95.875084 
L 348.63874 96.043355 
L 347.232756 96.043355 
L 347.232756 96.212988 
L 347.232756 96.212988 
L 347.232756 96.212988 
L 347.232756 93.614164 
L 345.826772 93.614164 
L 345.826772 93.776593 
L 344.420787 93.776593 
L 344.420787 93.940364 
L 343.014803 93.940364 
L 343.014803 94.105494 
L 341.608819 94.105494 
L 341.608819 92.479462 
L 340.202835 92.479462 
L 340.202835 92.641215 
L 340.202835 92.641215 
L 340.202835 92.641215 
L 340.202835 91.730441 
L 338.79685 91.730441 
L 338.79685 91.890383 
L 338.79685 91.890383 
L 338.79685 91.890383 
L 338.79685 90.968615 
L 337.390866 90.968615 
L 337.390866 91.126661 
L 335.984882 91.126661 
L 335.984882 91.286069 
L 335.984882 91.286069 
L 335.984882 91.286069 
L 335.984882 89.405217 
L 331.766929 89.405217 
L 331.766929 89.871225 
L 331.766929 89.871225 
L 331.766929 89.871225 
L 331.766929 88.907894 
L 330.360945 88.907894 
L 330.360945 89.0624 
L 330.360945 89.0624 
L 330.360945 89.0624 
L 330.360945 87.102565 
L 328.954961 87.102565 
L 328.954961 87.251027 
L 327.548976 87.251027 
L 327.548976 87.400833 
L 326.142992 87.400833 
L 326.142992 87.552 
L 324.737008 87.552 
L 324.737008 87.704548 
L 323.331024 87.704548 
L 323.331024 87.858495 
L 321.925039 87.858495 
L 321.925039 88.013862 
L 321.925039 88.013862 
L 321.925039 88.013862 
L 321.925039 86.997333 
L 320.519055 86.997333 
L 320.519055 87.15014 
L 319.113071 87.15014 
L 319.113071 87.304374 
L 317.707087 87.304374 
L 317.707087 87.460056 
L 316.301102 87.460056 
L 316.301102 87.617208 
L 316.301102 87.617208 
L 316.301102 87.617208 
L 316.301102 85.522286 
L 314.895118 85.522286 
L 314.895118 85.672421 
L 313.489134 85.672421 
L 313.489134 84.752696 
L 312.08315 84.752696 
L 312.08315 84.901282 
L 310.677165 84.901282 
L 310.677165 85.051317 
L 309.271181 85.051317 
L 309.271181 85.202824 
L 309.271181 85.202824 
L 309.271181 85.202824 
L 309.271181 84.10735 
L 307.865197 84.10735 
L 307.865197 84.255683 
L 307.865197 84.255683 
L 307.865197 84.255683 
L 307.865197 83.144597 
L 306.459213 83.144597 
L 306.459213 83.2896 
L 306.459213 83.2896 
L 306.459213 83.2896 
L 306.459213 81.024 
L 305.053228 81.024 
L 305.053228 81.160447 
L 303.647244 81.160447 
L 303.647244 81.298286 
L 303.647244 81.298286 
L 303.647244 81.298286 
L 303.647244 80.137846 
L 302.24126 80.137846 
L 302.24126 80.271835 
L 299.429291 80.271835 
L 299.429291 80.544 
L 299.429291 80.544 
L 299.429291 80.544 
L 299.429291 78.154105 
L 298.023307 78.154105 
L 298.023307 78.281143 
L 296.617323 78.281143 
L 296.617323 78.409532 
L 295.211339 78.409532 
L 295.211339 78.539294 
L 293.805354 78.539294 
L 293.805354 78.670452 
L 292.39937 78.670452 
L 292.39937 78.803027 
L 290.993386 78.803027 
L 290.993386 78.937043 
L 289.587402 78.937043 
L 289.587402 79.072525 
L 288.181417 79.072525 
L 288.181417 79.209495 
L 286.775433 79.209495 
L 286.775433 79.347978 
L 285.369449 79.347978 
L 285.369449 79.488 
L 283.963465 79.488 
L 283.963465 79.629587 
L 283.963465 79.629587 
L 283.963465 79.629587 
L 283.963465 77.053831 
L 282.55748 77.053831 
L 282.55748 77.184 
L 281.151496 77.184 
L 281.151496 77.315657 
L 279.745512 77.315657 
L 279.745512 77.448828 
L 279.745512 77.448828 
L 279.745512 77.448828 
L 279.745512 76.118566 
L 278.339528 76.118566 
L 278.339528 76.246326 
L 276.933543 76.246326 
L 276.933543 76.375579 
L 275.527559 76.375579 
L 275.527559 76.506353 
L 274.121575 76.506353 
L 274.121575 76.638675 
L 272.715591 76.638675 
L 272.715591 76.772571 
L 271.309606 76.772571 
L 271.309606 76.908072 
L 269.903622 76.908072 
L 269.903622 77.045205 
L 268.497638 77.045205 
L 268.497638 77.184 
L 268.497638 77.184 
L 268.497638 77.184 
L 268.497638 75.779122 
L 267.091654 75.779122 
L 267.091654 75.911853 
L 267.091654 75.911853 
L 267.091654 75.911853 
L 267.091654 74.481778 
L 265.685669 74.481778 
L 265.685669 74.608099 
L 264.279685 74.608099 
L 264.279685 74.736 
L 262.873701 74.736 
L 262.873701 74.865509 
L 262.873701 74.865509 
L 262.873701 74.865509 
L 262.873701 73.392608 
L 261.467717 73.392608 
L 261.467717 73.51521 
L 260.061732 73.51521 
L 260.061732 73.639385 
L 258.655748 73.639385 
L 258.655748 73.765161 
L 258.655748 73.765161 
L 258.655748 73.765161 
L 258.655748 72.246857 
L 257.249764 72.246857 
L 257.249764 72.365176 
L 255.84378 72.365176 
L 255.84378 72.485053 
L 254.437795 72.485053 
L 254.437795 72.606517 
L 253.031811 72.606517 
L 253.031811 72.7296 
L 253.031811 72.7296 
L 253.031811 72.7296 
L 253.031811 71.153396 
L 251.625827 71.153396 
L 251.625827 71.268324 
L 250.219843 71.268324 
L 250.219843 71.384816 
L 248.813858 71.384816 
L 248.813858 71.502904 
L 247.407874 71.502904 
L 247.407874 71.622621 
L 246.00189 71.622621 
L 246.00189 71.744 
L 244.595906 71.744 
L 244.595906 71.867077 
L 243.189921 71.867077 
L 243.189921 71.991887 
L 241.783937 71.991887 
L 241.783937 72.118468 
L 240.377953 72.118468 
L 240.377953 72.246857 
L 238.971969 72.246857 
L 238.971969 72.377094 
L 237.565984 72.377094 
L 237.565984 72.509217 
L 236.16 72.509217 
L 236.16 72.64327 
L 234.754016 72.64327 
L 234.754016 72.779294 
L 233.348031 72.779294 
L 233.348031 72.917333 
L 231.942047 72.917333 
L 231.942047 73.057433 
L 230.536063 73.057433 
L 230.536063 73.199639 
L 229.130079 73.199639 
L 229.130079 73.344 
L 227.724094 73.344 
L 227.724094 73.490565 
L 226.31811 73.490565 
L 226.31811 73.639385 
L 224.912126 73.639385 
L 224.912126 73.790512 
L 223.506142 73.790512 
L 223.506142 73.944 
L 222.100157 73.944 
L 222.100157 74.099906 
L 220.694173 74.099906 
L 220.694173 74.258286 
L 219.288189 74.258286 
L 219.288189 74.4192 
L 216.47622 74.4192 
L 216.47622 74.748878 
L 215.070236 74.748878 
L 215.070236 74.91777 
L 213.664252 74.91777 
L 213.664252 75.089455 
L 213.664252 75.089455 
L 213.664252 75.089455 
L 213.664252 73.152 
L 212.258268 73.152 
L 212.258268 73.311731 
L 210.852283 73.311731 
L 210.852283 73.474169 
L 209.446299 73.474169 
L 209.446299 73.639385 
L 208.040315 73.639385 
L 208.040315 73.807448 
L 206.634331 73.807448 
L 206.634331 73.978435 
L 205.228346 73.978435 
L 205.228346 74.152421 
L 203.822362 74.152421 
L 203.822362 74.329487 
L 202.416378 74.329487 
L 202.416378 74.509714 
L 201.010394 74.509714 
L 201.010394 74.693189 
L 199.604409 74.693189 
L 199.604409 74.88 
L 198.198425 74.88 
L 198.198425 75.070239 
L 198.198425 75.070239 
L 198.198425 75.070239 
L 198.198425 72.917333 
L 196.792441 72.917333 
L 196.792441 73.092785 
L 196.792441 73.092785 
L 196.792441 73.092785 
L 196.792441 70.880604 
L 195.386457 70.880604 
L 195.386457 71.04 
L 193.980472 71.04 
L 193.980472 71.202462 
L 192.574488 71.202462 
L 192.574488 71.368078 
L 191.168504 71.368078 
L 191.168504 71.536941 
L 189.76252 71.536941 
L 189.76252 71.709149 
L 188.356535 71.709149 
L 188.356535 71.8848 
L 186.950551 71.8848 
L 186.950551 72.064 
L 185.544567 72.064 
L 185.544567 72.246857 
L 184.138583 72.246857 
L 184.138583 72.433485 
L 182.732598 72.433485 
L 182.732598 72.624 
L 181.326614 72.624 
L 181.326614 72.818526 
L 179.92063 72.818526 
L 179.92063 73.017191 
L 178.514646 73.017191 
L 178.514646 73.220129 
L 178.514646 73.220129 
L 178.514646 73.220129 
L 178.514646 70.672696 
L 177.108661 70.672696 
L 177.108661 70.85433 
L 175.702677 70.85433 
L 175.702677 71.04 
L 174.296693 71.04 
L 174.296693 71.229843 
L 174.296693 71.229843 
L 174.296693 71.229843 
L 174.296693 68.544 
L 172.890709 68.544 
L 172.890709 68.709517 
L 171.484724 68.709517 
L 171.484724 68.878884 
L 170.07874 68.878884 
L 170.07874 69.052235 
L 168.672756 69.052235 
L 168.672756 69.229714 
L 167.266772 69.229714 
L 167.266772 69.41147 
L 165.860787 69.41147 
L 165.860787 69.597659 
L 164.454803 69.597659 
L 164.454803 69.788444 
L 163.048819 69.788444 
L 163.048819 69.984 
L 161.642835 69.984 
L 161.642835 70.184506 
L 160.23685 70.184506 
L 160.23685 70.390154 
L 160.23685 70.390154 
L 160.23685 70.390154 
L 160.23685 67.309714 
L 158.830866 67.309714 
L 158.830866 67.482947 
L 157.424882 67.482947 
L 157.424882 67.6608 
L 156.018898 67.6608 
L 156.018898 67.843459 
L 154.612913 67.843459 
L 154.612913 68.031123 
L 153.206929 68.031123 
L 153.206929 68.224 
L 151.800945 68.224 
L 151.800945 68.42231 
L 150.394961 68.42231 
L 150.394961 68.626286 
L 150.394961 68.626286 
L 150.394961 68.626286 
L 150.394961 65.16313 
L 148.988976 65.16313 
L 148.988976 65.325176 
L 147.582992 65.325176 
L 147.582992 65.49206 
L 146.177008 65.49206 
L 146.177008 65.664 
L 146.177008 65.664 
L 146.177008 65.664 
L 146.177008 61.942154 
L 144.771024 61.942154 
L 144.771024 62.064 
L 141.959055 62.064 
L 141.959055 62.319484 
L 140.553071 62.319484 
L 140.553071 62.453508 
L 139.147087 62.453508 
L 139.147087 62.592 
L 137.741102 62.592 
L 137.741102 62.735186 
L 136.335118 62.735186 
L 136.335118 62.88331 
L 134.929134 62.88331 
L 134.929134 63.036632 
L 133.52315 63.036632 
L 133.52315 63.195429 
L 132.117165 63.195429 
L 132.117165 63.36 
L 130.711181 63.36 
L 130.711181 63.530667 
L 129.305197 63.530667 
L 129.305197 63.707774 
L 129.305197 63.707774 
L 129.305197 63.707774 
L 129.305197 59.017846 
L 126.493228 59.113412 
L 126.493228 59.2128 
L 123.68126 59.316245 
L 123.68126 59.424 
L 122.275276 59.424 
L 122.275276 59.53634 
L 120.869291 59.53634 
L 120.869291 59.653565 
L 119.463307 59.653565 
L 119.463307 59.776 
L 118.057323 59.776 
L 118.057323 59.904 
L 116.651339 59.904 
L 116.651339 60.037953 
L 116.651339 60.037953 
L 116.651339 60.037953 
L 116.651339 54.144 
L 57.6 54.144 
L 57.6 54.144 
" style="fill:none;stroke:#ff0000;stroke-linecap:square;stroke-width:1.5;"/>
   </g>
   <g id="line2d_14">
    <path clip-path="url(#p622704d56e)" d="M 414.72 115.423522 
L 413.314016 115.423522 
L 413.314016 112.09522 
L 402.066142 112.09522 
L 402.066142 111.087797 
L 373.946457 111.087797 
L 373.946457 98.704879 
L 313.489134 98.704879 
L 313.489134 85.824 
L 234.754016 85.824 
L 234.754016 76.182261 
L 57.6 76.182261 
L 57.6 54.144 
" style="fill:none;stroke:#008000;stroke-linecap:square;stroke-width:1.5;"/>
   </g>
   <g id="line2d_15">
    <path clip-path="url(#p622704d56e)" d="M 414.72 115.423522 
L 413.314016 115.423522 
L 413.314016 115.606994 
L 411.908031 115.606994 
L 411.908031 115.791568 
L 411.908031 115.791568 
L 411.908031 115.791568 
L 411.908031 114.632701 
L 410.502047 114.632701 
L 410.502047 114.816 
L 409.096063 114.816 
L 409.096063 115.000413 
L 407.690079 115.000413 
L 407.690079 115.185951 
L 406.284094 115.185951 
L 406.284094 115.372624 
L 406.284094 115.372624 
L 406.284094 115.372624 
L 406.284094 114.189785 
L 404.87811 114.189785 
L 404.87811 114.375111 
L 403.472126 114.375111 
L 403.472126 114.561585 
L 403.472126 114.561585 
L 403.472126 114.561585 
L 403.472126 113.962137 
L 402.066142 113.962137 
L 402.066142 114.148486 
L 400.660157 114.148486 
L 400.660157 114.336 
L 399.254173 114.336 
L 399.254173 114.52469 
L 399.254173 114.52469 
L 399.254173 114.52469 
L 399.254173 113.30665 
L 397.848189 113.30665 
L 397.848189 113.493873 
L 396.442205 113.493873 
L 396.442205 113.682286 
L 395.03622 113.682286 
L 395.03622 113.871898 
L 393.630236 113.871898 
L 393.630236 114.062722 
L 393.630236 114.062722 
L 393.630236 114.062722 
L 393.630236 112.818212 
L 392.224252 112.818212 
L 392.224252 113.007484 
L 390.818268 113.007484 
L 390.818268 113.197981 
L 389.412283 113.197981 
L 389.412283 113.389714 
L 389.412283 113.389714 
L 389.412283 113.389714 
L 389.412283 112.120471 
L 388.006299 112.120471 
L 388.006299 112.310557 
L 388.006299 112.310557 
L 388.006299 112.310557 
L 388.006299 111.668211 
L 386.600315 111.668211 
L 386.600315 111.858059 
L 386.600315 111.858059 
L 386.600315 111.858059 
L 386.600315 111.20996 
L 385.194331 111.20996 
L 385.194331 111.399548 
L 383.788346 111.399548 
L 383.788346 111.5904 
L 382.382362 111.5904 
L 382.382362 111.782528 
L 382.382362 111.782528 
L 382.382362 111.782528 
L 382.382362 111.125477 
L 380.976378 111.125477 
L 380.976378 111.317333 
L 379.570394 111.317333 
L 379.570394 111.510486 
L 378.164409 111.510486 
L 378.164409 111.704949 
L 376.758425 111.704949 
L 376.758425 111.900735 
L 376.758425 111.900735 
L 376.758425 111.900735 
L 376.758425 111.232874 
L 375.352441 111.232874 
L 375.352441 111.428384 
L 373.946457 111.428384 
L 373.946457 111.625237 
L 372.540472 111.625237 
L 372.540472 111.823448 
L 371.134488 111.823448 
L 371.134488 112.023031 
L 369.728504 112.023031 
L 369.728504 112.224 
L 368.32252 112.224 
L 368.32252 112.426369 
L 366.916535 112.426369 
L 366.916535 112.630154 
L 365.510551 112.630154 
L 365.510551 112.835368 
L 364.104567 112.835368 
L 364.104567 113.042028 
L 364.104567 113.042028 
L 364.104567 113.042028 
L 364.104567 112.354601 
L 362.698583 112.354601 
L 362.698583 112.561021 
L 362.698583 112.561021 
L 362.698583 112.561021 
L 362.698583 111.866989 
L 361.292598 111.866989 
L 361.292598 112.073143 
L 359.886614 112.073143 
L 359.886614 112.280774 
L 358.48063 112.280774 
L 358.48063 112.489899 
L 357.074646 112.489899 
L 357.074646 112.700534 
L 355.668661 112.700534 
L 355.668661 112.912696 
L 355.668661 112.912696 
L 355.668661 112.912696 
L 355.668661 112.2048 
L 354.262677 112.2048 
L 354.262677 112.416701 
L 352.856693 112.416701 
L 352.856693 112.630154 
L 351.450709 112.630154 
L 351.450709 112.845176 
L 350.044724 112.845176 
L 350.044724 113.061786 
L 348.63874 113.061786 
L 348.63874 113.28 
L 347.232756 113.28 
L 347.232756 113.499836 
L 345.826772 113.499836 
L 345.826772 113.721313 
L 344.420787 113.721313 
L 344.420787 113.944449 
L 343.014803 113.944449 
L 343.014803 114.169263 
L 343.014803 114.169263 
L 343.014803 114.169263 
L 343.014803 112.704 
L 341.608819 112.704 
L 341.608819 112.926662 
L 341.608819 112.926662 
L 341.608819 112.926662 
L 341.608819 111.435034 
L 340.202835 111.435034 
L 340.202835 111.655385 
L 340.202835 111.655385 
L 340.202835 111.655385 
L 340.202835 110.898903 
L 338.79685 110.898903 
L 338.79685 111.118884 
L 338.79685 111.118884 
L 338.79685 111.118884 
L 338.79685 110.354428 
L 337.390866 110.354428 
L 337.390866 110.574 
L 335.984882 110.574 
L 335.984882 110.795294 
L 334.578898 110.795294 
L 334.578898 111.018331 
L 333.172913 111.018331 
L 333.172913 111.24313 
L 331.766929 111.24313 
L 331.766929 111.469714 
L 331.766929 111.469714 
L 331.766929 111.469714 
L 331.766929 110.688382 
L 330.360945 110.688382 
L 330.360945 110.91456 
L 330.360945 110.91456 
L 330.360945 110.91456 
L 330.360945 110.124723 
L 328.954961 110.124723 
L 328.954961 110.350452 
L 327.548976 110.350452 
L 327.548976 110.578008 
L 326.142992 110.578008 
L 326.142992 110.807415 
L 324.737008 110.807415 
L 324.737008 111.038694 
L 323.331024 111.038694 
L 323.331024 111.271869 
L 321.925039 111.271869 
L 321.925039 111.506963 
L 321.925039 111.506963 
L 321.925039 111.506963 
L 321.925039 109.879768 
L 320.519055 109.879768 
L 320.519055 110.112 
L 319.113071 110.112 
L 319.113071 110.346176 
L 317.707087 110.346176 
L 317.707087 110.582319 
L 317.707087 110.582319 
L 317.707087 110.582319 
L 317.707087 109.751089 
L 316.301102 109.751089 
L 316.301102 109.986712 
L 314.895118 109.986712 
L 314.895118 110.22434 
L 314.895118 110.22434 
L 314.895118 110.22434 
L 314.895118 109.380923 
L 313.489134 109.380923 
L 313.489134 109.617991 
L 313.489134 109.617991 
L 313.489134 109.617991 
L 313.489134 107.904 
L 312.08315 107.904 
L 312.08315 108.137739 
L 310.677165 108.137739 
L 310.677165 108.37352 
L 309.271181 108.37352 
L 309.271181 108.611368 
L 307.865197 108.611368 
L 307.865197 108.851313 
L 306.459213 108.851313 
L 306.459213 109.093381 
L 306.459213 109.093381 
L 306.459213 109.093381 
L 306.459213 107.321143 
L 305.053228 107.321143 
L 305.053228 107.559605 
L 305.053228 107.559605 
L 305.053228 107.559605 
L 305.053228 106.658595 
L 303.647244 106.658595 
L 303.647244 106.896217 
L 302.24126 106.896217 
L 302.24126 107.136 
L 300.835276 107.136 
L 300.835276 107.377973 
L 300.835276 107.377973 
L 300.835276 107.377973 
L 300.835276 105.532756 
L 299.429291 105.532756 
L 299.429291 105.770667 
L 298.023307 105.770667 
L 298.023307 106.010791 
L 298.023307 106.010791 
L 298.023307 106.010791 
L 298.023307 105.06886 
L 296.617323 105.06886 
L 296.617323 105.307944 
L 295.211339 105.307944 
L 295.211339 105.549283 
L 293.805354 105.549283 
L 293.805354 105.79291 
L 292.39937 105.79291 
L 292.39937 106.038857 
L 290.993386 106.038857 
L 290.993386 106.287158 
L 290.993386 106.287158 
L 290.993386 106.287158 
L 290.993386 105.319385 
L 289.587402 105.319385 
L 289.587402 105.566609 
L 289.587402 105.566609 
L 289.587402 105.566609 
L 289.587402 104.585942 
L 288.181417 104.585942 
L 288.181417 104.832 
L 288.181417 104.832 
L 288.181417 104.832 
L 288.181417 102.834443 
L 286.775433 102.834443 
L 286.775433 103.075485 
L 285.369449 103.075485 
L 285.369449 103.318925 
L 283.963465 103.318925 
L 283.963465 103.5648 
L 282.55748 103.5648 
L 282.55748 103.813146 
L 281.151496 103.813146 
L 281.151496 104.064 
L 279.745512 104.064 
L 279.745512 104.317401 
L 278.339528 104.317401 
L 278.339528 104.573388 
L 276.933543 104.573388 
L 276.933543 104.832 
L 275.527559 104.832 
L 275.527559 105.093278 
L 275.527559 105.093278 
L 275.527559 105.093278 
L 275.527559 102.984 
L 274.121575 102.984 
L 274.121575 103.239707 
L 272.715591 103.239707 
L 272.715591 103.498105 
L 271.309606 103.498105 
L 271.309606 103.759238 
L 269.903622 103.759238 
L 269.903622 104.023149 
L 268.497638 104.023149 
L 268.497638 104.289882 
L 268.497638 104.289882 
L 268.497638 104.289882 
L 268.497638 103.196903 
L 265.685669 103.196903 
L 265.685669 103.730087 
L 264.279685 103.730087 
L 264.279685 104.001049 
L 262.873701 104.001049 
L 262.873701 104.274989 
L 261.467717 104.274989 
L 261.467717 104.551956 
L 261.467717 104.551956 
L 261.467717 104.551956 
L 261.467717 103.424 
L 260.061732 103.424 
L 260.061732 103.699307 
L 258.655748 103.699307 
L 258.655748 103.977708 
L 257.249764 103.977708 
L 257.249764 104.259254 
L 255.84378 104.259254 
L 255.84378 104.544 
L 255.84378 104.544 
L 255.84378 104.544 
L 255.84378 103.383771 
L 254.437795 103.383771 
L 254.437795 103.666759 
L 253.031811 103.666759 
L 253.031811 103.953017 
L 251.625827 103.953017 
L 251.625827 104.242605 
L 250.219843 104.242605 
L 250.219843 104.535579 
L 248.813858 104.535579 
L 248.813858 104.832 
L 248.813858 104.832 
L 248.813858 104.832 
L 248.813858 103.632284 
L 247.407874 103.632284 
L 247.407874 103.926857 
L 246.00189 103.926857 
L 246.00189 104.224958 
L 244.595906 104.224958 
L 244.595906 104.526651 
L 243.189921 104.526651 
L 243.189921 104.832 
L 241.783937 104.832 
L 241.783937 105.141073 
L 241.783937 105.141073 
L 241.783937 105.141073 
L 241.783937 103.899092 
L 240.377953 103.899092 
L 240.377953 104.206222 
L 238.971969 104.206222 
L 238.971969 104.517168 
L 237.565984 104.517168 
L 237.565984 104.832 
L 236.16 104.832 
L 236.16 105.150792 
L 234.754016 105.150792 
L 234.754016 105.47362 
L 234.754016 105.47362 
L 234.754016 105.47362 
L 234.754016 101.561806 
L 233.348031 101.561806 
L 233.348031 101.869714 
L 231.942047 101.869714 
L 231.942047 102.181647 
L 230.536063 102.181647 
L 230.536063 102.497684 
L 230.536063 102.497684 
L 230.536063 102.497684 
L 230.536063 99.7632 
L 229.130079 99.7632 
L 229.130079 100.069369 
L 229.130079 100.069369 
L 229.130079 100.069369 
L 229.130079 98.667243 
L 227.724094 98.667243 
L 227.724094 98.970122 
L 227.724094 98.970122 
L 227.724094 98.970122 
L 227.724094 97.54126 
L 226.31811 97.54126 
L 226.31811 97.840552 
L 226.31811 97.840552 
L 226.31811 97.840552 
L 226.31811 96.384 
L 224.912126 96.384 
L 224.912126 96.679385 
L 224.912126 96.679385 
L 224.912126 96.679385 
L 224.912126 92.16 
L 223.506142 92.16 
L 223.506142 92.433496 
L 222.100157 92.433496 
L 222.100157 92.710957 
L 222.100157 92.710957 
L 222.100157 92.710957 
L 222.100157 91.14254 
L 220.694173 91.14254 
L 220.694173 91.414588 
L 220.694173 91.414588 
L 220.694173 91.414588 
L 220.694173 86.538586 
L 219.288189 86.538586 
L 219.288189 86.784 
L 217.882205 86.784 
L 217.882205 87.03316 
L 216.47622 87.03316 
L 216.47622 87.286154 
L 215.070236 87.286154 
L 215.070236 87.54307 
L 213.664252 87.54307 
L 213.664252 87.804 
L 212.258268 87.804 
L 212.258268 88.069039 
L 212.258268 88.069039 
L 212.258268 88.069039 
L 212.258268 86.326857 
L 210.852283 86.326857 
L 210.852283 86.58432 
L 210.852283 86.58432 
L 210.852283 86.58432 
L 210.852283 84.802065 
L 209.446299 84.802065 
L 209.446299 85.051317 
L 209.446299 85.051317 
L 209.446299 85.051317 
L 209.446299 83.227279 
L 208.040315 83.227279 
L 208.040315 83.467636 
L 206.634331 83.467636 
L 206.634331 83.712 
L 205.228346 83.712 
L 205.228346 83.960471 
L 203.822362 83.960471 
L 203.822362 84.213153 
L 202.416378 84.213153 
L 202.416378 84.470154 
L 201.010394 84.470154 
L 201.010394 84.731586 
L 199.604409 84.731586 
L 199.604409 84.997565 
L 199.604409 84.997565 
L 199.604409 84.997565 
L 199.604409 83.045053 
L 198.198425 83.045053 
L 198.198425 83.300814 
L 198.198425 83.300814 
L 198.198425 83.300814 
L 198.198425 81.298286 
L 196.792441 81.298286 
L 196.792441 81.542919 
L 195.386457 81.542919 
L 195.386457 81.792 
L 193.980472 81.792 
L 193.980472 82.045651 
L 192.574488 82.045651 
L 192.574488 82.304 
L 191.168504 82.304 
L 191.168504 82.567178 
L 189.76252 82.567178 
L 189.76252 82.835321 
L 188.356535 82.835321 
L 188.356535 83.108571 
L 186.950551 83.108571 
L 186.950551 83.387077 
L 185.544567 83.387077 
L 185.544567 83.67099 
L 184.138583 83.67099 
L 184.138583 83.960471 
L 182.732598 83.960471 
L 182.732598 84.255683 
L 182.732598 84.255683 
L 182.732598 84.255683 
L 182.732598 82.0224 
L 181.326614 82.0224 
L 181.326614 82.304 
L 178.514646 82.304 
L 178.514646 82.884619 
L 177.108661 82.884619 
L 177.108661 83.184 
L 175.702677 83.184 
L 175.702677 83.489684 
L 174.296693 83.489684 
L 174.296693 83.801872 
L 172.890709 83.801872 
L 172.890709 84.120774 
L 171.484724 84.120774 
L 171.484724 84.446609 
L 170.07874 84.446609 
L 170.07874 84.779604 
L 167.266772 84.779604 
L 167.266772 85.468045 
L 165.860787 85.468045 
L 165.860787 85.824 
L 164.454803 85.824 
L 164.454803 86.188138 
L 163.048819 86.188138 
L 163.048819 86.560744 
L 161.642835 86.560744 
L 161.642835 86.942118 
L 160.23685 86.942118 
L 160.23685 87.332571 
L 158.830866 87.332571 
L 158.830866 87.732434 
L 157.424882 87.732434 
L 157.424882 88.142049 
L 156.018898 88.142049 
L 156.018898 88.561778 
L 154.612913 88.561778 
L 154.612913 88.992 
L 153.206929 88.992 
L 153.206929 89.433114 
L 151.800945 89.433114 
L 151.800945 89.885538 
L 150.394961 89.885538 
L 150.394961 90.349714 
L 150.394961 90.349714 
L 150.394961 90.349714 
L 150.394961 87.491368 
L 148.988976 87.491368 
L 148.988976 87.936 
L 148.988976 87.936 
L 148.988976 87.936 
L 148.988976 84.967784 
L 147.582992 84.967784 
L 147.582992 85.390027 
L 146.177008 85.390027 
L 146.177008 85.824 
L 144.771024 85.824 
L 144.771024 86.270197 
L 144.771024 86.270197 
L 144.771024 86.270197 
L 144.771024 83.108571 
L 143.365039 83.108571 
L 143.365039 83.528348 
L 141.959055 83.528348 
L 141.959055 83.960471 
L 140.553071 83.960471 
L 140.553071 84.405493 
L 139.147087 84.405493 
L 139.147087 84.864 
L 137.741102 84.864 
L 137.741102 85.336615 
L 136.335118 85.336615 
L 136.335118 85.824 
L 134.929134 85.824 
L 134.929134 86.326857 
L 133.52315 86.326857 
L 133.52315 86.845935 
L 132.117165 86.845935 
L 132.117165 87.382033 
L 130.711181 87.382033 
L 130.711181 87.936 
L 129.305197 87.936 
L 129.305197 88.508746 
L 129.305197 88.508746 
L 129.305197 88.508746 
L 129.305197 84.731586 
L 127.899213 84.731586 
L 127.899213 85.268211 
L 126.493228 85.268211 
L 126.493228 85.824 
L 125.087244 85.824 
L 125.087244 86.4 
L 123.68126 86.4 
L 123.68126 86.997333 
L 123.68126 86.997333 
L 123.68126 86.997333 
L 123.68126 82.835321 
L 122.275276 82.835321 
L 122.275276 83.387077 
L 120.869291 83.387077 
L 120.869291 79.488 
L 119.463307 79.488 
L 119.463307 80.005224 
L 118.057323 80.005224 
L 118.057323 80.544 
L 116.651339 80.544 
L 116.651339 81.105702 
L 115.245354 81.105702 
L 115.245354 81.691826 
L 115.245354 81.691826 
L 115.245354 81.691826 
L 115.245354 76.672 
L 113.83937 76.672 
L 113.83937 77.184 
L 112.433386 77.184 
L 112.433386 77.719814 
L 111.027402 77.719814 
L 111.027402 78.281143 
L 109.621417 78.281143 
L 109.621417 78.869854 
L 108.215433 78.869854 
L 108.215433 79.488 
L 106.809449 79.488 
L 106.809449 80.137846 
L 105.403465 80.137846 
L 105.403465 80.821895 
L 105.403465 80.821895 
L 105.403465 80.821895 
L 105.403465 74.693189 
L 103.99748 74.693189 
L 103.99748 75.264 
L 103.99748 75.264 
L 103.99748 75.264 
L 103.99748 68.626286 
L 101.185512 68.626286 
L 101.185512 69.504 
L 99.779528 69.504 
L 99.779528 69.984 
L 98.373543 69.984 
L 98.373543 70.494968 
L 96.967559 70.494968 
L 96.967559 71.04 
L 95.561575 71.04 
L 95.561575 71.622621 
L 94.155591 71.622621 
L 94.155591 72.246857 
L 92.749606 72.246857 
L 92.749606 72.917333 
L 91.343622 72.917333 
L 91.343622 73.639385 
L 89.937638 73.639385 
L 89.937638 74.4192 
L 88.531654 74.4192 
L 88.531654 75.264 
L 88.531654 75.264 
L 88.531654 75.264 
L 88.531654 65.16313 
L 87.125669 65.16313 
L 87.125669 65.664 
L 85.719685 65.664 
L 85.719685 66.212571 
L 84.313701 66.212571 
L 84.313701 66.816 
L 82.907717 66.816 
L 82.907717 67.482947 
L 81.501732 67.482947 
L 81.501732 68.224 
L 80.095748 68.224 
L 80.095748 69.052235 
L 78.689764 69.052235 
L 78.689764 69.984 
L 77.28378 69.984 
L 77.28378 71.04 
L 75.877795 71.04 
L 75.877795 72.246857 
L 71.659843 72.246857 
L 71.659843 77.184 
L 70.253858 77.184 
L 70.253858 79.488 
L 68.847874 79.488 
L 68.847874 82.304 
L 67.44189 82.304 
L 67.44189 85.824 
L 66.035906 85.824 
L 66.035906 90.349714 
L 64.629921 90.349714 
L 64.629921 96.384 
L 63.223937 96.384 
L 63.223937 104.832 
L 61.817953 104.832 
L 61.817953 117.504 
L 60.411969 117.504 
L 60.411969 54.144 
L 57.6 54.144 
L 57.6 54.144 
" style="fill:none;stroke:#0000ff;stroke-linecap:square;stroke-width:1.5;"/>
   </g>
   <g id="line2d_16">
    <path clip-path="url(#p622704d56e)" d="M 414.72 115.423522 
L 413.314016 115.423522 
L 413.314016 115.606994 
L 411.908031 115.606994 
L 411.908031 115.791568 
L 411.908031 115.791568 
L 411.908031 115.791568 
L 411.908031 114.632701 
L 410.502047 114.632701 
L 410.502047 114.816 
L 410.502047 114.816 
L 410.502047 114.816 
L 410.502047 111.850338 
L 409.096063 111.850338 
L 409.096063 112.028444 
L 409.096063 112.028444 
L 409.096063 112.028444 
L 409.096063 111.423009 
L 407.690079 111.423009 
L 407.690079 111.600894 
L 406.284094 111.600894 
L 406.284094 111.779888 
L 404.87811 111.779888 
L 404.87811 111.96 
L 404.87811 111.96 
L 404.87811 111.96 
L 404.87811 109.483747 
L 403.472126 109.483747 
L 403.472126 109.659429 
L 403.472126 109.659429 
L 403.472126 109.659429 
L 403.472126 109.029096 
L 402.066142 109.029096 
L 402.066142 109.204447 
L 402.066142 109.204447 
L 402.066142 109.204447 
L 402.066142 107.284645 
L 400.660157 107.284645 
L 400.660157 107.456621 
L 399.254173 107.456621 
L 399.254173 107.629714 
L 397.848189 107.629714 
L 397.848189 107.803935 
L 396.442205 107.803935 
L 396.442205 107.979294 
L 396.442205 107.979294 
L 396.442205 107.979294 
L 396.442205 107.324852 
L 395.03622 107.324852 
L 395.03622 107.499789 
L 393.630236 107.499789 
L 393.630236 107.675881 
L 392.224252 107.675881 
L 392.224252 107.853139 
L 390.818268 107.853139 
L 390.818268 101.174103 
L 389.412283 101.174103 
L 389.412283 101.336276 
L 388.006299 101.336276 
L 388.006299 101.499571 
L 386.600315 101.499571 
L 386.600315 100.224 
L 385.194331 100.224 
L 385.194331 100.385684 
L 385.194331 100.385684 
L 385.194331 100.385684 
L 385.194331 99.656113 
L 383.788346 99.656113 
L 383.788346 99.816933 
L 383.788346 99.816933 
L 383.788346 99.816933 
L 383.788346 96.838194 
L 382.382362 96.838194 
L 382.382362 96.99177 
L 382.382362 96.99177 
L 382.382362 96.99177 
L 382.382362 95.465739 
L 380.976378 95.465739 
L 380.976378 95.616 
L 379.570394 95.616 
L 379.570394 95.767358 
L 379.570394 95.767358 
L 379.570394 95.767358 
L 379.570394 94.209882 
L 378.164409 94.209882 
L 378.164409 94.357727 
L 378.164409 94.357727 
L 378.164409 94.357727 
L 378.164409 91.970866 
L 376.758425 91.970866 
L 376.758425 89.664 
L 375.352441 89.664 
L 375.352441 88.967817 
L 373.946457 88.967817 
L 373.946457 89.101241 
L 372.540472 89.101241 
L 372.540472 89.235692 
L 372.540472 89.235692 
L 372.540472 89.235692 
L 372.540472 85.824 
L 371.134488 85.824 
L 371.134488 85.948235 
L 369.728504 85.948235 
L 369.728504 86.073449 
L 369.728504 86.073449 
L 369.728504 86.073449 
L 369.728504 85.197913 
L 368.32252 85.197913 
L 368.32252 85.321143 
L 366.916535 85.321143 
L 366.916535 85.445355 
L 365.510551 85.445355 
L 365.510551 85.57056 
L 364.104567 85.57056 
L 364.104567 85.696771 
L 362.698583 85.696771 
L 362.698583 85.824 
L 362.698583 85.824 
L 362.698583 85.824 
L 362.698583 84.926186 
L 361.292598 84.926186 
L 361.292598 85.051317 
L 359.886614 85.051317 
L 359.886614 85.177469 
L 358.48063 85.177469 
L 358.48063 85.304656 
L 358.48063 85.304656 
L 358.48063 85.304656 
L 358.48063 84.389926 
L 357.074646 84.389926 
L 357.074646 84.514909 
L 355.668661 84.514909 
L 355.668661 84.640929 
L 354.262677 84.640929 
L 354.262677 84.768 
L 352.856693 84.768 
L 352.856693 84.896134 
L 352.856693 84.896134 
L 352.856693 84.896134 
L 352.856693 83.960471 
L 351.450709 83.960471 
L 351.450709 84.086278 
L 351.450709 84.086278 
L 351.450709 84.086278 
L 351.450709 83.139254 
L 350.044724 83.139254 
L 350.044724 83.262638 
L 348.63874 83.262638 
L 348.63874 83.387077 
L 348.63874 83.387077 
L 348.63874 83.387077 
L 348.63874 82.424858 
L 347.232756 82.424858 
L 347.232756 80.589913 
L 345.826772 80.589913 
L 345.826772 80.705397 
L 345.826772 80.705397 
L 345.826772 80.705397 
L 345.826772 79.710316 
L 344.420787 79.710316 
L 344.420787 79.822943 
L 343.014803 79.822943 
L 343.014803 79.936566 
L 343.014803 79.936566 
L 343.014803 79.936566 
L 343.014803 77.904 
L 340.202835 78.010547 
L 340.202835 78.118054 
L 337.390866 78.226534 
L 337.390866 78.336 
L 337.390866 78.336 
L 337.390866 78.336 
L 337.390866 77.289205 
L 334.578898 77.395376 
L 334.578898 77.502525 
L 331.766929 77.610667 
L 331.766929 77.719814 
L 330.360945 77.719814 
L 330.360945 77.829981 
L 330.360945 75.662491 
L 327.548976 75.764474 
L 327.548976 75.867429 
L 324.737008 75.971368 
L 324.737008 76.076308 
L 324.737008 76.076308 
L 324.737008 76.076308 
L 324.737008 74.957913 
L 321.925039 75.058951 
L 321.925039 75.160976 
L 321.925039 75.160976 
L 321.925039 75.160976 
L 321.925039 74.021647 
L 319.113071 74.119567 
L 319.113071 74.218455 
L 317.707087 74.218455 
L 317.707087 74.318328 
L 317.707087 73.152 
L 314.895118 73.247518 
L 314.895118 73.344 
L 312.08315 73.344 
L 312.08315 73.539918 
L 309.271181 73.539918 
L 309.271181 73.739876 
L 309.271181 73.739876 
L 309.271181 73.739876 
L 309.271181 72.528249 
L 306.459213 72.624 
L 306.459213 72.720754 
L 303.647244 72.818526 
L 303.647244 72.917333 
L 300.835276 72.917333 
L 300.835276 73.118118 
L 298.023307 73.220129 
L 298.023307 73.323243 
L 298.023307 73.323243 
L 298.023307 73.323243 
L 298.023307 72.050087 
L 295.211339 72.147934 
L 295.211339 72.246857 
L 290.993386 72.346873 
L 290.993386 72.550257 
L 290.993386 72.550257 
L 290.993386 72.550257 
L 290.993386 69.894508 
L 288.181417 69.984 
L 288.181417 70.074514 
L 286.775433 70.074514 
L 286.775433 70.166069 
L 286.775433 68.793711 
L 283.963465 68.793711 
L 283.963465 68.965053 
L 281.151496 69.052235 
L 281.151496 69.14045 
L 279.745512 69.14045 
L 279.745512 69.229714 
L 279.745512 67.802443 
L 276.933543 67.884723 
L 276.933543 67.968 
L 274.121575 68.052293 
L 274.121575 68.13762 
L 274.121575 68.13762 
L 274.121575 68.13762 
L 274.121575 66.659556 
L 271.309606 66.737292 
L 271.309606 66.816 
L 269.903622 66.816 
L 269.903622 66.895698 
L 269.903622 65.372354 
L 267.091654 65.443873 
L 267.091654 65.516308 
L 264.279685 65.589677 
L 264.279685 65.664 
L 261.467717 65.739294 
L 261.467717 65.815579 
L 258.655748 65.892874 
L 258.655748 65.9712 
L 255.84378 66.050577 
L 255.84378 66.131027 
L 253.031811 66.212571 
L 253.031811 66.295233 
L 251.625827 66.295233 
L 251.625827 66.379034 
L 251.625827 64.704 
L 248.813858 64.777846 
L 248.813858 64.852732 
L 246.00189 64.928681 
L 246.00189 65.005714 
L 243.189921 65.083856 
L 243.189921 65.16313 
L 240.377953 65.243562 
L 240.377953 65.325176 
L 237.565984 65.408 
L 237.565984 65.49206 
L 234.754016 65.577383 
L 234.754016 65.664 
L 233.348031 65.664 
L 233.348031 65.751939 
L 233.348031 63.891692 
L 230.536063 63.967256 
L 230.536063 64.044 
L 227.724094 64.121953 
L 227.724094 64.201143 
L 224.912126 64.2816 
L 224.912126 64.363355 
L 222.100157 64.446439 
L 222.100157 64.530885 
L 219.288189 64.616727 
L 219.288189 64.704 
L 216.47622 64.792739 
L 216.47622 64.882983 
L 213.664252 64.974769 
L 213.664252 65.068138 
L 210.852283 65.16313 
L 210.852283 65.259789 
L 208.040315 65.358159 
L 208.040315 65.458286 
L 205.228346 65.560216 
L 205.228346 65.664 
L 202.416378 65.769688 
L 202.416378 65.877333 
L 199.604409 65.986991 
L 199.604409 66.098717 
L 198.198425 66.098717 
L 198.198425 66.212571 
L 196.792441 66.212571 
L 196.792441 66.328615 
L 195.386457 66.328615 
L 195.386457 66.446913 
L 193.980472 66.446913 
L 193.980472 66.567529 
L 193.980472 66.567529 
L 193.980472 66.567529 
L 193.980472 61.7472 
L 191.168504 61.824 
L 191.168504 61.902367 
L 188.356535 61.982351 
L 188.356535 62.064 
L 185.544567 62.147368 
L 185.544567 62.232511 
L 182.732598 62.319484 
L 182.732598 62.408348 
L 179.92063 62.499165 
L 179.92063 62.592 
L 177.108661 62.686921 
L 177.108661 62.784 
L 174.296693 62.88331 
L 174.296693 62.98493 
L 174.296693 62.98493 
L 174.296693 62.98493 
L 174.296693 60.107294 
L 170.07874 60.107294 
L 170.07874 60.325463 
L 167.266772 60.401778 
L 167.266772 60.48 
L 164.454803 60.560203 
L 164.454803 60.642462 
L 161.642835 60.726857 
L 161.642835 60.813474 
L 158.830866 60.9024 
L 158.830866 60.99373 
L 156.018898 61.087562 
L 156.018898 61.184 
L 153.206929 61.283155 
L 153.206929 61.385143 
L 148.988976 61.490087 
L 148.988976 61.709373 
L 147.582992 61.709373 
L 147.582992 61.824 
L 146.177008 61.824 
L 146.177008 61.942154 
L 144.771024 61.942154 
L 144.771024 62.064 
L 143.365039 62.064 
L 143.365039 62.189714 
L 141.959055 62.189714 
L 141.959055 62.319484 
L 140.553071 62.319484 
L 140.553071 62.453508 
L 139.147087 62.453508 
L 139.147087 62.592 
L 137.741102 62.592 
L 137.741102 62.735186 
L 136.335118 62.735186 
L 136.335118 62.88331 
L 134.929134 62.88331 
L 134.929134 63.036632 
L 133.52315 63.036632 
L 133.52315 63.195429 
L 132.117165 63.195429 
L 132.117165 63.36 
L 129.305197 63.36 
L 129.305197 63.707774 
L 127.899213 63.707774 
L 127.899213 63.891692 
L 126.493228 63.891692 
L 126.493228 64.082824 
L 125.087244 64.082824 
L 125.087244 64.2816 
L 123.68126 64.2816 
L 123.68126 64.48849 
L 122.275276 64.48849 
L 122.275276 64.704 
L 120.869291 64.704 
L 120.869291 64.928681 
L 119.463307 64.928681 
L 119.463307 65.16313 
L 118.057323 65.16313 
L 118.057323 65.408 
L 116.651339 65.408 
L 116.651339 65.664 
L 115.245354 65.664 
L 115.245354 65.931907 
L 113.83937 65.931907 
L 113.83937 66.212571 
L 112.433386 66.212571 
L 112.433386 66.506927 
L 111.027402 66.506927 
L 111.027402 66.816 
L 109.621417 66.816 
L 109.621417 67.140923 
L 108.215433 67.140923 
L 108.215433 67.482947 
L 106.809449 67.482947 
L 106.809449 67.843459 
L 105.403465 67.843459 
L 105.403465 68.224 
L 103.99748 68.224 
L 103.99748 68.626286 
L 102.591496 68.626286 
L 102.591496 69.052235 
L 101.185512 69.052235 
L 101.185512 69.504 
L 99.779528 69.504 
L 99.779528 69.984 
L 98.373543 69.984 
L 98.373543 70.494968 
L 96.967559 70.494968 
L 96.967559 71.04 
L 95.561575 71.04 
L 95.561575 71.622621 
L 94.155591 71.622621 
L 94.155591 72.246857 
L 92.749606 72.246857 
L 92.749606 72.917333 
L 91.343622 72.917333 
L 91.343622 73.639385 
L 91.343622 73.639385 
L 91.343622 73.639385 
L 91.343622 64.2816 
L 89.937638 64.2816 
L 89.937638 64.704 
L 88.531654 64.704 
L 88.531654 65.16313 
L 87.125669 65.16313 
L 87.125669 65.664 
L 85.719685 65.664 
L 85.719685 66.212571 
L 84.313701 66.212571 
L 84.313701 66.816 
L 82.907717 66.816 
L 82.907717 67.482947 
L 81.501732 67.482947 
L 81.501732 68.224 
L 80.095748 68.224 
L 80.095748 69.052235 
L 78.689764 69.052235 
L 78.689764 69.984 
L 77.28378 69.984 
L 77.28378 71.04 
L 75.877795 71.04 
L 75.877795 72.246857 
L 74.471811 72.246857 
L 74.471811 73.639385 
L 73.065827 73.639385 
L 73.065827 75.264 
L 71.659843 75.264 
L 71.659843 77.184 
L 71.659843 77.184 
L 71.659843 77.184 
L 71.659843 54.144 
L 57.6 54.144 
L 57.6 54.144 
" style="fill:none;stroke:#000000;stroke-linecap:square;stroke-width:1.5;"/>
   </g>
   <g id="patch_3">
    <path d="M 57.6 307.584 
L 57.6 41.472 
" style="fill:none;stroke:#000000;stroke-linecap:square;stroke-linejoin:miter;stroke-width:0.8;"/>
   </g>
   <g id="patch_4">
    <path d="M 414.72 307.584 
L 414.72 41.472 
" style="fill:none;stroke:#000000;stroke-linecap:square;stroke-linejoin:miter;stroke-width:0.8;"/>
   </g>
   <g id="patch_5">
    <path d="M 57.6 307.584 
L 414.72 307.584 
" style="fill:none;stroke:#000000;stroke-linecap:square;stroke-linejoin:miter;stroke-width:0.8;"/>
   </g>
   <g id="patch_6">
    <path d="M 57.6 41.472 
L 414.72 41.472 
" style="fill:none;stroke:#000000;stroke-linecap:square;stroke-linejoin:miter;stroke-width:0.8;"/>
   </g>
   <g id="legend_1">
    <g id="patch_7">
     <path d="M 64.6 302.584 
L 199.692188 302.584 
Q 201.692188 302.584 201.692188 300.584 
L 201.692188 242.8715 
Q 201.692188 240.8715 199.692188 240.8715 
L 64.6 240.8715 
Q 62.6 240.8715 62.6 242.8715 
L 62.6 300.584 
Q 62.6 302.584 64.6 302.584 
z
" style="fill:#ffffff;opacity:0.8;stroke:#cccccc;stroke-linejoin:miter;"/>
    </g>
    <g id="line2d_17">
     <path d="M 66.6 248.969937 
L 86.6 248.969937 
" style="fill:none;stroke:#ff0000;stroke-linecap:square;stroke-width:1.5;"/>
    </g>
    <g id="line2d_18"/>
    <g id="text_13">
     <!-- MLPClassifier -->
     <defs>
      <path d="M 9.8125 72.90625 
L 24.515625 72.90625 
L 43.109375 23.296875 
L 61.8125 72.90625 
L 76.515625 72.90625 
L 76.515625 0 
L 66.890625 0 
L 66.890625 64.015625 
L 48.09375 14.015625 
L 38.1875 14.015625 
L 19.390625 64.015625 
L 19.390625 0 
L 9.8125 0 
z
" id="DejaVuSans-4d"/>
      <path d="M 9.8125 72.90625 
L 19.671875 72.90625 
L 19.671875 8.296875 
L 55.171875 8.296875 
L 55.171875 0 
L 9.8125 0 
z
" id="DejaVuSans-4c"/>
      <path d="M 19.671875 64.796875 
L 19.671875 37.40625 
L 32.078125 37.40625 
Q 38.96875 37.40625 42.71875 40.96875 
Q 46.484375 44.53125 46.484375 51.125 
Q 46.484375 57.671875 42.71875 61.234375 
Q 38.96875 64.796875 32.078125 64.796875 
z
M 9.8125 72.90625 
L 32.078125 72.90625 
Q 44.34375 72.90625 50.609375 67.359375 
Q 56.890625 61.8125 56.890625 51.125 
Q 56.890625 40.328125 50.609375 34.8125 
Q 44.34375 29.296875 32.078125 29.296875 
L 19.671875 29.296875 
L 19.671875 0 
L 9.8125 0 
z
" id="DejaVuSans-50"/>
      <path d="M 64.40625 67.28125 
L 64.40625 56.890625 
Q 59.421875 61.53125 53.78125 63.8125 
Q 48.140625 66.109375 41.796875 66.109375 
Q 29.296875 66.109375 22.65625 58.46875 
Q 16.015625 50.828125 16.015625 36.375 
Q 16.015625 21.96875 22.65625 14.328125 
Q 29.296875 6.6875 41.796875 6.6875 
Q 48.140625 6.6875 53.78125 8.984375 
Q 59.421875 11.28125 64.40625 15.921875 
L 64.40625 5.609375 
Q 59.234375 2.09375 53.4375 0.328125 
Q 47.65625 -1.421875 41.21875 -1.421875 
Q 24.65625 -1.421875 15.125 8.703125 
Q 5.609375 18.84375 5.609375 36.375 
Q 5.609375 53.953125 15.125 64.078125 
Q 24.65625 74.21875 41.21875 74.21875 
Q 47.75 74.21875 53.53125 72.484375 
Q 59.328125 70.75 64.40625 67.28125 
" id="DejaVuSans-43"/>
      <path d="M 9.421875 75.984375 
L 18.40625 75.984375 
L 18.40625 0 
L 9.421875 0 
z
" id="DejaVuSans-6c"/>
      <path d="M 34.28125 27.484375 
Q 23.390625 27.484375 19.1875 25 
Q 14.984375 22.515625 14.984375 16.5 
Q 14.984375 11.71875 18.140625 8.90625 
Q 21.296875 6.109375 26.703125 6.109375 
Q 34.1875 6.109375 38.703125 11.40625 
Q 43.21875 16.703125 43.21875 25.484375 
L 43.21875 27.484375 
z
M 52.203125 31.203125 
L 52.203125 0 
L 43.21875 0 
L 43.21875 8.296875 
Q 40.140625 3.328125 35.546875 0.953125 
Q 30.953125 -1.421875 24.3125 -1.421875 
Q 15.921875 -1.421875 10.953125 3.296875 
Q 6 8.015625 6 15.921875 
Q 6 25.140625 12.171875 29.828125 
Q 18.359375 34.515625 30.609375 34.515625 
L 43.21875 34.515625 
L 43.21875 35.40625 
Q 43.21875 41.609375 39.140625 45 
Q 35.0625 48.390625 27.6875 48.390625 
Q 23 48.390625 18.546875 47.265625 
Q 14.109375 46.140625 10.015625 43.890625 
L 10.015625 52.203125 
Q 14.9375 54.109375 19.578125 55.046875 
Q 24.21875 56 28.609375 56 
Q 40.484375 56 46.34375 49.84375 
Q 52.203125 43.703125 52.203125 31.203125 
" id="DejaVuSans-61"/>
      <path d="M 44.28125 53.078125 
L 44.28125 44.578125 
Q 40.484375 46.53125 36.375 47.5 
Q 32.28125 48.484375 27.875 48.484375 
Q 21.1875 48.484375 17.84375 46.4375 
Q 14.5 44.390625 14.5 40.28125 
Q 14.5 37.15625 16.890625 35.375 
Q 19.28125 33.59375 26.515625 31.984375 
L 29.59375 31.296875 
Q 39.15625 29.25 43.1875 25.515625 
Q 47.21875 21.78125 47.21875 15.09375 
Q 47.21875 7.46875 41.1875 3.015625 
Q 35.15625 -1.421875 24.609375 -1.421875 
Q 20.21875 -1.421875 15.453125 -0.5625 
Q 10.6875 0.296875 5.421875 2 
L 5.421875 11.28125 
Q 10.40625 8.6875 15.234375 7.390625 
Q 20.0625 6.109375 24.8125 6.109375 
Q 31.15625 6.109375 34.5625 8.28125 
Q 37.984375 10.453125 37.984375 14.40625 
Q 37.984375 18.0625 35.515625 20.015625 
Q 33.0625 21.96875 24.703125 23.78125 
L 21.578125 24.515625 
Q 13.234375 26.265625 9.515625 29.90625 
Q 5.8125 33.546875 5.8125 39.890625 
Q 5.8125 47.609375 11.28125 51.796875 
Q 16.75 56 26.8125 56 
Q 31.78125 56 36.171875 55.265625 
Q 40.578125 54.546875 44.28125 53.078125 
" id="DejaVuSans-73"/>
      <path d="M 9.421875 54.6875 
L 18.40625 54.6875 
L 18.40625 0 
L 9.421875 0 
z
M 9.421875 75.984375 
L 18.40625 75.984375 
L 18.40625 64.59375 
L 9.421875 64.59375 
z
" id="DejaVuSans-69"/>
      <path d="M 37.109375 75.984375 
L 37.109375 68.5 
L 28.515625 68.5 
Q 23.6875 68.5 21.796875 66.546875 
Q 19.921875 64.59375 19.921875 59.515625 
L 19.921875 54.6875 
L 34.71875 54.6875 
L 34.71875 47.703125 
L 19.921875 47.703125 
L 19.921875 0 
L 10.890625 0 
L 10.890625 47.703125 
L 2.296875 47.703125 
L 2.296875 54.6875 
L 10.890625 54.6875 
L 10.890625 58.5 
Q 10.890625 67.625 15.140625 71.796875 
Q 19.390625 75.984375 28.609375 75.984375 
z
" id="DejaVuSans-66"/>
      <path d="M 56.203125 29.59375 
L 56.203125 25.203125 
L 14.890625 25.203125 
Q 15.484375 15.921875 20.484375 11.0625 
Q 25.484375 6.203125 34.421875 6.203125 
Q 39.59375 6.203125 44.453125 7.46875 
Q 49.3125 8.734375 54.109375 11.28125 
L 54.109375 2.78125 
Q 49.265625 0.734375 44.1875 -0.34375 
Q 39.109375 -1.421875 33.890625 -1.421875 
Q 20.796875 -1.421875 13.15625 6.1875 
Q 5.515625 13.8125 5.515625 26.8125 
Q 5.515625 40.234375 12.765625 48.109375 
Q 20.015625 56 32.328125 56 
Q 43.359375 56 49.78125 48.890625 
Q 56.203125 41.796875 56.203125 29.59375 
M 47.21875 32.234375 
Q 47.125 39.59375 43.09375 43.984375 
Q 39.0625 48.390625 32.421875 48.390625 
Q 24.90625 48.390625 20.390625 44.140625 
Q 15.875 39.890625 15.1875 32.171875 
z
" id="DejaVuSans-65"/>
      <path d="M 41.109375 46.296875 
Q 39.59375 47.171875 37.8125 47.578125 
Q 36.03125 48 33.890625 48 
Q 26.265625 48 22.1875 43.046875 
Q 18.109375 38.09375 18.109375 28.8125 
L 18.109375 0 
L 9.078125 0 
L 9.078125 54.6875 
L 18.109375 54.6875 
L 18.109375 46.1875 
Q 20.953125 51.171875 25.484375 53.578125 
Q 30.03125 56 36.53125 56 
Q 37.453125 56 38.578125 55.875 
Q 39.703125 55.765625 41.0625 55.515625 
z
" id="DejaVuSans-72"/>
     </defs>
     <g transform="translate(94.6 252.469937)scale(0.1 -0.1)">
      <use xlink:href="#DejaVuSans-4d"/>
      <use x="86.279297" xlink:href="#DejaVuSans-4c"/>
      <use x="141.992188" xlink:href="#DejaVuSans-50"/>
      <use x="202.294922" xlink:href="#DejaVuSans-43"/>
      <use x="272.119141" xlink:href="#DejaVuSans-6c"/>
      <use x="299.902344" xlink:href="#DejaVuSans-61"/>
      <use x="361.181641" xlink:href="#DejaVuSans-73"/>
      <use x="413.28125" xlink:href="#DejaVuSans-73"/>
      <use x="465.380859" xlink:href="#DejaVuSans-69"/>
      <use x="493.164062" xlink:href="#DejaVuSans-66"/>
      <use x="528.369141" xlink:href="#DejaVuSans-69"/>
      <use x="556.152344" xlink:href="#DejaVuSans-65"/>
      <use x="617.675781" xlink:href="#DejaVuSans-72"/>
     </g>
    </g>
    <g id="line2d_19">
     <path d="M 66.6 263.648062 
L 86.6 263.648062 
" style="fill:none;stroke:#008000;stroke-linecap:square;stroke-width:1.5;"/>
    </g>
    <g id="line2d_20"/>
    <g id="text_14">
     <!-- KNeighborsClassifier -->
     <defs>
      <path d="M 9.8125 72.90625 
L 19.671875 72.90625 
L 19.671875 42.09375 
L 52.390625 72.90625 
L 65.09375 72.90625 
L 28.90625 38.921875 
L 67.671875 0 
L 54.6875 0 
L 19.671875 35.109375 
L 19.671875 0 
L 9.8125 0 
z
" id="DejaVuSans-4b"/>
      <path d="M 9.8125 72.90625 
L 23.09375 72.90625 
L 55.421875 11.921875 
L 55.421875 72.90625 
L 64.984375 72.90625 
L 64.984375 0 
L 51.703125 0 
L 19.390625 60.984375 
L 19.390625 0 
L 9.8125 0 
z
" id="DejaVuSans-4e"/>
      <path d="M 45.40625 27.984375 
Q 45.40625 37.75 41.375 43.109375 
Q 37.359375 48.484375 30.078125 48.484375 
Q 22.859375 48.484375 18.828125 43.109375 
Q 14.796875 37.75 14.796875 27.984375 
Q 14.796875 18.265625 18.828125 12.890625 
Q 22.859375 7.515625 30.078125 7.515625 
Q 37.359375 7.515625 41.375 12.890625 
Q 45.40625 18.265625 45.40625 27.984375 
M 54.390625 6.78125 
Q 54.390625 -7.171875 48.1875 -13.984375 
Q 42 -20.796875 29.203125 -20.796875 
Q 24.46875 -20.796875 20.265625 -20.09375 
Q 16.0625 -19.390625 12.109375 -17.921875 
L 12.109375 -9.1875 
Q 16.0625 -11.328125 19.921875 -12.34375 
Q 23.78125 -13.375 27.78125 -13.375 
Q 36.625 -13.375 41.015625 -8.765625 
Q 45.40625 -4.15625 45.40625 5.171875 
L 45.40625 9.625 
Q 42.625 4.78125 38.28125 2.390625 
Q 33.9375 0 27.875 0 
Q 17.828125 0 11.671875 7.65625 
Q 5.515625 15.328125 5.515625 27.984375 
Q 5.515625 40.671875 11.671875 48.328125 
Q 17.828125 56 27.875 56 
Q 33.9375 56 38.28125 53.609375 
Q 42.625 51.21875 45.40625 46.390625 
L 45.40625 54.6875 
L 54.390625 54.6875 
z
" id="DejaVuSans-67"/>
      <path d="M 54.890625 33.015625 
L 54.890625 0 
L 45.90625 0 
L 45.90625 32.71875 
Q 45.90625 40.484375 42.875 44.328125 
Q 39.84375 48.1875 33.796875 48.1875 
Q 26.515625 48.1875 22.3125 43.546875 
Q 18.109375 38.921875 18.109375 30.90625 
L 18.109375 0 
L 9.078125 0 
L 9.078125 75.984375 
L 18.109375 75.984375 
L 18.109375 46.1875 
Q 21.34375 51.125 25.703125 53.5625 
Q 30.078125 56 35.796875 56 
Q 45.21875 56 50.046875 50.171875 
Q 54.890625 44.34375 54.890625 33.015625 
" id="DejaVuSans-68"/>
      <path d="M 48.6875 27.296875 
Q 48.6875 37.203125 44.609375 42.84375 
Q 40.53125 48.484375 33.40625 48.484375 
Q 26.265625 48.484375 22.1875 42.84375 
Q 18.109375 37.203125 18.109375 27.296875 
Q 18.109375 17.390625 22.1875 11.75 
Q 26.265625 6.109375 33.40625 6.109375 
Q 40.53125 6.109375 44.609375 11.75 
Q 48.6875 17.390625 48.6875 27.296875 
M 18.109375 46.390625 
Q 20.953125 51.265625 25.265625 53.625 
Q 29.59375 56 35.59375 56 
Q 45.5625 56 51.78125 48.09375 
Q 58.015625 40.1875 58.015625 27.296875 
Q 58.015625 14.40625 51.78125 6.484375 
Q 45.5625 -1.421875 35.59375 -1.421875 
Q 29.59375 -1.421875 25.265625 0.953125 
Q 20.953125 3.328125 18.109375 8.203125 
L 18.109375 0 
L 9.078125 0 
L 9.078125 75.984375 
L 18.109375 75.984375 
z
" id="DejaVuSans-62"/>
      <path d="M 30.609375 48.390625 
Q 23.390625 48.390625 19.1875 42.75 
Q 14.984375 37.109375 14.984375 27.296875 
Q 14.984375 17.484375 19.15625 11.84375 
Q 23.34375 6.203125 30.609375 6.203125 
Q 37.796875 6.203125 41.984375 11.859375 
Q 46.1875 17.53125 46.1875 27.296875 
Q 46.1875 37.015625 41.984375 42.703125 
Q 37.796875 48.390625 30.609375 48.390625 
M 30.609375 56 
Q 42.328125 56 49.015625 48.375 
Q 55.71875 40.765625 55.71875 27.296875 
Q 55.71875 13.875 49.015625 6.21875 
Q 42.328125 -1.421875 30.609375 -1.421875 
Q 18.84375 -1.421875 12.171875 6.21875 
Q 5.515625 13.875 5.515625 27.296875 
Q 5.515625 40.765625 12.171875 48.375 
Q 18.84375 56 30.609375 56 
" id="DejaVuSans-6f"/>
     </defs>
     <g transform="translate(94.6 267.148062)scale(0.1 -0.1)">
      <use xlink:href="#DejaVuSans-4b"/>
      <use x="65.576172" xlink:href="#DejaVuSans-4e"/>
      <use x="140.380859" xlink:href="#DejaVuSans-65"/>
      <use x="201.904297" xlink:href="#DejaVuSans-69"/>
      <use x="229.6875" xlink:href="#DejaVuSans-67"/>
      <use x="293.164062" xlink:href="#DejaVuSans-68"/>
      <use x="356.542969" xlink:href="#DejaVuSans-62"/>
      <use x="420.019531" xlink:href="#DejaVuSans-6f"/>
      <use x="481.201172" xlink:href="#DejaVuSans-72"/>
      <use x="522.314453" xlink:href="#DejaVuSans-73"/>
      <use x="574.414062" xlink:href="#DejaVuSans-43"/>
      <use x="644.238281" xlink:href="#DejaVuSans-6c"/>
      <use x="672.021484" xlink:href="#DejaVuSans-61"/>
      <use x="733.300781" xlink:href="#DejaVuSans-73"/>
      <use x="785.400391" xlink:href="#DejaVuSans-73"/>
      <use x="837.5" xlink:href="#DejaVuSans-69"/>
      <use x="865.283203" xlink:href="#DejaVuSans-66"/>
      <use x="900.488281" xlink:href="#DejaVuSans-69"/>
      <use x="928.271484" xlink:href="#DejaVuSans-65"/>
      <use x="989.794922" xlink:href="#DejaVuSans-72"/>
     </g>
    </g>
    <g id="line2d_21">
     <path d="M 66.6 278.326187 
L 86.6 278.326187 
" style="fill:none;stroke:#0000ff;stroke-linecap:square;stroke-width:1.5;"/>
    </g>
    <g id="line2d_22"/>
    <g id="text_15">
     <!-- LogisticRegression -->
     <defs>
      <path d="M 18.3125 70.21875 
L 18.3125 54.6875 
L 36.8125 54.6875 
L 36.8125 47.703125 
L 18.3125 47.703125 
L 18.3125 18.015625 
Q 18.3125 11.328125 20.140625 9.421875 
Q 21.96875 7.515625 27.59375 7.515625 
L 36.8125 7.515625 
L 36.8125 0 
L 27.59375 0 
Q 17.1875 0 13.234375 3.875 
Q 9.28125 7.765625 9.28125 18.015625 
L 9.28125 47.703125 
L 2.6875 47.703125 
L 2.6875 54.6875 
L 9.28125 54.6875 
L 9.28125 70.21875 
z
" id="DejaVuSans-74"/>
      <path d="M 48.78125 52.59375 
L 48.78125 44.1875 
Q 44.96875 46.296875 41.140625 47.34375 
Q 37.3125 48.390625 33.40625 48.390625 
Q 24.65625 48.390625 19.8125 42.84375 
Q 14.984375 37.3125 14.984375 27.296875 
Q 14.984375 17.28125 19.8125 11.734375 
Q 24.65625 6.203125 33.40625 6.203125 
Q 37.3125 6.203125 41.140625 7.25 
Q 44.96875 8.296875 48.78125 10.40625 
L 48.78125 2.09375 
Q 45.015625 0.34375 40.984375 -0.53125 
Q 36.96875 -1.421875 32.421875 -1.421875 
Q 20.0625 -1.421875 12.78125 6.34375 
Q 5.515625 14.109375 5.515625 27.296875 
Q 5.515625 40.671875 12.859375 48.328125 
Q 20.21875 56 33.015625 56 
Q 37.15625 56 41.109375 55.140625 
Q 45.0625 54.296875 48.78125 52.59375 
" id="DejaVuSans-63"/>
      <path d="M 44.390625 34.1875 
Q 47.5625 33.109375 50.5625 29.59375 
Q 53.5625 26.078125 56.59375 19.921875 
L 66.609375 0 
L 56 0 
L 46.6875 18.703125 
Q 43.0625 26.03125 39.671875 28.421875 
Q 36.28125 30.8125 30.421875 30.8125 
L 19.671875 30.8125 
L 19.671875 0 
L 9.8125 0 
L 9.8125 72.90625 
L 32.078125 72.90625 
Q 44.578125 72.90625 50.734375 67.671875 
Q 56.890625 62.453125 56.890625 51.90625 
Q 56.890625 45.015625 53.6875 40.46875 
Q 50.484375 35.9375 44.390625 34.1875 
M 19.671875 64.796875 
L 19.671875 38.921875 
L 32.078125 38.921875 
Q 39.203125 38.921875 42.84375 42.21875 
Q 46.484375 45.515625 46.484375 51.90625 
Q 46.484375 58.296875 42.84375 61.546875 
Q 39.203125 64.796875 32.078125 64.796875 
z
" id="DejaVuSans-52"/>
      <path d="M 54.890625 33.015625 
L 54.890625 0 
L 45.90625 0 
L 45.90625 32.71875 
Q 45.90625 40.484375 42.875 44.328125 
Q 39.84375 48.1875 33.796875 48.1875 
Q 26.515625 48.1875 22.3125 43.546875 
Q 18.109375 38.921875 18.109375 30.90625 
L 18.109375 0 
L 9.078125 0 
L 9.078125 54.6875 
L 18.109375 54.6875 
L 18.109375 46.1875 
Q 21.34375 51.125 25.703125 53.5625 
Q 30.078125 56 35.796875 56 
Q 45.21875 56 50.046875 50.171875 
Q 54.890625 44.34375 54.890625 33.015625 
" id="DejaVuSans-6e"/>
     </defs>
     <g transform="translate(94.6 281.826187)scale(0.1 -0.1)">
      <use xlink:href="#DejaVuSans-4c"/>
      <use x="55.697266" xlink:href="#DejaVuSans-6f"/>
      <use x="116.878906" xlink:href="#DejaVuSans-67"/>
      <use x="180.355469" xlink:href="#DejaVuSans-69"/>
      <use x="208.138672" xlink:href="#DejaVuSans-73"/>
      <use x="260.238281" xlink:href="#DejaVuSans-74"/>
      <use x="299.447266" xlink:href="#DejaVuSans-69"/>
      <use x="327.230469" xlink:href="#DejaVuSans-63"/>
      <use x="382.210938" xlink:href="#DejaVuSans-52"/>
      <use x="451.630859" xlink:href="#DejaVuSans-65"/>
      <use x="513.154297" xlink:href="#DejaVuSans-67"/>
      <use x="576.630859" xlink:href="#DejaVuSans-72"/>
      <use x="617.712891" xlink:href="#DejaVuSans-65"/>
      <use x="679.236328" xlink:href="#DejaVuSans-73"/>
      <use x="731.335938" xlink:href="#DejaVuSans-73"/>
      <use x="783.435547" xlink:href="#DejaVuSans-69"/>
      <use x="811.21875" xlink:href="#DejaVuSans-6f"/>
      <use x="872.400391" xlink:href="#DejaVuSans-6e"/>
     </g>
    </g>
    <g id="line2d_23">
     <path d="M 66.6 293.004312 
L 86.6 293.004312 
" style="fill:none;stroke:#000000;stroke-linecap:square;stroke-width:1.5;"/>
    </g>
    <g id="line2d_24"/>
    <g id="text_16">
     <!-- XGBClassifier -->
     <defs>
      <path d="M 6.296875 72.90625 
L 16.890625 72.90625 
L 35.015625 45.796875 
L 53.21875 72.90625 
L 63.8125 72.90625 
L 40.375 37.890625 
L 65.375 0 
L 54.78125 0 
L 34.28125 31 
L 13.625 0 
L 2.984375 0 
L 29 38.921875 
z
" id="DejaVuSans-58"/>
      <path d="M 59.515625 10.40625 
L 59.515625 29.984375 
L 43.40625 29.984375 
L 43.40625 38.09375 
L 69.28125 38.09375 
L 69.28125 6.78125 
Q 63.578125 2.734375 56.6875 0.65625 
Q 49.8125 -1.421875 42 -1.421875 
Q 24.90625 -1.421875 15.25 8.5625 
Q 5.609375 18.5625 5.609375 36.375 
Q 5.609375 54.25 15.25 64.234375 
Q 24.90625 74.21875 42 74.21875 
Q 49.125 74.21875 55.546875 72.453125 
Q 61.96875 70.703125 67.390625 67.28125 
L 67.390625 56.78125 
Q 61.921875 61.421875 55.765625 63.765625 
Q 49.609375 66.109375 42.828125 66.109375 
Q 29.4375 66.109375 22.71875 58.640625 
Q 16.015625 51.171875 16.015625 36.375 
Q 16.015625 21.625 22.71875 14.15625 
Q 29.4375 6.6875 42.828125 6.6875 
Q 48.046875 6.6875 52.140625 7.59375 
Q 56.25 8.5 59.515625 10.40625 
" id="DejaVuSans-47"/>
      <path d="M 19.671875 34.8125 
L 19.671875 8.109375 
L 35.5 8.109375 
Q 43.453125 8.109375 47.28125 11.40625 
Q 51.125 14.703125 51.125 21.484375 
Q 51.125 28.328125 47.28125 31.5625 
Q 43.453125 34.8125 35.5 34.8125 
z
M 19.671875 64.796875 
L 19.671875 42.828125 
L 34.28125 42.828125 
Q 41.5 42.828125 45.03125 45.53125 
Q 48.578125 48.25 48.578125 53.8125 
Q 48.578125 59.328125 45.03125 62.0625 
Q 41.5 64.796875 34.28125 64.796875 
z
M 9.8125 72.90625 
L 35.015625 72.90625 
Q 46.296875 72.90625 52.390625 68.21875 
Q 58.5 63.53125 58.5 54.890625 
Q 58.5 48.1875 55.375 44.234375 
Q 52.25 40.28125 46.1875 39.3125 
Q 53.46875 37.75 57.5 32.78125 
Q 61.53125 27.828125 61.53125 20.40625 
Q 61.53125 10.640625 54.890625 5.3125 
Q 48.25 0 35.984375 0 
L 9.8125 0 
z
" id="DejaVuSans-42"/>
     </defs>
     <g transform="translate(94.6 296.504312)scale(0.1 -0.1)">
      <use xlink:href="#DejaVuSans-58"/>
      <use x="68.505859" xlink:href="#DejaVuSans-47"/>
      <use x="145.996094" xlink:href="#DejaVuSans-42"/>
      <use x="214.583984" xlink:href="#DejaVuSans-43"/>
      <use x="284.408203" xlink:href="#DejaVuSans-6c"/>
      <use x="312.191406" xlink:href="#DejaVuSans-61"/>
      <use x="373.470703" xlink:href="#DejaVuSans-73"/>
      <use x="425.570312" xlink:href="#DejaVuSans-73"/>
      <use x="477.669922" xlink:href="#DejaVuSans-69"/>
      <use x="505.453125" xlink:href="#DejaVuSans-66"/>
      <use x="540.658203" xlink:href="#DejaVuSans-69"/>
      <use x="568.441406" xlink:href="#DejaVuSans-65"/>
      <use x="629.964844" xlink:href="#DejaVuSans-72"/>
     </g>
    </g>
   </g>
  </g>
 </g>
 <defs>
  <clipPath id="p622704d56e">
   <rect height="266.112" width="357.12" x="57.6" y="41.472"/>
  </clipPath>
 </defs>
</svg>
