<?xml version="1.0" encoding="utf-8" standalone="no"?>
<!DOCTYPE svg PUBLIC "-//W3C//DTD SVG 1.1//EN"
  "http://www.w3.org/Graphics/SVG/1.1/DTD/svg11.dtd">
<!-- Created with matplotlib (http://matplotlib.org/) -->
<svg height="345pt" version="1.1" viewBox="0 0 460 345" width="460pt" xmlns="http://www.w3.org/2000/svg" xmlns:xlink="http://www.w3.org/1999/xlink">
 <defs>
  <style type="text/css">
*{stroke-linecap:butt;stroke-linejoin:round;}
  </style>
 </defs>
 <g id="figure_1">
  <g id="patch_1">
   <path d="M 0 345.6 
L 460.8 345.6 
L 460.8 0 
L 0 0 
z
" style="fill:#ffffff;"/>
  </g>
  <g id="axes_1">
   <g id="patch_2">
    <path d="M 57.6 307.584 
L 414.72 307.584 
L 414.72 41.472 
L 57.6 41.472 
z
" style="fill:#ffffff;"/>
   </g>
   <g id="matplotlib.axis_1">
    <g id="xtick_1">
     <g id="line2d_1">
      <defs>
       <path d="M 0 0 
L 0 3.5 
" id="m68519ba0c8" style="stroke:#000000;stroke-width:0.8;"/>
      </defs>
      <g>
       <use style="stroke:#000000;stroke-width:0.8;" x="57.6" xlink:href="#m68519ba0c8" y="307.584"/>
      </g>
     </g>
     <g id="text_1">
      <!-- 0.0 -->
      <defs>
       <path d="M 31.78125 66.40625 
Q 24.171875 66.40625 20.328125 58.90625 
Q 16.5 51.421875 16.5 36.375 
Q 16.5 21.390625 20.328125 13.890625 
Q 24.171875 6.390625 31.78125 6.390625 
Q 39.453125 6.390625 43.28125 13.890625 
Q 47.125 21.390625 47.125 36.375 
Q 47.125 51.421875 43.28125 58.90625 
Q 39.453125 66.40625 31.78125 66.40625 
M 31.78125 74.21875 
Q 44.046875 74.21875 50.515625 64.515625 
Q 56.984375 54.828125 56.984375 36.375 
Q 56.984375 17.96875 50.515625 8.265625 
Q 44.046875 -1.421875 31.78125 -1.421875 
Q 19.53125 -1.421875 13.0625 8.265625 
Q 6.59375 17.96875 6.59375 36.375 
Q 6.59375 54.828125 13.0625 64.515625 
Q 19.53125 74.21875 31.78125 74.21875 
" id="DejaVuSans-30"/>
       <path d="M 10.6875 12.40625 
L 21 12.40625 
L 21 0 
L 10.6875 0 
z
" id="DejaVuSans-2e"/>
      </defs>
      <g transform="translate(49.648438 322.182437)scale(0.1 -0.1)">
       <use xlink:href="#DejaVuSans-30"/>
       <use x="63.623047" xlink:href="#DejaVuSans-2e"/>
       <use x="95.410156" xlink:href="#DejaVuSans-30"/>
      </g>
     </g>
    </g>
    <g id="xtick_2">
     <g id="line2d_2">
      <g>
       <use style="stroke:#000000;stroke-width:0.8;" x="129.024" xlink:href="#m68519ba0c8" y="307.584"/>
      </g>
     </g>
     <g id="text_2">
      <!-- 0.2 -->
      <defs>
       <path d="M 19.1875 8.296875 
L 53.609375 8.296875 
L 53.609375 0 
L 7.328125 0 
L 7.328125 8.296875 
Q 12.9375 14.109375 22.625 23.890625 
Q 32.328125 33.6875 34.8125 36.53125 
Q 39.546875 41.84375 41.421875 45.53125 
Q 43.3125 49.21875 43.3125 52.78125 
Q 43.3125 58.59375 39.234375 62.25 
Q 35.15625 65.921875 28.609375 65.921875 
Q 23.96875 65.921875 18.8125 64.3125 
Q 13.671875 62.703125 7.8125 59.421875 
L 7.8125 69.390625 
Q 13.765625 71.78125 18.9375 73 
Q 24.125 74.21875 28.421875 74.21875 
Q 39.75 74.21875 46.484375 68.546875 
Q 53.21875 62.890625 53.21875 53.421875 
Q 53.21875 48.921875 51.53125 44.890625 
Q 49.859375 40.875 45.40625 35.40625 
Q 44.1875 33.984375 37.640625 27.21875 
Q 31.109375 20.453125 19.1875 8.296875 
" id="DejaVuSans-32"/>
      </defs>
      <g transform="translate(121.072438 322.182437)scale(0.1 -0.1)">
       <use xlink:href="#DejaVuSans-30"/>
       <use x="63.623047" xlink:href="#DejaVuSans-2e"/>
       <use x="95.410156" xlink:href="#DejaVuSans-32"/>
      </g>
     </g>
    </g>
    <g id="xtick_3">
     <g id="line2d_3">
      <g>
       <use style="stroke:#000000;stroke-width:0.8;" x="200.448" xlink:href="#m68519ba0c8" y="307.584"/>
      </g>
     </g>
     <g id="text_3">
      <!-- 0.4 -->
      <defs>
       <path d="M 37.796875 64.3125 
L 12.890625 25.390625 
L 37.796875 25.390625 
z
M 35.203125 72.90625 
L 47.609375 72.90625 
L 47.609375 25.390625 
L 58.015625 25.390625 
L 58.015625 17.1875 
L 47.609375 17.1875 
L 47.609375 0 
L 37.796875 0 
L 37.796875 17.1875 
L 4.890625 17.1875 
L 4.890625 26.703125 
z
" id="DejaVuSans-34"/>
      </defs>
      <g transform="translate(192.496438 322.182437)scale(0.1 -0.1)">
       <use xlink:href="#DejaVuSans-30"/>
       <use x="63.623047" xlink:href="#DejaVuSans-2e"/>
       <use x="95.410156" xlink:href="#DejaVuSans-34"/>
      </g>
     </g>
    </g>
    <g id="xtick_4">
     <g id="line2d_4">
      <g>
       <use style="stroke:#000000;stroke-width:0.8;" x="271.872" xlink:href="#m68519ba0c8" y="307.584"/>
      </g>
     </g>
     <g id="text_4">
      <!-- 0.6 -->
      <defs>
       <path d="M 33.015625 40.375 
Q 26.375 40.375 22.484375 35.828125 
Q 18.609375 31.296875 18.609375 23.390625 
Q 18.609375 15.53125 22.484375 10.953125 
Q 26.375 6.390625 33.015625 6.390625 
Q 39.65625 6.390625 43.53125 10.953125 
Q 47.40625 15.53125 47.40625 23.390625 
Q 47.40625 31.296875 43.53125 35.828125 
Q 39.65625 40.375 33.015625 40.375 
M 52.59375 71.296875 
L 52.59375 62.3125 
Q 48.875 64.0625 45.09375 64.984375 
Q 41.3125 65.921875 37.59375 65.921875 
Q 27.828125 65.921875 22.671875 59.328125 
Q 17.53125 52.734375 16.796875 39.40625 
Q 19.671875 43.65625 24.015625 45.921875 
Q 28.375 48.1875 33.59375 48.1875 
Q 44.578125 48.1875 50.953125 41.515625 
Q 57.328125 34.859375 57.328125 23.390625 
Q 57.328125 12.15625 50.6875 5.359375 
Q 44.046875 -1.421875 33.015625 -1.421875 
Q 20.359375 -1.421875 13.671875 8.265625 
Q 6.984375 17.96875 6.984375 36.375 
Q 6.984375 53.65625 15.1875 63.9375 
Q 23.390625 74.21875 37.203125 74.21875 
Q 40.921875 74.21875 44.703125 73.484375 
Q 48.484375 72.75 52.59375 71.296875 
" id="DejaVuSans-36"/>
      </defs>
      <g transform="translate(263.920438 322.182437)scale(0.1 -0.1)">
       <use xlink:href="#DejaVuSans-30"/>
       <use x="63.623047" xlink:href="#DejaVuSans-2e"/>
       <use x="95.410156" xlink:href="#DejaVuSans-36"/>
      </g>
     </g>
    </g>
    <g id="xtick_5">
     <g id="line2d_5">
      <g>
       <use style="stroke:#000000;stroke-width:0.8;" x="343.296" xlink:href="#m68519ba0c8" y="307.584"/>
      </g>
     </g>
     <g id="text_5">
      <!-- 0.8 -->
      <defs>
       <path d="M 31.78125 34.625 
Q 24.75 34.625 20.71875 30.859375 
Q 16.703125 27.09375 16.703125 20.515625 
Q 16.703125 13.921875 20.71875 10.15625 
Q 24.75 6.390625 31.78125 6.390625 
Q 38.8125 6.390625 42.859375 10.171875 
Q 46.921875 13.96875 46.921875 20.515625 
Q 46.921875 27.09375 42.890625 30.859375 
Q 38.875 34.625 31.78125 34.625 
M 21.921875 38.8125 
Q 15.578125 40.375 12.03125 44.71875 
Q 8.5 49.078125 8.5 55.328125 
Q 8.5 64.0625 14.71875 69.140625 
Q 20.953125 74.21875 31.78125 74.21875 
Q 42.671875 74.21875 48.875 69.140625 
Q 55.078125 64.0625 55.078125 55.328125 
Q 55.078125 49.078125 51.53125 44.71875 
Q 48 40.375 41.703125 38.8125 
Q 48.828125 37.15625 52.796875 32.3125 
Q 56.78125 27.484375 56.78125 20.515625 
Q 56.78125 9.90625 50.3125 4.234375 
Q 43.84375 -1.421875 31.78125 -1.421875 
Q 19.734375 -1.421875 13.25 4.234375 
Q 6.78125 9.90625 6.78125 20.515625 
Q 6.78125 27.484375 10.78125 32.3125 
Q 14.796875 37.15625 21.921875 38.8125 
M 18.3125 54.390625 
Q 18.3125 48.734375 21.84375 45.5625 
Q 25.390625 42.390625 31.78125 42.390625 
Q 38.140625 42.390625 41.71875 45.5625 
Q 45.3125 48.734375 45.3125 54.390625 
Q 45.3125 60.0625 41.71875 63.234375 
Q 38.140625 66.40625 31.78125 66.40625 
Q 25.390625 66.40625 21.84375 63.234375 
Q 18.3125 60.0625 18.3125 54.390625 
" id="DejaVuSans-38"/>
      </defs>
      <g transform="translate(335.344438 322.182437)scale(0.1 -0.1)">
       <use xlink:href="#DejaVuSans-30"/>
       <use x="63.623047" xlink:href="#DejaVuSans-2e"/>
       <use x="95.410156" xlink:href="#DejaVuSans-38"/>
      </g>
     </g>
    </g>
    <g id="xtick_6">
     <g id="line2d_6">
      <g>
       <use style="stroke:#000000;stroke-width:0.8;" x="414.72" xlink:href="#m68519ba0c8" y="307.584"/>
      </g>
     </g>
     <g id="text_6">
      <!-- 1.0 -->
      <defs>
       <path d="M 12.40625 8.296875 
L 28.515625 8.296875 
L 28.515625 63.921875 
L 10.984375 60.40625 
L 10.984375 69.390625 
L 28.421875 72.90625 
L 38.28125 72.90625 
L 38.28125 8.296875 
L 54.390625 8.296875 
L 54.390625 0 
L 12.40625 0 
z
" id="DejaVuSans-31"/>
      </defs>
      <g transform="translate(406.768438 322.182437)scale(0.1 -0.1)">
       <use xlink:href="#DejaVuSans-31"/>
       <use x="63.623047" xlink:href="#DejaVuSans-2e"/>
       <use x="95.410156" xlink:href="#DejaVuSans-30"/>
      </g>
     </g>
    </g>
    <g id="text_7">
     <!-- Recall -->
     <defs>
      <path d="M 44.390625 34.1875 
Q 47.5625 33.109375 50.5625 29.59375 
Q 53.5625 26.078125 56.59375 19.921875 
L 66.609375 0 
L 56 0 
L 46.6875 18.703125 
Q 43.0625 26.03125 39.671875 28.421875 
Q 36.28125 30.8125 30.421875 30.8125 
L 19.671875 30.8125 
L 19.671875 0 
L 9.8125 0 
L 9.8125 72.90625 
L 32.078125 72.90625 
Q 44.578125 72.90625 50.734375 67.671875 
Q 56.890625 62.453125 56.890625 51.90625 
Q 56.890625 45.015625 53.6875 40.46875 
Q 50.484375 35.9375 44.390625 34.1875 
M 19.671875 64.796875 
L 19.671875 38.921875 
L 32.078125 38.921875 
Q 39.203125 38.921875 42.84375 42.21875 
Q 46.484375 45.515625 46.484375 51.90625 
Q 46.484375 58.296875 42.84375 61.546875 
Q 39.203125 64.796875 32.078125 64.796875 
z
" id="DejaVuSans-52"/>
      <path d="M 56.203125 29.59375 
L 56.203125 25.203125 
L 14.890625 25.203125 
Q 15.484375 15.921875 20.484375 11.0625 
Q 25.484375 6.203125 34.421875 6.203125 
Q 39.59375 6.203125 44.453125 7.46875 
Q 49.3125 8.734375 54.109375 11.28125 
L 54.109375 2.78125 
Q 49.265625 0.734375 44.1875 -0.34375 
Q 39.109375 -1.421875 33.890625 -1.421875 
Q 20.796875 -1.421875 13.15625 6.1875 
Q 5.515625 13.8125 5.515625 26.8125 
Q 5.515625 40.234375 12.765625 48.109375 
Q 20.015625 56 32.328125 56 
Q 43.359375 56 49.78125 48.890625 
Q 56.203125 41.796875 56.203125 29.59375 
M 47.21875 32.234375 
Q 47.125 39.59375 43.09375 43.984375 
Q 39.0625 48.390625 32.421875 48.390625 
Q 24.90625 48.390625 20.390625 44.140625 
Q 15.875 39.890625 15.1875 32.171875 
z
" id="DejaVuSans-65"/>
      <path d="M 48.78125 52.59375 
L 48.78125 44.1875 
Q 44.96875 46.296875 41.140625 47.34375 
Q 37.3125 48.390625 33.40625 48.390625 
Q 24.65625 48.390625 19.8125 42.84375 
Q 14.984375 37.3125 14.984375 27.296875 
Q 14.984375 17.28125 19.8125 11.734375 
Q 24.65625 6.203125 33.40625 6.203125 
Q 37.3125 6.203125 41.140625 7.25 
Q 44.96875 8.296875 48.78125 10.40625 
L 48.78125 2.09375 
Q 45.015625 0.34375 40.984375 -0.53125 
Q 36.96875 -1.421875 32.421875 -1.421875 
Q 20.0625 -1.421875 12.78125 6.34375 
Q 5.515625 14.109375 5.515625 27.296875 
Q 5.515625 40.671875 12.859375 48.328125 
Q 20.21875 56 33.015625 56 
Q 37.15625 56 41.109375 55.140625 
Q 45.0625 54.296875 48.78125 52.59375 
" id="DejaVuSans-63"/>
      <path d="M 34.28125 27.484375 
Q 23.390625 27.484375 19.1875 25 
Q 14.984375 22.515625 14.984375 16.5 
Q 14.984375 11.71875 18.140625 8.90625 
Q 21.296875 6.109375 26.703125 6.109375 
Q 34.1875 6.109375 38.703125 11.40625 
Q 43.21875 16.703125 43.21875 25.484375 
L 43.21875 27.484375 
z
M 52.203125 31.203125 
L 52.203125 0 
L 43.21875 0 
L 43.21875 8.296875 
Q 40.140625 3.328125 35.546875 0.953125 
Q 30.953125 -1.421875 24.3125 -1.421875 
Q 15.921875 -1.421875 10.953125 3.296875 
Q 6 8.015625 6 15.921875 
Q 6 25.140625 12.171875 29.828125 
Q 18.359375 34.515625 30.609375 34.515625 
L 43.21875 34.515625 
L 43.21875 35.40625 
Q 43.21875 41.609375 39.140625 45 
Q 35.0625 48.390625 27.6875 48.390625 
Q 23 48.390625 18.546875 47.265625 
Q 14.109375 46.140625 10.015625 43.890625 
L 10.015625 52.203125 
Q 14.9375 54.109375 19.578125 55.046875 
Q 24.21875 56 28.609375 56 
Q 40.484375 56 46.34375 49.84375 
Q 52.203125 43.703125 52.203125 31.203125 
" id="DejaVuSans-61"/>
      <path d="M 9.421875 75.984375 
L 18.40625 75.984375 
L 18.40625 0 
L 9.421875 0 
z
" id="DejaVuSans-6c"/>
     </defs>
     <g transform="translate(221.020938 335.860562)scale(0.1 -0.1)">
      <use xlink:href="#DejaVuSans-52"/>
      <use x="69.419922" xlink:href="#DejaVuSans-65"/>
      <use x="130.943359" xlink:href="#DejaVuSans-63"/>
      <use x="185.923828" xlink:href="#DejaVuSans-61"/>
      <use x="247.203125" xlink:href="#DejaVuSans-6c"/>
      <use x="274.986328" xlink:href="#DejaVuSans-6c"/>
     </g>
    </g>
   </g>
   <g id="matplotlib.axis_2">
    <g id="ytick_1">
     <g id="line2d_7">
      <defs>
       <path d="M 0 0 
L -3.5 0 
" id="md94b8dc7ac" style="stroke:#000000;stroke-width:0.8;"/>
      </defs>
      <g>
       <use style="stroke:#000000;stroke-width:0.8;" x="57.6" xlink:href="#md94b8dc7ac" y="307.584"/>
      </g>
     </g>
     <g id="text_8">
      <!-- 0.0 -->
      <g transform="translate(34.696875 311.383219)scale(0.1 -0.1)">
       <use xlink:href="#DejaVuSans-30"/>
       <use x="63.623047" xlink:href="#DejaVuSans-2e"/>
       <use x="95.410156" xlink:href="#DejaVuSans-30"/>
      </g>
     </g>
    </g>
    <g id="ytick_2">
     <g id="line2d_8">
      <g>
       <use style="stroke:#000000;stroke-width:0.8;" x="57.6" xlink:href="#md94b8dc7ac" y="256.896"/>
      </g>
     </g>
     <g id="text_9">
      <!-- 0.2 -->
      <g transform="translate(34.696875 260.695219)scale(0.1 -0.1)">
       <use xlink:href="#DejaVuSans-30"/>
       <use x="63.623047" xlink:href="#DejaVuSans-2e"/>
       <use x="95.410156" xlink:href="#DejaVuSans-32"/>
      </g>
     </g>
    </g>
    <g id="ytick_3">
     <g id="line2d_9">
      <g>
       <use style="stroke:#000000;stroke-width:0.8;" x="57.6" xlink:href="#md94b8dc7ac" y="206.208"/>
      </g>
     </g>
     <g id="text_10">
      <!-- 0.4 -->
      <g transform="translate(34.696875 210.007219)scale(0.1 -0.1)">
       <use xlink:href="#DejaVuSans-30"/>
       <use x="63.623047" xlink:href="#DejaVuSans-2e"/>
       <use x="95.410156" xlink:href="#DejaVuSans-34"/>
      </g>
     </g>
    </g>
    <g id="ytick_4">
     <g id="line2d_10">
      <g>
       <use style="stroke:#000000;stroke-width:0.8;" x="57.6" xlink:href="#md94b8dc7ac" y="155.52"/>
      </g>
     </g>
     <g id="text_11">
      <!-- 0.6 -->
      <g transform="translate(34.696875 159.319219)scale(0.1 -0.1)">
       <use xlink:href="#DejaVuSans-30"/>
       <use x="63.623047" xlink:href="#DejaVuSans-2e"/>
       <use x="95.410156" xlink:href="#DejaVuSans-36"/>
      </g>
     </g>
    </g>
    <g id="ytick_5">
     <g id="line2d_11">
      <g>
       <use style="stroke:#000000;stroke-width:0.8;" x="57.6" xlink:href="#md94b8dc7ac" y="104.832"/>
      </g>
     </g>
     <g id="text_12">
      <!-- 0.8 -->
      <g transform="translate(34.696875 108.631219)scale(0.1 -0.1)">
       <use xlink:href="#DejaVuSans-30"/>
       <use x="63.623047" xlink:href="#DejaVuSans-2e"/>
       <use x="95.410156" xlink:href="#DejaVuSans-38"/>
      </g>
     </g>
    </g>
    <g id="ytick_6">
     <g id="line2d_12">
      <g>
       <use style="stroke:#000000;stroke-width:0.8;" x="57.6" xlink:href="#md94b8dc7ac" y="54.144"/>
      </g>
     </g>
     <g id="text_13">
      <!-- 1.0 -->
      <g transform="translate(34.696875 57.943219)scale(0.1 -0.1)">
       <use xlink:href="#DejaVuSans-31"/>
       <use x="63.623047" xlink:href="#DejaVuSans-2e"/>
       <use x="95.410156" xlink:href="#DejaVuSans-30"/>
      </g>
     </g>
    </g>
    <g id="text_14">
     <!-- Precision -->
     <defs>
      <path d="M 19.671875 64.796875 
L 19.671875 37.40625 
L 32.078125 37.40625 
Q 38.96875 37.40625 42.71875 40.96875 
Q 46.484375 44.53125 46.484375 51.125 
Q 46.484375 57.671875 42.71875 61.234375 
Q 38.96875 64.796875 32.078125 64.796875 
z
M 9.8125 72.90625 
L 32.078125 72.90625 
Q 44.34375 72.90625 50.609375 67.359375 
Q 56.890625 61.8125 56.890625 51.125 
Q 56.890625 40.328125 50.609375 34.8125 
Q 44.34375 29.296875 32.078125 29.296875 
L 19.671875 29.296875 
L 19.671875 0 
L 9.8125 0 
z
" id="DejaVuSans-50"/>
      <path d="M 41.109375 46.296875 
Q 39.59375 47.171875 37.8125 47.578125 
Q 36.03125 48 33.890625 48 
Q 26.265625 48 22.1875 43.046875 
Q 18.109375 38.09375 18.109375 28.8125 
L 18.109375 0 
L 9.078125 0 
L 9.078125 54.6875 
L 18.109375 54.6875 
L 18.109375 46.1875 
Q 20.953125 51.171875 25.484375 53.578125 
Q 30.03125 56 36.53125 56 
Q 37.453125 56 38.578125 55.875 
Q 39.703125 55.765625 41.0625 55.515625 
z
" id="DejaVuSans-72"/>
      <path d="M 9.421875 54.6875 
L 18.40625 54.6875 
L 18.40625 0 
L 9.421875 0 
z
M 9.421875 75.984375 
L 18.40625 75.984375 
L 18.40625 64.59375 
L 9.421875 64.59375 
z
" id="DejaVuSans-69"/>
      <path d="M 44.28125 53.078125 
L 44.28125 44.578125 
Q 40.484375 46.53125 36.375 47.5 
Q 32.28125 48.484375 27.875 48.484375 
Q 21.1875 48.484375 17.84375 46.4375 
Q 14.5 44.390625 14.5 40.28125 
Q 14.5 37.15625 16.890625 35.375 
Q 19.28125 33.59375 26.515625 31.984375 
L 29.59375 31.296875 
Q 39.15625 29.25 43.1875 25.515625 
Q 47.21875 21.78125 47.21875 15.09375 
Q 47.21875 7.46875 41.1875 3.015625 
Q 35.15625 -1.421875 24.609375 -1.421875 
Q 20.21875 -1.421875 15.453125 -0.5625 
Q 10.6875 0.296875 5.421875 2 
L 5.421875 11.28125 
Q 10.40625 8.6875 15.234375 7.390625 
Q 20.0625 6.109375 24.8125 6.109375 
Q 31.15625 6.109375 34.5625 8.28125 
Q 37.984375 10.453125 37.984375 14.40625 
Q 37.984375 18.0625 35.515625 20.015625 
Q 33.0625 21.96875 24.703125 23.78125 
L 21.578125 24.515625 
Q 13.234375 26.265625 9.515625 29.90625 
Q 5.8125 33.546875 5.8125 39.890625 
Q 5.8125 47.609375 11.28125 51.796875 
Q 16.75 56 26.8125 56 
Q 31.78125 56 36.171875 55.265625 
Q 40.578125 54.546875 44.28125 53.078125 
" id="DejaVuSans-73"/>
      <path d="M 30.609375 48.390625 
Q 23.390625 48.390625 19.1875 42.75 
Q 14.984375 37.109375 14.984375 27.296875 
Q 14.984375 17.484375 19.15625 11.84375 
Q 23.34375 6.203125 30.609375 6.203125 
Q 37.796875 6.203125 41.984375 11.859375 
Q 46.1875 17.53125 46.1875 27.296875 
Q 46.1875 37.015625 41.984375 42.703125 
Q 37.796875 48.390625 30.609375 48.390625 
M 30.609375 56 
Q 42.328125 56 49.015625 48.375 
Q 55.71875 40.765625 55.71875 27.296875 
Q 55.71875 13.875 49.015625 6.21875 
Q 42.328125 -1.421875 30.609375 -1.421875 
Q 18.84375 -1.421875 12.171875 6.21875 
Q 5.515625 13.875 5.515625 27.296875 
Q 5.515625 40.765625 12.171875 48.375 
Q 18.84375 56 30.609375 56 
" id="DejaVuSans-6f"/>
      <path d="M 54.890625 33.015625 
L 54.890625 0 
L 45.90625 0 
L 45.90625 32.71875 
Q 45.90625 40.484375 42.875 44.328125 
Q 39.84375 48.1875 33.796875 48.1875 
Q 26.515625 48.1875 22.3125 43.546875 
Q 18.109375 38.921875 18.109375 30.90625 
L 18.109375 0 
L 9.078125 0 
L 9.078125 54.6875 
L 18.109375 54.6875 
L 18.109375 46.1875 
Q 21.34375 51.125 25.703125 53.5625 
Q 30.078125 56 35.796875 56 
Q 45.21875 56 50.046875 50.171875 
Q 54.890625 44.34375 54.890625 33.015625 
" id="DejaVuSans-6e"/>
     </defs>
     <g transform="translate(28.617187 197.032688)rotate(-90)scale(0.1 -0.1)">
      <use xlink:href="#DejaVuSans-50"/>
      <use x="60.287109" xlink:href="#DejaVuSans-72"/>
      <use x="101.369141" xlink:href="#DejaVuSans-65"/>
      <use x="162.892578" xlink:href="#DejaVuSans-63"/>
      <use x="217.873047" xlink:href="#DejaVuSans-69"/>
      <use x="245.65625" xlink:href="#DejaVuSans-73"/>
      <use x="297.755859" xlink:href="#DejaVuSans-69"/>
      <use x="325.539062" xlink:href="#DejaVuSans-6f"/>
      <use x="386.720703" xlink:href="#DejaVuSans-6e"/>
     </g>
    </g>
   </g>
   <g id="line2d_13">
    <path clip-path="url(#p804d80b5ac)" d="M 414.72 202.354526 
L 412.20507 202.354526 
L 412.20507 202.789161 
L 412.20507 202.789161 
L 412.20507 202.789161 
L 412.20507 198.635707 
L 409.690141 198.635707 
L 409.690141 199.077578 
L 407.175211 199.077578 
L 407.175211 199.52216 
L 407.175211 199.189662 
L 407.175211 199.189662 
L 407.175211 174.647547 
L 404.660282 174.647547 
L 404.660282 175.104 
L 404.660282 175.104 
L 404.660282 175.104 
L 404.660282 164.830041 
L 402.145352 164.830041 
L 402.145352 165.283672 
L 402.145352 165.283672 
L 402.145352 165.283672 
L 402.145352 162.912 
L 399.630423 162.912 
L 399.630423 163.367096 
L 399.630423 163.367096 
L 399.630423 163.367096 
L 399.630423 151.620923 
L 397.115493 151.620923 
L 397.115493 152.064 
L 397.115493 152.064 
L 397.115493 152.064 
L 397.115493 146.195321 
L 394.600563 146.195321 
L 394.600563 146.631583 
L 394.600563 146.631583 
L 394.600563 146.631583 
L 394.600563 144.310154 
L 392.085634 144.310154 
L 392.085634 144.745739 
L 389.570704 144.745739 
L 389.570704 145.185553 
L 387.055775 145.185553 
L 387.055775 145.629659 
L 387.055775 145.629659 
L 387.055775 145.629659 
L 387.055775 144.034049 
L 384.540845 144.034049 
L 384.540845 144.47905 
L 384.540845 144.47905 
L 384.540845 144.47905 
L 384.540845 138.624 
L 382.025915 138.624 
L 382.025915 139.059464 
L 379.510986 139.059464 
L 379.510986 139.49944 
L 379.510986 139.49944 
L 379.510986 139.49944 
L 379.510986 138.624 
L 376.996056 138.624 
L 376.996056 139.066304 
L 376.996056 139.066304 
L 376.996056 139.066304 
L 376.996056 134.536258 
L 374.481127 134.536258 
L 374.481127 134.970811 
L 374.481127 134.970811 
L 374.481127 134.970811 
L 374.481127 133.084328 
L 371.966197 133.084328 
L 371.966197 133.518066 
L 371.966197 133.518066 
L 371.966197 133.518066 
L 371.966197 132.556376 
L 369.451268 132.556376 
L 369.451268 132.992 
L 369.451268 132.992 
L 369.451268 132.992 
L 369.451268 131.030292 
L 366.936338 131.030292 
L 366.936338 131.464678 
L 366.936338 131.464678 
L 366.936338 131.464678 
L 366.936338 130.464 
L 364.421408 130.464 
L 364.421408 130.900114 
L 361.906479 130.900114 
L 361.906479 131.341241 
L 361.906479 131.341241 
L 361.906479 131.341241 
L 361.906479 130.322497 
L 359.391549 130.322497 
L 359.391549 130.765395 
L 356.87662 130.765395 
L 356.87662 131.213474 
L 354.36169 131.213474 
L 354.36169 131.666824 
L 354.36169 131.666824 
L 354.36169 131.666824 
L 354.36169 130.625893 
L 351.846761 130.625893 
L 351.846761 131.081143 
L 351.846761 131.081143 
L 351.846761 131.081143 
L 351.846761 128.954602 
L 349.331831 128.954602 
L 349.331831 129.408 
L 349.331831 129.408 
L 349.331831 129.408 
L 349.331831 127.221791 
L 346.816901 127.221791 
L 346.816901 127.672889 
L 346.816901 127.672889 
L 346.816901 127.672889 
L 346.816901 124.27834 
L 344.301972 124.27834 
L 344.301972 124.722228 
L 344.301972 124.722228 
L 344.301972 124.722228 
L 344.301972 123.557503 
L 341.787042 123.557503 
L 341.787042 124.002462 
L 341.787042 124.002462 
L 341.787042 124.002462 
L 341.787042 119.171368 
L 339.272113 119.171368 
L 339.272113 119.602013 
L 336.757183 119.602013 
L 336.757183 120.0384 
L 334.242254 120.0384 
L 334.242254 120.480644 
L 331.727324 120.480644 
L 331.727324 120.928865 
L 331.727324 120.928865 
L 331.727324 120.928865 
L 331.727324 119.659102 
L 329.212394 119.659102 
L 329.212394 120.107836 
L 326.697465 120.107836 
L 326.697465 120.562759 
L 324.182535 120.562759 
L 324.182535 121.024 
L 321.667606 121.024 
L 321.667606 121.491692 
L 321.667606 121.491692 
L 321.667606 121.491692 
L 321.667606 118.852085 
L 319.152676 118.852085 
L 319.152676 119.314286 
L 316.637746 119.314286 
L 316.637746 119.783137 
L 316.637746 119.783137 
L 316.637746 119.783137 
L 316.637746 117.041518 
L 314.122817 117.041518 
L 314.122817 117.504 
L 311.607887 117.504 
L 311.607887 117.973333 
L 309.092958 117.973333 
L 309.092958 118.449672 
L 309.092958 118.449672 
L 309.092958 118.449672 
L 309.092958 117.027609 
L 306.578028 117.027609 
L 306.578028 117.504 
L 306.578028 117.504 
L 306.578028 117.504 
L 306.578028 116.053008 
L 304.063099 116.053008 
L 304.063099 116.529231 
L 301.548169 116.529231 
L 301.548169 117.012837 
L 301.548169 117.012837 
L 301.548169 117.012837 
L 301.548169 115.524 
L 299.033239 115.524 
L 299.033239 116.007307 
L 299.033239 116.007307 
L 299.033239 116.007307 
L 299.033239 112.94208 
L 296.51831 112.94208 
L 296.51831 113.416258 
L 294.00338 113.416258 
L 294.00338 113.898146 
L 294.00338 113.898146 
L 294.00338 113.898146 
L 294.00338 112.310557 
L 291.488451 112.310557 
L 291.488451 112.791273 
L 288.973521 112.791273 
L 288.973521 113.28 
L 286.458592 113.28 
L 286.458592 113.776941 
L 283.943662 113.776941 
L 283.943662 114.282305 
L 281.428732 114.282305 
L 281.428732 114.796308 
L 281.428732 114.796308 
L 281.428732 114.796308 
L 281.428732 113.134345 
L 278.913803 113.134345 
L 278.913803 113.647304 
L 278.913803 113.647304 
L 278.913803 113.647304 
L 278.913803 111.946105 
L 276.398873 111.946105 
L 276.398873 112.457628 
L 273.883944 112.457628 
L 273.883944 112.978286 
L 271.369014 112.978286 
L 271.369014 111.744 
L 268.854085 111.744 
L 268.854085 112.27244 
L 266.339155 112.27244 
L 266.339155 112.810667 
L 263.824225 112.810667 
L 263.824225 113.358953 
L 261.309296 113.358953 
L 261.309296 113.917585 
L 261.309296 113.917585 
L 261.309296 113.917585 
L 261.309296 112.073143 
L 258.794366 112.073143 
L 258.794366 112.630154 
L 256.279437 112.630154 
L 256.279437 113.197981 
L 256.279437 113.197981 
L 256.279437 113.197981 
L 256.279437 111.292235 
L 253.764507 111.292235 
L 253.764507 111.858059 
L 253.764507 111.858059 
L 253.764507 111.858059 
L 253.764507 109.9008 
L 251.249577 109.9008 
L 251.249577 110.464 
L 248.734648 110.464 
L 248.734648 111.038694 
L 248.734648 111.038694 
L 248.734648 111.038694 
L 248.734648 106.944 
L 246.219718 106.944 
L 246.219718 107.499789 
L 246.219718 107.499789 
L 246.219718 107.499789 
L 246.219718 105.371234 
L 243.704789 105.371234 
L 243.704789 105.922065 
L 241.189859 105.922065 
L 241.189859 106.48487 
L 241.189859 106.48487 
L 241.189859 106.48487 
L 241.189859 102.016 
L 238.67493 102.016 
L 238.67493 102.553888 
L 236.16 102.553888 
L 236.16 103.104 
L 233.64507 103.104 
L 233.64507 103.666759 
L 231.130141 103.666759 
L 231.130141 104.242605 
L 228.615211 104.242605 
L 228.615211 104.832 
L 228.615211 104.832 
L 228.615211 104.832 
L 228.615211 99.94641 
L 226.100282 99.94641 
L 226.100282 100.504976 
L 223.585352 100.504976 
L 223.585352 101.077333 
L 221.070423 101.077333 
L 221.070423 101.664 
L 218.555493 101.664 
L 218.555493 102.265519 
L 218.555493 102.265519 
L 218.555493 102.265519 
L 218.555493 99.633231 
L 216.040563 99.633231 
L 216.040563 100.224 
L 213.525634 100.224 
L 213.525634 100.830316 
L 211.010704 100.830316 
L 211.010704 101.4528 
L 208.495775 101.4528 
L 208.495775 102.092108 
L 205.980845 102.092108 
L 205.980845 102.748932 
L 203.465915 102.748932 
L 203.465915 103.424 
L 200.950986 103.424 
L 200.950986 104.118085 
L 200.950986 104.118085 
L 200.950986 104.118085 
L 200.950986 101.211429 
L 198.436056 101.211429 
L 198.436056 101.893565 
L 195.921127 101.893565 
L 195.921127 102.595765 
L 195.921127 102.595765 
L 195.921127 102.595765 
L 195.921127 82.758194 
L 193.406197 82.758194 
L 193.406197 83.227279 
L 193.406197 83.227279 
L 193.406197 83.227279 
L 193.406197 79.488 
L 190.891268 79.488 
L 190.891268 79.917559 
L 188.376338 79.917559 
L 188.376338 80.361931 
L 185.861408 80.361931 
L 185.861408 80.821895 
L 183.346479 80.821895 
L 183.346479 81.298286 
L 180.831549 81.298286 
L 180.831549 81.792 
L 180.831549 81.792 
L 180.831549 81.792 
L 180.831549 77.610667 
L 178.31662 77.610667 
L 178.31662 78.053434 
L 175.80169 78.053434 
L 175.80169 78.513231 
L 173.286761 78.513231 
L 173.286761 78.991059 
L 170.771831 78.991059 
L 170.771831 79.488 
L 168.256901 79.488 
L 168.256901 80.005224 
L 165.741972 80.005224 
L 165.741972 80.544 
L 163.227042 80.544 
L 163.227042 81.105702 
L 160.712113 81.105702 
L 160.712113 81.691826 
L 158.197183 81.691826 
L 158.197183 82.304 
L 155.682254 82.304 
L 155.682254 82.944 
L 153.167324 82.944 
L 153.167324 83.613767 
L 150.652394 83.613767 
L 150.652394 84.315429 
L 148.137465 84.315429 
L 148.137465 85.051317 
L 145.622535 85.051317 
L 145.622535 85.824 
L 143.107606 85.824 
L 143.107606 86.636308 
L 140.592676 86.636308 
L 140.592676 87.491368 
L 140.592676 87.491368 
L 140.592676 87.491368 
L 140.592676 81.542919 
L 138.077746 81.542919 
L 138.077746 82.304 
L 135.562817 82.304 
L 135.562817 83.108571 
L 133.047887 83.108571 
L 133.047887 83.960471 
L 130.532958 83.960471 
L 130.532958 84.864 
L 128.018028 84.864 
L 128.018028 85.824 
L 125.503099 85.824 
L 125.503099 86.845935 
L 125.503099 86.845935 
L 125.503099 86.845935 
L 125.503099 79.488 
L 122.988169 79.488 
L 122.988169 80.361931 
L 122.988169 80.361931 
L 122.988169 80.361931 
L 122.988169 72.246857 
L 120.473239 72.246857 
L 120.473239 72.917333 
L 117.95831 72.917333 
L 117.95831 73.639385 
L 115.44338 73.639385 
L 115.44338 74.4192 
L 112.928451 74.4192 
L 112.928451 75.264 
L 110.413521 75.264 
L 110.413521 76.182261 
L 107.898592 76.182261 
L 107.898592 77.184 
L 107.898592 77.184 
L 107.898592 77.184 
L 107.898592 66.212571 
L 105.383662 66.212571 
L 105.383662 66.816 
L 102.868732 66.816 
L 102.868732 67.482947 
L 100.353803 67.482947 
L 100.353803 68.224 
L 100.353803 68.224 
L 100.353803 68.224 
L 100.353803 54.144 
L 57.6 54.144 
L 57.6 54.144 
" style="fill:none;stroke:#ff0000;stroke-linecap:square;stroke-width:1.5;"/>
   </g>
   <g id="line2d_14">
    <path clip-path="url(#p804d80b5ac)" d="M 414.72 207.337538 
L 409.690141 207.337538 
L 409.690141 179.491581 
L 392.085634 179.491581 
L 392.085634 158.435681 
L 344.301972 158.435681 
L 344.301972 143.424 
L 271.369014 143.424 
L 271.369014 128.064 
L 221.070423 128.064 
L 221.070423 104.206222 
L 155.682254 104.206222 
L 155.682254 97.282723 
L 107.898592 97.282723 
L 107.898592 87.201391 
L 57.6 87.201391 
L 57.6 54.144 
" style="fill:none;stroke:#008000;stroke-linecap:square;stroke-width:1.5;"/>
   </g>
   <g id="line2d_15">
    <path clip-path="url(#p804d80b5ac)" d="M 414.72 205.633632 
L 412.20507 205.633632 
L 412.20507 206.064 
L 412.20507 205.774769 
L 412.20507 205.774769 
L 412.20507 204.601176 
L 409.690141 204.601176 
L 409.690141 205.036023 
L 409.690141 204.738783 
L 407.175211 204.738783 
L 407.175211 205.176558 
L 407.175211 204.877994 
L 407.175211 204.877994 
L 407.175211 204.577684 
L 404.660282 204.577684 
L 404.660282 205.018839 
L 404.660282 204.717176 
L 404.660282 204.717176 
L 404.660282 204.413735 
L 402.145352 204.413735 
L 402.145352 204.85832 
L 402.145352 204.553496 
L 399.630423 204.553496 
L 399.630423 205.001143 
L 397.115493 205.001143 
L 397.115493 205.451463 
L 397.115493 205.145677 
L 394.600563 205.145677 
L 394.600563 205.599135 
L 394.600563 205.291952 
L 394.600563 205.291952 
L 394.600563 204.982912 
L 392.085634 204.982912 
L 392.085634 205.44 
L 389.570704 205.44 
L 389.570704 205.899866 
L 387.055775 205.899866 
L 387.055775 206.362537 
L 384.540845 206.362537 
L 384.540845 206.828037 
L 382.025915 206.828037 
L 382.025915 207.296393 
L 382.025915 206.987815 
L 382.025915 206.987815 
L 382.025915 205.416 
L 379.510986 205.416 
L 379.510986 205.890207 
L 379.510986 205.570415 
L 379.510986 205.570415 
L 379.510986 205.248606 
L 376.996056 205.248606 
L 376.996056 205.726785 
L 374.481127 205.726785 
L 374.481127 206.208 
L 374.481127 205.885146 
L 374.481127 205.885146 
L 374.481127 205.233231 
L 371.966197 205.233231 
L 371.966197 205.719048 
L 371.966197 205.390452 
L 369.451268 205.390452 
L 369.451268 205.879922 
L 369.451268 205.549714 
L 369.451268 205.549714 
L 369.451268 205.217355 
L 366.936338 205.217355 
L 366.936338 205.711059 
L 366.936338 205.377049 
L 366.936338 205.377049 
L 366.936338 204.702416 
L 364.421408 204.702416 
L 364.421408 205.200954 
L 364.421408 204.860811 
L 364.421408 204.860811 
L 364.421408 202.056082 
L 361.906479 202.056082 
L 361.906479 202.56263 
L 361.906479 202.201732 
L 361.906479 202.201732 
L 361.906479 201.838345 
L 359.391549 201.838345 
L 359.391549 202.349398 
L 359.391549 201.984 
L 359.391549 201.984 
L 359.391549 201.245538 
L 356.87662 201.245538 
L 356.87662 201.761684 
L 354.36169 201.761684 
L 354.36169 202.281465 
L 354.36169 201.909371 
L 354.36169 201.909371 
L 354.36169 201.534638 
L 351.846761 201.534638 
L 351.846761 202.05916 
L 351.846761 201.682286 
L 351.846761 201.682286 
L 351.846761 200.535336 
L 349.331831 200.535336 
L 349.331831 201.065739 
L 346.816901 201.065739 
L 346.816901 201.6 
L 344.301972 201.6 
L 344.301972 202.138161 
L 344.301972 201.751912 
L 344.301972 201.751912 
L 344.301972 200.576 
L 341.787042 200.576 
L 341.787042 201.120357 
L 339.272113 201.120357 
L 339.272113 201.668776 
L 336.757183 201.668776 
L 336.757183 202.221303 
L 334.242254 202.221303 
L 334.242254 202.777985 
L 334.242254 202.382491 
L 334.242254 202.382491 
L 334.242254 201.984 
L 331.727324 201.984 
L 331.727324 202.546129 
L 329.212394 202.546129 
L 329.212394 203.11255 
L 329.212394 202.712276 
L 329.212394 202.712276 
L 329.212394 201.080031 
L 326.697465 201.080031 
L 326.697465 201.654 
L 324.182535 201.654 
L 324.182535 202.232471 
L 321.667606 202.232471 
L 321.667606 202.815496 
L 321.667606 202.401391 
L 321.667606 202.401391 
L 321.667606 198.521705 
L 319.152676 198.521705 
L 319.152676 199.115852 
L 316.637746 199.115852 
L 316.637746 199.714909 
L 314.122817 199.714909 
L 314.122817 200.318938 
L 311.607887 200.318938 
L 311.607887 200.928 
L 311.607887 200.481741 
L 311.607887 200.481741 
L 311.607887 199.577924 
L 309.092958 199.577924 
L 309.092958 200.194169 
L 309.092958 199.737191 
L 306.578028 199.737191 
L 306.578028 200.359385 
L 306.578028 199.899193 
L 306.578028 199.899193 
L 306.578028 199.435034 
L 304.063099 199.435034 
L 304.063099 200.064 
L 304.063099 199.596522 
L 304.063099 199.596522 
L 304.063099 199.124961 
L 301.548169 199.124961 
L 301.548169 199.760842 
L 301.548169 199.28585 
L 301.548169 199.28585 
L 301.548169 198.806655 
L 299.033239 198.806655 
L 299.033239 199.4496 
L 296.51831 199.4496 
L 296.51831 200.098286 
L 296.51831 199.616287 
L 296.51831 199.616287 
L 296.51831 197.644274 
L 294.00338 197.644274 
L 294.00338 198.302532 
L 291.488451 198.302532 
L 291.488451 198.966857 
L 291.488451 198.464 
L 291.488451 198.464 
L 291.488451 196.405132 
L 288.973521 196.405132 
L 288.973521 197.079355 
L 286.458592 197.079355 
L 286.458592 197.76 
L 286.458592 197.234526 
L 286.458592 197.234526 
L 286.458592 196.168348 
L 283.943662 196.168348 
L 283.943662 196.857786 
L 283.943662 196.317659 
L 283.943662 196.317659 
L 283.943662 193.536 
L 281.428732 193.536 
L 281.428732 194.236462 
L 281.428732 193.664 
L 278.913803 193.664 
L 278.913803 194.372223 
L 276.398873 194.372223 
L 276.398873 195.087673 
L 273.883944 195.087673 
L 273.883944 195.810462 
L 271.369014 195.810462 
L 271.369014 196.540701 
L 271.369014 195.965347 
L 268.854085 195.965347 
L 268.854085 196.704 
L 268.854085 196.123476 
L 268.854085 196.123476 
L 268.854085 195.536842 
L 266.339155 195.536842 
L 266.339155 196.284952 
L 266.339155 195.692936 
L 266.339155 195.692936 
L 266.339155 195.094588 
L 263.824225 195.094588 
L 263.824225 195.852387 
L 261.309296 195.852387 
L 261.309296 196.618378 
L 261.309296 196.015304 
L 261.309296 196.015304 
L 261.309296 194.789275 
L 258.794366 194.789275 
L 258.794366 195.56632 
L 258.794366 194.944 
L 258.794366 194.944 
L 258.794366 194.314726 
L 256.279437 194.314726 
L 256.279437 195.102202 
L 256.279437 194.466712 
L 256.279437 194.466712 
L 256.279437 192.516414 
L 253.764507 192.516414 
L 253.764507 193.316254 
L 251.249577 193.316254 
L 251.249577 194.125395 
L 248.734648 194.125395 
L 248.734648 194.944 
L 246.219718 194.944 
L 246.219718 195.772235 
L 246.219718 195.110627 
L 246.219718 195.110627 
L 246.219718 194.441143 
L 243.704789 194.441143 
L 243.704789 195.281246 
L 241.189859 195.281246 
L 241.189859 196.13147 
L 241.189859 195.456 
L 238.67493 195.456 
L 238.67493 196.317659 
L 238.67493 195.635043 
L 236.16 195.635043 
L 236.16 196.508444 
L 233.64507 196.508444 
L 233.64507 197.392696 
L 231.130141 197.392696 
L 231.130141 198.288 
L 231.130141 197.600604 
L 231.130141 197.600604 
L 231.130141 195.485538 
L 228.615211 195.485538 
L 228.615211 196.397419 
L 226.100282 196.397419 
L 226.100282 197.321143 
L 226.100282 196.600471 
L 223.585352 196.600471 
L 223.585352 197.537684 
L 223.585352 196.808901 
L 223.585352 196.808901 
L 223.585352 196.0704 
L 221.070423 196.0704 
L 221.070423 197.022926 
L 218.555493 197.022926 
L 218.555493 197.988324 
L 216.040563 197.988324 
L 216.040563 198.966857 
L 216.040563 198.222904 
L 216.040563 198.222904 
L 216.040563 196.704 
L 213.525634 196.704 
L 213.525634 197.700923 
L 213.525634 196.927099 
L 213.525634 196.927099 
L 213.525634 196.142298 
L 211.010704 196.142298 
L 211.010704 197.156571 
L 208.495775 197.156571 
L 208.495775 198.185439 
L 208.495775 197.392696 
L 208.495775 197.392696 
L 208.495775 194.944 
L 205.980845 194.944 
L 205.980845 195.994746 
L 205.980845 195.155729 
L 205.980845 195.155729 
L 205.980845 194.304 
L 203.465915 194.304 
L 203.465915 195.373924 
L 200.950986 195.373924 
L 200.950986 196.460308 
L 198.436056 196.460308 
L 198.436056 197.563535 
L 198.436056 196.704 
L 198.436056 196.704 
L 198.436056 194.944 
L 195.921127 194.944 
L 195.921127 196.0704 
L 195.921127 195.171097 
L 195.921127 195.171097 
L 195.921127 194.257171 
L 193.406197 194.257171 
L 193.406197 195.405639 
L 190.891268 195.405639 
L 190.891268 196.573091 
L 190.891268 195.648 
L 190.891268 195.648 
L 190.891268 191.788138 
L 188.376338 191.788138 
L 188.376338 192.985043 
L 188.376338 191.979789 
L 185.861408 191.979789 
L 185.861408 193.199575 
L 185.861408 192.178286 
L 183.346479 192.178286 
L 183.346479 193.421838 
L 183.346479 192.384 
L 183.346479 192.384 
L 183.346479 190.250667 
L 180.831549 190.250667 
L 180.831549 191.522692 
L 180.831549 190.427774 
L 180.831549 190.427774 
L 180.831549 189.312 
L 178.31662 189.312 
L 178.31662 190.611692 
L 178.31662 189.476039 
L 175.80169 189.476039 
L 175.80169 190.802824 
L 173.286761 190.802824 
L 173.286761 192.155881 
L 170.771831 192.155881 
L 170.771831 193.536 
L 168.256901 193.536 
L 168.256901 194.944 
L 168.256901 193.794612 
L 165.741972 193.794612 
L 165.741972 195.234309 
L 163.227042 195.234309 
L 163.227042 196.704 
L 163.227042 195.536842 
L 163.227042 195.536842 
L 163.227042 190.611692 
L 160.712113 190.611692 
L 160.712113 192.128 
L 158.197183 192.128 
L 158.197183 193.678382 
L 158.197183 192.384 
L 155.682254 192.384 
L 155.682254 193.972966 
L 155.682254 192.651907 
L 153.167324 192.651907 
L 153.167324 194.281412 
L 153.167324 192.932571 
L 153.167324 192.932571 
L 153.167324 191.551229 
L 150.652394 191.551229 
L 150.652394 193.226927 
L 150.652394 191.815111 
L 148.137465 191.815111 
L 148.137465 193.536 
L 148.137465 192.092354 
L 148.137465 192.092354 
L 148.137465 189.092571 
L 145.622535 189.092571 
L 145.622535 190.868211 
L 145.622535 189.312 
L 145.622535 189.312 
L 145.622535 187.71373 
L 143.107606 187.71373 
L 143.107606 189.543452 
L 140.592676 189.543452 
L 140.592676 191.424 
L 140.592676 189.787944 
L 140.592676 189.787944 
L 140.592676 188.105143 
L 138.077746 188.105143 
L 138.077746 190.046609 
L 138.077746 188.318118 
L 138.077746 188.318118 
L 138.077746 182.813538 
L 133.047887 182.875429 
L 133.047887 184.951742 
L 130.532958 184.951742 
L 130.532958 187.096131 
L 128.018028 187.096131 
L 128.018028 189.312 
L 125.503099 189.312 
L 125.503099 191.602983 
L 125.503099 189.60331 
L 122.988169 189.60331 
L 122.988169 191.979789 
L 120.473239 191.979789 
L 120.473239 194.441143 
L 117.95831 194.441143 
L 117.95831 196.992 
L 115.44338 196.992 
L 115.44338 199.637333 
L 112.928451 199.637333 
L 112.928451 202.382491 
L 110.413521 202.382491 
L 110.413521 205.233231 
L 110.413521 203.226353 
L 107.898592 203.226353 
L 107.898592 206.208 
L 105.383662 206.208 
L 105.383662 209.311347 
L 105.383662 207.264 
L 102.868732 207.264 
L 102.868732 210.521872 
L 102.868732 208.411826 
L 102.868732 208.411826 
L 102.868732 193.536 
L 100.353803 193.536 
L 100.353803 197.110154 
L 97.838873 197.110154 
L 97.838873 200.872421 
L 97.838873 197.988324 
L 97.838873 197.988324 
L 97.838873 194.944 
L 95.323944 194.944 
L 95.323944 198.966857 
L 95.323944 195.772235 
L 95.323944 195.772235 
L 95.323944 188.784 
L 92.809014 188.784 
L 92.809014 193.127226 
L 90.294085 193.127226 
L 90.294085 197.76 
L 87.779155 197.76 
L 87.779155 202.712276 
L 87.779155 198.966857 
L 87.779155 198.966857 
L 87.779155 175.354435 
L 85.264225 175.354435 
L 85.264225 180.864 
L 85.264225 180.864 
L 85.264225 180.864 
L 85.264225 174.829714 
L 82.749296 174.829714 
L 82.749296 180.864 
L 82.749296 180.864 
L 82.749296 180.864 
L 82.749296 174.194526 
L 80.234366 174.194526 
L 80.234366 180.864 
L 77.719437 180.864 
L 77.719437 188.318118 
L 77.719437 188.318118 
L 77.719437 188.318118 
L 77.719437 180.864 
L 75.204507 180.864 
L 75.204507 189.312 
L 75.204507 189.312 
L 75.204507 189.312 
L 75.204507 159.744 
L 72.689577 159.744 
L 72.689577 169.344 
L 70.174648 169.344 
L 70.174648 180.864 
L 70.174648 180.864 
L 70.174648 180.864 
L 70.174648 166.784 
L 67.659718 166.784 
L 67.659718 180.864 
L 65.144789 180.864 
L 65.144789 198.966857 
L 62.629859 198.966857 
L 62.629859 223.104 
L 62.629859 206.208 
L 62.629859 206.208 
L 62.629859 138.624 
L 60.11493 138.624 
L 60.11493 180.864 
L 57.6 180.864 
L 57.6 307.584 
L 57.6 307.584 
L 57.6 307.584 
L 57.6 54.144 
L 57.6 54.144 
" style="fill:none;stroke:#0000ff;stroke-linecap:square;stroke-width:1.5;"/>
   </g>
   <g id="line2d_16">
    <path clip-path="url(#p804d80b5ac)" d="M 414.72 203.870801 
L 412.20507 203.870801 
L 412.20507 204.303538 
L 412.20507 204.004174 
L 412.20507 204.004174 
L 412.20507 198.966857 
L 409.690141 198.966857 
L 409.690141 199.40839 
L 409.690141 199.077578 
L 409.690141 199.077578 
L 409.690141 193.127226 
L 407.175211 193.127226 
L 407.175211 193.57701 
L 407.175211 193.206857 
L 407.175211 193.206857 
L 407.175211 176.135642 
L 404.660282 176.135642 
L 404.660282 176.592539 
L 404.660282 176.592539 
L 404.660282 176.592539 
L 404.660282 174.092702 
L 402.145352 174.092702 
L 402.145352 174.552276 
L 402.145352 174.552276 
L 402.145352 174.552276 
L 402.145352 171.954 
L 399.630423 171.954 
L 399.630423 172.416 
L 399.630423 172.416 
L 399.630423 172.416 
L 399.630423 168.038089 
L 397.115493 168.038089 
L 397.115493 168.501073 
L 397.115493 168.501073 
L 397.115493 168.501073 
L 397.115493 161.990809 
L 394.600563 161.990809 
L 394.600563 162.451692 
L 394.600563 162.451692 
L 394.600563 162.451692 
L 394.600563 161.828807 
L 392.085634 161.828807 
L 392.085634 162.292966 
L 392.085634 162.292966 
L 392.085634 162.292966 
L 392.085634 160.38959 
L 389.570704 160.38959 
L 389.570704 160.855579 
L 389.570704 160.855579 
L 389.570704 160.855579 
L 389.570704 143.593412 
L 387.055775 143.593412 
L 387.055775 144.034049 
L 387.055775 144.034049 
L 387.055775 144.034049 
L 387.055775 142.406687 
L 384.540845 142.406687 
L 384.540845 142.848 
L 384.540845 142.848 
L 384.540845 142.848 
L 384.540845 137.753072 
L 382.025915 137.753072 
L 382.025915 138.18628 
L 382.025915 138.18628 
L 382.025915 138.18628 
L 382.025915 133.681021 
L 379.510986 133.681021 
L 379.510986 134.106353 
L 379.510986 134.106353 
L 379.510986 134.106353 
L 379.510986 130.314492 
L 376.996056 130.314492 
L 376.996056 130.733011 
L 376.996056 130.733011 
L 376.996056 130.733011 
L 376.996056 127.769028 
L 374.481127 127.769028 
L 374.481127 128.182652 
L 374.481127 128.182652 
L 374.481127 128.182652 
L 374.481127 125.1072 
L 371.966197 125.1072 
L 371.966197 125.515034 
L 369.451268 125.515034 
L 369.451268 125.927584 
L 369.451268 125.927584 
L 369.451268 125.927584 
L 369.451268 123.802947 
L 366.936338 123.802947 
L 366.936338 124.212706 
L 366.936338 124.212706 
L 366.936338 124.212706 
L 366.936338 120.918611 
L 364.421408 120.918611 
L 364.421408 121.320867 
L 364.421408 121.320867 
L 364.421408 121.320867 
L 364.421408 117.892712 
L 361.906479 117.892712 
L 361.906479 118.286222 
L 359.391549 118.286222 
L 359.391549 118.684621 
L 359.391549 118.684621 
L 359.391549 118.684621 
L 359.391549 117.504 
L 356.87662 117.504 
L 356.87662 117.902491 
L 356.87662 117.902491 
L 356.87662 117.902491 
L 356.87662 116.701975 
L 354.36169 116.701975 
L 354.36169 117.100433 
L 354.36169 117.100433 
L 354.36169 117.100433 
L 354.36169 110.834526 
L 351.846761 110.834526 
L 351.846761 111.20996 
L 351.846761 111.20996 
L 351.846761 111.20996 
L 351.846761 109.9008 
L 349.331831 109.9008 
L 349.331831 110.275007 
L 349.331831 110.275007 
L 349.331831 110.275007 
L 349.331831 106.220712 
L 346.816901 106.220712 
L 346.816901 106.579862 
L 346.816901 106.579862 
L 346.816901 106.579862 
L 346.816901 103.768615 
L 344.301972 103.768615 
L 344.301972 104.118085 
L 341.787042 104.118085 
L 341.787042 104.472511 
L 339.272113 104.472511 
L 339.272113 104.832 
L 336.757183 104.832 
L 336.757183 105.196662 
L 334.242254 105.196662 
L 334.242254 105.566609 
L 331.727324 105.566609 
L 331.727324 105.941956 
L 329.212394 105.941956 
L 329.212394 106.322824 
L 326.697465 106.322824 
L 326.697465 106.709333 
L 326.697465 106.709333 
L 326.697465 106.709333 
L 326.697465 105.210269 
L 324.182535 105.210269 
L 324.182535 105.594226 
L 321.667606 105.594226 
L 321.667606 105.984 
L 321.667606 105.984 
L 321.667606 105.984 
L 321.667606 104.445069 
L 319.152676 104.445069 
L 319.152676 104.832 
L 319.152676 104.832 
L 319.152676 104.832 
L 319.152676 103.260279 
L 316.637746 103.260279 
L 316.637746 103.644 
L 316.637746 103.644 
L 316.637746 103.644 
L 316.637746 100.406857 
L 314.122817 100.406857 
L 314.122817 100.77696 
L 314.122817 100.77696 
L 314.122817 100.77696 
L 314.122817 99.109161 
L 311.607887 99.109161 
L 311.607887 99.474732 
L 309.092958 99.474732 
L 309.092958 99.846295 
L 309.092958 99.846295 
L 309.092958 99.846295 
L 309.092958 96.384 
L 306.578028 96.384 
L 306.578028 96.738958 
L 304.063099 96.738958 
L 304.063099 97.099932 
L 301.548169 97.099932 
L 301.548169 97.467077 
L 301.548169 97.467077 
L 301.548169 97.467077 
L 301.548169 95.655724 
L 299.033239 95.655724 
L 299.033239 96.016696 
L 296.51831 96.016696 
L 296.51831 96.384 
L 294.00338 96.384 
L 294.00338 96.757805 
L 291.488451 96.757805 
L 291.488451 97.138286 
L 288.973521 97.138286 
L 288.973521 97.525622 
L 288.973521 97.525622 
L 288.973521 97.525622 
L 288.973521 91.690667 
L 286.458592 91.690667 
L 286.458592 92.04157 
L 286.458592 92.04157 
L 286.458592 92.04157 
L 286.458592 90.008151 
L 283.943662 90.008151 
L 283.943662 90.349714 
L 281.428732 90.349714 
L 281.428732 90.697846 
L 281.428732 90.697846 
L 281.428732 90.697846 
L 281.428732 88.592155 
L 278.913803 88.592155 
L 278.913803 86.76499 
L 276.398873 86.76499 
L 276.398873 82.591347 
L 273.883944 82.591347 
L 273.883944 82.884619 
L 271.369014 82.884619 
L 271.369014 83.184 
L 271.369014 83.184 
L 271.369014 83.184 
L 271.369014 80.821895 
L 268.854085 80.821895 
L 268.854085 81.105702 
L 266.339155 81.105702 
L 266.339155 81.395613 
L 266.339155 81.395613 
L 266.339155 81.395613 
L 266.339155 78.937043 
L 263.824225 78.937043 
L 263.824225 79.209495 
L 261.309296 79.209495 
L 261.309296 79.488 
L 258.794366 79.488 
L 258.794366 79.772764 
L 256.279437 79.772764 
L 256.279437 80.064 
L 253.764507 80.064 
L 253.764507 80.361931 
L 251.249577 80.361931 
L 251.249577 80.666791 
L 251.249577 80.666791 
L 251.249577 80.666791 
L 251.249577 77.997176 
L 248.734648 77.997176 
L 248.734648 78.281143 
L 246.219718 78.281143 
L 246.219718 78.571952 
L 243.704789 78.571952 
L 243.704789 78.869854 
L 241.189859 78.869854 
L 241.189859 79.175111 
L 241.189859 79.175111 
L 241.189859 79.175111 
L 241.189859 76.32 
L 238.67493 76.32 
L 238.67493 76.600709 
L 236.16 76.600709 
L 236.16 76.888615 
L 233.64507 76.888615 
L 233.64507 77.184 
L 233.64507 77.184 
L 233.64507 77.184 
L 233.64507 74.152421 
L 231.130141 74.152421 
L 231.130141 74.4192 
L 228.615211 74.4192 
L 228.615211 74.693189 
L 226.100282 74.693189 
L 226.100282 74.974685 
L 223.585352 74.974685 
L 223.585352 75.264 
L 223.585352 75.264 
L 223.585352 75.264 
L 223.585352 71.991887 
L 221.070423 71.991887 
L 221.070423 72.246857 
L 218.555493 72.246857 
L 218.555493 72.509217 
L 216.040563 72.509217 
L 216.040563 72.779294 
L 213.525634 72.779294 
L 213.525634 73.057433 
L 211.010704 73.057433 
L 211.010704 73.344 
L 208.495775 73.344 
L 208.495775 73.639385 
L 208.495775 73.639385 
L 208.495775 73.639385 
L 208.495775 69.984 
L 205.980845 69.984 
L 205.980845 70.235429 
L 203.465915 70.235429 
L 203.465915 70.494968 
L 200.950986 70.494968 
L 200.950986 70.763016 
L 198.436056 70.763016 
L 198.436056 71.04 
L 195.921127 71.04 
L 195.921127 71.326373 
L 193.406197 71.326373 
L 193.406197 71.622621 
L 190.891268 71.622621 
L 190.891268 71.929263 
L 188.376338 71.929263 
L 188.376338 72.246857 
L 188.376338 72.246857 
L 188.376338 72.246857 
L 188.376338 67.968 
L 185.861408 67.968 
L 185.861408 68.224 
L 183.346479 68.224 
L 183.346479 68.48966 
L 180.831549 68.48966 
L 180.831549 68.765538 
L 178.31662 68.765538 
L 178.31662 69.052235 
L 175.80169 69.052235 
L 175.80169 69.3504 
L 175.80169 69.3504 
L 175.80169 69.3504 
L 175.80169 64.48849 
L 173.286761 64.48849 
L 173.286761 64.704 
L 170.771831 64.704 
L 170.771831 64.928681 
L 168.256901 64.928681 
L 168.256901 65.16313 
L 165.741972 65.16313 
L 165.741972 65.408 
L 163.227042 65.408 
L 163.227042 65.664 
L 160.712113 65.664 
L 160.712113 65.931907 
L 158.197183 65.931907 
L 158.197183 66.212571 
L 155.682254 66.212571 
L 155.682254 66.506927 
L 153.167324 66.506927 
L 153.167324 66.816 
L 150.652394 66.816 
L 150.652394 67.140923 
L 148.137465 67.140923 
L 148.137465 67.482947 
L 145.622535 67.482947 
L 145.622535 67.843459 
L 143.107606 67.843459 
L 143.107606 68.224 
L 140.592676 68.224 
L 140.592676 68.626286 
L 138.077746 68.626286 
L 138.077746 69.052235 
L 135.562817 69.052235 
L 135.562817 69.504 
L 133.047887 69.504 
L 133.047887 69.984 
L 130.532958 69.984 
L 130.532958 70.494968 
L 130.532958 70.494968 
L 130.532958 70.494968 
L 130.532958 62.592 
L 128.018028 62.592 
L 128.018028 62.88331 
L 125.503099 62.88331 
L 125.503099 63.195429 
L 122.988169 63.195429 
L 122.988169 63.530667 
L 120.473239 63.530667 
L 120.473239 63.891692 
L 117.95831 63.891692 
L 117.95831 64.2816 
L 115.44338 64.2816 
L 115.44338 64.704 
L 112.928451 64.704 
L 112.928451 65.16313 
L 110.413521 65.16313 
L 110.413521 65.664 
L 107.898592 65.664 
L 107.898592 66.212571 
L 105.383662 66.212571 
L 105.383662 66.816 
L 102.868732 66.816 
L 102.868732 67.482947 
L 100.353803 67.482947 
L 100.353803 68.224 
L 97.838873 68.224 
L 97.838873 69.052235 
L 95.323944 69.052235 
L 95.323944 69.984 
L 92.809014 69.984 
L 92.809014 71.04 
L 90.294085 71.04 
L 90.294085 72.246857 
L 87.779155 72.246857 
L 87.779155 73.639385 
L 85.264225 73.639385 
L 85.264225 75.264 
L 85.264225 75.264 
L 85.264225 75.264 
L 85.264225 54.144 
L 57.6 54.144 
L 57.6 54.144 
" style="fill:none;stroke:#000000;stroke-linecap:square;stroke-width:1.5;"/>
   </g>
   <g id="patch_3">
    <path d="M 57.6 307.584 
L 57.6 41.472 
" style="fill:none;stroke:#000000;stroke-linecap:square;stroke-linejoin:miter;stroke-width:0.8;"/>
   </g>
   <g id="patch_4">
    <path d="M 414.72 307.584 
L 414.72 41.472 
" style="fill:none;stroke:#000000;stroke-linecap:square;stroke-linejoin:miter;stroke-width:0.8;"/>
   </g>
   <g id="patch_5">
    <path d="M 57.6 307.584 
L 414.72 307.584 
" style="fill:none;stroke:#000000;stroke-linecap:square;stroke-linejoin:miter;stroke-width:0.8;"/>
   </g>
   <g id="patch_6">
    <path d="M 57.6 41.472 
L 414.72 41.472 
" style="fill:none;stroke:#000000;stroke-linecap:square;stroke-linejoin:miter;stroke-width:0.8;"/>
   </g>
   <g id="legend_1">
    <g id="patch_7">
     <path d="M 64.6 302.584 
L 199.692188 302.584 
Q 201.692188 302.584 201.692188 300.584 
L 201.692188 242.8715 
Q 201.692188 240.8715 199.692188 240.8715 
L 64.6 240.8715 
Q 62.6 240.8715 62.6 242.8715 
L 62.6 300.584 
Q 62.6 302.584 64.6 302.584 
z
" style="fill:#ffffff;opacity:0.8;stroke:#cccccc;stroke-linejoin:miter;"/>
    </g>
    <g id="line2d_17">
     <path d="M 66.6 248.969937 
L 86.6 248.969937 
" style="fill:none;stroke:#ff0000;stroke-linecap:square;stroke-width:1.5;"/>
    </g>
    <g id="line2d_18"/>
    <g id="text_15">
     <!-- MLPClassifier -->
     <defs>
      <path d="M 9.8125 72.90625 
L 24.515625 72.90625 
L 43.109375 23.296875 
L 61.8125 72.90625 
L 76.515625 72.90625 
L 76.515625 0 
L 66.890625 0 
L 66.890625 64.015625 
L 48.09375 14.015625 
L 38.1875 14.015625 
L 19.390625 64.015625 
L 19.390625 0 
L 9.8125 0 
z
" id="DejaVuSans-4d"/>
      <path d="M 9.8125 72.90625 
L 19.671875 72.90625 
L 19.671875 8.296875 
L 55.171875 8.296875 
L 55.171875 0 
L 9.8125 0 
z
" id="DejaVuSans-4c"/>
      <path d="M 64.40625 67.28125 
L 64.40625 56.890625 
Q 59.421875 61.53125 53.78125 63.8125 
Q 48.140625 66.109375 41.796875 66.109375 
Q 29.296875 66.109375 22.65625 58.46875 
Q 16.015625 50.828125 16.015625 36.375 
Q 16.015625 21.96875 22.65625 14.328125 
Q 29.296875 6.6875 41.796875 6.6875 
Q 48.140625 6.6875 53.78125 8.984375 
Q 59.421875 11.28125 64.40625 15.921875 
L 64.40625 5.609375 
Q 59.234375 2.09375 53.4375 0.328125 
Q 47.65625 -1.421875 41.21875 -1.421875 
Q 24.65625 -1.421875 15.125 8.703125 
Q 5.609375 18.84375 5.609375 36.375 
Q 5.609375 53.953125 15.125 64.078125 
Q 24.65625 74.21875 41.21875 74.21875 
Q 47.75 74.21875 53.53125 72.484375 
Q 59.328125 70.75 64.40625 67.28125 
" id="DejaVuSans-43"/>
      <path d="M 37.109375 75.984375 
L 37.109375 68.5 
L 28.515625 68.5 
Q 23.6875 68.5 21.796875 66.546875 
Q 19.921875 64.59375 19.921875 59.515625 
L 19.921875 54.6875 
L 34.71875 54.6875 
L 34.71875 47.703125 
L 19.921875 47.703125 
L 19.921875 0 
L 10.890625 0 
L 10.890625 47.703125 
L 2.296875 47.703125 
L 2.296875 54.6875 
L 10.890625 54.6875 
L 10.890625 58.5 
Q 10.890625 67.625 15.140625 71.796875 
Q 19.390625 75.984375 28.609375 75.984375 
z
" id="DejaVuSans-66"/>
     </defs>
     <g transform="translate(94.6 252.469937)scale(0.1 -0.1)">
      <use xlink:href="#DejaVuSans-4d"/>
      <use x="86.279297" xlink:href="#DejaVuSans-4c"/>
      <use x="141.992188" xlink:href="#DejaVuSans-50"/>
      <use x="202.294922" xlink:href="#DejaVuSans-43"/>
      <use x="272.119141" xlink:href="#DejaVuSans-6c"/>
      <use x="299.902344" xlink:href="#DejaVuSans-61"/>
      <use x="361.181641" xlink:href="#DejaVuSans-73"/>
      <use x="413.28125" xlink:href="#DejaVuSans-73"/>
      <use x="465.380859" xlink:href="#DejaVuSans-69"/>
      <use x="493.164062" xlink:href="#DejaVuSans-66"/>
      <use x="528.369141" xlink:href="#DejaVuSans-69"/>
      <use x="556.152344" xlink:href="#DejaVuSans-65"/>
      <use x="617.675781" xlink:href="#DejaVuSans-72"/>
     </g>
    </g>
    <g id="line2d_19">
     <path d="M 66.6 263.648062 
L 86.6 263.648062 
" style="fill:none;stroke:#008000;stroke-linecap:square;stroke-width:1.5;"/>
    </g>
    <g id="line2d_20"/>
    <g id="text_16">
     <!-- KNeighborsClassifier -->
     <defs>
      <path d="M 9.8125 72.90625 
L 19.671875 72.90625 
L 19.671875 42.09375 
L 52.390625 72.90625 
L 65.09375 72.90625 
L 28.90625 38.921875 
L 67.671875 0 
L 54.6875 0 
L 19.671875 35.109375 
L 19.671875 0 
L 9.8125 0 
z
" id="DejaVuSans-4b"/>
      <path d="M 9.8125 72.90625 
L 23.09375 72.90625 
L 55.421875 11.921875 
L 55.421875 72.90625 
L 64.984375 72.90625 
L 64.984375 0 
L 51.703125 0 
L 19.390625 60.984375 
L 19.390625 0 
L 9.8125 0 
z
" id="DejaVuSans-4e"/>
      <path d="M 45.40625 27.984375 
Q 45.40625 37.75 41.375 43.109375 
Q 37.359375 48.484375 30.078125 48.484375 
Q 22.859375 48.484375 18.828125 43.109375 
Q 14.796875 37.75 14.796875 27.984375 
Q 14.796875 18.265625 18.828125 12.890625 
Q 22.859375 7.515625 30.078125 7.515625 
Q 37.359375 7.515625 41.375 12.890625 
Q 45.40625 18.265625 45.40625 27.984375 
M 54.390625 6.78125 
Q 54.390625 -7.171875 48.1875 -13.984375 
Q 42 -20.796875 29.203125 -20.796875 
Q 24.46875 -20.796875 20.265625 -20.09375 
Q 16.0625 -19.390625 12.109375 -17.921875 
L 12.109375 -9.1875 
Q 16.0625 -11.328125 19.921875 -12.34375 
Q 23.78125 -13.375 27.78125 -13.375 
Q 36.625 -13.375 41.015625 -8.765625 
Q 45.40625 -4.15625 45.40625 5.171875 
L 45.40625 9.625 
Q 42.625 4.78125 38.28125 2.390625 
Q 33.9375 0 27.875 0 
Q 17.828125 0 11.671875 7.65625 
Q 5.515625 15.328125 5.515625 27.984375 
Q 5.515625 40.671875 11.671875 48.328125 
Q 17.828125 56 27.875 56 
Q 33.9375 56 38.28125 53.609375 
Q 42.625 51.21875 45.40625 46.390625 
L 45.40625 54.6875 
L 54.390625 54.6875 
z
" id="DejaVuSans-67"/>
      <path d="M 54.890625 33.015625 
L 54.890625 0 
L 45.90625 0 
L 45.90625 32.71875 
Q 45.90625 40.484375 42.875 44.328125 
Q 39.84375 48.1875 33.796875 48.1875 
Q 26.515625 48.1875 22.3125 43.546875 
Q 18.109375 38.921875 18.109375 30.90625 
L 18.109375 0 
L 9.078125 0 
L 9.078125 75.984375 
L 18.109375 75.984375 
L 18.109375 46.1875 
Q 21.34375 51.125 25.703125 53.5625 
Q 30.078125 56 35.796875 56 
Q 45.21875 56 50.046875 50.171875 
Q 54.890625 44.34375 54.890625 33.015625 
" id="DejaVuSans-68"/>
      <path d="M 48.6875 27.296875 
Q 48.6875 37.203125 44.609375 42.84375 
Q 40.53125 48.484375 33.40625 48.484375 
Q 26.265625 48.484375 22.1875 42.84375 
Q 18.109375 37.203125 18.109375 27.296875 
Q 18.109375 17.390625 22.1875 11.75 
Q 26.265625 6.109375 33.40625 6.109375 
Q 40.53125 6.109375 44.609375 11.75 
Q 48.6875 17.390625 48.6875 27.296875 
M 18.109375 46.390625 
Q 20.953125 51.265625 25.265625 53.625 
Q 29.59375 56 35.59375 56 
Q 45.5625 56 51.78125 48.09375 
Q 58.015625 40.1875 58.015625 27.296875 
Q 58.015625 14.40625 51.78125 6.484375 
Q 45.5625 -1.421875 35.59375 -1.421875 
Q 29.59375 -1.421875 25.265625 0.953125 
Q 20.953125 3.328125 18.109375 8.203125 
L 18.109375 0 
L 9.078125 0 
L 9.078125 75.984375 
L 18.109375 75.984375 
z
" id="DejaVuSans-62"/>
     </defs>
     <g transform="translate(94.6 267.148062)scale(0.1 -0.1)">
      <use xlink:href="#DejaVuSans-4b"/>
      <use x="65.576172" xlink:href="#DejaVuSans-4e"/>
      <use x="140.380859" xlink:href="#DejaVuSans-65"/>
      <use x="201.904297" xlink:href="#DejaVuSans-69"/>
      <use x="229.6875" xlink:href="#DejaVuSans-67"/>
      <use x="293.164062" xlink:href="#DejaVuSans-68"/>
      <use x="356.542969" xlink:href="#DejaVuSans-62"/>
      <use x="420.019531" xlink:href="#DejaVuSans-6f"/>
      <use x="481.201172" xlink:href="#DejaVuSans-72"/>
      <use x="522.314453" xlink:href="#DejaVuSans-73"/>
      <use x="574.414062" xlink:href="#DejaVuSans-43"/>
      <use x="644.238281" xlink:href="#DejaVuSans-6c"/>
      <use x="672.021484" xlink:href="#DejaVuSans-61"/>
      <use x="733.300781" xlink:href="#DejaVuSans-73"/>
      <use x="785.400391" xlink:href="#DejaVuSans-73"/>
      <use x="837.5" xlink:href="#DejaVuSans-69"/>
      <use x="865.283203" xlink:href="#DejaVuSans-66"/>
      <use x="900.488281" xlink:href="#DejaVuSans-69"/>
      <use x="928.271484" xlink:href="#DejaVuSans-65"/>
      <use x="989.794922" xlink:href="#DejaVuSans-72"/>
     </g>
    </g>
    <g id="line2d_21">
     <path d="M 66.6 278.326187 
L 86.6 278.326187 
" style="fill:none;stroke:#0000ff;stroke-linecap:square;stroke-width:1.5;"/>
    </g>
    <g id="line2d_22"/>
    <g id="text_17">
     <!-- LogisticRegression -->
     <defs>
      <path d="M 18.3125 70.21875 
L 18.3125 54.6875 
L 36.8125 54.6875 
L 36.8125 47.703125 
L 18.3125 47.703125 
L 18.3125 18.015625 
Q 18.3125 11.328125 20.140625 9.421875 
Q 21.96875 7.515625 27.59375 7.515625 
L 36.8125 7.515625 
L 36.8125 0 
L 27.59375 0 
Q 17.1875 0 13.234375 3.875 
Q 9.28125 7.765625 9.28125 18.015625 
L 9.28125 47.703125 
L 2.6875 47.703125 
L 2.6875 54.6875 
L 9.28125 54.6875 
L 9.28125 70.21875 
z
" id="DejaVuSans-74"/>
     </defs>
     <g transform="translate(94.6 281.826187)scale(0.1 -0.1)">
      <use xlink:href="#DejaVuSans-4c"/>
      <use x="55.697266" xlink:href="#DejaVuSans-6f"/>
      <use x="116.878906" xlink:href="#DejaVuSans-67"/>
      <use x="180.355469" xlink:href="#DejaVuSans-69"/>
      <use x="208.138672" xlink:href="#DejaVuSans-73"/>
      <use x="260.238281" xlink:href="#DejaVuSans-74"/>
      <use x="299.447266" xlink:href="#DejaVuSans-69"/>
      <use x="327.230469" xlink:href="#DejaVuSans-63"/>
      <use x="382.210938" xlink:href="#DejaVuSans-52"/>
      <use x="451.630859" xlink:href="#DejaVuSans-65"/>
      <use x="513.154297" xlink:href="#DejaVuSans-67"/>
      <use x="576.630859" xlink:href="#DejaVuSans-72"/>
      <use x="617.712891" xlink:href="#DejaVuSans-65"/>
      <use x="679.236328" xlink:href="#DejaVuSans-73"/>
      <use x="731.335938" xlink:href="#DejaVuSans-73"/>
      <use x="783.435547" xlink:href="#DejaVuSans-69"/>
      <use x="811.21875" xlink:href="#DejaVuSans-6f"/>
      <use x="872.400391" xlink:href="#DejaVuSans-6e"/>
     </g>
    </g>
    <g id="line2d_23">
     <path d="M 66.6 293.004312 
L 86.6 293.004312 
" style="fill:none;stroke:#000000;stroke-linecap:square;stroke-width:1.5;"/>
    </g>
    <g id="line2d_24"/>
    <g id="text_18">
     <!-- XGBClassifier -->
     <defs>
      <path d="M 6.296875 72.90625 
L 16.890625 72.90625 
L 35.015625 45.796875 
L 53.21875 72.90625 
L 63.8125 72.90625 
L 40.375 37.890625 
L 65.375 0 
L 54.78125 0 
L 34.28125 31 
L 13.625 0 
L 2.984375 0 
L 29 38.921875 
z
" id="DejaVuSans-58"/>
      <path d="M 59.515625 10.40625 
L 59.515625 29.984375 
L 43.40625 29.984375 
L 43.40625 38.09375 
L 69.28125 38.09375 
L 69.28125 6.78125 
Q 63.578125 2.734375 56.6875 0.65625 
Q 49.8125 -1.421875 42 -1.421875 
Q 24.90625 -1.421875 15.25 8.5625 
Q 5.609375 18.5625 5.609375 36.375 
Q 5.609375 54.25 15.25 64.234375 
Q 24.90625 74.21875 42 74.21875 
Q 49.125 74.21875 55.546875 72.453125 
Q 61.96875 70.703125 67.390625 67.28125 
L 67.390625 56.78125 
Q 61.921875 61.421875 55.765625 63.765625 
Q 49.609375 66.109375 42.828125 66.109375 
Q 29.4375 66.109375 22.71875 58.640625 
Q 16.015625 51.171875 16.015625 36.375 
Q 16.015625 21.625 22.71875 14.15625 
Q 29.4375 6.6875 42.828125 6.6875 
Q 48.046875 6.6875 52.140625 7.59375 
Q 56.25 8.5 59.515625 10.40625 
" id="DejaVuSans-47"/>
      <path d="M 19.671875 34.8125 
L 19.671875 8.109375 
L 35.5 8.109375 
Q 43.453125 8.109375 47.28125 11.40625 
Q 51.125 14.703125 51.125 21.484375 
Q 51.125 28.328125 47.28125 31.5625 
Q 43.453125 34.8125 35.5 34.8125 
z
M 19.671875 64.796875 
L 19.671875 42.828125 
L 34.28125 42.828125 
Q 41.5 42.828125 45.03125 45.53125 
Q 48.578125 48.25 48.578125 53.8125 
Q 48.578125 59.328125 45.03125 62.0625 
Q 41.5 64.796875 34.28125 64.796875 
z
M 9.8125 72.90625 
L 35.015625 72.90625 
Q 46.296875 72.90625 52.390625 68.21875 
Q 58.5 63.53125 58.5 54.890625 
Q 58.5 48.1875 55.375 44.234375 
Q 52.25 40.28125 46.1875 39.3125 
Q 53.46875 37.75 57.5 32.78125 
Q 61.53125 27.828125 61.53125 20.40625 
Q 61.53125 10.640625 54.890625 5.3125 
Q 48.25 0 35.984375 0 
L 9.8125 0 
z
" id="DejaVuSans-42"/>
     </defs>
     <g transform="translate(94.6 296.504312)scale(0.1 -0.1)">
      <use xlink:href="#DejaVuSans-58"/>
      <use x="68.505859" xlink:href="#DejaVuSans-47"/>
      <use x="145.996094" xlink:href="#DejaVuSans-42"/>
      <use x="214.583984" xlink:href="#DejaVuSans-43"/>
      <use x="284.408203" xlink:href="#DejaVuSans-6c"/>
      <use x="312.191406" xlink:href="#DejaVuSans-61"/>
      <use x="373.470703" xlink:href="#DejaVuSans-73"/>
      <use x="425.570312" xlink:href="#DejaVuSans-73"/>
      <use x="477.669922" xlink:href="#DejaVuSans-69"/>
      <use x="505.453125" xlink:href="#DejaVuSans-66"/>
      <use x="540.658203" xlink:href="#DejaVuSans-69"/>
      <use x="568.441406" xlink:href="#DejaVuSans-65"/>
      <use x="629.964844" xlink:href="#DejaVuSans-72"/>
     </g>
    </g>
   </g>
  </g>
 </g>
 <defs>
  <clipPath id="p804d80b5ac">
   <rect height="266.112" width="357.12" x="57.6" y="41.472"/>
  </clipPath>
 </defs>
</svg>
