<?xml version="1.0" encoding="utf-8" standalone="no"?>
<!DOCTYPE svg PUBLIC "-//W3C//DTD SVG 1.1//EN"
  "http://www.w3.org/Graphics/SVG/1.1/DTD/svg11.dtd">
<!-- Created with matplotlib (http://matplotlib.org/) -->
<svg height="345pt" version="1.1" viewBox="0 0 460 345" width="460pt" xmlns="http://www.w3.org/2000/svg" xmlns:xlink="http://www.w3.org/1999/xlink">
 <defs>
  <style type="text/css">
*{stroke-linecap:butt;stroke-linejoin:round;}
  </style>
 </defs>
 <g id="figure_1">
  <g id="patch_1">
   <path d="M 0 345.6 
L 460.8 345.6 
L 460.8 0 
L 0 0 
z
" style="fill:#ffffff;"/>
  </g>
  <g id="axes_1">
   <g id="patch_2">
    <path d="M 57.6 307.584 
L 414.72 307.584 
L 414.72 41.472 
L 57.6 41.472 
z
" style="fill:#ffffff;"/>
   </g>
   <g id="matplotlib.axis_1">
    <g id="xtick_1">
     <g id="line2d_1">
      <defs>
       <path d="M 0 0 
L 0 3.5 
" id="m9128cd9595" style="stroke:#000000;stroke-width:0.8;"/>
      </defs>
      <g>
       <use style="stroke:#000000;stroke-width:0.8;" x="57.6" xlink:href="#m9128cd9595" y="307.584"/>
      </g>
     </g>
     <g id="text_1">
      <!-- 0.0 -->
      <defs>
       <path d="M 31.78125 66.40625 
Q 24.171875 66.40625 20.328125 58.90625 
Q 16.5 51.421875 16.5 36.375 
Q 16.5 21.390625 20.328125 13.890625 
Q 24.171875 6.390625 31.78125 6.390625 
Q 39.453125 6.390625 43.28125 13.890625 
Q 47.125 21.390625 47.125 36.375 
Q 47.125 51.421875 43.28125 58.90625 
Q 39.453125 66.40625 31.78125 66.40625 
M 31.78125 74.21875 
Q 44.046875 74.21875 50.515625 64.515625 
Q 56.984375 54.828125 56.984375 36.375 
Q 56.984375 17.96875 50.515625 8.265625 
Q 44.046875 -1.421875 31.78125 -1.421875 
Q 19.53125 -1.421875 13.0625 8.265625 
Q 6.59375 17.96875 6.59375 36.375 
Q 6.59375 54.828125 13.0625 64.515625 
Q 19.53125 74.21875 31.78125 74.21875 
" id="DejaVuSans-30"/>
       <path d="M 10.6875 12.40625 
L 21 12.40625 
L 21 0 
L 10.6875 0 
z
" id="DejaVuSans-2e"/>
      </defs>
      <g transform="translate(49.648438 322.182437)scale(0.1 -0.1)">
       <use xlink:href="#DejaVuSans-30"/>
       <use x="63.623047" xlink:href="#DejaVuSans-2e"/>
       <use x="95.410156" xlink:href="#DejaVuSans-30"/>
      </g>
     </g>
    </g>
    <g id="xtick_2">
     <g id="line2d_2">
      <g>
       <use style="stroke:#000000;stroke-width:0.8;" x="129.024" xlink:href="#m9128cd9595" y="307.584"/>
      </g>
     </g>
     <g id="text_2">
      <!-- 0.2 -->
      <defs>
       <path d="M 19.1875 8.296875 
L 53.609375 8.296875 
L 53.609375 0 
L 7.328125 0 
L 7.328125 8.296875 
Q 12.9375 14.109375 22.625 23.890625 
Q 32.328125 33.6875 34.8125 36.53125 
Q 39.546875 41.84375 41.421875 45.53125 
Q 43.3125 49.21875 43.3125 52.78125 
Q 43.3125 58.59375 39.234375 62.25 
Q 35.15625 65.921875 28.609375 65.921875 
Q 23.96875 65.921875 18.8125 64.3125 
Q 13.671875 62.703125 7.8125 59.421875 
L 7.8125 69.390625 
Q 13.765625 71.78125 18.9375 73 
Q 24.125 74.21875 28.421875 74.21875 
Q 39.75 74.21875 46.484375 68.546875 
Q 53.21875 62.890625 53.21875 53.421875 
Q 53.21875 48.921875 51.53125 44.890625 
Q 49.859375 40.875 45.40625 35.40625 
Q 44.1875 33.984375 37.640625 27.21875 
Q 31.109375 20.453125 19.1875 8.296875 
" id="DejaVuSans-32"/>
      </defs>
      <g transform="translate(121.072438 322.182437)scale(0.1 -0.1)">
       <use xlink:href="#DejaVuSans-30"/>
       <use x="63.623047" xlink:href="#DejaVuSans-2e"/>
       <use x="95.410156" xlink:href="#DejaVuSans-32"/>
      </g>
     </g>
    </g>
    <g id="xtick_3">
     <g id="line2d_3">
      <g>
       <use style="stroke:#000000;stroke-width:0.8;" x="200.448" xlink:href="#m9128cd9595" y="307.584"/>
      </g>
     </g>
     <g id="text_3">
      <!-- 0.4 -->
      <defs>
       <path d="M 37.796875 64.3125 
L 12.890625 25.390625 
L 37.796875 25.390625 
z
M 35.203125 72.90625 
L 47.609375 72.90625 
L 47.609375 25.390625 
L 58.015625 25.390625 
L 58.015625 17.1875 
L 47.609375 17.1875 
L 47.609375 0 
L 37.796875 0 
L 37.796875 17.1875 
L 4.890625 17.1875 
L 4.890625 26.703125 
z
" id="DejaVuSans-34"/>
      </defs>
      <g transform="translate(192.496438 322.182437)scale(0.1 -0.1)">
       <use xlink:href="#DejaVuSans-30"/>
       <use x="63.623047" xlink:href="#DejaVuSans-2e"/>
       <use x="95.410156" xlink:href="#DejaVuSans-34"/>
      </g>
     </g>
    </g>
    <g id="xtick_4">
     <g id="line2d_4">
      <g>
       <use style="stroke:#000000;stroke-width:0.8;" x="271.872" xlink:href="#m9128cd9595" y="307.584"/>
      </g>
     </g>
     <g id="text_4">
      <!-- 0.6 -->
      <defs>
       <path d="M 33.015625 40.375 
Q 26.375 40.375 22.484375 35.828125 
Q 18.609375 31.296875 18.609375 23.390625 
Q 18.609375 15.53125 22.484375 10.953125 
Q 26.375 6.390625 33.015625 6.390625 
Q 39.65625 6.390625 43.53125 10.953125 
Q 47.40625 15.53125 47.40625 23.390625 
Q 47.40625 31.296875 43.53125 35.828125 
Q 39.65625 40.375 33.015625 40.375 
M 52.59375 71.296875 
L 52.59375 62.3125 
Q 48.875 64.0625 45.09375 64.984375 
Q 41.3125 65.921875 37.59375 65.921875 
Q 27.828125 65.921875 22.671875 59.328125 
Q 17.53125 52.734375 16.796875 39.40625 
Q 19.671875 43.65625 24.015625 45.921875 
Q 28.375 48.1875 33.59375 48.1875 
Q 44.578125 48.1875 50.953125 41.515625 
Q 57.328125 34.859375 57.328125 23.390625 
Q 57.328125 12.15625 50.6875 5.359375 
Q 44.046875 -1.421875 33.015625 -1.421875 
Q 20.359375 -1.421875 13.671875 8.265625 
Q 6.984375 17.96875 6.984375 36.375 
Q 6.984375 53.65625 15.1875 63.9375 
Q 23.390625 74.21875 37.203125 74.21875 
Q 40.921875 74.21875 44.703125 73.484375 
Q 48.484375 72.75 52.59375 71.296875 
" id="DejaVuSans-36"/>
      </defs>
      <g transform="translate(263.920438 322.182437)scale(0.1 -0.1)">
       <use xlink:href="#DejaVuSans-30"/>
       <use x="63.623047" xlink:href="#DejaVuSans-2e"/>
       <use x="95.410156" xlink:href="#DejaVuSans-36"/>
      </g>
     </g>
    </g>
    <g id="xtick_5">
     <g id="line2d_5">
      <g>
       <use style="stroke:#000000;stroke-width:0.8;" x="343.296" xlink:href="#m9128cd9595" y="307.584"/>
      </g>
     </g>
     <g id="text_5">
      <!-- 0.8 -->
      <defs>
       <path d="M 31.78125 34.625 
Q 24.75 34.625 20.71875 30.859375 
Q 16.703125 27.09375 16.703125 20.515625 
Q 16.703125 13.921875 20.71875 10.15625 
Q 24.75 6.390625 31.78125 6.390625 
Q 38.8125 6.390625 42.859375 10.171875 
Q 46.921875 13.96875 46.921875 20.515625 
Q 46.921875 27.09375 42.890625 30.859375 
Q 38.875 34.625 31.78125 34.625 
M 21.921875 38.8125 
Q 15.578125 40.375 12.03125 44.71875 
Q 8.5 49.078125 8.5 55.328125 
Q 8.5 64.0625 14.71875 69.140625 
Q 20.953125 74.21875 31.78125 74.21875 
Q 42.671875 74.21875 48.875 69.140625 
Q 55.078125 64.0625 55.078125 55.328125 
Q 55.078125 49.078125 51.53125 44.71875 
Q 48 40.375 41.703125 38.8125 
Q 48.828125 37.15625 52.796875 32.3125 
Q 56.78125 27.484375 56.78125 20.515625 
Q 56.78125 9.90625 50.3125 4.234375 
Q 43.84375 -1.421875 31.78125 -1.421875 
Q 19.734375 -1.421875 13.25 4.234375 
Q 6.78125 9.90625 6.78125 20.515625 
Q 6.78125 27.484375 10.78125 32.3125 
Q 14.796875 37.15625 21.921875 38.8125 
M 18.3125 54.390625 
Q 18.3125 48.734375 21.84375 45.5625 
Q 25.390625 42.390625 31.78125 42.390625 
Q 38.140625 42.390625 41.71875 45.5625 
Q 45.3125 48.734375 45.3125 54.390625 
Q 45.3125 60.0625 41.71875 63.234375 
Q 38.140625 66.40625 31.78125 66.40625 
Q 25.390625 66.40625 21.84375 63.234375 
Q 18.3125 60.0625 18.3125 54.390625 
" id="DejaVuSans-38"/>
      </defs>
      <g transform="translate(335.344438 322.182437)scale(0.1 -0.1)">
       <use xlink:href="#DejaVuSans-30"/>
       <use x="63.623047" xlink:href="#DejaVuSans-2e"/>
       <use x="95.410156" xlink:href="#DejaVuSans-38"/>
      </g>
     </g>
    </g>
    <g id="xtick_6">
     <g id="line2d_6">
      <g>
       <use style="stroke:#000000;stroke-width:0.8;" x="414.72" xlink:href="#m9128cd9595" y="307.584"/>
      </g>
     </g>
     <g id="text_6">
      <!-- 1.0 -->
      <defs>
       <path d="M 12.40625 8.296875 
L 28.515625 8.296875 
L 28.515625 63.921875 
L 10.984375 60.40625 
L 10.984375 69.390625 
L 28.421875 72.90625 
L 38.28125 72.90625 
L 38.28125 8.296875 
L 54.390625 8.296875 
L 54.390625 0 
L 12.40625 0 
z
" id="DejaVuSans-31"/>
      </defs>
      <g transform="translate(406.768438 322.182437)scale(0.1 -0.1)">
       <use xlink:href="#DejaVuSans-31"/>
       <use x="63.623047" xlink:href="#DejaVuSans-2e"/>
       <use x="95.410156" xlink:href="#DejaVuSans-30"/>
      </g>
     </g>
    </g>
   </g>
   <g id="matplotlib.axis_2">
    <g id="ytick_1">
     <g id="line2d_7">
      <defs>
       <path d="M 0 0 
L -3.5 0 
" id="m324acc59e4" style="stroke:#000000;stroke-width:0.8;"/>
      </defs>
      <g>
       <use style="stroke:#000000;stroke-width:0.8;" x="57.6" xlink:href="#m324acc59e4" y="307.584"/>
      </g>
     </g>
     <g id="text_7">
      <!-- 0.0 -->
      <g transform="translate(34.696875 311.383219)scale(0.1 -0.1)">
       <use xlink:href="#DejaVuSans-30"/>
       <use x="63.623047" xlink:href="#DejaVuSans-2e"/>
       <use x="95.410156" xlink:href="#DejaVuSans-30"/>
      </g>
     </g>
    </g>
    <g id="ytick_2">
     <g id="line2d_8">
      <g>
       <use style="stroke:#000000;stroke-width:0.8;" x="57.6" xlink:href="#m324acc59e4" y="256.896"/>
      </g>
     </g>
     <g id="text_8">
      <!-- 0.2 -->
      <g transform="translate(34.696875 260.695219)scale(0.1 -0.1)">
       <use xlink:href="#DejaVuSans-30"/>
       <use x="63.623047" xlink:href="#DejaVuSans-2e"/>
       <use x="95.410156" xlink:href="#DejaVuSans-32"/>
      </g>
     </g>
    </g>
    <g id="ytick_3">
     <g id="line2d_9">
      <g>
       <use style="stroke:#000000;stroke-width:0.8;" x="57.6" xlink:href="#m324acc59e4" y="206.208"/>
      </g>
     </g>
     <g id="text_9">
      <!-- 0.4 -->
      <g transform="translate(34.696875 210.007219)scale(0.1 -0.1)">
       <use xlink:href="#DejaVuSans-30"/>
       <use x="63.623047" xlink:href="#DejaVuSans-2e"/>
       <use x="95.410156" xlink:href="#DejaVuSans-34"/>
      </g>
     </g>
    </g>
    <g id="ytick_4">
     <g id="line2d_10">
      <g>
       <use style="stroke:#000000;stroke-width:0.8;" x="57.6" xlink:href="#m324acc59e4" y="155.52"/>
      </g>
     </g>
     <g id="text_10">
      <!-- 0.6 -->
      <g transform="translate(34.696875 159.319219)scale(0.1 -0.1)">
       <use xlink:href="#DejaVuSans-30"/>
       <use x="63.623047" xlink:href="#DejaVuSans-2e"/>
       <use x="95.410156" xlink:href="#DejaVuSans-36"/>
      </g>
     </g>
    </g>
    <g id="ytick_5">
     <g id="line2d_11">
      <g>
       <use style="stroke:#000000;stroke-width:0.8;" x="57.6" xlink:href="#m324acc59e4" y="104.832"/>
      </g>
     </g>
     <g id="text_11">
      <!-- 0.8 -->
      <g transform="translate(34.696875 108.631219)scale(0.1 -0.1)">
       <use xlink:href="#DejaVuSans-30"/>
       <use x="63.623047" xlink:href="#DejaVuSans-2e"/>
       <use x="95.410156" xlink:href="#DejaVuSans-38"/>
      </g>
     </g>
    </g>
    <g id="ytick_6">
     <g id="line2d_12">
      <g>
       <use style="stroke:#000000;stroke-width:0.8;" x="57.6" xlink:href="#m324acc59e4" y="54.144"/>
      </g>
     </g>
     <g id="text_12">
      <!-- 1.0 -->
      <g transform="translate(34.696875 57.943219)scale(0.1 -0.1)">
       <use xlink:href="#DejaVuSans-31"/>
       <use x="63.623047" xlink:href="#DejaVuSans-2e"/>
       <use x="95.410156" xlink:href="#DejaVuSans-30"/>
      </g>
     </g>
    </g>
   </g>
   <g id="line2d_13">
    <path clip-path="url(#p15f571db19)" d="M 414.72 114.269405 
L 413.314016 114.269405 
L 413.314016 114.450506 
L 411.908031 114.450506 
L 411.908031 114.632701 
L 411.908031 114.632701 
L 411.908031 114.632701 
L 411.908031 114.048 
L 410.502047 114.048 
L 410.502047 114.230079 
L 407.690079 114.230079 
L 407.690079 113.409969 
L 406.284094 113.409969 
L 406.284094 109.309174 
L 404.87811 109.309174 
L 404.87811 109.483747 
L 404.87811 109.483747 
L 404.87811 109.483747 
L 404.87811 106.944 
L 403.472126 106.944 
L 403.472126 107.113775 
L 403.472126 107.113775 
L 403.472126 107.113775 
L 403.472126 105.161143 
L 400.660157 105.161143 
L 400.660157 105.494588 
L 399.254173 105.494588 
L 399.254173 105.662951 
L 397.848189 105.662951 
L 397.848189 105.166574 
L 395.03622 105.166574 
L 395.03622 105.505595 
L 393.630236 105.505595 
L 393.630236 105.6768 
L 392.224252 105.6768 
L 392.224252 105.849151 
L 390.818268 105.849151 
L 390.818268 103.972881 
L 389.412283 103.972881 
L 389.412283 104.142367 
L 389.412283 104.142367 
L 389.412283 104.142367 
L 389.412283 103.448027 
L 388.006299 103.448027 
L 388.006299 103.616877 
L 386.600315 103.616877 
L 386.600315 103.786887 
L 385.194331 103.786887 
L 385.194331 103.958069 
L 385.194331 103.958069 
L 385.194331 103.958069 
L 385.194331 103.253481 
L 382.382362 103.253481 
L 382.382362 103.595707 
L 380.976378 103.595707 
L 380.976378 103.768615 
L 379.570394 103.768615 
L 379.570394 103.942737 
L 378.164409 103.942737 
L 378.164409 104.118085 
L 376.758425 104.118085 
L 376.758425 104.294671 
L 376.758425 104.294671 
L 376.758425 104.294671 
L 376.758425 102.847772 
L 373.946457 102.847772 
L 373.946457 103.196903 
L 372.540472 103.196903 
L 372.540472 103.373353 
L 372.540472 103.373353 
L 372.540472 103.373353 
L 372.540472 102.63613 
L 371.134488 102.63613 
L 371.134488 102.811826 
L 371.134488 102.811826 
L 371.134488 102.811826 
L 371.134488 101.317139 
L 369.728504 101.317139 
L 369.728504 101.489934 
L 369.728504 101.489934 
L 369.728504 101.489934 
L 369.728504 99.968945 
L 368.32252 99.968945 
L 368.32252 100.138667 
L 366.916535 100.138667 
L 366.916535 100.309651 
L 366.916535 100.309651 
L 366.916535 100.309651 
L 366.916535 98.757034 
L 365.510551 98.757034 
L 365.510551 98.924752 
L 365.510551 98.924752 
L 365.510551 98.924752 
L 365.510551 98.137358 
L 364.104567 98.137358 
L 364.104567 98.304 
L 362.698583 98.304 
L 362.698583 98.471909 
L 359.886614 98.471909 
L 359.886614 98.811586 
L 358.48063 98.811586 
L 358.48063 98.983385 
L 357.074646 98.983385 
L 357.074646 99.15651 
L 354.262677 99.15651 
L 354.262677 99.506802 
L 354.262677 99.506802 
L 354.262677 99.506802 
L 354.262677 97.874824 
L 352.856693 97.874824 
L 352.856693 98.046992 
L 351.450709 98.046992 
L 351.450709 96.552287 
L 350.044724 96.552287 
L 350.044724 96.72192 
L 348.63874 96.72192 
L 348.63874 96.043355 
L 347.232756 96.043355 
L 347.232756 96.212988 
L 347.232756 96.212988 
L 347.232756 96.212988 
L 347.232756 95.353756 
L 345.826772 95.353756 
L 345.826772 95.521959 
L 344.420787 95.521959 
L 344.420787 95.691541 
L 344.420787 95.691541 
L 344.420787 95.691541 
L 344.420787 93.940364 
L 343.014803 93.940364 
L 343.014803 94.105494 
L 341.608819 94.105494 
L 341.608819 91.571848 
L 340.202835 91.571848 
L 340.202835 91.730441 
L 340.202835 91.730441 
L 340.202835 91.730441 
L 340.202835 89.885538 
L 338.79685 89.885538 
L 338.79685 90.038936 
L 335.984882 90.038936 
L 335.984882 90.349714 
L 335.984882 90.349714 
L 335.984882 90.349714 
L 335.984882 89.405217 
L 334.578898 89.405217 
L 334.578898 89.559197 
L 333.172913 89.559197 
L 333.172913 88.754749 
L 331.766929 88.754749 
L 331.766929 88.907894 
L 330.360945 88.907894 
L 330.360945 89.0624 
L 330.360945 89.0624 
L 330.360945 89.0624 
L 330.360945 88.086857 
L 328.954961 88.086857 
L 328.954961 88.239067 
L 328.954961 88.239067 
L 328.954961 88.239067 
L 328.954961 87.251027 
L 326.142992 87.251027 
L 326.142992 87.552 
L 324.737008 87.552 
L 324.737008 87.704548 
L 324.737008 87.704548 
L 324.737008 87.704548 
L 324.737008 85.678009 
L 323.331024 85.678009 
L 323.331024 85.824 
L 321.925039 85.824 
L 321.925039 85.971349 
L 320.519055 85.971349 
L 320.519055 86.120075 
L 320.519055 86.120075 
L 320.519055 86.120075 
L 320.519055 85.080338 
L 319.113071 85.080338 
L 319.113071 85.226264 
L 317.707087 85.226264 
L 317.707087 85.373573 
L 317.707087 85.373573 
L 317.707087 85.373573 
L 317.707087 84.315429 
L 314.895118 84.315429 
L 314.895118 84.605538 
L 313.489134 84.605538 
L 313.489134 84.752696 
L 312.08315 84.752696 
L 312.08315 84.901282 
L 312.08315 84.901282 
L 312.08315 84.901282 
L 312.08315 83.815024 
L 310.677165 83.815024 
L 310.677165 81.746376 
L 309.271181 81.746376 
L 309.271181 81.883701 
L 306.459213 81.883701 
L 306.459213 82.162492 
L 305.053228 82.162492 
L 305.053228 82.304 
L 305.053228 82.304 
L 305.053228 82.304 
L 305.053228 81.160447 
L 303.647244 81.160447 
L 303.647244 81.298286 
L 302.24126 81.298286 
L 302.24126 81.437538 
L 300.835276 81.437538 
L 300.835276 81.578227 
L 299.429291 81.578227 
L 299.429291 81.720373 
L 298.023307 81.720373 
L 298.023307 81.864 
L 296.617323 81.864 
L 296.617323 82.009131 
L 296.617323 82.009131 
L 296.617323 82.009131 
L 296.617323 80.821895 
L 295.211339 80.821895 
L 295.211339 79.757617 
L 293.805354 79.757617 
L 293.805354 79.894588 
L 290.993386 79.894588 
L 290.993386 80.172973 
L 289.587402 80.172973 
L 289.587402 80.314435 
L 288.181417 80.314435 
L 288.181417 80.457443 
L 283.963465 80.457443 
L 283.963465 80.896 
L 281.151496 80.896 
L 281.151496 81.196584 
L 279.745512 81.196584 
L 279.745512 81.349424 
L 278.339528 81.349424 
L 278.339528 81.504 
L 276.933543 81.504 
L 276.933543 81.660343 
L 275.527559 81.660343 
L 275.527559 81.818483 
L 274.121575 81.818483 
L 274.121575 81.978451 
L 272.715591 81.978451 
L 272.715591 82.140279 
L 271.309606 82.140279 
L 271.309606 82.304 
L 268.497638 82.304 
L 268.497638 82.637254 
L 267.091654 82.637254 
L 267.091654 82.806857 
L 265.685669 82.806857 
L 265.685669 82.978491 
L 264.279685 82.978491 
L 264.279685 83.152193 
L 262.873701 83.152193 
L 262.873701 80.576393 
L 261.467717 80.576393 
L 261.467717 80.739556 
L 260.061732 80.739556 
L 260.061732 80.904745 
L 258.655748 80.904745 
L 258.655748 81.072 
L 257.249764 81.072 
L 257.249764 81.241358 
L 255.84378 81.241358 
L 255.84378 81.412861 
L 254.437795 81.412861 
L 254.437795 81.586548 
L 254.437795 81.586548 
L 254.437795 81.586548 
L 254.437795 80.137846 
L 253.031811 80.137846 
L 253.031811 80.305548 
L 251.625827 80.305548 
L 251.625827 80.475429 
L 248.813858 80.475429 
L 248.813858 79.320159 
L 247.407874 79.320159 
L 247.407874 79.488 
L 246.00189 79.488 
L 246.00189 79.658094 
L 246.00189 79.658094 
L 246.00189 79.658094 
L 246.00189 74.974685 
L 244.595906 74.974685 
L 244.595906 75.118345 
L 243.189921 75.118345 
L 243.189921 75.264 
L 241.783937 75.264 
L 241.783937 75.411692 
L 240.377953 75.411692 
L 240.377953 75.561465 
L 238.971969 75.561465 
L 238.971969 75.713362 
L 237.565984 75.713362 
L 237.565984 75.867429 
L 236.16 75.867429 
L 236.16 76.023712 
L 234.754016 76.023712 
L 234.754016 76.182261 
L 234.754016 76.182261 
L 234.754016 76.182261 
L 234.754016 74.493197 
L 231.942047 74.493197 
L 231.942047 74.794667 
L 230.536063 74.794667 
L 230.536063 74.948776 
L 229.130079 74.948776 
L 229.130079 75.105203 
L 227.724094 75.105203 
L 227.724094 75.264 
L 226.31811 75.264 
L 226.31811 75.425221 
L 224.912126 75.425221 
L 224.912126 75.588923 
L 223.506142 75.588923 
L 223.506142 75.755163 
L 222.100157 75.755163 
L 222.100157 75.924 
L 220.694173 75.924 
L 220.694173 76.095496 
L 219.288189 76.095496 
L 219.288189 76.269714 
L 217.882205 76.269714 
L 217.882205 76.44672 
L 217.882205 76.44672 
L 217.882205 76.44672 
L 217.882205 74.58271 
L 215.070236 74.58271 
L 215.070236 74.91777 
L 213.664252 74.91777 
L 213.664252 75.089455 
L 212.258268 75.089455 
L 212.258268 75.264 
L 212.258268 75.264 
L 212.258268 75.264 
L 212.258268 73.311731 
L 210.852283 73.311731 
L 210.852283 73.474169 
L 209.446299 73.474169 
L 209.446299 73.639385 
L 208.040315 73.639385 
L 208.040315 73.807448 
L 206.634331 73.807448 
L 206.634331 73.978435 
L 203.822362 73.978435 
L 203.822362 74.329487 
L 202.416378 74.329487 
L 202.416378 74.509714 
L 201.010394 74.509714 
L 201.010394 74.693189 
L 199.604409 74.693189 
L 199.604409 74.88 
L 198.198425 74.88 
L 198.198425 75.070239 
L 196.792441 75.070239 
L 196.792441 75.264 
L 195.386457 75.264 
L 195.386457 75.461383 
L 193.980472 75.461383 
L 193.980472 75.662491 
L 192.574488 75.662491 
L 192.574488 75.867429 
L 191.168504 75.867429 
L 191.168504 76.076308 
L 189.76252 76.076308 
L 189.76252 76.289243 
L 188.356535 76.289243 
L 188.356535 76.506353 
L 186.950551 76.506353 
L 186.950551 76.727762 
L 185.544567 76.727762 
L 185.544567 76.9536 
L 184.138583 76.9536 
L 184.138583 77.184 
L 182.732598 77.184 
L 182.732598 77.419102 
L 181.326614 77.419102 
L 181.326614 77.659052 
L 181.326614 77.659052 
L 181.326614 77.659052 
L 181.326614 72.818526 
L 179.92063 72.818526 
L 179.92063 73.017191 
L 178.514646 73.017191 
L 178.514646 73.220129 
L 177.108661 73.220129 
L 177.108661 73.427478 
L 175.702677 73.427478 
L 175.702677 73.639385 
L 174.296693 73.639385 
L 174.296693 73.856 
L 171.484724 73.856 
L 171.484724 74.304 
L 170.07874 74.304 
L 170.07874 74.535724 
L 170.07874 74.535724 
L 170.07874 74.535724 
L 170.07874 71.82586 
L 168.672756 71.82586 
L 168.672756 72.033882 
L 167.266772 72.033882 
L 167.266772 72.246857 
L 167.266772 72.246857 
L 167.266772 72.246857 
L 167.266772 69.41147 
L 165.860787 69.41147 
L 165.860787 69.597659 
L 164.454803 69.597659 
L 164.454803 69.788444 
L 164.454803 69.788444 
L 164.454803 69.788444 
L 164.454803 66.816 
L 163.048819 66.816 
L 163.048819 66.976405 
L 158.830866 66.976405 
L 158.830866 67.482947 
L 157.424882 67.482947 
L 157.424882 67.6608 
L 156.018898 67.6608 
L 156.018898 67.843459 
L 154.612913 67.843459 
L 154.612913 68.031123 
L 153.206929 68.031123 
L 153.206929 68.224 
L 151.800945 68.224 
L 151.800945 68.42231 
L 150.394961 68.42231 
L 150.394961 68.626286 
L 148.988976 68.626286 
L 148.988976 68.836174 
L 147.582992 68.836174 
L 147.582992 69.052235 
L 146.177008 69.052235 
L 146.177008 69.274746 
L 144.771024 69.274746 
L 144.771024 69.504 
L 143.365039 69.504 
L 143.365039 69.740308 
L 140.553071 69.740308 
L 140.553071 70.235429 
L 140.553071 70.235429 
L 140.553071 70.235429 
L 140.553071 66.407226 
L 139.147087 66.407226 
L 139.147087 66.608262 
L 137.741102 66.608262 
L 137.741102 66.816 
L 136.335118 66.816 
L 136.335118 67.03078 
L 134.929134 67.03078 
L 134.929134 67.252966 
L 134.929134 67.252966 
L 134.929134 67.252966 
L 134.929134 58.669714 
L 132.117165 58.752 
L 132.117165 58.837333 
L 129.305197 58.925887 
L 129.305197 59.017846 
L 126.493228 59.017846 
L 126.493228 59.2128 
L 122.275276 59.316245 
L 122.275276 59.53634 
L 119.463307 59.53634 
L 119.463307 59.776 
L 118.057323 59.776 
L 118.057323 59.904 
L 118.057323 59.904 
L 118.057323 59.904 
L 118.057323 54.144 
L 57.6 54.144 
L 57.6 54.144 
" style="fill:none;stroke:#ff0000;stroke-linecap:square;stroke-width:1.5;"/>
   </g>
   <g id="line2d_14">
    <path clip-path="url(#p15f571db19)" d="M 414.72 115.423522 
L 413.314016 115.423522 
L 413.314016 113.867021 
L 406.284094 113.867021 
L 406.284094 108.681722 
L 393.630236 108.681722 
L 393.630236 104.321718 
L 373.946457 104.321718 
L 373.946457 99.467212 
L 343.014803 99.467212 
L 343.014803 94.987636 
L 314.895118 94.987636 
L 314.895118 83.528348 
L 227.724094 83.528348 
L 227.724094 68.004 
L 57.6 68.004 
L 57.6 54.144 
" style="fill:none;stroke:#008000;stroke-linecap:square;stroke-width:1.5;"/>
   </g>
   <g id="line2d_15">
    <path clip-path="url(#p15f571db19)" d="M 414.72 115.423522 
L 413.314016 115.423522 
L 413.314016 115.606994 
L 413.314016 115.606994 
L 413.314016 115.606994 
L 413.314016 115.030486 
L 411.908031 115.030486 
L 411.908031 115.21388 
L 410.502047 115.21388 
L 410.502047 114.230079 
L 409.096063 114.230079 
L 409.096063 114.413268 
L 407.690079 114.413268 
L 407.690079 114.597578 
L 407.690079 114.597578 
L 407.690079 114.597578 
L 407.690079 114.005595 
L 406.284094 114.005595 
L 406.284094 114.189785 
L 404.87811 114.189785 
L 404.87811 114.375111 
L 403.472126 114.375111 
L 403.472126 114.561585 
L 402.066142 114.561585 
L 402.066142 114.749217 
L 400.660157 114.749217 
L 400.660157 114.938019 
L 400.660157 114.938019 
L 400.660157 114.938019 
L 400.660157 114.336 
L 399.254173 114.336 
L 399.254173 114.52469 
L 397.848189 114.52469 
L 397.848189 114.714566 
L 396.442205 114.714566 
L 396.442205 114.90564 
L 395.03622 114.90564 
L 395.03622 115.097924 
L 392.224252 115.097924 
L 392.224252 115.486166 
L 392.224252 115.486166 
L 392.224252 115.486166 
L 392.224252 114.872435 
L 390.818268 114.872435 
L 390.818268 115.067077 
L 389.412283 115.067077 
L 389.412283 115.262971 
L 389.412283 115.262971 
L 389.412283 115.262971 
L 389.412283 114.642581 
L 388.006299 114.642581 
L 388.006299 114.838369 
L 386.600315 114.838369 
L 386.600315 115.035429 
L 385.194331 115.035429 
L 385.194331 115.233772 
L 385.194331 115.233772 
L 385.194331 115.233772 
L 385.194331 114.605176 
L 382.382362 114.605176 
L 382.382362 115.002947 
L 382.382362 115.002947 
L 382.382362 115.002947 
L 382.382362 114.367366 
L 380.976378 114.367366 
L 380.976378 114.566781 
L 380.976378 114.566781 
L 380.976378 114.566781 
L 380.976378 112.630154 
L 379.570394 112.630154 
L 379.570394 112.826416 
L 378.164409 112.826416 
L 378.164409 113.024 
L 375.352441 113.024 
L 375.352441 113.423186 
L 373.946457 113.423186 
L 373.946457 113.624816 
L 372.540472 113.624816 
L 372.540472 113.827823 
L 371.134488 113.827823 
L 371.134488 114.032219 
L 369.728504 114.032219 
L 369.728504 114.238021 
L 369.728504 114.238021 
L 369.728504 114.238021 
L 369.728504 113.57131 
L 368.32252 113.57131 
L 368.32252 113.776941 
L 366.916535 113.776941 
L 366.916535 113.984 
L 366.916535 113.984 
L 366.916535 113.984 
L 366.916535 112.630154 
L 365.510551 112.630154 
L 365.510551 112.835368 
L 365.510551 112.835368 
L 365.510551 112.835368 
L 365.510551 112.149634 
L 364.104567 112.149634 
L 364.104567 112.354601 
L 362.698583 112.354601 
L 362.698583 112.561021 
L 361.292598 112.561021 
L 361.292598 112.768911 
L 359.886614 112.768911 
L 359.886614 112.978286 
L 358.48063 112.978286 
L 358.48063 113.189161 
L 357.074646 113.189161 
L 357.074646 113.401554 
L 355.668661 113.401554 
L 355.668661 113.61548 
L 354.262677 113.61548 
L 354.262677 113.830957 
L 352.856693 113.830957 
L 352.856693 114.048 
L 351.450709 114.048 
L 351.450709 114.266628 
L 348.63874 114.266628 
L 348.63874 111.82997 
L 347.232756 111.82997 
L 347.232756 110.570264 
L 345.826772 110.570264 
L 345.826772 110.784 
L 344.420787 110.784 
L 344.420787 110.999361 
L 344.420787 110.999361 
L 344.420787 110.999361 
L 344.420787 110.249038 
L 343.014803 110.249038 
L 343.014803 110.464 
L 341.608819 110.464 
L 341.608819 110.680615 
L 341.608819 110.680615 
L 341.608819 110.680615 
L 341.608819 109.920371 
L 340.202835 109.920371 
L 340.202835 110.136558 
L 338.79685 110.136558 
L 338.79685 110.354428 
L 337.390866 110.354428 
L 337.390866 110.574 
L 335.984882 110.574 
L 335.984882 110.795294 
L 335.984882 110.795294 
L 335.984882 110.795294 
L 335.984882 109.239652 
L 334.578898 109.239652 
L 334.578898 109.458286 
L 333.172913 109.458286 
L 333.172913 109.678661 
L 331.766929 109.678661 
L 331.766929 109.9008 
L 331.766929 109.9008 
L 331.766929 109.9008 
L 331.766929 109.106892 
L 330.360945 109.106892 
L 330.360945 109.328516 
L 328.954961 109.328516 
L 328.954961 109.551935 
L 327.548976 109.551935 
L 327.548976 109.777171 
L 326.142992 109.777171 
L 326.142992 110.004245 
L 324.737008 110.004245 
L 324.737008 110.23318 
L 323.331024 110.23318 
L 323.331024 110.464 
L 321.925039 110.464 
L 321.925039 110.696727 
L 320.519055 110.696727 
L 320.519055 110.931386 
L 320.519055 110.931386 
L 320.519055 110.931386 
L 320.519055 110.112 
L 319.113071 110.112 
L 319.113071 108.681722 
L 316.301102 108.681722 
L 316.301102 109.145872 
L 314.895118 109.145872 
L 314.895118 109.380923 
L 313.489134 109.380923 
L 313.489134 109.617991 
L 313.489134 109.617991 
L 313.489134 109.617991 
L 313.489134 108.76469 
L 310.677165 108.76469 
L 310.677165 109.239652 
L 309.271181 109.239652 
L 309.271181 109.480245 
L 309.271181 109.480245 
L 309.271181 109.480245 
L 309.271181 107.734837 
L 307.865197 107.734837 
L 307.865197 107.0848 
L 306.459213 107.0848 
L 306.459213 107.321143 
L 305.053228 107.321143 
L 305.053228 105.74943 
L 303.647244 105.74943 
L 303.647244 103.196903 
L 302.24126 103.196903 
L 302.24126 103.424 
L 298.023307 103.424 
L 298.023307 104.118085 
L 295.211339 104.118085 
L 295.211339 104.591773 
L 293.805354 104.591773 
L 293.805354 104.832 
L 290.993386 104.832 
L 290.993386 105.319385 
L 289.587402 105.319385 
L 289.587402 105.566609 
L 286.775433 105.566609 
L 286.775433 106.068293 
L 285.369449 106.068293 
L 285.369449 106.322824 
L 283.963465 106.322824 
L 283.963465 106.579862 
L 281.151496 106.579862 
L 281.151496 107.101612 
L 279.745512 107.101612 
L 279.745512 107.3664 
L 278.339528 107.3664 
L 278.339528 107.633849 
L 278.339528 107.633849 
L 278.339528 107.633849 
L 278.339528 106.624 
L 276.933543 106.624 
L 276.933543 106.890396 
L 275.527559 106.890396 
L 275.527559 107.15951 
L 275.527559 107.15951 
L 275.527559 107.15951 
L 275.527559 106.131692 
L 274.121575 106.131692 
L 274.121575 106.39967 
L 274.121575 106.39967 
L 274.121575 106.39967 
L 274.121575 105.357264 
L 272.715591 105.357264 
L 272.715591 105.624 
L 271.309606 105.624 
L 271.309606 105.893529 
L 271.309606 105.893529 
L 271.309606 105.893529 
L 271.309606 104.832 
L 269.903622 104.832 
L 269.903622 105.10019 
L 268.497638 105.10019 
L 268.497638 105.371234 
L 267.091654 105.371234 
L 267.091654 105.645176 
L 264.279685 105.645176 
L 264.279685 106.201946 
L 262.873701 106.201946 
L 262.873701 106.48487 
L 261.467717 106.48487 
L 261.467717 106.770885 
L 258.655748 106.770885 
L 258.655748 107.352398 
L 257.249764 107.352398 
L 257.249764 107.648 
L 254.437795 107.648 
L 254.437795 108.249169 
L 254.437795 108.249169 
L 254.437795 108.249169 
L 254.437795 107.122983 
L 253.031811 107.122983 
L 253.031811 107.424 
L 253.031811 107.424 
L 253.031811 107.424 
L 253.031811 106.280229 
L 251.625827 106.280229 
L 251.625827 106.579862 
L 250.219843 106.579862 
L 250.219843 106.88296 
L 250.219843 106.88296 
L 250.219843 106.88296 
L 250.219843 105.716093 
L 248.813858 105.716093 
L 248.813858 106.017684 
L 247.407874 106.017684 
L 247.407874 106.322824 
L 247.407874 106.322824 
L 247.407874 106.322824 
L 247.407874 105.131929 
L 246.00189 105.131929 
L 246.00189 105.435429 
L 246.00189 105.435429 
L 246.00189 105.435429 
L 246.00189 104.224958 
L 244.595906 104.224958 
L 244.595906 104.526651 
L 243.189921 104.526651 
L 243.189921 104.832 
L 241.783937 104.832 
L 241.783937 105.141073 
L 241.783937 105.141073 
L 241.783937 105.141073 
L 241.783937 102.641778 
L 240.377953 102.641778 
L 240.377953 102.943006 
L 238.971969 102.943006 
L 238.971969 101.962868 
L 237.565984 101.962868 
L 237.565984 102.265519 
L 237.565984 102.265519 
L 237.565984 102.265519 
L 237.565984 100.957758 
L 236.16 100.957758 
L 236.16 101.257846 
L 234.754016 101.257846 
L 234.754016 101.561806 
L 233.348031 101.561806 
L 233.348031 101.869714 
L 231.942047 101.869714 
L 231.942047 102.181647 
L 230.536063 102.181647 
L 230.536063 102.497684 
L 230.536063 102.497684 
L 230.536063 102.497684 
L 230.536063 101.139497 
L 229.130079 101.139497 
L 229.130079 101.4528 
L 227.724094 101.4528 
L 227.724094 101.770309 
L 226.31811 101.770309 
L 226.31811 102.092108 
L 224.912126 102.092108 
L 224.912126 102.418286 
L 223.506142 102.418286 
L 223.506142 102.748932 
L 222.100157 102.748932 
L 222.100157 103.084138 
L 220.694173 103.084138 
L 220.694173 103.424 
L 219.288189 103.424 
L 219.288189 103.768615 
L 217.882205 103.768615 
L 217.882205 104.118085 
L 216.47622 104.118085 
L 216.47622 104.472511 
L 216.47622 104.472511 
L 216.47622 104.472511 
L 216.47622 103.021714 
L 215.070236 103.021714 
L 215.070236 103.373353 
L 213.664252 103.373353 
L 213.664252 103.730087 
L 210.852283 103.730087 
L 210.852283 104.459294 
L 209.446299 104.459294 
L 209.446299 104.832 
L 208.040315 104.832 
L 208.040315 105.210269 
L 206.634331 105.210269 
L 206.634331 105.594226 
L 206.634331 105.594226 
L 206.634331 105.594226 
L 206.634331 92.66688 
L 205.228346 92.66688 
L 205.228346 92.977548 
L 203.822362 92.977548 
L 203.822362 93.293268 
L 202.416378 93.293268 
L 202.416378 93.614164 
L 201.010394 93.614164 
L 201.010394 88.508746 
L 198.198425 88.508746 
L 198.198425 89.101241 
L 196.792441 89.101241 
L 196.792441 89.405217 
L 195.386457 89.405217 
L 195.386457 89.714526 
L 193.980472 89.714526 
L 193.980472 90.02931 
L 192.574488 90.02931 
L 192.574488 90.349714 
L 189.76252 90.349714 
L 189.76252 91.008 
L 188.356535 91.008 
L 188.356535 91.346202 
L 185.544567 91.346202 
L 185.544567 92.04157 
L 184.138583 92.04157 
L 184.138583 92.399094 
L 182.732598 92.399094 
L 182.732598 92.763429 
L 181.326614 92.763429 
L 181.326614 93.134769 
L 179.92063 93.134769 
L 179.92063 93.51332 
L 178.514646 93.51332 
L 178.514646 93.899294 
L 177.108661 93.899294 
L 177.108661 94.292911 
L 175.702677 94.292911 
L 175.702677 94.6944 
L 175.702677 94.6944 
L 175.702677 94.6944 
L 175.702677 92.544 
L 174.296693 92.544 
L 174.296693 92.935837 
L 172.890709 92.935837 
L 172.890709 93.335753 
L 171.484724 93.335753 
L 171.484724 93.744 
L 170.07874 93.744 
L 170.07874 94.160842 
L 168.672756 94.160842 
L 168.672756 94.586553 
L 165.860787 94.586553 
L 165.860787 95.465739 
L 165.860787 95.465739 
L 165.860787 95.465739 
L 165.860787 93.134769 
L 164.454803 93.134769 
L 164.454803 86.188138 
L 163.048819 86.188138 
L 163.048819 83.960471 
L 160.23685 83.960471 
L 160.23685 84.67894 
L 158.830866 84.67894 
L 158.830866 85.051317 
L 157.424882 85.051317 
L 157.424882 85.432889 
L 156.018898 85.432889 
L 156.018898 85.824 
L 153.206929 85.824 
L 153.206929 86.636308 
L 153.206929 86.636308 
L 153.206929 86.636308 
L 153.206929 83.766857 
L 150.394961 83.766857 
L 150.394961 84.5568 
L 147.582992 84.5568 
L 147.582992 85.390027 
L 146.177008 85.390027 
L 146.177008 85.824 
L 144.771024 85.824 
L 144.771024 86.270197 
L 143.365039 86.270197 
L 143.365039 86.729143 
L 140.553071 86.729143 
L 140.553071 84.405493 
L 139.147087 84.405493 
L 139.147087 84.864 
L 137.741102 84.864 
L 137.741102 85.336615 
L 136.335118 85.336615 
L 136.335118 85.824 
L 136.335118 85.824 
L 136.335118 85.824 
L 136.335118 82.304 
L 134.929134 82.304 
L 134.929134 82.758194 
L 133.52315 82.758194 
L 133.52315 83.227279 
L 133.52315 83.227279 
L 133.52315 83.227279 
L 133.52315 79.488 
L 132.117165 79.488 
L 132.117165 79.917559 
L 130.711181 79.917559 
L 130.711181 80.361931 
L 129.305197 80.361931 
L 129.305197 80.821895 
L 127.899213 80.821895 
L 127.899213 81.298286 
L 126.493228 81.298286 
L 126.493228 81.792 
L 123.68126 81.792 
L 123.68126 82.835321 
L 122.275276 82.835321 
L 122.275276 83.387077 
L 120.869291 83.387077 
L 120.869291 83.960471 
L 119.463307 83.960471 
L 119.463307 84.5568 
L 118.057323 84.5568 
L 118.057323 85.177469 
L 116.651339 85.177469 
L 116.651339 81.105702 
L 115.245354 81.105702 
L 115.245354 81.691826 
L 113.83937 81.691826 
L 113.83937 82.304 
L 113.83937 82.304 
L 113.83937 82.304 
L 113.83937 77.184 
L 112.433386 77.184 
L 112.433386 77.719814 
L 111.027402 77.719814 
L 111.027402 78.281143 
L 109.621417 78.281143 
L 109.621417 78.869854 
L 108.215433 78.869854 
L 108.215433 79.488 
L 108.215433 79.488 
L 108.215433 79.488 
L 108.215433 73.639385 
L 105.403465 73.639385 
L 105.403465 74.693189 
L 103.99748 74.693189 
L 103.99748 75.264 
L 102.591496 75.264 
L 102.591496 75.867429 
L 101.185512 75.867429 
L 101.185512 76.506353 
L 99.779528 76.506353 
L 99.779528 77.184 
L 98.373543 77.184 
L 98.373543 77.904 
L 96.967559 77.904 
L 96.967559 78.670452 
L 95.561575 78.670452 
L 95.561575 79.488 
L 92.749606 79.488 
L 92.749606 81.298286 
L 91.343622 81.298286 
L 91.343622 82.304 
L 89.937638 82.304 
L 89.937638 83.387077 
L 88.531654 83.387077 
L 88.531654 84.5568 
L 84.313701 84.5568 
L 84.313701 88.704 
L 82.907717 88.704 
L 82.907717 90.349714 
L 81.501732 90.349714 
L 81.501732 92.16 
L 80.095748 92.16 
L 80.095748 94.160842 
L 78.689764 94.160842 
L 78.689764 96.384 
L 77.28378 96.384 
L 77.28378 98.868706 
L 75.877795 98.868706 
L 75.877795 101.664 
L 74.471811 101.664 
L 74.471811 104.832 
L 74.471811 104.832 
L 74.471811 104.832 
L 74.471811 90.349714 
L 73.065827 90.349714 
L 73.065827 93.134769 
L 71.659843 93.134769 
L 71.659843 96.384 
L 70.253858 96.384 
L 70.253858 100.224 
L 67.44189 100.224 
L 67.44189 110.464 
L 66.035906 110.464 
L 66.035906 117.504 
L 64.629921 117.504 
L 64.629921 126.555429 
L 63.223937 126.555429 
L 63.223937 138.624 
L 61.817953 138.624 
L 61.817953 155.52 
L 61.817953 155.52 
L 61.817953 155.52 
L 61.817953 117.504 
L 60.411969 117.504 
L 60.411969 138.624 
L 60.411969 138.624 
L 60.411969 138.624 
L 60.411969 54.144 
L 57.6 54.144 
L 57.6 54.144 
" style="fill:none;stroke:#0000ff;stroke-linecap:square;stroke-width:1.5;"/>
   </g>
   <g id="line2d_16">
    <path clip-path="url(#p15f571db19)" d="M 414.72 114.848192 
L 413.314016 114.848192 
L 413.314016 115.030486 
L 410.502047 115.030486 
L 410.502047 113.047486 
L 409.096063 113.047486 
L 409.096063 113.228172 
L 409.096063 113.228172 
L 409.096063 113.228172 
L 409.096063 112.028444 
L 407.690079 112.028444 
L 407.690079 112.207653 
L 403.472126 112.207653 
L 403.472126 112.752 
L 402.066142 112.752 
L 402.066142 112.323623 
L 399.254173 112.323623 
L 399.254173 112.691848 
L 399.254173 112.691848 
L 399.254173 112.691848 
L 399.254173 111.450497 
L 397.848189 111.450497 
L 397.848189 109.09701 
L 396.442205 109.09701 
L 396.442205 108.629472 
L 395.03622 108.629472 
L 395.03622 108.807529 
L 392.224252 108.807529 
L 392.224252 107.853139 
L 390.818268 107.853139 
L 390.818268 105.344 
L 389.412283 105.344 
L 389.412283 105.516973 
L 389.412283 105.516973 
L 389.412283 105.516973 
L 389.412283 104.142367 
L 388.006299 104.142367 
L 388.006299 102.915959 
L 386.600315 102.915959 
L 386.600315 103.084138 
L 385.194331 103.084138 
L 385.194331 103.253481 
L 385.194331 103.253481 
L 385.194331 103.253481 
L 385.194331 102.544 
L 383.788346 102.544 
L 383.788346 100.548507 
L 382.382362 100.548507 
L 382.382362 96.99177 
L 379.570394 96.99177 
L 379.570394 97.302261 
L 378.164409 97.302261 
L 378.164409 97.4592 
L 376.758425 97.4592 
L 376.758425 96.073412 
L 375.352441 96.073412 
L 375.352441 96.228133 
L 373.946457 96.228133 
L 373.946457 96.384 
L 372.540472 96.384 
L 372.540472 96.541026 
L 371.134488 96.541026 
L 371.134488 95.113624 
L 369.728504 95.113624 
L 369.728504 95.268226 
L 369.728504 95.268226 
L 369.728504 95.268226 
L 369.728504 94.464 
L 368.32252 94.464 
L 368.32252 94.617308 
L 368.32252 94.617308 
L 368.32252 94.617308 
L 368.32252 92.985379 
L 366.916535 92.985379 
L 366.916535 93.134769 
L 365.510551 93.134769 
L 365.510551 93.285313 
L 364.104567 93.285313 
L 364.104567 93.437023 
L 362.698583 93.437023 
L 362.698583 91.062425 
L 361.292598 91.062425 
L 361.292598 90.349714 
L 359.886614 90.349714 
L 359.886614 90.49396 
L 359.886614 90.49396 
L 359.886614 90.49396 
L 359.886614 88.750265 
L 358.48063 88.750265 
L 358.48063 88.889806 
L 358.48063 88.889806 
L 358.48063 88.889806 
L 358.48063 88.004405 
L 357.074646 88.004405 
L 357.074646 87.246367 
L 355.668661 87.246367 
L 355.668661 86.475852 
L 352.856693 86.475852 
L 352.856693 86.744166 
L 352.856693 86.744166 
L 352.856693 86.744166 
L 352.856693 84.896134 
L 351.450709 84.896134 
L 351.450709 84.086278 
L 350.044724 84.086278 
L 350.044724 84.213153 
L 348.63874 84.213153 
L 348.63874 82.424858 
L 347.232756 82.424858 
L 347.232756 82.546759 
L 347.232756 82.546759 
L 347.232756 82.546759 
L 347.232756 80.589913 
L 345.826772 80.589913 
L 345.826772 80.705397 
L 345.826772 80.705397 
L 345.826772 80.705397 
L 345.826772 79.710316 
L 344.420787 79.710316 
L 344.420787 79.822943 
L 343.014803 79.822943 
L 343.014803 79.936566 
L 341.608819 79.936566 
L 341.608819 80.0512 
L 340.202835 80.0512 
L 340.202835 80.166857 
L 338.79685 80.166857 
L 338.79685 80.283552 
L 335.984882 80.283552 
L 335.984882 79.488 
L 334.578898 79.488 
L 334.578898 78.557945 
L 333.172913 78.557945 
L 333.172913 78.670452 
L 331.766929 78.670452 
L 331.766929 78.784 
L 330.360945 78.784 
L 330.360945 78.898605 
L 328.954961 78.898605 
L 328.954961 79.01428 
L 326.142992 79.01428 
L 326.142992 79.248906 
L 323.331024 79.248906 
L 323.331024 79.488 
L 319.113071 79.488 
L 319.113071 79.855304 
L 317.707087 79.855304 
L 317.707087 79.980117 
L 316.301102 79.980117 
L 316.301102 80.106146 
L 314.895118 80.106146 
L 314.895118 80.233412 
L 314.895118 80.233412 
L 314.895118 80.233412 
L 314.895118 79.113458 
L 313.489134 79.113458 
L 313.489134 79.237069 
L 312.08315 79.237069 
L 312.08315 79.36191 
L 312.08315 79.36191 
L 312.08315 79.36191 
L 312.08315 78.2208 
L 310.677165 78.2208 
L 310.677165 78.341789 
L 309.271181 78.341789 
L 309.271181 77.300954 
L 305.053228 77.300954 
L 305.053228 77.659052 
L 303.647244 77.659052 
L 303.647244 77.780891 
L 302.24126 77.780891 
L 302.24126 77.904 
L 300.835276 77.904 
L 300.835276 78.028398 
L 299.429291 78.028398 
L 299.429291 78.154105 
L 299.429291 78.154105 
L 299.429291 78.154105 
L 299.429291 75.713362 
L 298.023307 75.713362 
L 298.023307 75.828706 
L 298.023307 75.828706 
L 298.023307 75.828706 
L 298.023307 74.58271 
L 295.211339 74.693189 
L 295.211339 74.80487 
L 292.39937 74.80487 
L 292.39937 75.031912 
L 290.993386 75.031912 
L 290.993386 75.147315 
L 290.993386 75.147315 
L 290.993386 75.147315 
L 290.993386 71.229843 
L 288.181417 71.326373 
L 288.181417 71.424 
L 285.369449 71.522743 
L 285.369449 71.622621 
L 281.151496 71.723653 
L 281.151496 71.929263 
L 276.933543 72.033882 
L 276.933543 72.246857 
L 274.121575 72.355257 
L 274.121575 72.464964 
L 271.309606 72.576 
L 271.309606 72.68839 
L 269.903622 72.68839 
L 269.903622 72.80216 
L 268.497638 72.80216 
L 268.497638 72.917333 
L 267.091654 72.917333 
L 267.091654 73.033938 
L 267.091654 73.033938 
L 267.091654 73.033938 
L 267.091654 71.568 
L 265.685669 71.568 
L 265.685669 71.677585 
L 265.685669 70.184506 
L 262.873701 70.286675 
L 262.873701 70.390154 
L 258.655748 70.494968 
L 258.655748 70.708706 
L 255.84378 70.817684 
L 255.84378 70.928106 
L 253.031811 70.928106 
L 253.031811 69.555892 
L 250.219843 69.660735 
L 250.219843 69.767014 
L 247.407874 69.767014 
L 247.407874 69.984 
L 247.407874 69.984 
L 247.407874 69.984 
L 247.407874 66.637521 
L 244.595906 66.726128 
L 244.595906 66.816 
L 241.783937 66.907165 
L 241.783937 66.999652 
L 238.971969 67.093489 
L 238.971969 67.188706 
L 236.16 67.285333 
L 236.16 67.383403 
L 231.942047 67.482947 
L 231.942047 67.686595 
L 227.724094 67.790769 
L 227.724094 68.004 
L 223.506142 68.113134 
L 223.506142 68.33664 
L 222.100157 68.33664 
L 222.100157 68.451097 
L 220.694173 68.451097 
L 220.694173 68.567415 
L 215.070236 68.567415 
L 215.070236 69.052235 
L 212.258268 69.052235 
L 212.258268 69.307077 
L 210.852283 69.307077 
L 210.852283 69.437793 
L 209.446299 69.437793 
L 209.446299 69.570783 
L 208.040315 69.570783 
L 208.040315 69.706105 
L 206.634331 69.706105 
L 206.634331 69.843823 
L 205.228346 69.843823 
L 205.228346 69.984 
L 203.822362 69.984 
L 203.822362 70.126703 
L 202.416378 70.126703 
L 202.416378 70.272 
L 201.010394 70.272 
L 201.010394 70.419963 
L 199.604409 70.419963 
L 199.604409 70.570667 
L 196.792441 70.570667 
L 196.792441 70.880604 
L 195.386457 70.880604 
L 195.386457 71.04 
L 193.980472 71.04 
L 193.980472 71.202462 
L 191.168504 71.202462 
L 191.168504 71.536941 
L 189.76252 71.536941 
L 189.76252 71.709149 
L 188.356535 71.709149 
L 188.356535 69.504 
L 186.950551 69.504 
L 186.950551 69.660735 
L 185.544567 69.660735 
L 185.544567 69.820701 
L 182.732598 69.820701 
L 182.732598 70.150737 
L 181.326614 70.150737 
L 181.326614 70.321021 
L 179.92063 70.321021 
L 179.92063 70.494968 
L 178.514646 70.494968 
L 178.514646 70.672696 
L 177.108661 70.672696 
L 177.108661 70.85433 
L 175.702677 70.85433 
L 175.702677 71.04 
L 174.296693 71.04 
L 174.296693 71.229843 
L 172.890709 71.229843 
L 172.890709 71.424 
L 171.484724 71.424 
L 171.484724 71.622621 
L 168.672756 71.622621 
L 168.672756 72.033882 
L 167.266772 72.033882 
L 167.266772 72.246857 
L 165.860787 72.246857 
L 165.860787 72.464964 
L 164.454803 72.464964 
L 164.454803 72.68839 
L 160.23685 72.68839 
L 160.23685 73.392608 
L 160.23685 73.392608 
L 160.23685 73.392608 
L 160.23685 70.390154 
L 158.830866 70.390154 
L 158.830866 70.601143 
L 158.830866 70.601143 
L 158.830866 70.601143 
L 158.830866 67.482947 
L 157.424882 67.482947 
L 157.424882 67.6608 
L 157.424882 67.6608 
L 157.424882 67.6608 
L 157.424882 64.418595 
L 156.018898 64.418595 
L 156.018898 64.559342 
L 153.206929 64.559342 
L 153.206929 64.852732 
L 148.988976 64.852732 
L 148.988976 65.325176 
L 147.582992 65.325176 
L 147.582992 65.49206 
L 146.177008 65.49206 
L 146.177008 65.664 
L 144.771024 65.664 
L 144.771024 65.841231 
L 143.365039 65.841231 
L 143.365039 66.024 
L 141.959055 66.024 
L 141.959055 66.212571 
L 139.147087 66.212571 
L 139.147087 66.608262 
L 137.741102 66.608262 
L 137.741102 66.816 
L 136.335118 66.816 
L 136.335118 67.03078 
L 134.929134 67.03078 
L 134.929134 67.252966 
L 134.929134 67.252966 
L 134.929134 67.252966 
L 134.929134 63.036632 
L 130.711181 63.036632 
L 130.711181 63.530667 
L 129.305197 63.530667 
L 129.305197 63.707774 
L 127.899213 63.707774 
L 127.899213 63.891692 
L 126.493228 63.891692 
L 126.493228 64.082824 
L 122.275276 64.082824 
L 122.275276 64.704 
L 120.869291 64.704 
L 120.869291 64.928681 
L 119.463307 64.928681 
L 119.463307 65.16313 
L 118.057323 65.16313 
L 118.057323 65.408 
L 116.651339 65.408 
L 116.651339 65.664 
L 115.245354 65.664 
L 115.245354 65.931907 
L 113.83937 65.931907 
L 113.83937 66.212571 
L 112.433386 66.212571 
L 112.433386 66.506927 
L 111.027402 66.506927 
L 111.027402 66.816 
L 109.621417 66.816 
L 109.621417 67.140923 
L 108.215433 67.140923 
L 108.215433 67.482947 
L 106.809449 67.482947 
L 106.809449 67.843459 
L 103.99748 67.843459 
L 103.99748 68.626286 
L 103.99748 68.626286 
L 103.99748 68.626286 
L 103.99748 61.598118 
L 102.591496 61.598118 
L 102.591496 61.824 
L 101.185512 61.824 
L 101.185512 62.064 
L 99.779528 62.064 
L 99.779528 62.319484 
L 98.373543 62.319484 
L 98.373543 62.592 
L 96.967559 62.592 
L 96.967559 62.88331 
L 94.155591 62.88331 
L 94.155591 63.530667 
L 92.749606 63.530667 
L 92.749606 63.891692 
L 89.937638 63.891692 
L 89.937638 64.704 
L 88.531654 64.704 
L 88.531654 65.16313 
L 87.125669 65.16313 
L 87.125669 65.664 
L 85.719685 65.664 
L 85.719685 66.212571 
L 84.313701 66.212571 
L 84.313701 66.816 
L 82.907717 66.816 
L 82.907717 67.482947 
L 81.501732 67.482947 
L 81.501732 68.224 
L 80.095748 68.224 
L 80.095748 69.052235 
L 78.689764 69.052235 
L 78.689764 69.984 
L 77.28378 69.984 
L 77.28378 71.04 
L 75.877795 71.04 
L 75.877795 72.246857 
L 74.471811 72.246857 
L 74.471811 73.639385 
L 73.065827 73.639385 
L 73.065827 75.264 
L 73.065827 75.264 
L 73.065827 75.264 
L 73.065827 54.144 
L 57.6 54.144 
L 57.6 54.144 
" style="fill:none;stroke:#000000;stroke-linecap:square;stroke-width:1.5;"/>
   </g>
   <g id="patch_3">
    <path d="M 57.6 307.584 
L 57.6 41.472 
" style="fill:none;stroke:#000000;stroke-linecap:square;stroke-linejoin:miter;stroke-width:0.8;"/>
   </g>
   <g id="patch_4">
    <path d="M 414.72 307.584 
L 414.72 41.472 
" style="fill:none;stroke:#000000;stroke-linecap:square;stroke-linejoin:miter;stroke-width:0.8;"/>
   </g>
   <g id="patch_5">
    <path d="M 57.6 307.584 
L 414.72 307.584 
" style="fill:none;stroke:#000000;stroke-linecap:square;stroke-linejoin:miter;stroke-width:0.8;"/>
   </g>
   <g id="patch_6">
    <path d="M 57.6 41.472 
L 414.72 41.472 
" style="fill:none;stroke:#000000;stroke-linecap:square;stroke-linejoin:miter;stroke-width:0.8;"/>
   </g>
   <g id="legend_1">
    <g id="patch_7">
     <path d="M 64.6 302.584 
L 199.692188 302.584 
Q 201.692188 302.584 201.692188 300.584 
L 201.692188 242.8715 
Q 201.692188 240.8715 199.692188 240.8715 
L 64.6 240.8715 
Q 62.6 240.8715 62.6 242.8715 
L 62.6 300.584 
Q 62.6 302.584 64.6 302.584 
z
" style="fill:#ffffff;opacity:0.8;stroke:#cccccc;stroke-linejoin:miter;"/>
    </g>
    <g id="line2d_17">
     <path d="M 66.6 248.969937 
L 86.6 248.969937 
" style="fill:none;stroke:#ff0000;stroke-linecap:square;stroke-width:1.5;"/>
    </g>
    <g id="line2d_18"/>
    <g id="text_13">
     <!-- MLPClassifier -->
     <defs>
      <path d="M 9.8125 72.90625 
L 24.515625 72.90625 
L 43.109375 23.296875 
L 61.8125 72.90625 
L 76.515625 72.90625 
L 76.515625 0 
L 66.890625 0 
L 66.890625 64.015625 
L 48.09375 14.015625 
L 38.1875 14.015625 
L 19.390625 64.015625 
L 19.390625 0 
L 9.8125 0 
z
" id="DejaVuSans-4d"/>
      <path d="M 9.8125 72.90625 
L 19.671875 72.90625 
L 19.671875 8.296875 
L 55.171875 8.296875 
L 55.171875 0 
L 9.8125 0 
z
" id="DejaVuSans-4c"/>
      <path d="M 19.671875 64.796875 
L 19.671875 37.40625 
L 32.078125 37.40625 
Q 38.96875 37.40625 42.71875 40.96875 
Q 46.484375 44.53125 46.484375 51.125 
Q 46.484375 57.671875 42.71875 61.234375 
Q 38.96875 64.796875 32.078125 64.796875 
z
M 9.8125 72.90625 
L 32.078125 72.90625 
Q 44.34375 72.90625 50.609375 67.359375 
Q 56.890625 61.8125 56.890625 51.125 
Q 56.890625 40.328125 50.609375 34.8125 
Q 44.34375 29.296875 32.078125 29.296875 
L 19.671875 29.296875 
L 19.671875 0 
L 9.8125 0 
z
" id="DejaVuSans-50"/>
      <path d="M 64.40625 67.28125 
L 64.40625 56.890625 
Q 59.421875 61.53125 53.78125 63.8125 
Q 48.140625 66.109375 41.796875 66.109375 
Q 29.296875 66.109375 22.65625 58.46875 
Q 16.015625 50.828125 16.015625 36.375 
Q 16.015625 21.96875 22.65625 14.328125 
Q 29.296875 6.6875 41.796875 6.6875 
Q 48.140625 6.6875 53.78125 8.984375 
Q 59.421875 11.28125 64.40625 15.921875 
L 64.40625 5.609375 
Q 59.234375 2.09375 53.4375 0.328125 
Q 47.65625 -1.421875 41.21875 -1.421875 
Q 24.65625 -1.421875 15.125 8.703125 
Q 5.609375 18.84375 5.609375 36.375 
Q 5.609375 53.953125 15.125 64.078125 
Q 24.65625 74.21875 41.21875 74.21875 
Q 47.75 74.21875 53.53125 72.484375 
Q 59.328125 70.75 64.40625 67.28125 
" id="DejaVuSans-43"/>
      <path d="M 9.421875 75.984375 
L 18.40625 75.984375 
L 18.40625 0 
L 9.421875 0 
z
" id="DejaVuSans-6c"/>
      <path d="M 34.28125 27.484375 
Q 23.390625 27.484375 19.1875 25 
Q 14.984375 22.515625 14.984375 16.5 
Q 14.984375 11.71875 18.140625 8.90625 
Q 21.296875 6.109375 26.703125 6.109375 
Q 34.1875 6.109375 38.703125 11.40625 
Q 43.21875 16.703125 43.21875 25.484375 
L 43.21875 27.484375 
z
M 52.203125 31.203125 
L 52.203125 0 
L 43.21875 0 
L 43.21875 8.296875 
Q 40.140625 3.328125 35.546875 0.953125 
Q 30.953125 -1.421875 24.3125 -1.421875 
Q 15.921875 -1.421875 10.953125 3.296875 
Q 6 8.015625 6 15.921875 
Q 6 25.140625 12.171875 29.828125 
Q 18.359375 34.515625 30.609375 34.515625 
L 43.21875 34.515625 
L 43.21875 35.40625 
Q 43.21875 41.609375 39.140625 45 
Q 35.0625 48.390625 27.6875 48.390625 
Q 23 48.390625 18.546875 47.265625 
Q 14.109375 46.140625 10.015625 43.890625 
L 10.015625 52.203125 
Q 14.9375 54.109375 19.578125 55.046875 
Q 24.21875 56 28.609375 56 
Q 40.484375 56 46.34375 49.84375 
Q 52.203125 43.703125 52.203125 31.203125 
" id="DejaVuSans-61"/>
      <path d="M 44.28125 53.078125 
L 44.28125 44.578125 
Q 40.484375 46.53125 36.375 47.5 
Q 32.28125 48.484375 27.875 48.484375 
Q 21.1875 48.484375 17.84375 46.4375 
Q 14.5 44.390625 14.5 40.28125 
Q 14.5 37.15625 16.890625 35.375 
Q 19.28125 33.59375 26.515625 31.984375 
L 29.59375 31.296875 
Q 39.15625 29.25 43.1875 25.515625 
Q 47.21875 21.78125 47.21875 15.09375 
Q 47.21875 7.46875 41.1875 3.015625 
Q 35.15625 -1.421875 24.609375 -1.421875 
Q 20.21875 -1.421875 15.453125 -0.5625 
Q 10.6875 0.296875 5.421875 2 
L 5.421875 11.28125 
Q 10.40625 8.6875 15.234375 7.390625 
Q 20.0625 6.109375 24.8125 6.109375 
Q 31.15625 6.109375 34.5625 8.28125 
Q 37.984375 10.453125 37.984375 14.40625 
Q 37.984375 18.0625 35.515625 20.015625 
Q 33.0625 21.96875 24.703125 23.78125 
L 21.578125 24.515625 
Q 13.234375 26.265625 9.515625 29.90625 
Q 5.8125 33.546875 5.8125 39.890625 
Q 5.8125 47.609375 11.28125 51.796875 
Q 16.75 56 26.8125 56 
Q 31.78125 56 36.171875 55.265625 
Q 40.578125 54.546875 44.28125 53.078125 
" id="DejaVuSans-73"/>
      <path d="M 9.421875 54.6875 
L 18.40625 54.6875 
L 18.40625 0 
L 9.421875 0 
z
M 9.421875 75.984375 
L 18.40625 75.984375 
L 18.40625 64.59375 
L 9.421875 64.59375 
z
" id="DejaVuSans-69"/>
      <path d="M 37.109375 75.984375 
L 37.109375 68.5 
L 28.515625 68.5 
Q 23.6875 68.5 21.796875 66.546875 
Q 19.921875 64.59375 19.921875 59.515625 
L 19.921875 54.6875 
L 34.71875 54.6875 
L 34.71875 47.703125 
L 19.921875 47.703125 
L 19.921875 0 
L 10.890625 0 
L 10.890625 47.703125 
L 2.296875 47.703125 
L 2.296875 54.6875 
L 10.890625 54.6875 
L 10.890625 58.5 
Q 10.890625 67.625 15.140625 71.796875 
Q 19.390625 75.984375 28.609375 75.984375 
z
" id="DejaVuSans-66"/>
      <path d="M 56.203125 29.59375 
L 56.203125 25.203125 
L 14.890625 25.203125 
Q 15.484375 15.921875 20.484375 11.0625 
Q 25.484375 6.203125 34.421875 6.203125 
Q 39.59375 6.203125 44.453125 7.46875 
Q 49.3125 8.734375 54.109375 11.28125 
L 54.109375 2.78125 
Q 49.265625 0.734375 44.1875 -0.34375 
Q 39.109375 -1.421875 33.890625 -1.421875 
Q 20.796875 -1.421875 13.15625 6.1875 
Q 5.515625 13.8125 5.515625 26.8125 
Q 5.515625 40.234375 12.765625 48.109375 
Q 20.015625 56 32.328125 56 
Q 43.359375 56 49.78125 48.890625 
Q 56.203125 41.796875 56.203125 29.59375 
M 47.21875 32.234375 
Q 47.125 39.59375 43.09375 43.984375 
Q 39.0625 48.390625 32.421875 48.390625 
Q 24.90625 48.390625 20.390625 44.140625 
Q 15.875 39.890625 15.1875 32.171875 
z
" id="DejaVuSans-65"/>
      <path d="M 41.109375 46.296875 
Q 39.59375 47.171875 37.8125 47.578125 
Q 36.03125 48 33.890625 48 
Q 26.265625 48 22.1875 43.046875 
Q 18.109375 38.09375 18.109375 28.8125 
L 18.109375 0 
L 9.078125 0 
L 9.078125 54.6875 
L 18.109375 54.6875 
L 18.109375 46.1875 
Q 20.953125 51.171875 25.484375 53.578125 
Q 30.03125 56 36.53125 56 
Q 37.453125 56 38.578125 55.875 
Q 39.703125 55.765625 41.0625 55.515625 
z
" id="DejaVuSans-72"/>
     </defs>
     <g transform="translate(94.6 252.469937)scale(0.1 -0.1)">
      <use xlink:href="#DejaVuSans-4d"/>
      <use x="86.279297" xlink:href="#DejaVuSans-4c"/>
      <use x="141.992188" xlink:href="#DejaVuSans-50"/>
      <use x="202.294922" xlink:href="#DejaVuSans-43"/>
      <use x="272.119141" xlink:href="#DejaVuSans-6c"/>
      <use x="299.902344" xlink:href="#DejaVuSans-61"/>
      <use x="361.181641" xlink:href="#DejaVuSans-73"/>
      <use x="413.28125" xlink:href="#DejaVuSans-73"/>
      <use x="465.380859" xlink:href="#DejaVuSans-69"/>
      <use x="493.164062" xlink:href="#DejaVuSans-66"/>
      <use x="528.369141" xlink:href="#DejaVuSans-69"/>
      <use x="556.152344" xlink:href="#DejaVuSans-65"/>
      <use x="617.675781" xlink:href="#DejaVuSans-72"/>
     </g>
    </g>
    <g id="line2d_19">
     <path d="M 66.6 263.648062 
L 86.6 263.648062 
" style="fill:none;stroke:#008000;stroke-linecap:square;stroke-width:1.5;"/>
    </g>
    <g id="line2d_20"/>
    <g id="text_14">
     <!-- KNeighborsClassifier -->
     <defs>
      <path d="M 9.8125 72.90625 
L 19.671875 72.90625 
L 19.671875 42.09375 
L 52.390625 72.90625 
L 65.09375 72.90625 
L 28.90625 38.921875 
L 67.671875 0 
L 54.6875 0 
L 19.671875 35.109375 
L 19.671875 0 
L 9.8125 0 
z
" id="DejaVuSans-4b"/>
      <path d="M 9.8125 72.90625 
L 23.09375 72.90625 
L 55.421875 11.921875 
L 55.421875 72.90625 
L 64.984375 72.90625 
L 64.984375 0 
L 51.703125 0 
L 19.390625 60.984375 
L 19.390625 0 
L 9.8125 0 
z
" id="DejaVuSans-4e"/>
      <path d="M 45.40625 27.984375 
Q 45.40625 37.75 41.375 43.109375 
Q 37.359375 48.484375 30.078125 48.484375 
Q 22.859375 48.484375 18.828125 43.109375 
Q 14.796875 37.75 14.796875 27.984375 
Q 14.796875 18.265625 18.828125 12.890625 
Q 22.859375 7.515625 30.078125 7.515625 
Q 37.359375 7.515625 41.375 12.890625 
Q 45.40625 18.265625 45.40625 27.984375 
M 54.390625 6.78125 
Q 54.390625 -7.171875 48.1875 -13.984375 
Q 42 -20.796875 29.203125 -20.796875 
Q 24.46875 -20.796875 20.265625 -20.09375 
Q 16.0625 -19.390625 12.109375 -17.921875 
L 12.109375 -9.1875 
Q 16.0625 -11.328125 19.921875 -12.34375 
Q 23.78125 -13.375 27.78125 -13.375 
Q 36.625 -13.375 41.015625 -8.765625 
Q 45.40625 -4.15625 45.40625 5.171875 
L 45.40625 9.625 
Q 42.625 4.78125 38.28125 2.390625 
Q 33.9375 0 27.875 0 
Q 17.828125 0 11.671875 7.65625 
Q 5.515625 15.328125 5.515625 27.984375 
Q 5.515625 40.671875 11.671875 48.328125 
Q 17.828125 56 27.875 56 
Q 33.9375 56 38.28125 53.609375 
Q 42.625 51.21875 45.40625 46.390625 
L 45.40625 54.6875 
L 54.390625 54.6875 
z
" id="DejaVuSans-67"/>
      <path d="M 54.890625 33.015625 
L 54.890625 0 
L 45.90625 0 
L 45.90625 32.71875 
Q 45.90625 40.484375 42.875 44.328125 
Q 39.84375 48.1875 33.796875 48.1875 
Q 26.515625 48.1875 22.3125 43.546875 
Q 18.109375 38.921875 18.109375 30.90625 
L 18.109375 0 
L 9.078125 0 
L 9.078125 75.984375 
L 18.109375 75.984375 
L 18.109375 46.1875 
Q 21.34375 51.125 25.703125 53.5625 
Q 30.078125 56 35.796875 56 
Q 45.21875 56 50.046875 50.171875 
Q 54.890625 44.34375 54.890625 33.015625 
" id="DejaVuSans-68"/>
      <path d="M 48.6875 27.296875 
Q 48.6875 37.203125 44.609375 42.84375 
Q 40.53125 48.484375 33.40625 48.484375 
Q 26.265625 48.484375 22.1875 42.84375 
Q 18.109375 37.203125 18.109375 27.296875 
Q 18.109375 17.390625 22.1875 11.75 
Q 26.265625 6.109375 33.40625 6.109375 
Q 40.53125 6.109375 44.609375 11.75 
Q 48.6875 17.390625 48.6875 27.296875 
M 18.109375 46.390625 
Q 20.953125 51.265625 25.265625 53.625 
Q 29.59375 56 35.59375 56 
Q 45.5625 56 51.78125 48.09375 
Q 58.015625 40.1875 58.015625 27.296875 
Q 58.015625 14.40625 51.78125 6.484375 
Q 45.5625 -1.421875 35.59375 -1.421875 
Q 29.59375 -1.421875 25.265625 0.953125 
Q 20.953125 3.328125 18.109375 8.203125 
L 18.109375 0 
L 9.078125 0 
L 9.078125 75.984375 
L 18.109375 75.984375 
z
" id="DejaVuSans-62"/>
      <path d="M 30.609375 48.390625 
Q 23.390625 48.390625 19.1875 42.75 
Q 14.984375 37.109375 14.984375 27.296875 
Q 14.984375 17.484375 19.15625 11.84375 
Q 23.34375 6.203125 30.609375 6.203125 
Q 37.796875 6.203125 41.984375 11.859375 
Q 46.1875 17.53125 46.1875 27.296875 
Q 46.1875 37.015625 41.984375 42.703125 
Q 37.796875 48.390625 30.609375 48.390625 
M 30.609375 56 
Q 42.328125 56 49.015625 48.375 
Q 55.71875 40.765625 55.71875 27.296875 
Q 55.71875 13.875 49.015625 6.21875 
Q 42.328125 -1.421875 30.609375 -1.421875 
Q 18.84375 -1.421875 12.171875 6.21875 
Q 5.515625 13.875 5.515625 27.296875 
Q 5.515625 40.765625 12.171875 48.375 
Q 18.84375 56 30.609375 56 
" id="DejaVuSans-6f"/>
     </defs>
     <g transform="translate(94.6 267.148062)scale(0.1 -0.1)">
      <use xlink:href="#DejaVuSans-4b"/>
      <use x="65.576172" xlink:href="#DejaVuSans-4e"/>
      <use x="140.380859" xlink:href="#DejaVuSans-65"/>
      <use x="201.904297" xlink:href="#DejaVuSans-69"/>
      <use x="229.6875" xlink:href="#DejaVuSans-67"/>
      <use x="293.164062" xlink:href="#DejaVuSans-68"/>
      <use x="356.542969" xlink:href="#DejaVuSans-62"/>
      <use x="420.019531" xlink:href="#DejaVuSans-6f"/>
      <use x="481.201172" xlink:href="#DejaVuSans-72"/>
      <use x="522.314453" xlink:href="#DejaVuSans-73"/>
      <use x="574.414062" xlink:href="#DejaVuSans-43"/>
      <use x="644.238281" xlink:href="#DejaVuSans-6c"/>
      <use x="672.021484" xlink:href="#DejaVuSans-61"/>
      <use x="733.300781" xlink:href="#DejaVuSans-73"/>
      <use x="785.400391" xlink:href="#DejaVuSans-73"/>
      <use x="837.5" xlink:href="#DejaVuSans-69"/>
      <use x="865.283203" xlink:href="#DejaVuSans-66"/>
      <use x="900.488281" xlink:href="#DejaVuSans-69"/>
      <use x="928.271484" xlink:href="#DejaVuSans-65"/>
      <use x="989.794922" xlink:href="#DejaVuSans-72"/>
     </g>
    </g>
    <g id="line2d_21">
     <path d="M 66.6 278.326187 
L 86.6 278.326187 
" style="fill:none;stroke:#0000ff;stroke-linecap:square;stroke-width:1.5;"/>
    </g>
    <g id="line2d_22"/>
    <g id="text_15">
     <!-- LogisticRegression -->
     <defs>
      <path d="M 18.3125 70.21875 
L 18.3125 54.6875 
L 36.8125 54.6875 
L 36.8125 47.703125 
L 18.3125 47.703125 
L 18.3125 18.015625 
Q 18.3125 11.328125 20.140625 9.421875 
Q 21.96875 7.515625 27.59375 7.515625 
L 36.8125 7.515625 
L 36.8125 0 
L 27.59375 0 
Q 17.1875 0 13.234375 3.875 
Q 9.28125 7.765625 9.28125 18.015625 
L 9.28125 47.703125 
L 2.6875 47.703125 
L 2.6875 54.6875 
L 9.28125 54.6875 
L 9.28125 70.21875 
z
" id="DejaVuSans-74"/>
      <path d="M 48.78125 52.59375 
L 48.78125 44.1875 
Q 44.96875 46.296875 41.140625 47.34375 
Q 37.3125 48.390625 33.40625 48.390625 
Q 24.65625 48.390625 19.8125 42.84375 
Q 14.984375 37.3125 14.984375 27.296875 
Q 14.984375 17.28125 19.8125 11.734375 
Q 24.65625 6.203125 33.40625 6.203125 
Q 37.3125 6.203125 41.140625 7.25 
Q 44.96875 8.296875 48.78125 10.40625 
L 48.78125 2.09375 
Q 45.015625 0.34375 40.984375 -0.53125 
Q 36.96875 -1.421875 32.421875 -1.421875 
Q 20.0625 -1.421875 12.78125 6.34375 
Q 5.515625 14.109375 5.515625 27.296875 
Q 5.515625 40.671875 12.859375 48.328125 
Q 20.21875 56 33.015625 56 
Q 37.15625 56 41.109375 55.140625 
Q 45.0625 54.296875 48.78125 52.59375 
" id="DejaVuSans-63"/>
      <path d="M 44.390625 34.1875 
Q 47.5625 33.109375 50.5625 29.59375 
Q 53.5625 26.078125 56.59375 19.921875 
L 66.609375 0 
L 56 0 
L 46.6875 18.703125 
Q 43.0625 26.03125 39.671875 28.421875 
Q 36.28125 30.8125 30.421875 30.8125 
L 19.671875 30.8125 
L 19.671875 0 
L 9.8125 0 
L 9.8125 72.90625 
L 32.078125 72.90625 
Q 44.578125 72.90625 50.734375 67.671875 
Q 56.890625 62.453125 56.890625 51.90625 
Q 56.890625 45.015625 53.6875 40.46875 
Q 50.484375 35.9375 44.390625 34.1875 
M 19.671875 64.796875 
L 19.671875 38.921875 
L 32.078125 38.921875 
Q 39.203125 38.921875 42.84375 42.21875 
Q 46.484375 45.515625 46.484375 51.90625 
Q 46.484375 58.296875 42.84375 61.546875 
Q 39.203125 64.796875 32.078125 64.796875 
z
" id="DejaVuSans-52"/>
      <path d="M 54.890625 33.015625 
L 54.890625 0 
L 45.90625 0 
L 45.90625 32.71875 
Q 45.90625 40.484375 42.875 44.328125 
Q 39.84375 48.1875 33.796875 48.1875 
Q 26.515625 48.1875 22.3125 43.546875 
Q 18.109375 38.921875 18.109375 30.90625 
L 18.109375 0 
L 9.078125 0 
L 9.078125 54.6875 
L 18.109375 54.6875 
L 18.109375 46.1875 
Q 21.34375 51.125 25.703125 53.5625 
Q 30.078125 56 35.796875 56 
Q 45.21875 56 50.046875 50.171875 
Q 54.890625 44.34375 54.890625 33.015625 
" id="DejaVuSans-6e"/>
     </defs>
     <g transform="translate(94.6 281.826187)scale(0.1 -0.1)">
      <use xlink:href="#DejaVuSans-4c"/>
      <use x="55.697266" xlink:href="#DejaVuSans-6f"/>
      <use x="116.878906" xlink:href="#DejaVuSans-67"/>
      <use x="180.355469" xlink:href="#DejaVuSans-69"/>
      <use x="208.138672" xlink:href="#DejaVuSans-73"/>
      <use x="260.238281" xlink:href="#DejaVuSans-74"/>
      <use x="299.447266" xlink:href="#DejaVuSans-69"/>
      <use x="327.230469" xlink:href="#DejaVuSans-63"/>
      <use x="382.210938" xlink:href="#DejaVuSans-52"/>
      <use x="451.630859" xlink:href="#DejaVuSans-65"/>
      <use x="513.154297" xlink:href="#DejaVuSans-67"/>
      <use x="576.630859" xlink:href="#DejaVuSans-72"/>
      <use x="617.712891" xlink:href="#DejaVuSans-65"/>
      <use x="679.236328" xlink:href="#DejaVuSans-73"/>
      <use x="731.335938" xlink:href="#DejaVuSans-73"/>
      <use x="783.435547" xlink:href="#DejaVuSans-69"/>
      <use x="811.21875" xlink:href="#DejaVuSans-6f"/>
      <use x="872.400391" xlink:href="#DejaVuSans-6e"/>
     </g>
    </g>
    <g id="line2d_23">
     <path d="M 66.6 293.004312 
L 86.6 293.004312 
" style="fill:none;stroke:#000000;stroke-linecap:square;stroke-width:1.5;"/>
    </g>
    <g id="line2d_24"/>
    <g id="text_16">
     <!-- XGBClassifier -->
     <defs>
      <path d="M 6.296875 72.90625 
L 16.890625 72.90625 
L 35.015625 45.796875 
L 53.21875 72.90625 
L 63.8125 72.90625 
L 40.375 37.890625 
L 65.375 0 
L 54.78125 0 
L 34.28125 31 
L 13.625 0 
L 2.984375 0 
L 29 38.921875 
z
" id="DejaVuSans-58"/>
      <path d="M 59.515625 10.40625 
L 59.515625 29.984375 
L 43.40625 29.984375 
L 43.40625 38.09375 
L 69.28125 38.09375 
L 69.28125 6.78125 
Q 63.578125 2.734375 56.6875 0.65625 
Q 49.8125 -1.421875 42 -1.421875 
Q 24.90625 -1.421875 15.25 8.5625 
Q 5.609375 18.5625 5.609375 36.375 
Q 5.609375 54.25 15.25 64.234375 
Q 24.90625 74.21875 42 74.21875 
Q 49.125 74.21875 55.546875 72.453125 
Q 61.96875 70.703125 67.390625 67.28125 
L 67.390625 56.78125 
Q 61.921875 61.421875 55.765625 63.765625 
Q 49.609375 66.109375 42.828125 66.109375 
Q 29.4375 66.109375 22.71875 58.640625 
Q 16.015625 51.171875 16.015625 36.375 
Q 16.015625 21.625 22.71875 14.15625 
Q 29.4375 6.6875 42.828125 6.6875 
Q 48.046875 6.6875 52.140625 7.59375 
Q 56.25 8.5 59.515625 10.40625 
" id="DejaVuSans-47"/>
      <path d="M 19.671875 34.8125 
L 19.671875 8.109375 
L 35.5 8.109375 
Q 43.453125 8.109375 47.28125 11.40625 
Q 51.125 14.703125 51.125 21.484375 
Q 51.125 28.328125 47.28125 31.5625 
Q 43.453125 34.8125 35.5 34.8125 
z
M 19.671875 64.796875 
L 19.671875 42.828125 
L 34.28125 42.828125 
Q 41.5 42.828125 45.03125 45.53125 
Q 48.578125 48.25 48.578125 53.8125 
Q 48.578125 59.328125 45.03125 62.0625 
Q 41.5 64.796875 34.28125 64.796875 
z
M 9.8125 72.90625 
L 35.015625 72.90625 
Q 46.296875 72.90625 52.390625 68.21875 
Q 58.5 63.53125 58.5 54.890625 
Q 58.5 48.1875 55.375 44.234375 
Q 52.25 40.28125 46.1875 39.3125 
Q 53.46875 37.75 57.5 32.78125 
Q 61.53125 27.828125 61.53125 20.40625 
Q 61.53125 10.640625 54.890625 5.3125 
Q 48.25 0 35.984375 0 
L 9.8125 0 
z
" id="DejaVuSans-42"/>
     </defs>
     <g transform="translate(94.6 296.504312)scale(0.1 -0.1)">
      <use xlink:href="#DejaVuSans-58"/>
      <use x="68.505859" xlink:href="#DejaVuSans-47"/>
      <use x="145.996094" xlink:href="#DejaVuSans-42"/>
      <use x="214.583984" xlink:href="#DejaVuSans-43"/>
      <use x="284.408203" xlink:href="#DejaVuSans-6c"/>
      <use x="312.191406" xlink:href="#DejaVuSans-61"/>
      <use x="373.470703" xlink:href="#DejaVuSans-73"/>
      <use x="425.570312" xlink:href="#DejaVuSans-73"/>
      <use x="477.669922" xlink:href="#DejaVuSans-69"/>
      <use x="505.453125" xlink:href="#DejaVuSans-66"/>
      <use x="540.658203" xlink:href="#DejaVuSans-69"/>
      <use x="568.441406" xlink:href="#DejaVuSans-65"/>
      <use x="629.964844" xlink:href="#DejaVuSans-72"/>
     </g>
    </g>
   </g>
  </g>
 </g>
 <defs>
  <clipPath id="p15f571db19">
   <rect height="266.112" width="357.12" x="57.6" y="41.472"/>
  </clipPath>
 </defs>
</svg>
